<svg id="f5bc7bcc-af0d-429e-bc94-bed3db4f7538" data-name="レイヤー 1" xmlns="http://www.w3.org/2000/svg" width="1465.489" height="275.978" viewBox="0 0 1465.48926 275.97797"><defs><style>.\33 9beac84-ae1f-4d92-b2f6-078b067ac899{fill:#fff}.\33 bbb8c9b-9885-4b23-9882-8d7f5157edcd{fill:#dff2fb}.\37 281b1bd-a525-40a6-a394-88ac2cc9ee5b{fill:none;stroke:#b1dff5}</style></defs><title>cloud</title><path class="39beac84-ae1f-4d92-b2f6-078b067ac899" d="M412.63 214.832c0-16.147-43.309-29.415-98.626-30.88-4.32-20.748-46.131-37.622-97.08-37.622-44.29 0-81.674 14.148-93.529 30.456l-.22-.002c-40.433 0-73.475 14.22-75.813 28.55C19.522 209.754.5 218.651.5 228.911c0 14.658 38.85 26.541 86.769 26.541 5.823 0 11.511-.177 17.013-.511 11.037 4.82 25.888 8.024 42.236 8.024a128.482 128.482 0 0 0 27.101-2.782c18.67 6.555 44.733 10.995 73.577 10.995 50.741 0 92.892-12.12 101.279-28.055 37.823-4.86 64.154-15.7 64.154-28.291zm22.884-95.35a7.95 7.95 0 0 0 .235-1.88c0-8.093-12.434-14.656-27.77-14.656a42.781 42.781 0 0 0-17.875 3.73 71.254 71.254 0 0 0-19.831-2.573c-17.203 0-31.148 5.705-31.148 11.241 0 .092.013.184.021.276-17.747.006-32.13 5.889-32.13 11.598 0 5.713 14.399 11.599 32.16 11.599a80.879 80.879 0 0 0 15.097-1.357c6.099 2.591 15.625 4.443 26.338 4.443a80.923 80.923 0 0 0 23.095-3.007 103.781 103.781 0 0 0 18.957 1.643c19.828 0 35.902-4.874 35.902-10.889 0-4.64-9.573-8.6-23.051-10.168zM1398.7 61.358c-.058-18.01-31.882-32.607-71.134-32.607-4.266 0-8.438.207-12.498.576C1308.99 12.929 1280.128.5 1245.41.5c-33.433 0-61.44 13.064-68.89 27.697a265.918 265.918 0 0 0-34.953-2.27c-56.265 0-101.88 15.155-101.88 33.842 0 11.498 17.268 21.657 43.655 27.773-2.318 2.397-3.56 4.927-3.56 7.543 0 13.58 33.459 24.858 77.401 27.065 14.734 5.618 36.516 9.18 60.841 9.18 19.34 0 37.08-2.55 50.945-6.502a470.603 470.603 0 0 0 55.297 3.139c74.964 0 135.738-16.24 135.738-36.273 0-12.688-24.383-23.853-61.305-30.336zM1088.435 223.13c0-4.319-10.168-7.82-22.713-7.82-1.284 0-2.54.038-3.766.109-3.348-3.58-11.526-6.11-21.092-6.11-10.32 0-19.027 2.945-21.793 6.976a65.53 65.53 0 0 0-3.922-.119c-12.544 0-22.714 3.503-22.714 7.822 0 4.32 10.17 7.822 22.714 7.822 1.938 0 3.82-.084 5.615-.242a110.652 110.652 0 0 0 21.814 1.955c9.731 0 18.476-.998 24.516-2.586 11.905-.245 21.341-3.646 21.341-7.806z"/><path class="3bbb8c9b-9885-4b23-9882-8d7f5157edcd" d="M418.115 219.631c0-16.147-43.308-29.414-98.626-30.879-4.32-20.749-46.13-37.622-97.08-37.622-44.29 0-81.674 14.148-93.529 30.457-.073 0-.146-.003-.22-.003-40.433 0-73.474 14.22-75.813 28.55-27.839 4.42-46.862 13.317-46.862 23.576 0 14.659 38.85 26.543 86.77 26.543 5.823 0 11.51-.177 17.013-.512 11.037 4.82 25.888 8.025 42.236 8.025a128.474 128.474 0 0 0 27.103-2.783c18.669 6.555 44.732 10.995 73.574 10.995 50.742 0 92.892-12.12 101.279-28.055 37.824-4.859 64.155-15.7 64.155-28.292zm21.255-97.063a7.95 7.95 0 0 0 .236-1.88c0-8.093-12.433-14.656-27.77-14.656a42.782 42.782 0 0 0-17.875 3.73 71.263 71.263 0 0 0-19.831-2.573c-17.203 0-31.149 5.705-31.149 11.24 0 .093.014.185.022.277-17.748.006-32.129 5.889-32.129 11.597 0 5.713 14.397 11.6 32.159 11.6a80.88 80.88 0 0 0 15.097-1.357c6.1 2.591 15.626 4.443 26.339 4.443a80.916 80.916 0 0 0 23.094-3.007 103.78 103.78 0 0 0 18.957 1.643c19.829 0 35.902-4.875 35.902-10.889 0-4.64-9.572-8.6-23.051-10.168zm964.816-56.409c-.058-18.01-31.883-32.608-71.134-32.608-4.267 0-8.438.206-12.498.575-6.077-16.397-34.941-28.826-69.656-28.826-33.435 0-61.441 13.064-68.893 27.697a265.918 265.918 0 0 0-34.951-2.27c-56.265 0-101.88 15.156-101.88 33.842 0 11.498 17.268 21.656 43.654 27.773-2.318 2.397-3.56 4.927-3.56 7.543 0 13.58 33.46 24.858 77.402 27.065 14.734 5.618 36.517 9.18 60.842 9.18 19.338 0 37.078-2.55 50.942-6.502a470.592 470.592 0 0 0 55.298 3.14c74.965 0 135.737-16.242 135.737-36.274 0-12.688-24.383-23.852-61.303-30.335zM1092.722 226.56c0-4.32-10.17-7.822-22.715-7.822-1.284 0-2.54.038-3.766.109-3.348-3.58-11.527-6.11-21.092-6.11-10.32 0-19.027 2.946-21.792 6.977a65.527 65.527 0 0 0-3.922-.119c-12.543 0-22.713 3.502-22.713 7.821 0 4.32 10.17 7.822 22.713 7.822 1.938 0 3.818-.084 5.613-.241a110.645 110.645 0 0 0 21.816 1.955c9.731 0 18.477-.999 24.516-2.587 11.905-.245 21.342-3.646 21.342-7.805z"/><path class="7281b1bd-a525-40a6-a394-88ac2cc9ee5b" d="M412.63 214.832c0-16.147-43.309-29.415-98.626-30.88-4.32-20.748-46.131-37.622-97.08-37.622-44.29 0-81.674 14.148-93.529 30.456l-.22-.002c-40.433 0-73.475 14.22-75.813 28.55C19.522 209.754.5 218.651.5 228.911c0 14.658 38.85 26.541 86.769 26.541 5.823 0 11.511-.177 17.013-.511 11.037 4.82 25.888 8.024 42.236 8.024a128.482 128.482 0 0 0 27.101-2.782c18.67 6.555 44.733 10.995 73.577 10.995 50.741 0 92.892-12.12 101.279-28.055 37.823-4.86 64.154-15.7 64.154-28.291zm22.884-95.35a7.95 7.95 0 0 0 .235-1.88c0-8.093-12.434-14.656-27.77-14.656a42.781 42.781 0 0 0-17.875 3.73 71.254 71.254 0 0 0-19.831-2.573c-17.203 0-31.148 5.705-31.148 11.241 0 .092.013.184.021.276-17.747.006-32.13 5.889-32.13 11.598 0 5.713 14.399 11.599 32.16 11.599a80.879 80.879 0 0 0 15.097-1.357c6.099 2.591 15.625 4.443 26.338 4.443a80.923 80.923 0 0 0 23.095-3.007 103.781 103.781 0 0 0 18.957 1.643c19.828 0 35.902-4.874 35.902-10.889 0-4.64-9.573-8.6-23.051-10.168zM1398.7 61.358c-.058-18.01-31.882-32.607-71.134-32.607-4.266 0-8.438.207-12.498.576C1308.99 12.929 1280.128.5 1245.41.5c-33.433 0-61.44 13.064-68.89 27.697a265.918 265.918 0 0 0-34.953-2.27c-56.265 0-101.88 15.155-101.88 33.842 0 11.498 17.268 21.657 43.655 27.773-2.318 2.397-3.56 4.927-3.56 7.543 0 13.58 33.459 24.858 77.401 27.065 14.734 5.618 36.516 9.18 60.841 9.18 19.34 0 37.08-2.55 50.945-6.502a470.603 470.603 0 0 0 55.297 3.139c74.964 0 135.738-16.24 135.738-36.273 0-12.688-24.383-23.853-61.305-30.336zM1088.435 223.13c0-4.319-10.168-7.82-22.713-7.82-1.284 0-2.54.038-3.766.109-3.348-3.58-11.526-6.11-21.092-6.11-10.32 0-19.027 2.945-21.793 6.976a65.53 65.53 0 0 0-3.922-.119c-12.544 0-22.714 3.503-22.714 7.822 0 4.32 10.17 7.822 22.714 7.822 1.938 0 3.82-.084 5.615-.242a110.652 110.652 0 0 0 21.814 1.955c9.731 0 18.476-.998 24.516-2.586 11.905-.245 21.341-3.646 21.341-7.806z"/></svg>