<svg id="6e403f1c-84f7-495e-98c5-6974c9e042f0" data-name="レイヤー 1" xmlns="http://www.w3.org/2000/svg" width="137.318" height="159.576" viewBox="0 0 137.31772 159.57605"><defs><style>.\36 a1023b7-34ae-4990-8947-c9c50907191a{fill:#f29a63}.a86a47e5-8dce-488f-8a4f-d9b5d2e030cc{fill:#35a7d2}.bcc24617-ffb9-486b-a293-368ff160cb87{fill:#009fa8}.e4cff7ff-b163-46d7-98b9-e16576a22d0e{fill:#fdd000}.\38 f028300-5875-4f25-b478-a639417d05e1{fill:#ee86a1}.\31 695bde9-9629-4b08-8232-f9940ca99386{fill:#9fa0a0}.\39 26befa2-71d7-4ffd-826c-4e54d6fd378d{fill:#b4b4b4}</style></defs><title>ferris-wheel</title><g id="c92a91aa-46d5-476e-954d-610c64580ea3" data-name="cart"><circle class="6a1023b7-34ae-4990-8947-c9c50907191a" cx="105.986" cy="119.388" r="6.31" transform="rotate(-86.499 105.986 119.388)"/><circle class="6a1023b7-34ae-4990-8947-c9c50907191a" cx="111.853" cy="23.428" r="6.311" transform="rotate(-86.505 111.853 23.428)"/><circle class="a86a47e5-8dce-488f-8a4f-d9b5d2e030cc" cx="86.484" cy="129.113" r="6.311" transform="rotate(-86.491 86.484 129.113)"/><circle class="bcc24617-ffb9-486b-a293-368ff160cb87" cx="120.987" cy="103.58" r="6.311" transform="rotate(-86.496 120.987 103.58)"/><circle class="e4cff7ff-b163-46d7-98b9-e16576a22d0e" cx="129.676" cy="83.594" r="6.311" transform="rotate(-86.5 129.676 83.594)"/><circle class="8f028300-5875-4f25-b478-a639417d05e1" cx="131.006" cy="61.842" r="6.312" transform="rotate(-86.505 131.006 61.842)"/><circle class="a86a47e5-8dce-488f-8a4f-d9b5d2e030cc" cx="124.816" cy="40.945" r="6.311" transform="rotate(-86.496 124.816 40.945)"/><circle class="bcc24617-ffb9-486b-a293-368ff160cb87" cx="93.679" cy="11.398" r="6.312" transform="rotate(-86.501 93.679 11.398)"/><circle class="a86a47e5-8dce-488f-8a4f-d9b5d2e030cc" cx="50.837" cy="8.779" r="6.311" transform="rotate(-86.5 50.837 8.779)"/><circle class="bcc24617-ffb9-486b-a293-368ff160cb87" cx="16.332" cy="34.312" r="6.31" transform="rotate(-86.486 16.332 34.312)"/><path class="6a1023b7-34ae-4990-8947-c9c50907191a" d="M31.716 12.204a6.312 6.312 0 1 0 5.915 6.685 6.319 6.319 0 0 0-5.915-6.685z"/><circle class="e4cff7ff-b163-46d7-98b9-e16576a22d0e" cx="7.64" cy="54.298" r="6.31" transform="rotate(-86.495 7.64 54.298)"/><circle class="8f028300-5875-4f25-b478-a639417d05e1" cx="6.312" cy="76.05" r="6.312" transform="rotate(-86.492 6.312 76.05)"/><circle class="a86a47e5-8dce-488f-8a4f-d9b5d2e030cc" cx="12.501" cy="96.946" r="6.311" transform="rotate(-86.5 12.5 96.946)"/><circle class="bcc24617-ffb9-486b-a293-368ff160cb87" cx="43.638" cy="126.495" r="6.311" transform="rotate(-86.492 43.638 126.495)"/><circle class="6a1023b7-34ae-4990-8947-c9c50907191a" cx="25.465" cy="114.466" r="6.31" transform="rotate(-86.499 25.465 114.466)"/><circle class="8f028300-5875-4f25-b478-a639417d05e1" cx="64.83" cy="131.581" r="6.31" transform="rotate(-86.504 64.83 131.58)"/><circle class="8f028300-5875-4f25-b478-a639417d05e1" cx="72.489" cy="6.311" r="6.311" transform="rotate(-86.491 72.489 6.311)"/><path class="1695bde9-9629-4b08-8232-f9940ca99386" d="M78.623 46.906a.38.38 0 0 1-.351-.32L72.306 9.359 61.848 45.582a.38.38 0 0 1-.47.26.376.376 0 0 1-.262-.469l10.93-37.86a.382.382 0 0 1 .389-.272.376.376 0 0 1 .353.318l6.236 38.909a.378.378 0 0 1-.318.434.237.237 0 0 1-.083.004z"/><path class="1695bde9-9629-4b08-8232-f9940ca99386" d="M53.865 49.727a.383.383 0 0 1-.357-.352L50.83 10.059a.381.381 0 0 1 .714-.208l19.167 34.43a.38.38 0 0 1-.664.366l-18.34-32.94 2.56 37.615a.381.381 0 0 1-.353.406h-.05z"/><path class="1695bde9-9629-4b08-8232-f9940ca99386" d="M48.055 55.963a.38.38 0 0 1-.325-.227L31.769 19.71a.38.38 0 0 1 .596-.44L62.15 45.064a.38.38 0 1 1-.497.575L33.152 20.958l15.271 34.473a.376.376 0 0 1-.194.5.358.358 0 0 1-.174.032z"/><path class="1695bde9-9629-4b08-8232-f9940ca99386" d="M44.725 63.81a.39.39 0 0 1-.251-.118L17.153 35.298a.38.38 0 0 1 .41-.62l36.81 14.055a.379.379 0 1 1-.267.71L18.88 35.994l26.142 27.17a.381.381 0 0 1-.297.644z"/><path class="1695bde9-9629-4b08-8232-f9940ca99386" d="M44.28 72.32a.394.394 0 0 1-.144-.037L8.748 54.945a.383.383 0 0 1-.2-.43.379.379 0 0 1 .374-.292l39.402.616a.371.371 0 0 1 .375.386.38.38 0 0 1-.386.374l-37.7-.59L44.47 71.6a.38.38 0 0 1-.19.72z"/><path class="1695bde9-9629-4b08-8232-f9940ca99386" d="M46.774 80.47a.045.045 0 0 1-.017-.001l-39.183-4.19a.38.38 0 0 1-.083-.738l37.234-12.896a.378.378 0 0 1 .485.234.383.383 0 0 1-.233.485L9.347 75.705l37.49 4.006a.381.381 0 0 1-.063.76z"/><path class="1695bde9-9629-4b08-8232-f9940ca99386" d="M13.653 96.741a.385.385 0 0 1-.319-.212.38.38 0 0 1 .102-.464L44.015 71.21a.381.381 0 0 1 .48.592l-29.26 23.782 36.601-9.057a.38.38 0 0 1 .183.739L13.765 96.73a.36.36 0 0 1-.112.011z"/><path class="1695bde9-9629-4b08-8232-f9940ca99386" d="M26.345 113.893a.373.373 0 0 1-.238-.102.387.387 0 0 1-.066-.473l20.236-33.815a.38.38 0 0 1 .651.391l-19.36 32.356 31.297-21.028a.38.38 0 1 1 .422.63L26.58 113.828a.384.384 0 0 1-.235.065z"/><path class="1695bde9-9629-4b08-8232-f9940ca99386" d="M44.139 125.672a.5.5 0 0 1-.128-.033.38.38 0 0 1-.223-.42l7.448-38.694a.38.38 0 1 1 .747.142l-7.123 37.025 22.215-30.464a.38.38 0 1 1 .613.45l-23.219 31.835a.38.38 0 0 1-.33.159z"/><path class="1695bde9-9629-4b08-8232-f9940ca99386" d="M64.886 130.652a.385.385 0 0 1-.353-.319L58.3 91.423a.382.382 0 0 1 .754-.12l5.965 37.23L75.475 92.31a.38.38 0 0 1 .731.208l-10.93 37.86a.38.38 0 0 1-.39.275z"/><path class="1695bde9-9629-4b08-8232-f9940ca99386" d="M86.09 128.236a.383.383 0 0 1-.31-.196L66.612 93.611a.38.38 0 0 1 .665-.369l18.341 32.942-2.562-37.617a.377.377 0 0 1 .35-.402.372.372 0 0 1 .406.352l2.681 39.313a.384.384 0 0 1-.272.392.472.472 0 0 1-.13.014z"/><path class="1695bde9-9629-4b08-8232-f9940ca99386" d="M105.184 118.716a.384.384 0 0 1-.224-.097L75.173 92.824a.38.38 0 1 1 .497-.573l28.5 24.685-15.272-34.473a.38.38 0 0 1 .694-.312l15.963 36.03a.372.372 0 0 1-.12.458.379.379 0 0 1-.251.077z"/><path class="1695bde9-9629-4b08-8232-f9940ca99386" d="M119.872 103.236a.481.481 0 0 1-.112-.024L82.946 89.158a.38.38 0 0 1 .272-.71l35.226 13.446L92.3 74.726a.38.38 0 0 1 .549-.527l27.321 28.395a.376.376 0 0 1 .044.472.389.389 0 0 1-.342.17z"/><path class="1695bde9-9629-4b08-8232-f9940ca99386" d="M88.98 83.052a.38.38 0 0 1 .031-.76l37.701.587-33.857-16.587a.38.38 0 0 1 .33-.685l35.39 17.34a.384.384 0 0 1 .2.43.378.378 0 0 1-.375.29L89 83.055l-.02-.002z"/><path class="1695bde9-9629-4b08-8232-f9940ca99386" d="M92.45 75.267a.38.38 0 0 1-.102-.737l35.629-12.342-37.491-4.01a.378.378 0 0 1-.335-.42.383.383 0 0 1 .415-.336l39.182 4.19a.38.38 0 0 1 .084.735l-37.235 12.9a.365.365 0 0 1-.147.02z"/><path class="1695bde9-9629-4b08-8232-f9940ca99386" d="M93.044 66.766a.39.39 0 0 1-.27-.14.382.382 0 0 1 .054-.535l29.26-23.783-36.6 9.055a.381.381 0 0 1-.182-.74l38.249-9.463a.38.38 0 0 1 .332.664L93.309 66.68a.396.396 0 0 1-.265.086z"/><path class="1695bde9-9629-4b08-8232-f9940ca99386" d="M90.699 58.57a.337.337 0 0 1-.17-.052.38.38 0 0 1-.134-.52l19.36-32.357-31.297 21.028a.378.378 0 0 1-.526-.103.385.385 0 0 1 .102-.53l32.71-21.976a.381.381 0 0 1 .474.042.386.386 0 0 1 .064.471L91.048 58.387a.376.376 0 0 1-.35.183z"/><path class="1695bde9-9629-4b08-8232-f9940ca99386" d="M85.692 51.676c-.019-.001-.034-.004-.05-.006a.378.378 0 0 1-.3-.446l7.122-37.026L70.25 44.662a.38.38 0 0 1-.613-.451l23.219-31.834a.381.381 0 0 1 .458-.126.387.387 0 0 1 .223.42L86.09 51.368a.383.383 0 0 1-.397.309z"/><path class="1695bde9-9629-4b08-8232-f9940ca99386" d="M75.537 62.336a.385.385 0 0 1-.34-.27l-5.08-16.877-7.102 16.13a.38.38 0 0 1-.696-.307l7.515-17.073a.387.387 0 0 1 .372-.226.377.377 0 0 1 .34.27l5.38 17.86a.38.38 0 0 1-.255.476.492.492 0 0 1-.134.017z"/><path class="1695bde9-9629-4b08-8232-f9940ca99386" d="M60.345 64.064a.38.38 0 0 1-.355-.403l1.223-18.615a.38.38 0 0 1 .685-.2l11.16 14.942a.382.382 0 0 1-.61.458L61.905 46.125l-1.156 17.586a.381.381 0 0 1-.403.353z"/><path class="1695bde9-9629-4b08-8232-f9940ca99386" d="M59.044 67.219a.377.377 0 0 1-.34-.275l-5.218-17.906a.388.388 0 0 1 .14-.413.384.384 0 0 1 .435-.012l15.601 10.223a.388.388 0 0 1 .112.53.38.38 0 0 1-.53.106l-14.738-9.658 4.929 16.92a.385.385 0 0 1-.26.472.493.493 0 0 1-.13.013z"/><path class="1695bde9-9629-4b08-8232-f9940ca99386" d="M58.903 70.628a.388.388 0 0 1-.285-.155L47.593 55.429a.377.377 0 0 1-.009-.436.373.373 0 0 1 .405-.158l18.154 4.27a.378.378 0 0 1 .284.455.382.382 0 0 1-.457.286L48.817 55.81l10.419 14.213a.38.38 0 0 1-.085.53.362.362 0 0 1-.248.075z"/><path class="1695bde9-9629-4b08-8232-f9940ca99386" d="M59.936 73.879a.369.369 0 0 1-.189-.064L44.241 63.45a.382.382 0 0 1-.158-.406.377.377 0 0 1 .324-.288l18.525-2.196a.38.38 0 0 1 .089.755L45.52 63.39l14.65 9.793a.38.38 0 0 1-.234.696z"/><path class="1695bde9-9629-4b08-8232-f9940ca99386" d="M62.018 76.581a.3.3 0 0 1-.067-.01l-18.118-4.437a.38.38 0 0 1-.286-.328.371.371 0 0 1 .206-.38l16.655-8.4a.38.38 0 0 1 .512.168.387.387 0 0 1-.17.513l-15.733 7.936 17.112 4.189a.38.38 0 0 1-.111.749z"/><path class="1695bde9-9629-4b08-8232-f9940ca99386" d="M46.357 80.434a.383.383 0 0 1-.254-.642l12.78-13.586a.38.38 0 1 1 .552.522L47.364 79.565 64.88 77.65a.38.38 0 0 1 .083.756L46.42 80.434a.34.34 0 0 1-.063 0z"/><path class="1695bde9-9629-4b08-8232-f9940ca99386" d="M51.5 87.385a.357.357 0 0 1-.239-.104.38.38 0 0 1-.086-.427l7.36-17.136a.38.38 0 1 1 .698.299l-6.955 16.192 15.808-7.79a.38.38 0 0 1 .336.683l-16.73 8.246a.387.387 0 0 1-.193.037z"/><path class="1695bde9-9629-4b08-8232-f9940ca99386" d="M58.711 92.16a.386.386 0 0 1-.358-.402l1.055-18.622a.38.38 0 0 1 .4-.36h.004a.382.382 0 0 1 .356.4l-.997 17.593L71.36 78.045a.38.38 0 1 1 .55.525l-12.9 13.473a.384.384 0 0 1-.298.116z"/><path class="1695bde9-9629-4b08-8232-f9940ca99386" d="M67.121 94.179a.378.378 0 0 1-.342-.27l-5.38-17.864a.38.38 0 0 1 .728-.217l5.083 16.873 7.099-16.128a.38.38 0 0 1 .695.306L67.49 93.953a.387.387 0 0 1-.369.226z"/><path class="1695bde9-9629-4b08-8232-f9940ca99386" d="M75.71 93.198a.385.385 0 0 1-.282-.152L64.267 78.103a.38.38 0 0 1 .61-.457l10.546 14.117 1.154-17.58a.403.403 0 0 1 .403-.354.377.377 0 0 1 .354.403l-1.221 18.612a.382.382 0 0 1-.272.34.424.424 0 0 1-.13.014z"/><path class="1695bde9-9629-4b08-8232-f9940ca99386" d="M83.45 89.339a.401.401 0 0 1-.188-.06L67.663 79.055a.38.38 0 0 1 .415-.636l14.74 9.658-4.929-16.919a.381.381 0 0 1 .732-.21l5.217 17.905a.39.39 0 0 1-.14.413.371.371 0 0 1-.248.073z"/><path class="1695bde9-9629-4b08-8232-f9940ca99386" d="M89.4 83.068a.324.324 0 0 1-.064-.01l-18.155-4.272a.379.379 0 0 1-.284-.457.383.383 0 0 1 .46-.282l17.15 4.035-10.416-14.21a.38.38 0 1 1 .612-.454L89.73 82.464a.377.377 0 0 1 .011.434.386.386 0 0 1-.341.17z"/><path class="1695bde9-9629-4b08-8232-f9940ca99386" d="M74.325 77.335a.38.38 0 0 1-.019-.758l17.497-2.073-14.648-9.793a.38.38 0 0 1 .421-.633l15.506 10.365a.379.379 0 0 1-.168.693l-18.52 2.192a.19.19 0 0 1-.069.007z"/><path class="1695bde9-9629-4b08-8232-f9940ca99386" d="M76.723 74.906a.384.384 0 0 1-.32-.209.38.38 0 0 1 .17-.509l15.735-7.936-17.114-4.192a.38.38 0 1 1 .18-.738L93.49 65.76a.378.378 0 0 1 .288.325.383.383 0 0 1-.205.384l-16.656 8.395a.351.351 0 0 1-.193.042z"/><path class="1695bde9-9629-4b08-8232-f9940ca99386" d="M78.142 71.805a.37.37 0 0 1-.237-.104.378.378 0 0 1-.017-.537l12.071-12.838-17.513 1.92a.384.384 0 0 1-.42-.342.379.379 0 0 1 .336-.418l18.54-2.026a.378.378 0 0 1 .317.638L78.441 71.685a.365.365 0 0 1-.3.12z"/><path class="1695bde9-9629-4b08-8232-f9940ca99386" d="M78.417 68.405a.317.317 0 0 1-.125-.03.38.38 0 0 1-.2-.5l6.953-16.191-15.804 7.788a.379.379 0 1 1-.335-.68l16.726-8.245a.38.38 0 0 1 .518.491l-7.36 17.139a.376.376 0 0 1-.373.228z"/><path class="1695bde9-9629-4b08-8232-f9940ca99386" d="M77.512 65.114a.378.378 0 0 1-.355-.398l.995-17.593-12.186 12.725a.38.38 0 0 1-.55-.527l12.899-13.47a.383.383 0 0 1 .426-.086.378.378 0 0 1 .228.37l-1.053 18.623a.38.38 0 0 1-.401.356z"/><path class="1695bde9-9629-4b08-8232-f9940ca99386" d="M64.831 131.581a.506.506 0 0 1-.473-.536l7.596-124.26a.507.507 0 0 1 1.012.062l-7.598 124.26a.504.504 0 0 1-.537.474z"/><path class="1695bde9-9629-4b08-8232-f9940ca99386" d="M86.313 129.134a.502.502 0 0 1-.456-.363L50.495 9.408a.507.507 0 1 1 .972-.289l35.36 119.365a.507.507 0 0 1-.34.631.545.545 0 0 1-.174.019z"/><path class="1695bde9-9629-4b08-8232-f9940ca99386" d="M105.657 119.487a.51.51 0 0 1-.377-.205L31.23 19.21a.505.505 0 1 1 .813-.602l74.054 100.072a.508.508 0 0 1-.44.807z"/><path class="1695bde9-9629-4b08-8232-f9940ca99386" d="M120.536 103.806a.498.498 0 0 1-.248-.083L16.477 35.017a.508.508 0 1 1 .56-.85l103.81 68.71a.507.507 0 0 1-.31.929z"/><path class="1695bde9-9629-4b08-8232-f9940ca99386" d="M129.157 83.982a.48.48 0 0 1-.088-.012L8.017 54.91a.507.507 0 1 1 .24-.987l121.049 29.06a.507.507 0 0 1-.15 1z"/><path class="1695bde9-9629-4b08-8232-f9940ca99386" d="M6.785 76.499a.507.507 0 0 1-.025-1.01l123.69-14.097a.507.507 0 0 1 .114 1.008L6.874 76.495a.394.394 0 0 1-.089.004z"/><path class="1695bde9-9629-4b08-8232-f9940ca99386" d="M12.927 97.226a.508.508 0 0 1-.2-.961l111.415-55.547a.507.507 0 0 1 .453.907L13.182 97.173a.476.476 0 0 1-.255.053z"/><path class="1695bde9-9629-4b08-8232-f9940ca99386" d="M25.784 114.604a.51.51 0 0 1-.318-.14.505.505 0 0 1-.018-.715l85.691-90.304a.507.507 0 1 1 .736.697l-85.692 90.304a.513.513 0 0 1-.399.158z"/><path class="1695bde9-9629-4b08-8232-f9940ca99386" d="M43.81 126.533a.505.505 0 0 1-.434-.709l49.64-114.163a.507.507 0 0 1 .932.404l-49.64 114.166a.506.506 0 0 1-.498.302z"/><path class="1695bde9-9629-4b08-8232-f9940ca99386" d="M65.232 125.002a56.16 56.16 0 1 1 59.484-52.628 56.227 56.227 0 0 1-59.484 52.628zM71.998 14.41a54.638 54.638 0 1 0 51.2 57.872 54.697 54.697 0 0 0-51.2-57.872z"/><path class="1695bde9-9629-4b08-8232-f9940ca99386" d="M66.162 109.815a40.946 40.946 0 1 1 43.37-38.37 40.995 40.995 0 0 1-43.37 38.37zm4.906-80.22a39.425 39.425 0 1 0 36.944 41.756 39.468 39.468 0 0 0-36.944-41.756z"/><path class="1695bde9-9629-4b08-8232-f9940ca99386" d="M67.091 94.63a25.733 25.733 0 1 1 27.254-24.114A25.765 25.765 0 0 1 67.091 94.63zm3.049-49.85a24.21 24.21 0 1 0 22.686 25.644A24.237 24.237 0 0 0 70.14 44.78z"/><path class="1695bde9-9629-4b08-8232-f9940ca99386" d="M68.02 79.444a10.518 10.518 0 1 1 11.14-9.858 10.528 10.528 0 0 1-11.14 9.858zm1.192-19.477a8.996 8.996 0 1 0 8.43 9.527 9.004 9.004 0 0 0-8.43-9.527z"/></g><path class="926befa2-71d7-4ffd-826c-4e54d6fd378d" d="M70.174 67.213l-2.73-1.345L23.6 154.725l3.293.201 43.281-87.713z"/><path class="926befa2-71d7-4ffd-826c-4e54d6fd378d" transform="rotate(-86.5 65.991 112.605)" d="M21.364 111.084h89.255v3.041H21.364z"/><path class="926befa2-71d7-4ffd-826c-4e54d6fd378d" d="M70.245 66.039l-2.873 1.003 32.27 92.333 3.291.201-32.688-93.537z"/><path class="926befa2-71d7-4ffd-826c-4e54d6fd378d" d="M68.31 74.677a5.742 5.742 0 1 1 6.082-5.382 5.751 5.751 0 0 1-6.082 5.382z"/></svg>