<svg xmlns="http://www.w3.org/2000/svg" width="121.016" height="83.668" viewBox="0 0 121.0157 83.66789"><defs><style>.\31 0a1cd36-158d-4b60-92e4-eb43a32c480e{fill:none}.db0e7339-debc-4d7c-b9f1-50ecd947acc9{isolation:isolate}.bb0007a4-caf0-4463-8dea-61d4264305ec{fill:#868585}.\34 ebc8616-64da-4e87-a005-bdbd7308b147{fill:#cf000e}.d628cdf1-0d0e-4a99-bdf8-7406124d966b{fill:#201513}.\35 cd58b65-6755-4fec-8ec0-e491ffeda7a9{fill:#e6e6e6}.\30 bf2de84-ad7b-44a3-9b12-1bd9129bb6cf,.\35 cd58b65-6755-4fec-8ec0-e491ffeda7a9{mix-blend-mode:multiply}.acbbf12e-dc09-4cc4-9331-c201356fcb9e{fill:#f1bf70}.\34 3dee6cb-29e2-48ee-97c5-9eb82448d8a8{fill:#fff}.\35 1351bc5-8fa4-4a8d-973a-27b99489deab{fill:#200f0d}.\30 bf2de84-ad7b-44a3-9b12-1bd9129bb6cf{fill:#dcdddd}.de385976-92f4-4b2f-8183-3c3268042c7e{fill:#006c3b}.\39 b9a08a5-d6ba-48fb-bb04-3a63fc81512b{fill:#9fa0a0}.\35 0c3b9b7-7a30-4420-a7e8-296bfc2e059f{clip-path:url(#8726f71b-ffb7-4889-bf83-4ed1362908dd)}</style><clipPath id="8726f71b-ffb7-4889-bf83-4ed1362908dd"><path class="10a1cd36-158d-4b60-92e4-eb43a32c480e" d="M114.758 30.061c-1.394-1.995-1.724-5.79-1.752-9.192-.025-3.395.451-8.89.747-12.135-1.731.7-4.347 1.72-7.294 2.693-2.97.983-3.95.654-8.82.396-3.622-.191-67.446-5.214-71.053-5.592-4.853-.506-5.871-.337-8.65-1.77A119.117 119.117 0 0 1 11.15.656c-.211 3.254-.603 8.757-1.163 12.108-.553 3.35-1.475 7.052-3.165 8.804-1.69 1.753-2.931 2.62-6.822 3.069 1.612 1.886 6.667 4.758 9.611 5.702 2.51.805 6.918 1.047 12.081 1.453 2.221.173 74.559 5.867 76.778 6.043 5.166.406 9.558.856 12.16.454 3.058-.473 8.5-2.518 10.386-4.128-3.774-1.053-4.866-2.102-6.258-4.1z"/></clipPath></defs><title>kaminarimon</title><g class="db0e7339-debc-4d7c-b9f1-50ecd947acc9"><g id="c1de19c1-fe72-4f60-9a8a-af56dcf7198c" data-name="レイヤー 1"><path class="bb0007a4-caf0-4463-8dea-61d4264305ec" transform="rotate(4.497 57.96 59.789)" d="M40.012 42.03h35.897v35.518H40.012z"/><path class="4ebc8616-64da-4e87-a005-bdbd7308b147" transform="rotate(4.482 72.492 59.773)" d="M69.962 44.321h5.06v30.905h-5.06z"/><path class="d628cdf1-0d0e-4a99-bdf8-7406124d966b" transform="rotate(4.499 71.088 77.61)" d="M68.412 75.081h5.352v5.06h-5.352z"/><path class="4ebc8616-64da-4e87-a005-bdbd7308b147" transform="rotate(4.503 43.92 57.525)" d="M41.389 42.073h5.062v30.905h-5.062z"/><path class="5cd58b65-6755-4fec-8ec0-e491ffeda7a9" transform="rotate(4.482 72.492 59.773)" d="M69.962 44.321h5.06v30.905h-5.06z"/><path class="5cd58b65-6755-4fec-8ec0-e491ffeda7a9" transform="rotate(4.503 43.92 57.525)" d="M41.389 42.073h5.062v30.905h-5.062z"/><path class="d628cdf1-0d0e-4a99-bdf8-7406124d966b" transform="rotate(4.5 42.515 75.361)" d="M39.839 72.831h5.353v5.061h-5.353z"/><path class="acbbf12e-dc09-4cc4-9331-c201356fcb9e" d="M56.458 62.506h2.34a1.173 1.173 0 0 1 1.173 1.173v4.639a1.173 1.173 0 0 1-1.174 1.173H56.46a1.174 1.174 0 0 1-1.174-1.174V63.68a1.173 1.173 0 0 1 1.173-1.174z" transform="rotate(-85.494 57.628 65.999)"/><path class="4ebc8616-64da-4e87-a005-bdbd7308b147" d="M68.55 53.195c.513-7.274-3.804-8.817-9.187-9.242-5.384-.423-9.89.427-10.52 7.693-.004.038-.01.072-.013.108v.038l-.42 5.287v.04c-.005.036-.004.073-.006.11-.513 7.274 3.802 8.818 9.188 9.24 5.384.425 9.886-.425 10.518-7.692.003-.036.01-.071.014-.107l.001-.038.418-5.288.003-.038c.003-.037.002-.074.005-.11z"/><path class="43dee6cb-29e2-48ee-97c5-9eb82448d8a8" d="M53.398 64.192a1.95 1.95 0 0 1-.757-.248c-.173-.093-1.256-.839-1.251-1.181a.258.258 0 0 1 .125-.198.467.467 0 0 1 .23-.048 1.866 1.866 0 0 1 .034-.36 14.02 14.02 0 0 0 .164-1.74c.007-.27.055-1.014.1-1.732.05-.75.102-1.525.1-1.707v-.076a.278.278 0 0 1-.091-.103l-.009-.014a.46.46 0 0 1-.132-.073c-.289-.23.091-.884.137-.96a3.41 3.41 0 0 1 .386-.43 5.868 5.868 0 0 0 .44-.488c.206-.304.519-.35.679-.135a3.295 3.295 0 0 0 .595.339 14.348 14.348 0 0 0 1.909.135 2.001 2.001 0 0 0 .37-.2 1.544 1.544 0 0 1 .259-.142c.248-.104.484-.028.832.282a4.97 4.97 0 0 1 .707.715.776.776 0 0 1 .076-.071l.047-.042c.658-.569.996-.78 1.207-.764l.029.198.017-.194.054.004a.451.451 0 0 1 .33.173l.042.043c.047.047.097.1.147.155a3.889 3.889 0 0 0 1.175.241c.261.019.516.028.749.034l.106.004a.584.584 0 0 1 .701-.367l.07.013a1.232 1.232 0 0 1 .548.192 2.896 2.896 0 0 1 .996 1.197l.04.08a2.211 2.211 0 0 1-.06 1.584.275.275 0 0 1-.256.141c-.002.027-.034.187-.053.464-.024.288-.149 2.951-.147 3.63.001.11.005.215.007.318a1.673 1.673 0 0 1-.382 1.429 2.567 2.567 0 0 1-1.428.522.645.645 0 0 1-.142.005 1.283 1.283 0 0 1-.454-.164c-.103-.05-.235-.117-.413-.197a13.814 13.814 0 0 0-1.697-.47 8.2 8.2 0 0 1-1.697-.499.745.745 0 0 1-.424-.692.253.253 0 0 1 .186-.22.55.55 0 0 1 .174-.008 6.171 6.171 0 0 1 .91.185 21.906 21.906 0 0 0 2.325.272c.31.026.498.036.601.04a13.558 13.558 0 0 0 .205-1.698c.014-.198.034-.507.06-.869a16.695 16.695 0 0 0-2.174-.135.977.977 0 0 1-.565.15.952.952 0 0 1-.624-.348 5.16 5.16 0 0 1-.443-.611l-.078-.118a5.487 5.487 0 0 1-.896.71 1.17 1.17 0 0 1-.95.106.449.449 0 0 1-.134-.07c-.059-.042-.139-.094-.58-.13a10.568 10.568 0 0 0-.791-.027 38.505 38.505 0 0 0-.422-.006c-.024.576-.043 1.05-.047 1.26-.01.434-.024.944-.038 1.392-.009.307-.017.586-.018.792-.012.424-.097.594-.342.676l-.04.012a.673.673 0 0 1-.334.042zm-1.449-1.263a5.08 5.08 0 0 0 .878.676 1.629 1.629 0 0 0 .605.202.478.478 0 0 0 .136-.006.495.495 0 0 1 .082-.033c.034-.011.068-.067.075-.314.005-.207.011-.488.021-.798.014-.447.03-.953.037-1.387.003-.233.028-.792.058-1.458a.193.193 0 0 1 .196-.186c.166.003.363.009.606.009.329.004.604.014.82.032a1.36 1.36 0 0 1 .766.195.157.157 0 0 0 .055.029.367.367 0 0 0 .148.04.915.915 0 0 0 .48-.13 5.178 5.178 0 0 0 .852-.69c-.017.005-.031-.058-.043-.1a.738.738 0 0 1-.04-.254c.005-.05.01-.287.016-.583.014-.722.03-1.335.05-1.486a.687.687 0 0 1 .184-.417l.013-.04a1.223 1.223 0 0 1 .004-.138 5.379 5.379 0 0 0-.69-.69c-.205-.185-.317-.258-.427-.213a1.14 1.14 0 0 0-.194.113 2.499 2.499 0 0 1-.475.247.188.188 0 0 1-.086.012 14.027 14.027 0 0 1-2.022-.146.293.293 0 0 1-.046-.014 3.565 3.565 0 0 1-.74-.44.653.653 0 0 0-.074.09 5.654 5.654 0 0 1-.481.539 4.578 4.578 0 0 0-.333.364 1.716 1.716 0 0 0-.188.465.333.333 0 0 1 .176.157c.165.05.164.237.165.403-.002.194-.05.939-.1 1.732a62.362 62.362 0 0 0-.1 1.716 14.367 14.367 0 0 1-.177 1.823 1.335 1.335 0 0 0-.023.275c-.002.154-.003.274-.096.359a.285.285 0 0 1-.088.045zm5.888.037a.713.713 0 0 0 .208.196 10.448 10.448 0 0 0 1.582.445 13.356 13.356 0 0 1 1.765.498c.18.081.317.147.419.197.236.116.287.137.381.126a2.239 2.239 0 0 0 1.22-.428c.276-.244.267-.615.25-1.127 0-.106-.006-.216-.007-.328-.003-.674.12-3.305.148-3.663.023-.296.061-.778.39-.82a2.034 2.034 0 0 0 .02-1.165l-.041-.08a2.513 2.513 0 0 0-.878-1.058.893.893 0 0 0-.383-.12l-.077-.014c-.164-.031-.243.046-.266.115a1.72 1.72 0 0 0-.023.107.192.192 0 0 1-.197.155l-.263-.009a17.135 17.135 0 0 1-.765-.035 3.983 3.983 0 0 1-1.341-.292.222.222 0 0 1-.066-.046 7.857 7.857 0 0 0-.165-.176l-.042-.044a.367.367 0 0 0-.061-.054l-.003-.195-.038.193-.082-.007c-.042.006-.24.082-.922.67l-.047.043a.182.182 0 0 0-.047.257.71.71 0 0 0 .047.082.497.497 0 0 1 .07.391 5.74 5.74 0 0 0-.01.42 4.796 4.796 0 0 1-.157 1.726l-.035.054a.71.71 0 0 0-.122.213l.094.146a5.71 5.71 0 0 0 .4.562.531.531 0 0 0 .732.114.237.237 0 0 1 .11-.038 17.047 17.047 0 0 1 2.473.16.195.195 0 0 1 .164.206c-.029.443-.055.822-.072 1.055a5.844 5.844 0 0 1-.285 1.954.213.213 0 0 1-.044.051c-.07.06-.085.072-.892.008a22.37 22.37 0 0 1-2.392-.284 7.414 7.414 0 0 0-.75-.161zm.362-6.413a.331.331 0 0 0-.07.186c-.017.144-.033.925-.043 1.44-.008.31-.014.556-.017.607-.002.004 0 .01.003.019a.329.329 0 0 1 .027-.041l.037-.054a9.292 9.292 0 0 0 .089-1.515c0-.209.006-.373.01-.445a.764.764 0 0 0 .004-.138c-.014-.018-.026-.039-.04-.06zm-4.127 2.24a.19.19 0 0 1-.127-.059.206.206 0 0 1-.05-.142l.017-.393a.198.198 0 0 1 .196-.184c.406.004.859.013 1.266.018l.664.01a.181.181 0 0 1 .14.066.193.193 0 0 1 .05.147 7.668 7.668 0 0 1-.057.447.193.193 0 0 1-.2.165c-.505-.024-1.281-.054-1.89-.073l-.009-.001zm.22-.389v.01c.501.019 1.08.038 1.522.058l.004-.043-.449-.008c-.345-.005-.724-.01-1.077-.017zm6.154.687l-.221-.018a.19.19 0 0 1-.131-.07.187.187 0 0 1-.045-.14l.033-.363a.215.215 0 0 1 .205-.2c.522.025 1.36.074 1.91.125a.19.19 0 0 1 .176.202l-.02.388a.192.192 0 0 1-.203.18c-.418-.017-1.14-.06-1.704-.104zm.007-.387h.026c.48.038 1.075.074 1.496.096v-.006c-.468-.044-1.07-.072-1.522-.099v.01zm-6.3-1.469a.204.204 0 0 1-.13-.061.201.201 0 0 1-.051-.143c.012-.227.024-.423.034-.577a.195.195 0 0 1 .202-.182c.496.019 1.15.07 1.399.09.127.01.304.022.485.03a.19.19 0 0 1 .183.187c.004.147.008.317.007.504a.194.194 0 0 1-.06.14.199.199 0 0 1-.138.054l-.38-.01c-.434-.01-.985-.024-1.54-.03l-.012-.002zm.232-.567c-.006.06-.009.12-.012.182l1.342.029.179.004a2.147 2.147 0 0 1-.001-.113c-.118-.01-.229-.014-.317-.021-.215-.018-.74-.059-1.191-.081zm6.858.985a16.895 16.895 0 0 1-.895-.09.196.196 0 0 1-.167-.21l.044-.508a.197.197 0 0 1 .209-.177l.046.005c.546.043 1.337.123 1.8.186a.193.193 0 0 1 .168.197c-.003.12-.007.279-.017.472a.195.195 0 0 1-.203.186c-.262-.013-.62-.033-.985-.06zm-.659-.453c.473.056 1.043.094 1.467.117.002-.035.004-.067.004-.096-.418-.051-1-.112-1.46-.15l-.011.13z"/><path class="43dee6cb-29e2-48ee-97c5-9eb82448d8a8" d="M53.398 64.192a1.95 1.95 0 0 1-.757-.248c-.173-.093-1.256-.839-1.251-1.181a.258.258 0 0 1 .125-.198.467.467 0 0 1 .23-.048 1.866 1.866 0 0 1 .034-.36 14.02 14.02 0 0 0 .164-1.74c.007-.27.055-1.014.1-1.732.05-.75.102-1.525.1-1.707v-.076a.278.278 0 0 1-.091-.103l-.009-.014a.46.46 0 0 1-.132-.073c-.289-.23.091-.884.137-.96a3.41 3.41 0 0 1 .386-.43 5.868 5.868 0 0 0 .44-.488c.206-.304.519-.35.679-.135a3.295 3.295 0 0 0 .595.339 14.348 14.348 0 0 0 1.909.135 2.001 2.001 0 0 0 .37-.2 1.544 1.544 0 0 1 .259-.142c.248-.104.484-.028.832.282a4.97 4.97 0 0 1 .707.715.776.776 0 0 1 .076-.071l.047-.042c.658-.569.996-.78 1.207-.764l.029.198.017-.194.054.004a.451.451 0 0 1 .33.173l.042.043c.047.047.097.1.147.155a3.889 3.889 0 0 0 1.175.241c.261.019.516.028.749.034l.106.004a.584.584 0 0 1 .701-.367l.07.013a1.232 1.232 0 0 1 .548.192 2.896 2.896 0 0 1 .996 1.197l.04.08a2.211 2.211 0 0 1-.06 1.584.275.275 0 0 1-.256.141c-.002.027-.034.187-.053.464-.024.288-.149 2.951-.147 3.63.001.11.005.215.007.318a1.673 1.673 0 0 1-.382 1.429 2.567 2.567 0 0 1-1.428.522.645.645 0 0 1-.142.005 1.283 1.283 0 0 1-.454-.164c-.103-.05-.235-.117-.413-.197a13.814 13.814 0 0 0-1.697-.47 8.2 8.2 0 0 1-1.697-.499.745.745 0 0 1-.424-.692.253.253 0 0 1 .186-.22.55.55 0 0 1 .174-.008 6.171 6.171 0 0 1 .91.185 21.906 21.906 0 0 0 2.325.272c.31.026.498.036.601.04a13.558 13.558 0 0 0 .205-1.698c.014-.198.034-.507.06-.869a16.695 16.695 0 0 0-2.174-.135.977.977 0 0 1-.565.15.952.952 0 0 1-.624-.348 5.16 5.16 0 0 1-.443-.611l-.078-.118a5.487 5.487 0 0 1-.896.71 1.17 1.17 0 0 1-.95.106.449.449 0 0 1-.134-.07c-.059-.042-.139-.094-.58-.13a10.568 10.568 0 0 0-.791-.027 38.505 38.505 0 0 0-.422-.006c-.024.576-.043 1.05-.047 1.26-.01.434-.024.944-.038 1.392-.009.307-.017.586-.018.792-.012.424-.097.594-.342.676l-.04.012a.673.673 0 0 1-.334.042zm-1.449-1.263a5.08 5.08 0 0 0 .878.676 1.629 1.629 0 0 0 .605.202.478.478 0 0 0 .136-.006.495.495 0 0 1 .082-.033c.034-.011.068-.067.075-.314.005-.207.011-.488.021-.798.014-.447.03-.953.037-1.387.003-.233.028-.792.058-1.458a.193.193 0 0 1 .196-.186c.166.003.363.009.606.009.329.004.604.014.82.032a1.36 1.36 0 0 1 .766.195.157.157 0 0 0 .055.029.367.367 0 0 0 .148.04.915.915 0 0 0 .48-.13 5.178 5.178 0 0 0 .852-.69c-.017.005-.031-.058-.043-.1a.738.738 0 0 1-.04-.254c.005-.05.01-.287.016-.583.014-.722.03-1.335.05-1.486a.687.687 0 0 1 .184-.417l.013-.04a1.223 1.223 0 0 1 .004-.138 5.379 5.379 0 0 0-.69-.69c-.205-.185-.317-.258-.427-.213a1.14 1.14 0 0 0-.194.113 2.499 2.499 0 0 1-.475.247.188.188 0 0 1-.086.012 14.027 14.027 0 0 1-2.022-.146.293.293 0 0 1-.046-.014 3.565 3.565 0 0 1-.74-.44.653.653 0 0 0-.074.09 5.654 5.654 0 0 1-.481.539 4.578 4.578 0 0 0-.333.364 1.716 1.716 0 0 0-.188.465.333.333 0 0 1 .176.157c.165.05.164.237.165.403-.002.194-.05.939-.1 1.732a62.362 62.362 0 0 0-.1 1.716 14.367 14.367 0 0 1-.177 1.823 1.335 1.335 0 0 0-.023.275c-.002.154-.003.274-.096.359a.285.285 0 0 1-.088.045zm5.888.037a.713.713 0 0 0 .208.196 10.448 10.448 0 0 0 1.582.445 13.356 13.356 0 0 1 1.765.498c.18.081.317.147.419.197.236.116.287.137.381.126a2.239 2.239 0 0 0 1.22-.428c.276-.244.267-.615.25-1.127 0-.106-.006-.216-.007-.328-.003-.674.12-3.305.148-3.663.023-.296.061-.778.39-.82a2.034 2.034 0 0 0 .02-1.165l-.041-.08a2.513 2.513 0 0 0-.878-1.058.893.893 0 0 0-.383-.12l-.077-.014c-.164-.031-.243.046-.266.115a1.72 1.72 0 0 0-.023.107.192.192 0 0 1-.197.155l-.263-.009a17.135 17.135 0 0 1-.765-.035 3.983 3.983 0 0 1-1.341-.292.222.222 0 0 1-.066-.046 7.857 7.857 0 0 0-.165-.176l-.042-.044a.367.367 0 0 0-.061-.054l-.003-.195-.038.193-.082-.007c-.042.006-.24.082-.922.67l-.047.043a.182.182 0 0 0-.047.257.71.71 0 0 0 .047.082.497.497 0 0 1 .07.391 5.74 5.74 0 0 0-.01.42 4.796 4.796 0 0 1-.157 1.726l-.035.054a.71.71 0 0 0-.122.213l.094.146a5.71 5.71 0 0 0 .4.562.531.531 0 0 0 .732.114.237.237 0 0 1 .11-.038 17.047 17.047 0 0 1 2.473.16.195.195 0 0 1 .164.206c-.029.443-.055.822-.072 1.055a5.844 5.844 0 0 1-.285 1.954.213.213 0 0 1-.044.051c-.07.06-.085.072-.892.008a22.37 22.37 0 0 1-2.392-.284 7.414 7.414 0 0 0-.75-.161zm.362-6.413a.331.331 0 0 0-.07.186c-.017.144-.033.925-.043 1.44-.008.31-.014.556-.017.607-.002.004 0 .01.003.019a.329.329 0 0 1 .027-.041l.037-.054a9.292 9.292 0 0 0 .089-1.515c0-.209.006-.373.01-.445a.764.764 0 0 0 .004-.138c-.014-.018-.026-.039-.04-.06zm-4.127 2.24a.19.19 0 0 1-.127-.059.206.206 0 0 1-.05-.142l.017-.393a.198.198 0 0 1 .196-.184c.406.004.859.013 1.266.018l.664.01a.181.181 0 0 1 .14.066.193.193 0 0 1 .05.147 7.668 7.668 0 0 1-.057.447.193.193 0 0 1-.2.165c-.505-.024-1.281-.054-1.89-.073l-.009-.001zm.22-.389v.01c.501.019 1.08.038 1.522.058l.004-.043-.449-.008c-.345-.005-.724-.01-1.077-.017zm6.154.687l-.221-.018a.19.19 0 0 1-.131-.07.187.187 0 0 1-.045-.14l.033-.363a.215.215 0 0 1 .205-.2c.522.025 1.36.074 1.91.125a.19.19 0 0 1 .176.202l-.02.388a.192.192 0 0 1-.203.18c-.418-.017-1.14-.06-1.704-.104zm.007-.387h.026c.48.038 1.075.074 1.496.096v-.006c-.468-.044-1.07-.072-1.522-.099v.01zm-6.3-1.469a.204.204 0 0 1-.13-.061.201.201 0 0 1-.051-.143c.012-.227.024-.423.034-.577a.195.195 0 0 1 .202-.182c.496.019 1.15.07 1.399.09.127.01.304.022.485.03a.19.19 0 0 1 .183.187c.004.147.008.317.007.504a.194.194 0 0 1-.06.14.199.199 0 0 1-.138.054l-.38-.01c-.434-.01-.985-.024-1.54-.03l-.012-.002zm.232-.567c-.006.06-.009.12-.012.182l1.342.029.179.004a2.147 2.147 0 0 1-.001-.113c-.118-.01-.229-.014-.317-.021-.215-.018-.74-.059-1.191-.081zm6.858.985a16.895 16.895 0 0 1-.895-.09.196.196 0 0 1-.167-.21l.044-.508a.197.197 0 0 1 .209-.177l.046.005c.546.043 1.337.123 1.8.186a.193.193 0 0 1 .168.197c-.003.12-.007.279-.017.472a.195.195 0 0 1-.203.186c-.262-.013-.62-.033-.985-.06zm-.659-.453c.473.056 1.043.094 1.467.117.002-.035.004-.067.004-.096-.418-.051-1-.112-1.46-.15l-.011.13z"/><path class="43dee6cb-29e2-48ee-97c5-9eb82448d8a8" d="M53.398 64.192a1.95 1.95 0 0 1-.757-.248c-.173-.093-1.256-.839-1.251-1.181a.258.258 0 0 1 .125-.198.467.467 0 0 1 .23-.048 1.866 1.866 0 0 1 .034-.36 14.02 14.02 0 0 0 .164-1.74c.007-.27.055-1.014.1-1.732.05-.75.102-1.525.1-1.707v-.076a.278.278 0 0 1-.091-.103l-.009-.014a.46.46 0 0 1-.132-.073c-.289-.23.091-.884.137-.96a3.41 3.41 0 0 1 .386-.43 5.868 5.868 0 0 0 .44-.488c.206-.304.519-.35.679-.135a3.295 3.295 0 0 0 .595.339 14.348 14.348 0 0 0 1.909.135 2.001 2.001 0 0 0 .37-.2 1.544 1.544 0 0 1 .259-.142c.248-.104.484-.028.832.282a4.97 4.97 0 0 1 .707.715.776.776 0 0 1 .076-.071l.047-.042c.658-.569.996-.78 1.207-.764l.029.198.017-.194.054.004a.451.451 0 0 1 .33.173l.042.043c.047.047.097.1.147.155a3.889 3.889 0 0 0 1.175.241c.261.019.516.028.749.034l.106.004a.584.584 0 0 1 .701-.367l.07.013a1.232 1.232 0 0 1 .548.192 2.896 2.896 0 0 1 .996 1.197l.04.08a2.211 2.211 0 0 1-.06 1.584.275.275 0 0 1-.256.141c-.002.027-.034.187-.053.464-.024.288-.149 2.951-.147 3.63.001.11.005.215.007.318a1.673 1.673 0 0 1-.382 1.429 2.567 2.567 0 0 1-1.428.522.645.645 0 0 1-.142.005 1.283 1.283 0 0 1-.454-.164c-.103-.05-.235-.117-.413-.197a13.814 13.814 0 0 0-1.697-.47 8.2 8.2 0 0 1-1.697-.499.745.745 0 0 1-.424-.692.253.253 0 0 1 .186-.22.55.55 0 0 1 .174-.008 6.171 6.171 0 0 1 .91.185 21.906 21.906 0 0 0 2.325.272c.31.026.498.036.601.04a13.558 13.558 0 0 0 .205-1.698c.014-.198.034-.507.06-.869a16.695 16.695 0 0 0-2.174-.135.977.977 0 0 1-.565.15.952.952 0 0 1-.624-.348 5.16 5.16 0 0 1-.443-.611l-.078-.118a5.487 5.487 0 0 1-.896.71 1.17 1.17 0 0 1-.95.106.449.449 0 0 1-.134-.07c-.059-.042-.139-.094-.58-.13a10.568 10.568 0 0 0-.791-.027 38.505 38.505 0 0 0-.422-.006c-.024.576-.043 1.05-.047 1.26-.01.434-.024.944-.038 1.392-.009.307-.017.586-.018.792-.012.424-.097.594-.342.676l-.04.012a.673.673 0 0 1-.334.042zm-1.449-1.263a5.08 5.08 0 0 0 .878.676 1.629 1.629 0 0 0 .605.202.478.478 0 0 0 .136-.006.495.495 0 0 1 .082-.033c.034-.011.068-.067.075-.314.005-.207.011-.488.021-.798.014-.447.03-.953.037-1.387.003-.233.028-.792.058-1.458a.193.193 0 0 1 .196-.186c.166.003.363.009.606.009.329.004.604.014.82.032a1.36 1.36 0 0 1 .766.195.157.157 0 0 0 .055.029.367.367 0 0 0 .148.04.915.915 0 0 0 .48-.13 5.178 5.178 0 0 0 .852-.69c-.017.005-.031-.058-.043-.1a.738.738 0 0 1-.04-.254c.005-.05.01-.287.016-.583.014-.722.03-1.335.05-1.486a.687.687 0 0 1 .184-.417l.013-.04a1.223 1.223 0 0 1 .004-.138 5.379 5.379 0 0 0-.69-.69c-.205-.185-.317-.258-.427-.213a1.14 1.14 0 0 0-.194.113 2.499 2.499 0 0 1-.475.247.188.188 0 0 1-.086.012 14.027 14.027 0 0 1-2.022-.146.293.293 0 0 1-.046-.014 3.565 3.565 0 0 1-.74-.44.653.653 0 0 0-.074.09 5.654 5.654 0 0 1-.481.539 4.578 4.578 0 0 0-.333.364 1.716 1.716 0 0 0-.188.465.333.333 0 0 1 .176.157c.165.05.164.237.165.403-.002.194-.05.939-.1 1.732a62.362 62.362 0 0 0-.1 1.716 14.367 14.367 0 0 1-.177 1.823 1.335 1.335 0 0 0-.023.275c-.002.154-.003.274-.096.359a.285.285 0 0 1-.088.045zm5.888.037a.713.713 0 0 0 .208.196 10.448 10.448 0 0 0 1.582.445 13.356 13.356 0 0 1 1.765.498c.18.081.317.147.419.197.236.116.287.137.381.126a2.239 2.239 0 0 0 1.22-.428c.276-.244.267-.615.25-1.127 0-.106-.006-.216-.007-.328-.003-.674.12-3.305.148-3.663.023-.296.061-.778.39-.82a2.034 2.034 0 0 0 .02-1.165l-.041-.08a2.513 2.513 0 0 0-.878-1.058.893.893 0 0 0-.383-.12l-.077-.014c-.164-.031-.243.046-.266.115a1.72 1.72 0 0 0-.023.107.192.192 0 0 1-.197.155l-.263-.009a17.135 17.135 0 0 1-.765-.035 3.983 3.983 0 0 1-1.341-.292.222.222 0 0 1-.066-.046 7.857 7.857 0 0 0-.165-.176l-.042-.044a.367.367 0 0 0-.061-.054l-.003-.195-.038.193-.082-.007c-.042.006-.24.082-.922.67l-.047.043a.182.182 0 0 0-.047.257.71.71 0 0 0 .047.082.497.497 0 0 1 .07.391 5.74 5.74 0 0 0-.01.42 4.796 4.796 0 0 1-.157 1.726l-.035.054a.71.71 0 0 0-.122.213l.094.146a5.71 5.71 0 0 0 .4.562.531.531 0 0 0 .732.114.237.237 0 0 1 .11-.038 17.047 17.047 0 0 1 2.473.16.195.195 0 0 1 .164.206c-.029.443-.055.822-.072 1.055a5.844 5.844 0 0 1-.285 1.954.213.213 0 0 1-.044.051c-.07.06-.085.072-.892.008a22.37 22.37 0 0 1-2.392-.284 7.414 7.414 0 0 0-.75-.161zm.362-6.413a.331.331 0 0 0-.07.186c-.017.144-.033.925-.043 1.44-.008.31-.014.556-.017.607-.002.004 0 .01.003.019a.329.329 0 0 1 .027-.041l.037-.054a9.292 9.292 0 0 0 .089-1.515c0-.209.006-.373.01-.445a.764.764 0 0 0 .004-.138c-.014-.018-.026-.039-.04-.06zm-4.127 2.24a.19.19 0 0 1-.127-.059.206.206 0 0 1-.05-.142l.017-.393a.198.198 0 0 1 .196-.184c.406.004.859.013 1.266.018l.664.01a.181.181 0 0 1 .14.066.193.193 0 0 1 .05.147 7.668 7.668 0 0 1-.057.447.193.193 0 0 1-.2.165c-.505-.024-1.281-.054-1.89-.073l-.009-.001zm.22-.389v.01c.501.019 1.08.038 1.522.058l.004-.043-.449-.008c-.345-.005-.724-.01-1.077-.017zm6.154.687l-.221-.018a.19.19 0 0 1-.131-.07.187.187 0 0 1-.045-.14l.033-.363a.215.215 0 0 1 .205-.2c.522.025 1.36.074 1.91.125a.19.19 0 0 1 .176.202l-.02.388a.192.192 0 0 1-.203.18c-.418-.017-1.14-.06-1.704-.104zm.007-.387h.026c.48.038 1.075.074 1.496.096v-.006c-.468-.044-1.07-.072-1.522-.099v.01zm-6.3-1.469a.204.204 0 0 1-.13-.061.201.201 0 0 1-.051-.143c.012-.227.024-.423.034-.577a.195.195 0 0 1 .202-.182c.496.019 1.15.07 1.399.09.127.01.304.022.485.03a.19.19 0 0 1 .183.187c.004.147.008.317.007.504a.194.194 0 0 1-.06.14.199.199 0 0 1-.138.054l-.38-.01c-.434-.01-.985-.024-1.54-.03l-.012-.002zm.232-.567c-.006.06-.009.12-.012.182l1.342.029.179.004a2.147 2.147 0 0 1-.001-.113c-.118-.01-.229-.014-.317-.021-.215-.018-.74-.059-1.191-.081zm6.858.985a16.895 16.895 0 0 1-.895-.09.196.196 0 0 1-.167-.21l.044-.508a.197.197 0 0 1 .209-.177l.046.005c.546.043 1.337.123 1.8.186a.193.193 0 0 1 .168.197c-.003.12-.007.279-.017.472a.195.195 0 0 1-.203.186c-.262-.013-.62-.033-.985-.06zm-.659-.453c.473.056 1.043.094 1.467.117.002-.035.004-.067.004-.096-.418-.051-1-.112-1.46-.15l-.011.13z"/><path class="43dee6cb-29e2-48ee-97c5-9eb82448d8a8" d="M53.262 55.296c-.197-.015-.376-.237-.738-.746a4.2 4.2 0 0 0-.29-.387.694.694 0 0 1-.218-.59.3.3 0 0 1 .156-.235.737.737 0 0 0 .144-.263 9.497 9.497 0 0 0 .015-1.032c-.002-.204-.005-.385 0-.48a.407.407 0 0 0-.15-.343l-.059-.068a.193.193 0 0 1 .006-.26c.003-.004.009-.007.015-.014a.665.665 0 0 1-.52-.48 3.644 3.644 0 0 1-.016-1.555c.087-.49.41-.482.562-.478a.41.41 0 0 0 .085 0 1.558 1.558 0 0 0 .582-.637.445.445 0 0 0 .063-.395l-.02-.065c-.033-.103-.123-.377.13-.499a2.013 2.013 0 0 1 .387-.127l.014-.025a4.442 4.442 0 0 1 .485-.81l.05-.054c.234-.263.622-.702 1.08-.667l.393.035c.344.032.855.08 1.447.126.717.058 1.382.099 1.972.124 1.769.081 2.48.169 2.926.19a3.588 3.588 0 0 0 .5-.014 1.628 1.628 0 0 1 .457.006c.33.057.404.092 1.032.577a2.338 2.338 0 0 1 .947 1.33.81.81 0 0 1 .135.121 4.367 4.367 0 0 1 .42.675l.116.215a13.46 13.46 0 0 1 .888 1.866 1.684 1.684 0 0 1-.832 1.59.718.718 0 0 1-.498.166.481.481 0 0 1-.127-.024l.028.074.018.047c.113.29.278.728.026.961a.514.514 0 0 0-.164.408c-.01.142-.038.535-.059.854-.014.22-.026.407-.027.452a1.49 1.49 0 0 1-.683.76 1.53 1.53 0 0 1-1.174-.14 1.715 1.715 0 0 0-.215-.104 1.884 1.884 0 0 1-.183-.09c-1.605-.121-6.707-.416-8.115-.441a2.988 2.988 0 0 1-.936.445.37.37 0 0 1-.055 0zm-.866-1.643a.34.34 0 0 0 .116.24 4.628 4.628 0 0 1 .329.431 4.208 4.208 0 0 0 .456.58 3.201 3.201 0 0 0 .704-.346l.05-.047a.2.2 0 0 1 .136-.05c1.31.014 6.676.326 8.257.448v-.002a.214.214 0 0 1 .09.031 1.46 1.46 0 0 0 .174.087 1.926 1.926 0 0 1 .257.13 1.062 1.062 0 0 0 .463.14 1.025 1.025 0 0 0 .378-.034 1.39 1.39 0 0 0 .432-.45c-.002-.02.011-.207.025-.423.021-.324.049-.716.057-.86a.88.88 0 0 1 .29-.66c.023-.035.02-.16-.126-.54l-.02-.05a6.05 6.05 0 0 0-.673-1.127 1.51 1.51 0 0 0-.164-.207.2.2 0 0 1-.044-.174.19.19 0 0 1 .116-.135.097.097 0 0 1 .032-.02.45.45 0 0 0 .036-.222 2.71 2.71 0 0 0-.497-.892.098.098 0 0 0-.048-.02 1.484 1.484 0 0 1-.69.172l-.076.001a.193.193 0 0 1-.194-.182 2.208 2.208 0 0 1 .007-.335.199.199 0 0 1 .07-.133.246.246 0 0 1 .142-.042l1.087.117a.201.201 0 0 1 .148.102 7.257 7.257 0 0 1 .368.765c.014.038.033.076.053.118a.997.997 0 0 1 .123.621.257.257 0 0 1-.12.184c.023.034.047.067.07.103.083.122.167.244.24.336.202.252.374.387.508.398a.327.327 0 0 0 .233-.088 1.302 1.302 0 0 0 .682-1.235 13.636 13.636 0 0 0-.842-1.722l-.12-.22a3.72 3.72 0 0 0-.37-.606.395.395 0 0 0-.127-.092.197.197 0 0 1-.102-.209c.032-.17-.234-.661-.796-1.098-.59-.455-.618-.459-.833-.498a1.77 1.77 0 0 0-.11-.015 1.75 1.75 0 0 0-.275.01 4.116 4.116 0 0 1-.553.016c-.483-.022-1.22-.11-2.926-.187a62.04 62.04 0 0 1-1.984-.13c-.596-.045-1.106-.092-1.452-.122-.177-.018-.31-.03-.388-.036-.266-.022-.586.34-.76.535l-.052.058a4.354 4.354 0 0 0-.43.727l-.057.111a.189.189 0 0 1-.14.1 1.84 1.84 0 0 0-.324.09.518.518 0 0 1 .015.053.708.708 0 0 1 .027.085.825.825 0 0 1-.106.695c-.21.347-.558.77-.849.819a.716.716 0 0 1-.159.005c-.134-.001-.145-.002-.174.16a3.334 3.334 0 0 0 .007 1.37c.081.264.365.28.68.11a3.322 3.322 0 0 0 .717-.689.196.196 0 0 1 .296-.002c.036.04.07.08.107.113a.188.188 0 0 1 .062.15.192.192 0 0 1-.076.146c-.117.094-.377.29-.645.492l-.587.447a.75.75 0 0 1 .17.526c-.004.094 0 .265 0 .462a5.528 5.528 0 0 1-.034 1.155.99.99 0 0 1-.287.461zm2.078-.098a.193.193 0 0 1-.177-.2v-.406a.195.195 0 0 1 .205-.193c.56.031 1.411.09 2.363.161a.168.168 0 0 1 .134.07.179.179 0 0 1 .043.142c-.013.151-.03.289-.048.413a.193.193 0 0 1-.205.164c-.903-.059-1.727-.111-2.312-.152h-.003zm.212-.4v.025c.526.035 1.205.078 1.946.128a.051.051 0 0 1 .005-.018c-.759-.057-1.445-.105-1.951-.135zm5.267.755a.197.197 0 0 1-.181-.196l.005-.353a.198.198 0 0 1 .067-.141.266.266 0 0 1 .144-.047c1.062.094 1.858.175 2.303.236a.193.193 0 0 1 .168.208l-.021.262a.197.197 0 0 1-.207.178l-2.277-.147zm-5.455-1.69a.196.196 0 0 1-.18-.203c.012-.185.028-.313.04-.43a.206.206 0 0 1 .199-.186c.57.015 1.377.051 2.4.11h.002a.195.195 0 0 1 .18.203l-.023.476a.208.208 0 0 1-.064.135.185.185 0 0 1-.142.047 909.22 909.22 0 0 1-2.408-.15l-.004-.001zm.23-.425a.446.446 0 0 0-.005.054c.524.034 1.234.077 2.016.126.002-.03.001-.06.005-.086a66.471 66.471 0 0 0-2.016-.094zm5.26.767a.192.192 0 0 1-.176-.203c.007-.175.017-.33.029-.47a.191.191 0 0 1 .206-.177c.97.068 1.815.133 2.339.177a.196.196 0 0 1 .178.193c-.001.123-.007.275-.016.447a.193.193 0 0 1-.065.13.203.203 0 0 1-.14.05l-2.077-.13-.273-.016h-.005zm.226-.45c-.004.025-.003.05-.006.073l.083.005 1.88.118a.354.354 0 0 0 .003-.046c-.49-.04-1.18-.095-1.96-.15zm-5.821-1.327a.195.195 0 0 1-.161-.118 3.515 3.515 0 0 0-.22-.43.196.196 0 0 1 .17-.295c.467.01 2.337.125 2.9.16a.194.194 0 0 1 .182.213c-.016.174-.033.328-.046.455a.193.193 0 0 1-.204.174 349.965 349.965 0 0 0-2.615-.159zm.118-.444l.027.064c.608.033 1.426.084 2.312.139l.01-.065a174.413 174.413 0 0 0-2.35-.138zm5.571.8a.192.192 0 0 1-.18-.196l.012-.435a.195.195 0 0 1 .21-.187c.913.082 2.158.202 2.863.277a.197.197 0 0 1 .165.141.192.192 0 0 1-.064.204 3.04 3.04 0 0 0-.264.243l-.06.062a.191.191 0 0 1-.15.056c-.381-.024-1.094-.072-1.964-.13l-.566-.034-.002-.001zm.214-.414l-.001.039.383.025c.336.022.652.044.931.06-.443-.042-.903-.084-1.313-.124zm-5.477-1.58c-.282-.02-.508-.038-.663-.051a.187.187 0 0 1-.152-.1.192.192 0 0 1-.002-.183l.124-.256a.196.196 0 0 1 .18-.11l.604.019a.189.189 0 0 1 .149.075.192.192 0 0 1 .036.16 5.832 5.832 0 0 1-.073.303.189.189 0 0 1-.203.143zm1.63.124a.193.193 0 0 1-.18-.196l.005-.362a.2.2 0 0 1 .061-.139.21.21 0 0 1 .14-.055l.722.032a.178.178 0 0 1 .14.065.198.198 0 0 1 .048.14l-.03.386a.196.196 0 0 1-.207.181l-.699-.05v-.002zm3.71.26a.192.192 0 0 1-.18-.206l.027-.401a.194.194 0 0 1 .067-.135.172.172 0 0 1 .144-.047c.24.022.484.043.727.067a.192.192 0 0 1 .176.204 4.19 4.19 0 0 1-.039.397.194.194 0 0 1-.203.167l-.719-.047v.001zm.22-.384v.008l.338.022a14.017 14.017 0 0 0-.337-.03zm-5.842-1.812a.196.196 0 0 1-.115-.05 1.43 1.43 0 0 0-.165-.13.192.192 0 0 1-.087-.182.196.196 0 0 1 .128-.16 2.234 2.234 0 0 1 .883-.09c.509.01 1.44.065 2.133.11h.002a.19.19 0 0 1 .177.203l-.016.323a.183.183 0 0 1-.067.134.193.193 0 0 1-.143.049l-.556-.042c-.838-.064-1.606-.125-2.172-.165zm5.755.434a.202.202 0 0 1-.132-.069.185.185 0 0 1-.046-.143c.014-.143.027-.273.04-.377a.189.189 0 0 1 .203-.17c.501.021.961.048 1.3.073a2.888 2.888 0 0 1 .55.072c.273.077.822.26 1.146.382a.195.195 0 0 1 .12.22.192.192 0 0 1-.198.156c-.124-.006-.292-.007-.537-.009l-.237-.004c-.281-.003-1.003-.046-2.208-.132l-.001.001zm1.302-.301z"/><path class="43dee6cb-29e2-48ee-97c5-9eb82448d8a8" d="M53.262 55.296c-.197-.015-.376-.237-.738-.746a4.2 4.2 0 0 0-.29-.387.694.694 0 0 1-.218-.59.3.3 0 0 1 .156-.235.737.737 0 0 0 .144-.263 9.497 9.497 0 0 0 .015-1.032c-.002-.204-.005-.385 0-.48a.407.407 0 0 0-.15-.343l-.059-.068a.193.193 0 0 1 .006-.26c.003-.004.009-.007.015-.014a.665.665 0 0 1-.52-.48 3.644 3.644 0 0 1-.016-1.555c.087-.49.41-.482.562-.478a.41.41 0 0 0 .085 0 1.558 1.558 0 0 0 .582-.637.445.445 0 0 0 .063-.395l-.02-.065c-.033-.103-.123-.377.13-.499a2.013 2.013 0 0 1 .387-.127l.014-.025a4.442 4.442 0 0 1 .485-.81l.05-.054c.234-.263.622-.702 1.08-.667l.393.035c.344.032.855.08 1.447.126.717.058 1.382.099 1.972.124 1.769.081 2.48.169 2.926.19a3.588 3.588 0 0 0 .5-.014 1.628 1.628 0 0 1 .457.006c.33.057.404.092 1.032.577a2.338 2.338 0 0 1 .947 1.33.81.81 0 0 1 .135.121 4.367 4.367 0 0 1 .42.675l.116.215a13.46 13.46 0 0 1 .888 1.866 1.684 1.684 0 0 1-.832 1.59.718.718 0 0 1-.498.166.481.481 0 0 1-.127-.024l.028.074.018.047c.113.29.278.728.026.961a.514.514 0 0 0-.164.408c-.01.142-.038.535-.059.854-.014.22-.026.407-.027.452a1.49 1.49 0 0 1-.683.76 1.53 1.53 0 0 1-1.174-.14 1.715 1.715 0 0 0-.215-.104 1.884 1.884 0 0 1-.183-.09c-1.605-.121-6.707-.416-8.115-.441a2.988 2.988 0 0 1-.936.445.37.37 0 0 1-.055 0zm-.866-1.643a.34.34 0 0 0 .116.24 4.628 4.628 0 0 1 .329.431 4.208 4.208 0 0 0 .456.58 3.201 3.201 0 0 0 .704-.346l.05-.047a.2.2 0 0 1 .136-.05c1.31.014 6.676.326 8.257.448v-.002a.214.214 0 0 1 .09.031 1.46 1.46 0 0 0 .174.087 1.926 1.926 0 0 1 .257.13 1.062 1.062 0 0 0 .463.14 1.025 1.025 0 0 0 .378-.034 1.39 1.39 0 0 0 .432-.45c-.002-.02.011-.207.025-.423.021-.324.049-.716.057-.86a.88.88 0 0 1 .29-.66c.023-.035.02-.16-.126-.54l-.02-.05a6.05 6.05 0 0 0-.673-1.127 1.51 1.51 0 0 0-.164-.207.2.2 0 0 1-.044-.174.19.19 0 0 1 .116-.135.097.097 0 0 1 .032-.02.45.45 0 0 0 .036-.222 2.71 2.71 0 0 0-.497-.892.098.098 0 0 0-.048-.02 1.484 1.484 0 0 1-.69.172l-.076.001a.193.193 0 0 1-.194-.182 2.208 2.208 0 0 1 .007-.335.199.199 0 0 1 .07-.133.246.246 0 0 1 .142-.042l1.087.117a.201.201 0 0 1 .148.102 7.257 7.257 0 0 1 .368.765c.014.038.033.076.053.118a.997.997 0 0 1 .123.621.257.257 0 0 1-.12.184c.023.034.047.067.07.103.083.122.167.244.24.336.202.252.374.387.508.398a.327.327 0 0 0 .233-.088 1.302 1.302 0 0 0 .682-1.235 13.636 13.636 0 0 0-.842-1.722l-.12-.22a3.72 3.72 0 0 0-.37-.606.395.395 0 0 0-.127-.092.197.197 0 0 1-.102-.209c.032-.17-.234-.661-.796-1.098-.59-.455-.618-.459-.833-.498a1.77 1.77 0 0 0-.11-.015 1.75 1.75 0 0 0-.275.01 4.116 4.116 0 0 1-.553.016c-.483-.022-1.22-.11-2.926-.187a62.04 62.04 0 0 1-1.984-.13c-.596-.045-1.106-.092-1.452-.122-.177-.018-.31-.03-.388-.036-.266-.022-.586.34-.76.535l-.052.058a4.354 4.354 0 0 0-.43.727l-.057.111a.189.189 0 0 1-.14.1 1.84 1.84 0 0 0-.324.09.518.518 0 0 1 .015.053.708.708 0 0 1 .027.085.825.825 0 0 1-.106.695c-.21.347-.558.77-.849.819a.716.716 0 0 1-.159.005c-.134-.001-.145-.002-.174.16a3.334 3.334 0 0 0 .007 1.37c.081.264.365.28.68.11a3.322 3.322 0 0 0 .717-.689.196.196 0 0 1 .296-.002c.036.04.07.08.107.113a.188.188 0 0 1 .062.15.192.192 0 0 1-.076.146c-.117.094-.377.29-.645.492l-.587.447a.75.75 0 0 1 .17.526c-.004.094 0 .265 0 .462a5.528 5.528 0 0 1-.034 1.155.99.99 0 0 1-.287.461zm2.078-.098a.193.193 0 0 1-.177-.2v-.406a.195.195 0 0 1 .205-.193c.56.031 1.411.09 2.363.161a.168.168 0 0 1 .134.07.179.179 0 0 1 .043.142c-.013.151-.03.289-.048.413a.193.193 0 0 1-.205.164c-.903-.059-1.727-.111-2.312-.152h-.003zm.212-.4v.025c.526.035 1.205.078 1.946.128a.051.051 0 0 1 .005-.018c-.759-.057-1.445-.105-1.951-.135zm5.267.755a.197.197 0 0 1-.181-.196l.005-.353a.198.198 0 0 1 .067-.141.266.266 0 0 1 .144-.047c1.062.094 1.858.175 2.303.236a.193.193 0 0 1 .168.208l-.021.262a.197.197 0 0 1-.207.178l-2.277-.147zm-5.455-1.69a.196.196 0 0 1-.18-.203c.012-.185.028-.313.04-.43a.206.206 0 0 1 .199-.186c.57.015 1.377.051 2.4.11h.002a.195.195 0 0 1 .18.203l-.023.476a.208.208 0 0 1-.064.135.185.185 0 0 1-.142.047 909.22 909.22 0 0 1-2.408-.15l-.004-.001zm.23-.425a.446.446 0 0 0-.005.054c.524.034 1.234.077 2.016.126.002-.03.001-.06.005-.086a66.471 66.471 0 0 0-2.016-.094zm5.26.767a.192.192 0 0 1-.176-.203c.007-.175.017-.33.029-.47a.191.191 0 0 1 .206-.177c.97.068 1.815.133 2.339.177a.196.196 0 0 1 .178.193c-.001.123-.007.275-.016.447a.193.193 0 0 1-.065.13.203.203 0 0 1-.14.05l-2.077-.13-.273-.016h-.005zm.226-.45c-.004.025-.003.05-.006.073l.083.005 1.88.118a.354.354 0 0 0 .003-.046c-.49-.04-1.18-.095-1.96-.15zm-5.821-1.327a.195.195 0 0 1-.161-.118 3.515 3.515 0 0 0-.22-.43.196.196 0 0 1 .17-.295c.467.01 2.337.125 2.9.16a.194.194 0 0 1 .182.213c-.016.174-.033.328-.046.455a.193.193 0 0 1-.204.174 349.965 349.965 0 0 0-2.615-.159zm.118-.444l.027.064c.608.033 1.426.084 2.312.139l.01-.065a174.413 174.413 0 0 0-2.35-.138zm5.571.8a.192.192 0 0 1-.18-.196l.012-.435a.195.195 0 0 1 .21-.187c.913.082 2.158.202 2.863.277a.197.197 0 0 1 .165.141.192.192 0 0 1-.064.204 3.04 3.04 0 0 0-.264.243l-.06.062a.191.191 0 0 1-.15.056c-.381-.024-1.094-.072-1.964-.13l-.566-.034-.002-.001zm.214-.414l-.001.039.383.025c.336.022.652.044.931.06-.443-.042-.903-.084-1.313-.124zm-5.477-1.58c-.282-.02-.508-.038-.663-.051a.187.187 0 0 1-.152-.1.192.192 0 0 1-.002-.183l.124-.256a.196.196 0 0 1 .18-.11l.604.019a.189.189 0 0 1 .149.075.192.192 0 0 1 .036.16 5.832 5.832 0 0 1-.073.303.189.189 0 0 1-.203.143zm1.63.124a.193.193 0 0 1-.18-.196l.005-.362a.2.2 0 0 1 .061-.139.21.21 0 0 1 .14-.055l.722.032a.178.178 0 0 1 .14.065.198.198 0 0 1 .048.14l-.03.386a.196.196 0 0 1-.207.181l-.699-.05v-.002zm3.71.26a.192.192 0 0 1-.18-.206l.027-.401a.194.194 0 0 1 .067-.135.172.172 0 0 1 .144-.047c.24.022.484.043.727.067a.192.192 0 0 1 .176.204 4.19 4.19 0 0 1-.039.397.194.194 0 0 1-.203.167l-.719-.047v.001zm.22-.384v.008l.338.022a14.017 14.017 0 0 0-.337-.03zm-5.842-1.812a.196.196 0 0 1-.115-.05 1.43 1.43 0 0 0-.165-.13.192.192 0 0 1-.087-.182.196.196 0 0 1 .128-.16 2.234 2.234 0 0 1 .883-.09c.509.01 1.44.065 2.133.11h.002a.19.19 0 0 1 .177.203l-.016.323a.183.183 0 0 1-.067.134.193.193 0 0 1-.143.049l-.556-.042c-.838-.064-1.606-.125-2.172-.165zm5.755.434a.202.202 0 0 1-.132-.069.185.185 0 0 1-.046-.143c.014-.143.027-.273.04-.377a.189.189 0 0 1 .203-.17c.501.021.961.048 1.3.073a2.888 2.888 0 0 1 .55.072c.273.077.822.26 1.146.382a.195.195 0 0 1 .12.22.192.192 0 0 1-.198.156c-.124-.006-.292-.007-.537-.009l-.237-.004c-.281-.003-1.003-.046-2.208-.132l-.001.001zm1.302-.301z"/><path class="43dee6cb-29e2-48ee-97c5-9eb82448d8a8" d="M53.262 55.296c-.197-.015-.376-.237-.738-.746a4.2 4.2 0 0 0-.29-.387.694.694 0 0 1-.218-.59.3.3 0 0 1 .156-.235.737.737 0 0 0 .144-.263 9.497 9.497 0 0 0 .015-1.032c-.002-.204-.005-.385 0-.48a.407.407 0 0 0-.15-.343l-.059-.068a.193.193 0 0 1 .006-.26c.003-.004.009-.007.015-.014a.665.665 0 0 1-.52-.48 3.644 3.644 0 0 1-.016-1.555c.087-.49.41-.482.562-.478a.41.41 0 0 0 .085 0 1.558 1.558 0 0 0 .582-.637.445.445 0 0 0 .063-.395l-.02-.065c-.033-.103-.123-.377.13-.499a2.013 2.013 0 0 1 .387-.127l.014-.025a4.442 4.442 0 0 1 .485-.81l.05-.054c.234-.263.622-.702 1.08-.667l.393.035c.344.032.855.08 1.447.126.717.058 1.382.099 1.972.124 1.769.081 2.48.169 2.926.19a3.588 3.588 0 0 0 .5-.014 1.628 1.628 0 0 1 .457.006c.33.057.404.092 1.032.577a2.338 2.338 0 0 1 .947 1.33.81.81 0 0 1 .135.121 4.367 4.367 0 0 1 .42.675l.116.215a13.46 13.46 0 0 1 .888 1.866 1.684 1.684 0 0 1-.832 1.59.718.718 0 0 1-.498.166.481.481 0 0 1-.127-.024l.028.074.018.047c.113.29.278.728.026.961a.514.514 0 0 0-.164.408c-.01.142-.038.535-.059.854-.014.22-.026.407-.027.452a1.49 1.49 0 0 1-.683.76 1.53 1.53 0 0 1-1.174-.14 1.715 1.715 0 0 0-.215-.104 1.884 1.884 0 0 1-.183-.09c-1.605-.121-6.707-.416-8.115-.441a2.988 2.988 0 0 1-.936.445.37.37 0 0 1-.055 0zm-.866-1.643a.34.34 0 0 0 .116.24 4.628 4.628 0 0 1 .329.431 4.208 4.208 0 0 0 .456.58 3.201 3.201 0 0 0 .704-.346l.05-.047a.2.2 0 0 1 .136-.05c1.31.014 6.676.326 8.257.448v-.002a.214.214 0 0 1 .09.031 1.46 1.46 0 0 0 .174.087 1.926 1.926 0 0 1 .257.13 1.062 1.062 0 0 0 .463.14 1.025 1.025 0 0 0 .378-.034 1.39 1.39 0 0 0 .432-.45c-.002-.02.011-.207.025-.423.021-.324.049-.716.057-.86a.88.88 0 0 1 .29-.66c.023-.035.02-.16-.126-.54l-.02-.05a6.05 6.05 0 0 0-.673-1.127 1.51 1.51 0 0 0-.164-.207.2.2 0 0 1-.044-.174.19.19 0 0 1 .116-.135.097.097 0 0 1 .032-.02.45.45 0 0 0 .036-.222 2.71 2.71 0 0 0-.497-.892.098.098 0 0 0-.048-.02 1.484 1.484 0 0 1-.69.172l-.076.001a.193.193 0 0 1-.194-.182 2.208 2.208 0 0 1 .007-.335.199.199 0 0 1 .07-.133.246.246 0 0 1 .142-.042l1.087.117a.201.201 0 0 1 .148.102 7.257 7.257 0 0 1 .368.765c.014.038.033.076.053.118a.997.997 0 0 1 .123.621.257.257 0 0 1-.12.184c.023.034.047.067.07.103.083.122.167.244.24.336.202.252.374.387.508.398a.327.327 0 0 0 .233-.088 1.302 1.302 0 0 0 .682-1.235 13.636 13.636 0 0 0-.842-1.722l-.12-.22a3.72 3.72 0 0 0-.37-.606.395.395 0 0 0-.127-.092.197.197 0 0 1-.102-.209c.032-.17-.234-.661-.796-1.098-.59-.455-.618-.459-.833-.498a1.77 1.77 0 0 0-.11-.015 1.75 1.75 0 0 0-.275.01 4.116 4.116 0 0 1-.553.016c-.483-.022-1.22-.11-2.926-.187a62.04 62.04 0 0 1-1.984-.13c-.596-.045-1.106-.092-1.452-.122-.177-.018-.31-.03-.388-.036-.266-.022-.586.34-.76.535l-.052.058a4.354 4.354 0 0 0-.43.727l-.057.111a.189.189 0 0 1-.14.1 1.84 1.84 0 0 0-.324.09.518.518 0 0 1 .015.053.708.708 0 0 1 .027.085.825.825 0 0 1-.106.695c-.21.347-.558.77-.849.819a.716.716 0 0 1-.159.005c-.134-.001-.145-.002-.174.16a3.334 3.334 0 0 0 .007 1.37c.081.264.365.28.68.11a3.322 3.322 0 0 0 .717-.689.196.196 0 0 1 .296-.002c.036.04.07.08.107.113a.188.188 0 0 1 .062.15.192.192 0 0 1-.076.146c-.117.094-.377.29-.645.492l-.587.447a.75.75 0 0 1 .17.526c-.004.094 0 .265 0 .462a5.528 5.528 0 0 1-.034 1.155.99.99 0 0 1-.287.461zm2.078-.098a.193.193 0 0 1-.177-.2v-.406a.195.195 0 0 1 .205-.193c.56.031 1.411.09 2.363.161a.168.168 0 0 1 .134.07.179.179 0 0 1 .043.142c-.013.151-.03.289-.048.413a.193.193 0 0 1-.205.164c-.903-.059-1.727-.111-2.312-.152h-.003zm.212-.4v.025c.526.035 1.205.078 1.946.128a.051.051 0 0 1 .005-.018c-.759-.057-1.445-.105-1.951-.135zm5.267.755a.197.197 0 0 1-.181-.196l.005-.353a.198.198 0 0 1 .067-.141.266.266 0 0 1 .144-.047c1.062.094 1.858.175 2.303.236a.193.193 0 0 1 .168.208l-.021.262a.197.197 0 0 1-.207.178l-2.277-.147zm-5.455-1.69a.196.196 0 0 1-.18-.203c.012-.185.028-.313.04-.43a.206.206 0 0 1 .199-.186c.57.015 1.377.051 2.4.11h.002a.195.195 0 0 1 .18.203l-.023.476a.208.208 0 0 1-.064.135.185.185 0 0 1-.142.047 909.22 909.22 0 0 1-2.408-.15l-.004-.001zm.23-.425a.446.446 0 0 0-.005.054c.524.034 1.234.077 2.016.126.002-.03.001-.06.005-.086a66.471 66.471 0 0 0-2.016-.094zm5.26.767a.192.192 0 0 1-.176-.203c.007-.175.017-.33.029-.47a.191.191 0 0 1 .206-.177c.97.068 1.815.133 2.339.177a.196.196 0 0 1 .178.193c-.001.123-.007.275-.016.447a.193.193 0 0 1-.065.13.203.203 0 0 1-.14.05l-2.077-.13-.273-.016h-.005zm.226-.45c-.004.025-.003.05-.006.073l.083.005 1.88.118a.354.354 0 0 0 .003-.046c-.49-.04-1.18-.095-1.96-.15zm-5.821-1.327a.195.195 0 0 1-.161-.118 3.515 3.515 0 0 0-.22-.43.196.196 0 0 1 .17-.295c.467.01 2.337.125 2.9.16a.194.194 0 0 1 .182.213c-.016.174-.033.328-.046.455a.193.193 0 0 1-.204.174 349.965 349.965 0 0 0-2.615-.159zm.118-.444l.027.064c.608.033 1.426.084 2.312.139l.01-.065a174.413 174.413 0 0 0-2.35-.138zm5.571.8a.192.192 0 0 1-.18-.196l.012-.435a.195.195 0 0 1 .21-.187c.913.082 2.158.202 2.863.277a.197.197 0 0 1 .165.141.192.192 0 0 1-.064.204 3.04 3.04 0 0 0-.264.243l-.06.062a.191.191 0 0 1-.15.056c-.381-.024-1.094-.072-1.964-.13l-.566-.034-.002-.001zm.214-.414l-.001.039.383.025c.336.022.652.044.931.06-.443-.042-.903-.084-1.313-.124zm-5.477-1.58c-.282-.02-.508-.038-.663-.051a.187.187 0 0 1-.152-.1.192.192 0 0 1-.002-.183l.124-.256a.196.196 0 0 1 .18-.11l.604.019a.189.189 0 0 1 .149.075.192.192 0 0 1 .036.16 5.832 5.832 0 0 1-.073.303.189.189 0 0 1-.203.143zm1.63.124a.193.193 0 0 1-.18-.196l.005-.362a.2.2 0 0 1 .061-.139.21.21 0 0 1 .14-.055l.722.032a.178.178 0 0 1 .14.065.198.198 0 0 1 .048.14l-.03.386a.196.196 0 0 1-.207.181l-.699-.05v-.002zm3.71.26a.192.192 0 0 1-.18-.206l.027-.401a.194.194 0 0 1 .067-.135.172.172 0 0 1 .144-.047c.24.022.484.043.727.067a.192.192 0 0 1 .176.204 4.19 4.19 0 0 1-.039.397.194.194 0 0 1-.203.167l-.719-.047v.001zm.22-.384v.008l.338.022a14.017 14.017 0 0 0-.337-.03zm-5.842-1.812a.196.196 0 0 1-.115-.05 1.43 1.43 0 0 0-.165-.13.192.192 0 0 1-.087-.182.196.196 0 0 1 .128-.16 2.234 2.234 0 0 1 .883-.09c.509.01 1.44.065 2.133.11h.002a.19.19 0 0 1 .177.203l-.016.323a.183.183 0 0 1-.067.134.193.193 0 0 1-.143.049l-.556-.042c-.838-.064-1.606-.125-2.172-.165zm5.755.434a.202.202 0 0 1-.132-.069.185.185 0 0 1-.046-.143c.014-.143.027-.273.04-.377a.189.189 0 0 1 .203-.17c.501.021.961.048 1.3.073a2.888 2.888 0 0 1 .55.072c.273.077.822.26 1.146.382a.195.195 0 0 1 .12.22.192.192 0 0 1-.198.156c-.124-.006-.292-.007-.537-.009l-.237-.004c-.281-.003-1.003-.046-2.208-.132l-.001.001zm1.302-.301z"/><path class="51351bc5-8fa4-4a8d-973a-27b99489deab" d="M57.876 58.77c.01-.14.03-1.819.062-2.057a.557.557 0 0 1 .17-.355c.047-.066.023-.096.033-.25.012-.156-.476-.604-.752-.852-.278-.247-.455-.318-.631-.245-.174.068-.35.238-.666.356a13.985 13.985 0 0 1-2.002-.141 2.984 2.984 0 0 1-.693-.41c-.09-.12-.235-.063-.363.126-.143.214-.739.775-.82.91-.082.135-.303.613-.183.708.121.092.1-.01.187.14.089.148.12-.09.12.28 0 .365-.186 2.892-.2 3.443a13.755 13.755 0 0 1-.171 1.781c-.06.248.015.57-.098.542-.083-.02-.15-.067-.267-.006-.148.073.713.806 1.132 1.036a1.27 1.27 0 0 0 .916.198c.134-.059.257-.007.269-.515.01-.508.043-1.453.058-2.186.005-.234.027-.79.054-1.456.167.007.366.01.608.012 1.552.013 1.372.182 1.586.248a.936.936 0 0 0 .778-.104 5.321 5.321 0 0 0 .908-.734c.091-.105-.049-.329-.035-.47zm-3.71-1.727l.033-.576c.485.018 1.122.066 1.392.089.13.01.308.02.49.03.004.148.009.314.007.497-.464-.012-1.188-.031-1.922-.04zm1.815 1.63c-.506-.024-1.284-.052-1.893-.072l.018-.392 1.93.028c-.014.153-.037.301-.055.437zm8.279-.418c.194.016.323-1.06.127-1.442a2.788 2.788 0 0 0-.98-1.21 1.22 1.22 0 0 0-.537-.169.386.386 0 0 0-.484.245c-.008.024-.019.07-.031.13a6.661 6.661 0 0 1-2.296-.32c-.075-.083-.15-.158-.213-.222-.13-.135-.156-.106-.302-.124-.228-.026-.95.619-1.117.76a.37.37 0 0 0-.097.488c.085.175.12.108.098.375a11.168 11.168 0 0 1-.133 2.05c-.142.216-.252.347-.152.496a6.807 6.807 0 0 0 .51.718.684.684 0 0 0 .975.15c.006-.003.009-.007.016-.01a16.33 16.33 0 0 1 2.432.161c-.025.441-.051.82-.07 1.052a9.51 9.51 0 0 1-.26 1.872 24.88 24.88 0 0 1-3.111-.315 3.572 3.572 0 0 0-.99-.176c-.085.02-.08.317.298.56.375.241 2.728.667 3.37.955.641.293.69.367.905.343a2.63 2.63 0 0 0 1.323-.477c.41-.363.312-.921.309-1.6-.003-.678.12-3.322.146-3.647.025-.322.065-.659.264-.643zm-3.84-1.393a40.46 40.46 0 0 1 1.835.189l-.017.47a24.785 24.785 0 0 1-1.864-.15l.046-.509zm-.178 2.019c.011-.132.024-.263.034-.389.52.027 1.356.073 1.905.124l-.023.385c-.51-.02-1.376-.073-1.916-.12z"/><path class="51351bc5-8fa4-4a8d-973a-27b99489deab" d="M66.066 50.36a13.304 13.304 0 0 0-.866-1.797 5.937 5.937 0 0 0-.514-.855.597.597 0 0 0-.184-.139c.056-.3-.324-.865-.87-1.286-.651-.503-.666-.491-.945-.54-.279-.05-.454.035-.934.012-.476-.023-1.205-.11-2.925-.188-1.717-.08-3.425-.256-3.82-.287-.392-.031-.767.435-.969.658a5.224 5.224 0 0 0-.515.877 1.762 1.762 0 0 0-.432.13c-.122.058-.041.205-.006.34a.624.624 0 0 1-.085.541c-.243.407-.542.7-.714.73-.173.028-.417-.097-.492.32a3.432 3.432 0 0 0 .013 1.463c.135.435.58.429.957.224a3.58 3.58 0 0 0 .774-.735c.04.045.08.089.12.129l-.022.018c-.224.182-1.307.987-1.368 1.05a.683.683 0 0 1 .255.544c-.01.295.029 1.386-.024 1.565a.734.734 0 0 1-.243.378c-.074.038-.107.288.115.516.222.23.732 1.104.918 1.073a2.93 2.93 0 0 0 .835-.397.503.503 0 0 0 .058-.05c1.323.016 6.743.333 8.245.446.12.08.273.122.437.22a1.274 1.274 0 0 0 1.008.122 1.388 1.388 0 0 0 .554-.592c.01-.11.07-1.068.087-1.307a.697.697 0 0 1 .227-.532c.17-.159-.011-.58-.092-.8a5.885 5.885 0 0 0-.698-1.171 2.834 2.834 0 0 0-.178-.227.343.343 0 0 0 .065-.034c.151.2.321.475.46.649.398.498.694.586 1.01.344a1.494 1.494 0 0 0 .758-1.413zm-3.916-3.02c.252.072.805.254 1.135.378-.165-.005-.405-.006-.781-.011-.313-.004-1.151-.058-2.197-.132.013-.142.028-.272.039-.373a15.508 15.508 0 0 1 1.804.139zm-1.26 2.042c-.226-.016-.464-.03-.717-.045l.026-.402q.36.031.727.067c-.008.12-.022.27-.035.38zm-6.399 3.74v-.174c.56.032 1.41.092 2.36.162a8.471 8.471 0 0 1-.05.403l-2.31-.152v-.239zm.062-1.526a76.68 76.68 0 0 1 2.393.11l-.022.473a958.83 958.83 0 0 1-2.412-.15c.014-.188.027-.315.04-.433zm-.374-1.461c.365.008 1.657.085 2.89.163-.015.172-.03.327-.043.453a264.973 264.973 0 0 0-2.617-.16 3.81 3.81 0 0 0-.23-.456zm8.19 1.948c.001.12-.004.266-.015.433a560.28 560.28 0 0 0-2.348-.148q.012-.256.026-.465c.967.07 1.814.134 2.337.18zm-5.207-2.953l-.7-.05.007-.365.72.03-.027.385zm2.809 4.234c.973.09 1.816.17 2.296.235l-.023.263c-.425-.026-1.271-.08-2.28-.145 0-.109.005-.226.007-.353zm2.657-2.252c-.464-.029-1.412-.09-2.531-.164.002-.122.006-.265.011-.431.91.08 2.154.202 2.857.277a4.044 4.044 0 0 0-.337.318zm-7.45-4.194c.488.01 1.383.06 2.124.11l-.02.32c-1.051-.08-2.038-.158-2.73-.207a1.84 1.84 0 0 0-.19-.146 2.047 2.047 0 0 1 .816-.077zm-.988 1.956c.037-.074.076-.153.112-.234.177.006.382.011.603.02-.022.1-.048.202-.071.296a55.802 55.802 0 0 1-.66-.053.143.143 0 0 1 .016-.029zm9.683 1.872a.575.575 0 0 0 .088-.37 2.768 2.768 0 0 0-.544-1.001.335.335 0 0 0-.26-.09s-.124.144-.636.175h-.066a1.944 1.944 0 0 1 .006-.306c.43.045.803.086 1.084.118a6.636 6.636 0 0 1 .355.737 1.1 1.1 0 0 1 .166.648c-.01.06-.084.074-.193.09z"/><path class="0bf2de84-ad7b-44a3-9b12-1bd9129bb6cf" transform="rotate(4.502 59.594 45.412)" d="M39.81 42.684h39.568v5.455H39.81z"/><path class="d628cdf1-0d0e-4a99-bdf8-7406124d966b" transform="rotate(4.493 89.408 62.348)" d="M78.172 45.188h22.472v34.32H78.172z"/><path class="de385976-92f4-4b2f-8183-3c3268042c7e" transform="rotate(4.49 80.917 72.828)" d="M79.783 66.693h2.268v12.269h-2.268z"/><path class="de385976-92f4-4b2f-8183-3c3268042c7e" transform="rotate(4.519 96.154 74.026)" d="M95.021 67.892h2.267V80.16h-2.267z"/><path class="de385976-92f4-4b2f-8183-3c3268042c7e" transform="rotate(4.52 93.106 73.787)" d="M91.972 67.653h2.268v12.269h-2.268z"/><path class="de385976-92f4-4b2f-8183-3c3268042c7e" transform="rotate(4.5 90.058 73.547)" d="M88.925 67.412h2.266v12.27h-2.266z"/><path class="de385976-92f4-4b2f-8183-3c3268042c7e" transform="rotate(4.522 87.012 73.307)" d="M85.878 67.172h2.268v12.27h-2.268z"/><path class="de385976-92f4-4b2f-8183-3c3268042c7e" transform="rotate(4.496 83.965 73.068)" d="M82.831 66.934h2.266v12.269h-2.266z"/><path class="de385976-92f4-4b2f-8183-3c3268042c7e" transform="rotate(4.446 82.837 48.425)" d="M81.704 44.789h2.267v7.271h-2.267z"/><path class="de385976-92f4-4b2f-8183-3c3268042c7e" transform="rotate(4.525 98.074 49.624)" d="M96.941 45.989h2.266v7.27h-2.266z"/><path class="de385976-92f4-4b2f-8183-3c3268042c7e" transform="rotate(4.493 95.027 49.384)" d="M93.893 45.748h2.268v7.272h-2.268z"/><path class="de385976-92f4-4b2f-8183-3c3268042c7e" transform="rotate(4.495 91.979 49.144)" d="M90.845 45.508h2.267v7.271h-2.267z"/><path class="de385976-92f4-4b2f-8183-3c3268042c7e" transform="rotate(4.469 88.932 48.904)" d="M87.798 45.268h2.267v7.272h-2.267z"/><path class="de385976-92f4-4b2f-8183-3c3268042c7e" transform="rotate(4.546 85.884 48.665)" d="M84.751 45.029h2.266V52.3h-2.266z"/><path class="4ebc8616-64da-4e87-a005-bdbd7308b147" transform="rotate(4.499 90.15 52.912)" d="M79.014 51.154h22.272v3.516H79.014z"/><path class="4ebc8616-64da-4e87-a005-bdbd7308b147" transform="rotate(4.502 89.013 67.326)" d="M77.88 65.568h22.27v3.519H77.88z"/><path class="4ebc8616-64da-4e87-a005-bdbd7308b147" transform="rotate(4.502 88.054 79.543)" d="M76.918 77.784H99.19v3.518H76.918z"/><path class="4ebc8616-64da-4e87-a005-bdbd7308b147" transform="rotate(4.503 101.767 62.686)" d="M98.839 46.328h5.847v32.709h-5.847z"/><path class="d628cdf1-0d0e-4a99-bdf8-7406124d966b" transform="rotate(4.501 100.359 80.512)" d="M97.267 77.591h6.184v5.844h-6.184z"/><path class="43dee6cb-29e2-48ee-97c5-9eb82448d8a8" transform="rotate(4.569 102.414 54.394)" d="M101.169 53.149h2.49v2.489h-2.49z"/><path class="43dee6cb-29e2-48ee-97c5-9eb82448d8a8" transform="rotate(4.521 101.28 68.81)" d="M100.034 67.565h2.49v2.49h-2.49z"/><path class="4ebc8616-64da-4e87-a005-bdbd7308b147" transform="rotate(4.522 77.153 60.748)" d="M74.229 44.393h5.847v32.709h-5.847z"/><path class="d628cdf1-0d0e-4a99-bdf8-7406124d966b" transform="rotate(4.502 75.75 78.575)" d="M72.659 75.653h6.183v5.845h-6.183z"/><path class="43dee6cb-29e2-48ee-97c5-9eb82448d8a8" transform="rotate(4.456 77.805 52.457)" d="M76.561 51.211h2.49v2.491h-2.49z"/><path class="43dee6cb-29e2-48ee-97c5-9eb82448d8a8" transform="rotate(4.521 76.67 66.873)" d="M75.425 65.626h2.491v2.492h-2.491z"/><path class="5cd58b65-6755-4fec-8ec0-e491ffeda7a9" transform="rotate(4.498 90.634 46.758)" d="M75.368 45.235H105.9v3.046H75.368z"/><path class="d628cdf1-0d0e-4a99-bdf8-7406124d966b" transform="rotate(4.502 26.81 57.421)" d="M15.574 40.26h22.471v34.322H15.574z"/><path class="de385976-92f4-4b2f-8183-3c3268042c7e" transform="rotate(4.525 18.319 67.902)" d="M17.187 61.766h2.264v12.271h-2.264z"/><path class="de385976-92f4-4b2f-8183-3c3268042c7e" transform="rotate(4.469 33.557 69.101)" d="M32.423 62.966h2.267v12.27h-2.267z"/><path class="de385976-92f4-4b2f-8183-3c3268042c7e" transform="rotate(4.522 30.51 68.86)" d="M29.376 62.725h2.266v12.27h-2.266z"/><path class="de385976-92f4-4b2f-8183-3c3268042c7e" transform="rotate(4.472 27.463 68.621)" d="M26.329 62.486h2.268v12.269h-2.268z"/><path class="de385976-92f4-4b2f-8183-3c3268042c7e" transform="rotate(4.452 24.415 68.38)" d="M23.282 62.246h2.265v12.27h-2.265z"/><path class="de385976-92f4-4b2f-8183-3c3268042c7e" transform="rotate(4.499 21.367 68.141)" d="M20.234 62.006h2.267v12.271h-2.267z"/><path class="de385976-92f4-4b2f-8183-3c3268042c7e" transform="rotate(4.501 20.24 43.499)" d="M19.107 39.863h2.266v7.271h-2.266z"/><path class="de385976-92f4-4b2f-8183-3c3268042c7e" transform="rotate(4.474 35.477 44.698)" d="M34.343 41.062h2.268v7.272h-2.268z"/><path class="de385976-92f4-4b2f-8183-3c3268042c7e" transform="rotate(4.522 32.43 44.457)" d="M31.295 40.821h2.267v7.271h-2.267z"/><path class="de385976-92f4-4b2f-8183-3c3268042c7e" transform="rotate(4.498 29.382 44.217)" d="M28.249 40.582h2.266v7.271h-2.266z"/><path class="de385976-92f4-4b2f-8183-3c3268042c7e" transform="rotate(4.47 26.335 43.978)" d="M25.202 40.343h2.267v7.27h-2.267z"/><path class="de385976-92f4-4b2f-8183-3c3268042c7e" transform="rotate(4.477 23.287 43.738)" d="M22.154 40.102h2.267v7.271h-2.267z"/><path class="4ebc8616-64da-4e87-a005-bdbd7308b147" transform="rotate(4.502 27.552 47.986)" d="M16.416 46.227h22.272v3.518H16.416z"/><path class="4ebc8616-64da-4e87-a005-bdbd7308b147" transform="rotate(4.502 26.418 62.402)" d="M15.283 60.642h22.27v3.52h-22.27z"/><path class="4ebc8616-64da-4e87-a005-bdbd7308b147" transform="rotate(4.502 25.456 74.617)" d="M14.319 72.858h22.273v3.519H14.319z"/><path class="4ebc8616-64da-4e87-a005-bdbd7308b147" transform="rotate(4.523 39.165 57.757)" d="M36.242 41.402h5.846v32.71h-5.846z"/><path class="d628cdf1-0d0e-4a99-bdf8-7406124d966b" transform="rotate(4.503 37.761 75.588)" d="M34.669 72.663h6.182v5.846h-6.182z"/><path class="43dee6cb-29e2-48ee-97c5-9eb82448d8a8" transform="rotate(4.521 39.817 49.467)" d="M38.571 48.222h2.491v2.489h-2.491z"/><path class="43dee6cb-29e2-48ee-97c5-9eb82448d8a8" transform="rotate(4.474 38.681 63.884)" d="M37.435 62.638h2.492v2.492h-2.492z"/><path class="4ebc8616-64da-4e87-a005-bdbd7308b147" transform="rotate(4.502 14.556 55.82)" d="M11.632 39.466h5.848v32.71h-5.848z"/><path class="d628cdf1-0d0e-4a99-bdf8-7406124d966b" transform="rotate(4.5 13.152 73.648)" d="M10.06 70.726h6.185v5.845H10.06z"/><path class="43dee6cb-29e2-48ee-97c5-9eb82448d8a8" transform="rotate(4.454 15.208 47.53)" d="M13.963 46.286h2.49v2.49h-2.49z"/><path class="43dee6cb-29e2-48ee-97c5-9eb82448d8a8" transform="rotate(4.52 14.072 61.947)" d="M12.827 60.702h2.49v2.491h-2.49z"/><path class="5cd58b65-6755-4fec-8ec0-e491ffeda7a9" transform="rotate(4.504 28.037 41.831)" d="M12.771 40.309h30.532v3.045H12.771z"/><path class="43dee6cb-29e2-48ee-97c5-9eb82448d8a8" transform="rotate(4.5 60.206 37.631)" d="M14.909 33.508h90.593v8.246H14.909z"/><path class="d628cdf1-0d0e-4a99-bdf8-7406124d966b" transform="rotate(4.504 59.891 37.237)" d="M52.355 32.572h15.073v9.331H52.355z"/><path class="4ebc8616-64da-4e87-a005-bdbd7308b147" transform="rotate(4.5 59.5 42.22)" d="M12.39 40.27h94.217v3.897H12.39z"/><path class="4ebc8616-64da-4e87-a005-bdbd7308b147" transform="rotate(4.511 104.988 40.165)" d="M103.528 34.882h2.921v10.566h-2.921z"/><path class="4ebc8616-64da-4e87-a005-bdbd7308b147" transform="rotate(4.479 91.325 39.091)" d="M89.863 33.806h2.924v10.569h-2.924z"/><path class="4ebc8616-64da-4e87-a005-bdbd7308b147" transform="rotate(4.505 28.554 34.15)" d="M27.093 28.867h2.921v10.568h-2.921z"/><path class="4ebc8616-64da-4e87-a005-bdbd7308b147" transform="rotate(4.487 14.89 33.074)" d="M13.429 27.79h2.923v10.568h-2.923z"/><path class="5cd58b65-6755-4fec-8ec0-e491ffeda7a9" transform="rotate(4.498 60.02 35.59)" d="M13.37 33.488h93.3v4.204h-93.3z"/><path class="d628cdf1-0d0e-4a99-bdf8-7406124d966b" d="M113.575 8.04a120.02 120.02 0 0 1-7.262 2.68c-2.956.977-3.932.653-8.78.394-3.606-.19-67.143-5.19-70.732-5.566-4.83-.503-5.844-.335-8.611-1.764A119.161 119.161 0 0 1 11.437 0c-.15 2.245-.382 5.567-.696 8.507L112.93 16.55c.152-2.952.441-6.27.646-8.51z"/><path class="9b9a08a5-d6ba-48fb-bb04-3a63fc81512b" d="M114.758 30.061c-1.394-1.995-1.724-5.79-1.752-9.192-.025-3.395.451-8.89.747-12.135-1.731.7-4.347 1.72-7.294 2.693-2.97.983-3.95.654-8.82.396-3.622-.191-67.446-5.214-71.053-5.592-4.853-.506-5.871-.337-8.65-1.77A119.117 119.117 0 0 1 11.15.656c-.211 3.254-.603 8.757-1.163 12.108-.553 3.35-1.475 7.052-3.165 8.804-1.69 1.753-2.931 2.62-6.822 3.069 1.612 1.886 6.667 4.758 9.611 5.702 2.51.805 6.918 1.047 12.081 1.453 2.221.173 74.559 5.867 76.778 6.043 5.166.406 9.558.856 12.16.454 3.058-.473 8.5-2.518 10.386-4.128-3.774-1.053-4.866-2.102-6.258-4.1z"/><g class="50c3b9b7-7a30-4420-a7e8-296bfc2e059f"><path class="d628cdf1-0d0e-4a99-bdf8-7406124d966b" d="M1.95 26.191l-.098-.83a9.103 9.103 0 0 0 6.692-3.69c1.123-1.474 2.397-5.16 2.966-8.572.386-2.329.772-6.364 1.14-11.985l.835.055c-.372 5.65-.76 9.71-1.151 12.068-.51 3.073-1.75 7.133-3.125 8.94a10.096 10.096 0 0 1-7.26 4.014z"/><path class="d628cdf1-0d0e-4a99-bdf8-7406124d966b" d="M3.98 27.357l-.095-.83c3.404-.391 6.453-3.286 7.323-4.546 1.395-2.022 2.41-5.864 2.855-8.54.49-2.959.917-8.73 1.123-11.906l.835.054c-.21 3.193-.635 8.995-1.134 11.988-.456 2.76-1.519 6.743-2.992 8.879-.975 1.414-4.19 4.474-7.915 4.901z"/><path class="d628cdf1-0d0e-4a99-bdf8-7406124d966b" d="M6.13 28.422l-.095-.831c2.099-.24 5.455-2.045 7.859-5.43 1.165-1.684 2.06-4.463 2.732-8.492.506-3.052.975-9.822 1.107-11.824l.833.055c-.13 2.011-.601 8.815-1.117 11.909-.69 4.15-1.629 7.04-2.87 8.833-1.384 1.947-4.717 5.35-8.448 5.78z"/><path class="d628cdf1-0d0e-4a99-bdf8-7406124d966b" d="M8.852 29.362l-.098-.83c3.435-.395 6.502-4.111 7.661-5.688 1.668-2.27 2.163-5.399 2.558-7.908l.147-.93c.515-3.09 1.036-10.864 1.094-11.743l.835.053c-.059.88-.583 8.698-1.104 11.828-.05.3-.097.605-.147.921-.411 2.601-.92 5.837-2.708 8.273-1.225 1.668-4.48 5.592-8.238 6.024z"/><path class="d628cdf1-0d0e-4a99-bdf8-7406124d966b" d="M11.637 30.197l-.097-.832c2.705-.31 6.059-4.045 7.573-6.596 1.354-2.279 2.026-5.536 2.506-8.425.406-2.429.881-8.693 1.075-11.664l.836.054c-.196 2.987-.678 9.284-1.086 11.747-.492 2.964-1.19 6.32-2.611 8.714-1.493 2.515-5.039 6.638-8.196 7.002z"/><path class="d628cdf1-0d0e-4a99-bdf8-7406124d966b" d="M14.79 30.61l-.098-.827c1.124-.129 2.588-1.07 4.127-2.642a17.546 17.546 0 0 0 3.008-4.042 37.48 37.48 0 0 0 2.402-8.41c.37-2.24.874-8.772 1.057-11.584l.835.054c-.146 2.246-.661 9.215-1.07 11.67a38.033 38.033 0 0 1-2.473 8.634c-1.093 2.248-4.83 6.807-7.789 7.147z"/><path class="d628cdf1-0d0e-4a99-bdf8-7406124d966b" d="M17.955 30.86l-.096-.829c1.029-.118 2.297-1.002 3.671-2.553a23.74 23.74 0 0 0 2.869-4.11c1.274-2.343 1.973-6.55 2.272-8.347.36-2.172.89-9.195 1.044-11.504l.832.055c-.151 2.32-.685 9.381-1.054 11.587-.473 2.86-1.174 6.421-2.36 8.608a24.757 24.757 0 0 1-2.978 4.265c-1.533 1.735-2.948 2.684-4.2 2.827z"/><path class="d628cdf1-0d0e-4a99-bdf8-7406124d966b" d="M21.105 31.332l-.098-.831c2.096-.24 4.783-4.21 5.941-6.817a39.74 39.74 0 0 0 2.162-8.33c.348-2.084.903-9.511 1.028-11.425l.834.056c-.126 1.922-.685 9.388-1.038 11.507a40.495 40.495 0 0 1-2.223 8.53c-1.185 2.668-4.026 7.013-6.606 7.31z"/><path class="d628cdf1-0d0e-4a99-bdf8-7406124d966b" d="M23.894 31.385l-.096-.831c.876-.102 2.023-.971 3.225-2.449a17.236 17.236 0 0 0 2.48-4.12 50.322 50.322 0 0 0 2.05-8.299c.307-1.84.873-9.244 1.01-11.343l.836.053c-.141 2.11-.71 9.556-1.021 11.428a51.475 51.475 0 0 1-2.097 8.467c-.935 2.389-3.869 6.806-6.387 7.094z"/><path class="d628cdf1-0d0e-4a99-bdf8-7406124d966b" d="M26.824 31.782l-.093-.829c1.74-.201 4.171-4.038 5.342-6.697a33.227 33.227 0 0 0 1.794-7.442c.047-.297.09-.566.13-.795.282-1.713.878-9.536.992-11.264l.835.057c-.119 1.797-.712 9.574-1.004 11.344-.039.228-.08.491-.126.787a33.85 33.85 0 0 1-1.855 7.649c-1.042 2.365-3.64 6.917-6.015 7.19z"/><path class="d628cdf1-0d0e-4a99-bdf8-7406124d966b" d="M29.592 32.112l-.096-.83c1.31-.15 3.85-3.004 5.158-6.454a37.96 37.96 0 0 0 1.763-8.321l.019-.14c.21-1.61.877-9.652.98-11.2l.834.054c-.102 1.553-.775 9.631-.987 11.254l-.018.14a38.8 38.8 0 0 1-1.807 8.51c-1.026 2.7-3.696 6.74-5.846 6.987z"/><path class="d628cdf1-0d0e-4a99-bdf8-7406124d966b" d="M32.883 32.204l-.095-.83c1.33-.154 3.222-3.049 4.32-5.693a33.774 33.774 0 0 0 1.766-8.965l.183-2.032c.268-3.01.716-8.05.784-9.105l.834.054c-.068 1.067-.52 6.111-.788 9.128-.084.942-.15 1.68-.179 2.027a34.628 34.628 0 0 1-1.827 9.213c-.914 2.195-2.994 5.973-4.998 6.203z"/><path class="d628cdf1-0d0e-4a99-bdf8-7406124d966b" d="M35.883 32.44l-.1-.83c2.273-.272 3.575-4.41 3.92-5.676a48.866 48.866 0 0 0 1.57-8.689c.21-2.238.914-10.006.994-11.256l.833.057c-.081 1.256-.786 9.037-.994 11.277a49.342 49.342 0 0 1-1.6 8.834 15.849 15.849 0 0 1-1.568 3.853 4.378 4.378 0 0 1-3.055 2.43z"/><path class="d628cdf1-0d0e-4a99-bdf8-7406124d966b" d="M38.907 32.679l-.094-.83c1.07-.125 2.614-2.083 3.367-5.475a76.557 76.557 0 0 0 1.579-8.996c.092-.987.86-9.878.934-10.974l.833.055c-.07 1.081-.819 9.733-.935 10.997a77.789 77.789 0 0 1-1.595 9.1c-.758 3.416-2.438 5.932-4.089 6.123z"/><path class="d628cdf1-0d0e-4a99-bdf8-7406124d966b" d="M42.045 32.857l-.192-.813c1.316-.312 2.402-2.718 2.897-4.962a89.255 89.255 0 0 0 1.45-9.365c.03-.407.185-2.2.362-4.277.244-2.854.52-6.086.557-6.624l.834.055c-.036.543-.313 3.783-.558 6.642-.178 2.074-.33 3.862-.362 4.265a89.785 89.785 0 0 1-1.466 9.48c-.186.84-1.222 5.055-3.522 5.6zm3.221.143l-.172-.818c1.134-.234 1.877-3.748 2.157-5.07.042-.195.077-.365.107-.499.3-1.324 1.1-6.224 1.286-8.564.021-.292.141-1.719.288-3.454.252-2.982.595-7.066.627-7.557l.833.056c-.032.497-.364 4.419-.63 7.571-.145 1.734-.265 3.156-.285 3.447-.187 2.373-1 7.343-1.303 8.684-.028.135-.066.299-.105.487-.59 2.791-1.34 5.414-2.803 5.717zm3.056.33l-.304-.78c.796-.314 1.413-3.18 1.745-4.723.07-.332.135-.639.198-.902.321-1.384.808-5.406 1.123-8.553.06-.602.871-10.443.912-11.085l.834.053c-.043.646-.854 10.514-.914 11.116-.32 3.174-.812 7.24-1.141 8.66-.062.26-.128.56-.197.887-.568 2.652-1.133 4.884-2.256 5.326zm3.057.345l-.563-.616c.767-.702 1.45-4.761 1.706-6.291l.032-.183c.315-1.874.915-7.01.982-7.994.016-.239.218-2.726.435-5.363.227-2.766.463-5.622.477-5.86l.834.055c-.018.244-.25 3.105-.477 5.874-.207 2.516-.422 5.117-.437 5.351-.068.994-.672 6.185-.99 8.076l-.031.183c-.476 2.842-1.064 5.943-1.968 6.768zm2.815.43l-.096-.829a.32.32 0 0 0-.229.12 42.962 42.962 0 0 0 1.247-6.536c.229-1.619.807-6.902.865-7.977.008-.185.252-3.144.562-6.992.17-2.103.332-4.091.34-4.22l.833.055c-.008.134-.155 1.942-.341 4.233-.244 3.021-.55 6.782-.56 6.966-.06 1.12-.635 6.377-.87 8.05-.109.768-.362 2.471-.64 3.99-.542 2.944-.741 3.097-1.11 3.14zm3.284-.027l-.777-.314a54.944 54.944 0 0 0 .985-6.678c.167-1.36.45-4.639.623-6.597.097-1.134.12-1.405.129-1.464.04-.344.883-11.104.89-11.19l.833.055c-.005.098-.868 11.083-.898 11.268-.008.067-.06.685-.124 1.403-.171 1.963-.455 5.251-.626 6.628-.677 5.562-.917 6.595-1.035 6.89z"/><path class="d628cdf1-0d0e-4a99-bdf8-7406124d966b" transform="rotate(-85.579 61.16 21.108)" d="M48.235 20.691h25.852v.835H48.235z"/><path class="d628cdf1-0d0e-4a99-bdf8-7406124d966b" d="M118.85 35.392a10.106 10.106 0 0 1-6.548-5.102c-1.074-1.998-1.661-6.201-1.686-9.318-.018-2.391.235-6.46.753-12.099l.832.076c-.515 5.612-.766 9.655-.75 12.015.028 3.459.712 7.3 1.59 8.931a9.22 9.22 0 0 0 6.033 4.69z"/><path class="d628cdf1-0d0e-4a99-bdf8-7406124d966b" d="M116.661 36.227c-3.61-1.006-6.311-4.533-7.054-6.081-1.12-2.34-1.542-6.439-1.562-9.239-.025-3.034.462-8.83.753-12.015l.83.076c-.29 3.169-.773 8.935-.751 11.934.022 2.713.422 6.666 1.484 8.884.662 1.38 3.222 4.715 6.525 5.635z"/><path class="d628cdf1-0d0e-4a99-bdf8-7406124d966b" d="M114.368 36.941a10.452 10.452 0 0 1-4.537-2.946 17.158 17.158 0 0 1-2.898-4.081c-.949-1.968-1.423-4.969-1.457-9.178-.025-3.133.574-9.93.757-11.936l.833.077c-.181 1.997-.777 8.757-.753 11.852.03 4.084.478 6.967 1.37 8.818 1.842 3.716 4.874 6.022 6.91 6.589z"/><path class="d628cdf1-0d0e-4a99-bdf8-7406124d966b" d="M111.534 37.444c-3.645-1.014-6.244-5.403-7.196-7.239-1.383-2.684-1.379-5.96-1.38-8.595.002-.322.002-.633-.002-.934-.023-3.176.682-10.975.76-11.853l.834.077c-.078.874-.78 8.633-.757 11.77v.94c-.001 2.543-.002 5.708 1.29 8.21.897 1.74 3.348 5.89 6.674 6.82z"/><path class="d628cdf1-0d0e-4a99-bdf8-7406124d966b" d="M108.655 37.832c-3.065-.854-5.92-5.48-7-8.198-1.032-2.588-1.196-6.01-1.217-9.015-.02-2.494.492-8.79.765-11.77l.832.074c-.27 2.968-.78 9.226-.761 11.691.022 2.927.176 6.25 1.157 8.713 1.097 2.757 3.822 6.969 6.448 7.7z"/><path class="d628cdf1-0d0e-4a99-bdf8-7406124d966b" d="M105.476 37.749c-2.872-.799-5.85-5.889-6.576-8.277a38.377 38.377 0 0 1-1.094-8.921c-.017-2.483.565-9.446.768-11.687l.833.075c-.257 2.807-.781 9.337-.764 11.606a37.35 37.35 0 0 0 1.054 8.684 17.626 17.626 0 0 0 2.338 4.459c1.276 1.796 2.575 2.954 3.664 3.257z"/><path class="d628cdf1-0d0e-4a99-bdf8-7406124d966b" d="M102.308 37.5c-1.216-.339-2.464-1.5-3.706-3.452a24.804 24.804 0 0 1-2.274-4.678c-.832-2.344-.963-5.973-.985-8.873-.017-2.236.56-9.292.771-11.606l.832.075c-.209 2.306-.782 9.32-.767 11.526.014 1.821.049 6.086.936 8.6a23.87 23.87 0 0 0 2.19 4.507c1.116 1.747 2.231 2.818 3.228 3.096z"/><path class="d628cdf1-0d0e-4a99-bdf8-7406124d966b" d="M99.125 37.474c-2.503-.699-4.63-5.434-5.382-8.256a40.3 40.3 0 0 1-.862-8.774c-.019-2.147.6-9.608.773-11.528l.833.078c-.175 1.91-.789 9.328-.772 11.444a39.908 39.908 0 0 0 .832 8.567c.737 2.755 2.772 7.098 4.8 7.664z"/><path class="d628cdf1-0d0e-4a99-bdf8-7406124d966b" d="M96.361 37.088c-2.44-.679-4.65-5.5-5.2-8.005a51.11 51.11 0 0 1-.745-8.691c-.017-2.004.616-9.67.778-11.447l.832.078c-.192 2.095-.79 9.497-.775 11.362a50.275 50.275 0 0 0 .727 8.518 17.142 17.142 0 0 0 1.806 4.455c.954 1.649 1.95 2.689 2.802 2.924z"/><path class="d628cdf1-0d0e-4a99-bdf8-7406124d966b" d="M93.404 37.022c-2.301-.64-4.156-5.54-4.816-8.042a33.916 33.916 0 0 1-.635-7.844c.002-.3.002-.569 0-.8-.014-1.791.617-9.566.781-11.361l.833.076c-.158 1.724-.794 9.544-.78 11.279.001.232.003.505.001.806a33.354 33.354 0 0 0 .609 7.633c.739 2.808 2.543 6.979 4.231 7.448z"/><path class="d628cdf1-0d0e-4a99-bdf8-7406124d966b" d="M90.618 36.915c-2.084-.581-4.092-4.988-4.68-7.816a38.859 38.859 0 0 1-.455-8.687l.005-.143c.045-1.638.644-9.72.787-11.268l.83.077c-.138 1.542-.738 9.59-.78 11.213l-.005.144a38.169 38.169 0 0 0 .436 8.495c.754 3.612 2.815 6.827 4.087 7.18z"/><path class="d628cdf1-0d0e-4a99-bdf8-7406124d966b" d="M87.355 36.491c-1.945-.54-3.41-4.599-3.965-6.909a34.484 34.484 0 0 1-.364-9.384c.024-.35.076-1.088.138-2.03.207-3.02.554-8.075.649-9.138l.835.076c-.097 1.052-.443 6.103-.65 9.118l-.14 2.03a33.86 33.86 0 0 0 .343 9.133c.673 2.785 2.085 5.94 3.378 6.299z"/><path class="d628cdf1-0d0e-4a99-bdf8-7406124d966b" d="M84.353 36.255a4.386 4.386 0 0 1-2.636-2.877 15.782 15.782 0 0 1-.948-4.052 49.572 49.572 0 0 1-.195-8.976c.145-2.245.666-10.04.782-11.292l.83.077c-.114 1.244-.633 9.024-.78 11.268a48.587 48.587 0 0 0 .195 8.83c.141 1.301.78 5.594 2.98 6.216z"/><path class="d628cdf1-0d0e-4a99-bdf8-7406124d966b" d="M81.328 36.017c-1.6-.446-2.865-3.196-3.078-6.687a77.495 77.495 0 0 1-.152-9.24c.065-.986.694-9.9.794-11.005l.833.079c-.095 1.038-.712 9.751-.793 10.983a76.56 76.56 0 0 0 .152 9.131c.212 3.466 1.43 5.645 2.468 5.933z"/><path class="d628cdf1-0d0e-4a99-bdf8-7406124d966b" d="M78.202 35.703c-2.185-.897-2.55-5.223-2.602-6.078a90.042 90.042 0 0 1 .035-9.592c.032-.403.162-2.197.31-4.275.205-2.86.44-6.1.49-6.646l.83.078a934.35 934.35 0 0 0-.487 6.628 766.878 766.878 0 0 1-.311 4.28 88.737 88.737 0 0 0-.032 9.475c.135 2.295.837 4.843 2.086 5.357zm-3.201-.363c-1.4-.527-1.726-3.236-1.875-6.083l-.027-.498c-.091-1.373-.115-6.408.073-8.78.02-.292.127-1.718.254-3.455.23-3.153.515-7.077.561-7.574l.833.077c-.046.49-.344 4.575-.563 7.558-.126 1.74-.232 3.168-.254 3.458-.187 2.343-.161 7.307-.071 8.66l.029.51c.07 1.35.253 4.937 1.335 5.348zm-3.072-.153c-1.042-.616-1.247-2.906-1.397-5.614-.015-.334-.033-.64-.053-.906-.106-1.457.045-5.547.226-8.734.035-.602.776-10.473.837-11.119l.832.077c-.06.642-.802 10.49-.832 11.09-.184 3.16-.332 7.206-.23 8.625.02.273.038.582.055.923.086 1.57.246 4.502.987 4.938zm-3.074-.137c-.764-.956-.857-4.112-.885-6.992l-.002-.186c-.019-1.92.199-7.14.285-8.13.022-.233.22-2.861.411-5.402.207-2.744.42-5.585.442-5.83l.832.076c-.021.237-.235 3.075-.44 5.817-.201 2.66-.391 5.172-.413 5.41-.087.983-.3 6.147-.282 8.05l.003.187c.012 1.55.054 5.666.7 6.48zm-2.848-.017c-.358-.1-.532-.28-.605-3.272a108.134 108.134 0 0 1-.007-4.041c.029-1.69.282-6.971.399-8.088.019-.182.304-3.908.53-6.9.172-2.237.319-4.168.332-4.303l.831.076c-.011.128-.165 2.148-.329 4.287-.29 3.815-.514 6.746-.532 6.93-.114 1.07-.368 6.38-.398 8.011a42.561 42.561 0 0 0 .213 6.65.34.34 0 0 0-.207-.152zm-3.237-.538c-.073-.308-.145-1.365.052-6.968.05-1.386.283-4.68.42-6.648.052-.716.095-1.336.098-1.406-.001-.183.866-11.165.874-11.264l.833.077c-.008.084-.857 10.845-.871 11.202-.003.048-.019.318-.099 1.45-.137 1.962-.372 5.248-.42 6.62a55.407 55.407 0 0 0-.073 6.748z"/></g><path class="d628cdf1-0d0e-4a99-bdf8-7406124d966b" d="M119.23 33.59c-.052.028-.095.054-.125.068l-.028.019a31.046 31.046 0 0 1-8.676 3.126 42.145 42.145 0 0 1-8.017-.161c-.586-.047-1.19-.096-1.807-.149h-.042c-.635-.052-1.284-.107-1.947-.158l-76.774-6.043c-.664-.052-1.314-.1-1.95-.148l-.044-.005c-.615-.045-1.218-.092-1.803-.138a42.311 42.311 0 0 1-7.947-1.095 30.957 30.957 0 0 1-8.04-4.416 6.004 6.004 0 0 0-.15-.143c-.553.111-1.173.208-1.88.29 1.612 1.886 6.667 4.758 9.611 5.702 2.51.805 6.918 1.047 12.081 1.453 2.221.173 74.559 5.867 76.778 6.043 5.166.406 9.558.856 12.16.454 3.058-.473 8.5-2.518 10.386-4.128a22.25 22.25 0 0 1-1.785-.57z"/></g></g></svg>