<svg id="59945c10-d7a2-474f-9c4f-654e3840cd1a" data-name="レイヤー 1" xmlns="http://www.w3.org/2000/svg" width="60" height="76.109" viewBox="0 0 60 76.1088"><defs><style>.e0d95190-a814-4a2c-8b35-7e0f37e24646{fill:#dbdbdb}.\35 9b7e746-6678-4f8b-9ed3-eb90ea3b433d{fill:#b0b0b0}.ebf3355c-98d9-4107-9134-01099804ac55{fill:#fff}.\31 8dfecb6-f1ff-4b95-92d7-b631ac6fd046{fill:#f0f0f0}</style></defs><title>satellite</title><path class="e0d95190-a814-4a2c-8b35-7e0f37e24646" transform="rotate(-34.19 17.85 27.735)" d="M14.883 18.595h5.936v18.28h-5.936z"/><path class="e0d95190-a814-4a2c-8b35-7e0f37e24646" transform="rotate(-34.179 35.114 53.152)" d="M32.146 44.012h5.936v18.28h-5.936z"/><path class="59b7e746-6678-4f8b-9ed3-eb90ea3b433d" d="M32.466 25.095L17.044 35.569 0 10.475 15.423 0zM60 65.634L44.577 76.11 27.534 51.014 42.956 40.54z"/><path class="ebf3355c-98d9-4107-9134-01099804ac55" d="M17.14 35.064l14.821-10.066L15.326.505.505 10.57zm27.534 40.539l14.82-10.065L42.86 41.044 28.039 51.11z"/><path class="e0d95190-a814-4a2c-8b35-7e0f37e24646" transform="rotate(-34.184 38.854 32.04)" d="M31.264 27.378h15.181v9.325H31.264z"/><path class="ebf3355c-98d9-4107-9134-01099804ac55" transform="rotate(-34.183 24.466 41.813)" d="M16.875 39.482h15.181v4.662H16.875z"/><path class="59b7e746-6678-4f8b-9ed3-eb90ea3b433d" transform="rotate(-34.182 27.393 39.825)" d="M19.802 33.602h15.182v12.446H19.802z"/><path class="59b7e746-6678-4f8b-9ed3-eb90ea3b433d" d="M35.78 12.148c-2.386 1.621.222 9.624 5.827 17.876 5.605 8.252 12.084 13.627 14.47 12.007z"/><ellipse class="e0d95190-a814-4a2c-8b35-7e0f37e24646" cx="45.928" cy="27.09" rx="3.296" ry="18.062" transform="rotate(-34.183 45.929 27.09)"/><path class="18dfecb6-f1ff-4b95-92d7-b631ac6fd046" d="M48.966 25.026c5.029 7.405 8.769 15.628 7.056 16.925-.756.513-5.946-5.809-11.462-13.932-5.517-8.123-9.479-15.274-8.723-15.788 1.6-1.162 8.1 5.392 13.129 12.795z"/><path class="59b7e746-6678-4f8b-9ed3-eb90ea3b433d" transform="rotate(-34.184 5.316 12.115)" d="M3.165 9.207h4.302v5.814H3.165z"/><path class="59b7e746-6678-4f8b-9ed3-eb90ea3b433d" transform="rotate(-34.179 10.152 8.83)" d="M8.001 5.923h4.301v5.814H8.001z"/><path class="59b7e746-6678-4f8b-9ed3-eb90ea3b433d" transform="rotate(-34.188 14.988 5.546)" d="M12.837 2.639h4.301v5.814h-4.301z"/><path class="59b7e746-6678-4f8b-9ed3-eb90ea3b433d" transform="rotate(-34.184 9.37 18.084)" d="M7.22 15.177h4.302v5.814H7.22z"/><path class="59b7e746-6678-4f8b-9ed3-eb90ea3b433d" transform="rotate(-34.183 14.206 14.8)" d="M12.056 11.893h4.301v5.814h-4.301z"/><path class="59b7e746-6678-4f8b-9ed3-eb90ea3b433d" transform="rotate(-34.188 19.042 11.515)" d="M16.891 8.608h4.301v5.814h-4.301z"/><path class="59b7e746-6678-4f8b-9ed3-eb90ea3b433d" transform="rotate(-34.192 13.425 24.054)" d="M11.274 21.147h4.302v5.814h-4.302z"/><path class="59b7e746-6678-4f8b-9ed3-eb90ea3b433d" transform="rotate(-34.184 18.26 20.77)" d="M16.109 17.862h4.302v5.814h-4.302z"/><path class="59b7e746-6678-4f8b-9ed3-eb90ea3b433d" transform="rotate(-34.183 23.096 17.485)" d="M20.946 14.578h4.301v5.814h-4.301z"/><path class="59b7e746-6678-4f8b-9ed3-eb90ea3b433d" transform="rotate(-34.183 17.479 30.023)" d="M15.328 27.117h4.301v5.814h-4.301z"/><path class="59b7e746-6678-4f8b-9ed3-eb90ea3b433d" transform="rotate(-34.181 22.315 26.739)" d="M20.164 23.832h4.302v5.813h-4.302z"/><path class="59b7e746-6678-4f8b-9ed3-eb90ea3b433d" transform="rotate(-34.179 27.15 23.455)" d="M25 20.548h4.301v5.814H25z"/><path class="59b7e746-6678-4f8b-9ed3-eb90ea3b433d" transform="rotate(-34.196 32.85 52.654)" d="M30.698 49.747h4.301v5.814h-4.301z"/><path class="59b7e746-6678-4f8b-9ed3-eb90ea3b433d" transform="rotate(-34.175 37.685 49.37)" d="M35.534 46.463h4.302v5.813h-4.302z"/><path class="59b7e746-6678-4f8b-9ed3-eb90ea3b433d" transform="rotate(-34.187 42.521 46.085)" d="M40.37 43.178h4.302v5.814H40.37z"/><path class="59b7e746-6678-4f8b-9ed3-eb90ea3b433d" transform="rotate(-34.183 36.904 58.624)" d="M34.753 55.717h4.301v5.814h-4.301z"/><path class="59b7e746-6678-4f8b-9ed3-eb90ea3b433d" transform="rotate(-34.179 41.74 55.34)" d="M39.588 52.432h4.302v5.814h-4.302z"/><path class="59b7e746-6678-4f8b-9ed3-eb90ea3b433d" transform="rotate(-34.179 46.575 52.055)" d="M44.425 49.148h4.301v5.814h-4.301z"/><path class="59b7e746-6678-4f8b-9ed3-eb90ea3b433d" transform="rotate(-34.188 40.958 64.593)" d="M38.807 61.686h4.301V67.5h-4.301z"/><path class="59b7e746-6678-4f8b-9ed3-eb90ea3b433d" transform="rotate(-34.188 45.794 61.309)" d="M43.643 58.402h4.302v5.814h-4.302z"/><path class="59b7e746-6678-4f8b-9ed3-eb90ea3b433d" transform="rotate(-34.179 50.63 58.025)" d="M48.479 55.117h4.301v5.814h-4.301z"/><path class="59b7e746-6678-4f8b-9ed3-eb90ea3b433d" transform="rotate(-34.185 45.012 70.563)" d="M42.861 67.656h4.302v5.814h-4.302z"/><path class="59b7e746-6678-4f8b-9ed3-eb90ea3b433d" transform="rotate(-34.183 49.849 67.278)" d="M47.698 64.371h4.301v5.814h-4.301z"/><path class="59b7e746-6678-4f8b-9ed3-eb90ea3b433d" transform="rotate(-34.184 54.684 63.994)" d="M52.533 61.087h4.302v5.814h-4.302z"/><path class="59b7e746-6678-4f8b-9ed3-eb90ea3b433d" transform="rotate(-34.184 48.858 25.101)" d="M43.663 24.72h10.391v.763H43.663z"/><circle class="59b7e746-6678-4f8b-9ed3-eb90ea3b433d" cx="54.205" cy="21.47" r="1.996" transform="rotate(-34.176 54.205 21.47)"/></svg>