<svg id="00e68c93-9a6d-437b-a6f0-c9ddb7d66aa2" data-name="5da50ed0-1839-4ed3-adcc-0e6101993664" xmlns="http://www.w3.org/2000/svg" width="472.025" height="74.489" viewBox="0 0 472.02539 74.48866"><defs><style>.\30 c20af9f-b38b-470e-aa88-b281b615acc3{fill:#025392}</style></defs><title>wct2017-date-en</title><path class="0c20af9f-b38b-470e-aa88-b281b615acc3" d="M289.566 36.509a15.273 15.273 0 0 0 1.805-3.802 15.461 15.461 0 0 0 .717-4.38l.008-.345h-3.425c-.022.342-.069.77-.102 1.08a14.6 14.6 0 0 1-.566 2.734 12.912 12.912 0 0 1-.901 2.2l-7.494-7.622a15.496 15.496 0 0 1-1.207-1.343 7.944 7.944 0 0 1-.798-1.219 5.587 5.587 0 0 1-.458-1.153 4.65 4.65 0 0 1-.15-1.183 3.897 3.897 0 0 1 .27-1.456 3.423 3.423 0 0 1 .761-1.159 3.479 3.479 0 0 1 1.184-.769 4.243 4.243 0 0 1 1.582-.278 3.485 3.485 0 0 1 1.39.256 3.526 3.526 0 0 1 1.022.657 3.628 3.628 0 0 1 .694.884 4.224 4.224 0 0 1 .396.951 6.016 6.016 0 0 1 .154 1.033c.33-.053 3.584-.678 3.584-.678l-.022-.297a6.089 6.089 0 0 0-.629-2.319 6.437 6.437 0 0 0-1.502-1.951 7.454 7.454 0 0 0-2.234-1.341 7.772 7.772 0 0 0-2.853-.508 8.76 8.76 0 0 0-3.166.545 7.252 7.252 0 0 0-2.416 1.491 6.472 6.472 0 0 0-1.53 2.23 7.102 7.102 0 0 0-.527 2.728 8.086 8.086 0 0 0 .572 2.987 11.46 11.46 0 0 0 1.494 2.59 12.833 12.833 0 0 0-2.044 1.222 9.952 9.952 0 0 0-1.932 1.866 8.605 8.605 0 0 0-1.284 2.28 7.475 7.475 0 0 0-.466 2.63 7.359 7.359 0 0 0 .736 3.32 7.845 7.845 0 0 0 1.934 2.485 8.491 8.491 0 0 0 2.714 1.55 9.306 9.306 0 0 0 3.088.531 13.155 13.155 0 0 0 5.243-1.032 14.004 14.004 0 0 0 3.966-2.569s3.057 3.102 3.253 3.296h5.205zm-11.032 3.02a5.52 5.52 0 0 1-1.824-.313 4.83 4.83 0 0 1-1.575-.912 4.479 4.479 0 0 1-1.533-3.498 5.475 5.475 0 0 1 .957-3.102 7.783 7.783 0 0 1 2.683-2.357l7.6 7.671a10.02 10.02 0 0 1-2.636 1.765 8.724 8.724 0 0 1-3.672.746zM156.918 8.259l-7.394 6.825-3.187-3.812 11.207-9.271h4.835v40.273h-5.46zm26.507 9.328h.229a10.097 10.097 0 0 1 4.437-.91 13.84 13.84 0 0 1 4.38.74 11.692 11.692 0 0 1 4.01 2.303 11.955 11.955 0 0 1 2.93 3.983 13.31 13.31 0 0 1 1.137 5.716 14.53 14.53 0 0 1-1.11 5.888 12.088 12.088 0 0 1-7.366 6.797 16.517 16.517 0 0 1-5.347.852 15.509 15.509 0 0 1-5.347-.909 13.106 13.106 0 0 1-4.381-2.617 12.71 12.71 0 0 1-2.985-4.096 12.535 12.535 0 0 1-1.109-5.347 18.691 18.691 0 0 1 .284-3.412 16.208 16.208 0 0 1 .825-2.929 22.148 22.148 0 0 1 1.28-2.732q.738-1.335 1.65-2.815L187.123 2h6.427zm-5.062 12.23a9.195 9.195 0 0 0 .598 3.357 7.553 7.553 0 0 0 1.707 2.643 7.894 7.894 0 0 0 2.644 1.736 9.62 9.62 0 0 0 6.827 0 7.897 7.897 0 0 0 2.644-1.736 7.575 7.575 0 0 0 1.707-2.643 9.72 9.72 0 0 0 0-6.712 7.596 7.596 0 0 0-1.707-2.648 7.932 7.932 0 0 0-2.644-1.734 9.622 9.622 0 0 0-6.827 0 7.93 7.93 0 0 0-2.644 1.734 7.574 7.574 0 0 0-1.707 2.648 9.182 9.182 0 0 0-.598 3.355zm-56.876 13.139l-3.98-1.228 18.202-36.355 3.925 1.228zM104.06 27.37h-.227a10.062 10.062 0 0 1-4.436.91 13.757 13.757 0 0 1-4.38-.74 11.594 11.594 0 0 1-4.01-2.302 11.958 11.958 0 0 1-2.93-3.983 13.313 13.313 0 0 1-1.138-5.717 14.406 14.406 0 0 1 1.11-5.83 12.352 12.352 0 0 1 2.985-4.238 12.713 12.713 0 0 1 4.38-2.588A15.992 15.992 0 0 1 100.762 2a15.552 15.552 0 0 1 5.347.91 13.105 13.105 0 0 1 4.38 2.617 12.71 12.71 0 0 1 2.987 4.095 12.554 12.554 0 0 1 1.109 5.348 18.868 18.868 0 0 1-.284 3.412 16.427 16.427 0 0 1-.825 2.93 24.237 24.237 0 0 1-1.28 2.759q-.74 1.365-1.65 2.787l-10.183 16.098h-6.427zm5.065-12.23a9.163 9.163 0 0 0-.599-3.356 7.585 7.585 0 0 0-1.707-2.646 7.92 7.92 0 0 0-2.645-1.733 9.616 9.616 0 0 0-6.825 0 7.947 7.947 0 0 0-2.645 1.733 7.579 7.579 0 0 0-1.707 2.646 9.186 9.186 0 0 0-.597 3.356 9.183 9.183 0 0 0 .597 3.356 7.583 7.583 0 0 0 1.707 2.646 7.94 7.94 0 0 0 2.645 1.735 9.622 9.622 0 0 0 6.825 0 7.911 7.911 0 0 0 2.645-1.735 7.59 7.59 0 0 0 1.707-2.646 9.16 9.16 0 0 0 .599-3.356zM308.27 8.939l-7.394 6.827-3.186-3.811 11.206-9.273h4.836v40.274h-5.462zm36.726-1.479h-19.512V2.682h25.313v4.665l-16.04 35.609h-6.143zM221.97 32.939a8.21 8.21 0 0 0-2.164-1.15 25.935 25.935 0 0 0-2.84-.844q-1.275-.319-2.229-.594a7.283 7.283 0 0 1-1.568-.625 2.508 2.508 0 0 1-.899-.8 2.15 2.15 0 0 1-.284-1.166 2.357 2.357 0 0 1 .923-1.99 4.847 4.847 0 0 1 2.954-.727 8.025 8.025 0 0 1 1.784.2 9.282 9.282 0 0 1 1.602.515 8.34 8.34 0 0 1 1.272.671 4.411 4.411 0 0 1 .817.66l.117.13 1.617-2.916-.088-.066a12.988 12.988 0 0 0-3.133-1.669 11.012 11.012 0 0 0-3.901-.676 10.49 10.49 0 0 0-2.994.412 7.073 7.073 0 0 0-2.406 1.226 5.871 5.871 0 0 0-1.614 2.014 6.124 6.124 0 0 0-.593 2.738 5.106 5.106 0 0 0 .403 2.125 4.391 4.391 0 0 0 1.178 1.538 6.88 6.88 0 0 0 1.934 1.108 24.94 24.94 0 0 0 2.697.86q1.331.347 2.373.666a9.707 9.707 0 0 1 1.746.7 3.252 3.252 0 0 1 1.076.88 1.997 1.997 0 0 1 .367 1.229 2.056 2.056 0 0 1-.987 1.866 5.406 5.406 0 0 1-2.89.648 9.312 9.312 0 0 1-2.261-.272 14.48 14.48 0 0 1-2.027-.66 10.104 10.104 0 0 1-1.633-.845 6.77 6.77 0 0 1-1.067-.826l-.12-.12-1.607 3.027.083.065a13.18 13.18 0 0 0 3.996 2.094 14.8 14.8 0 0 0 4.578.716 12.527 12.527 0 0 0 2.959-.337 7.327 7.327 0 0 0 2.433-1.062 5.212 5.212 0 0 0 1.664-1.887 5.875 5.875 0 0 0 .609-2.755 5.463 5.463 0 0 0-.492-2.418 4.744 4.744 0 0 0-1.384-1.683zm12.475-10.901l-8.277 20.84h3.721l2.146-5.597h7.775l2.175 5.597h3.69l-8.217-20.84zm4.632 12.586h-6.365l3.237-8.369z" transform="translate(-14.178 -2)"/><path class="0c20af9f-b38b-470e-aa88-b281b615acc3" d="M230.356 20.038v3.121h6.873v17.719h3.527V23.159h6.844v-3.121h-17.244z"/><path class="0c20af9f-b38b-470e-aa88-b281b615acc3" d="M365.724 32.939a8.223 8.223 0 0 0-2.165-1.15 25.883 25.883 0 0 0-2.84-.844q-1.273-.319-2.228-.594a7.253 7.253 0 0 1-1.569-.625 2.505 2.505 0 0 1-.898-.801 2.143 2.143 0 0 1-.285-1.165 2.389 2.389 0 0 1 .923-1.99 4.849 4.849 0 0 1 2.954-.727 8.012 8.012 0 0 1 1.784.2 9.278 9.278 0 0 1 1.602.515 8.339 8.339 0 0 1 1.273.671 4.39 4.39 0 0 1 .816.66l.118.13 1.616-2.916-.088-.066a12.944 12.944 0 0 0-3.133-1.669 11.012 11.012 0 0 0-3.901-.676 10.497 10.497 0 0 0-2.994.412 7.078 7.078 0 0 0-2.406 1.226 5.897 5.897 0 0 0-1.614 2.014 6.127 6.127 0 0 0-.593 2.738 5.104 5.104 0 0 0 .404 2.125 4.4 4.4 0 0 0 1.177 1.538 6.881 6.881 0 0 0 1.935 1.108 25.02 25.02 0 0 0 2.697.86q1.33.347 2.373.666a9.638 9.638 0 0 1 1.745.7 3.277 3.277 0 0 1 1.078.879 2.008 2.008 0 0 1 .365 1.23 2.055 2.055 0 0 1-.987 1.866 5.399 5.399 0 0 1-2.89.648 9.318 9.318 0 0 1-2.261-.272 14.54 14.54 0 0 1-2.026-.66 10.087 10.087 0 0 1-1.633-.845 6.742 6.742 0 0 1-1.067-.826l-.12-.12-1.608 3.027.084.065a13.178 13.178 0 0 0 3.996 2.093 14.783 14.783 0 0 0 4.577.717 12.503 12.503 0 0 0 2.958-.337 7.32 7.32 0 0 0 2.435-1.062 5.206 5.206 0 0 0 1.663-1.887 5.87 5.87 0 0 0 .61-2.755 5.453 5.453 0 0 0-.492-2.418 4.759 4.759 0 0 0-1.385-1.683zm20.584-.336a13.178 13.178 0 0 1-.272 2.686 6.955 6.955 0 0 1-.912 2.308 4.982 4.982 0 0 1-1.684 1.627 5.108 5.108 0 0 1-2.633.62 5.216 5.216 0 0 1-2.62-.607 4.811 4.811 0 0 1-1.697-1.611 6.947 6.947 0 0 1-.911-2.309 13.261 13.261 0 0 1-.273-2.714V22.038h-3.498v10.565a16.022 16.022 0 0 0 .468 3.888 9.574 9.574 0 0 0 1.527 3.334 7.665 7.665 0 0 0 2.785 2.33 9.352 9.352 0 0 0 4.22.868 9.527 9.527 0 0 0 4.127-.824 7.637 7.637 0 0 0 2.816-2.256 9.392 9.392 0 0 0 1.587-3.321 15.82 15.82 0 0 0 .496-4.019V22.038h-3.526z" transform="translate(-14.178 -2)"/><path class="0c20af9f-b38b-470e-aa88-b281b615acc3" d="M394.054 20.067v14.585l-11.552-14.566-2.774-.048v20.84h3.498v-14.27l11.434 14.223 2.92.047V20.067h-3.526z"/><path class="0c20af9f-b38b-470e-aa88-b281b615acc3" d="M20.998 64.14a3.602 3.602 0 0 1 2.85 3.572 4.014 4.014 0 0 1-1.33 3c-.988.894-2.622 1.37-5.225 1.37a22.836 22.836 0 0 1-3.115-.191V57.529a20.843 20.843 0 0 1 3.704-.303 6.742 6.742 0 0 1 4.028.93 3.233 3.233 0 0 1 1.424 2.754 3.341 3.341 0 0 1-2.336 3.154zm-3.002-.855c1.596 0 2.546-.854 2.546-2.052 0-1.443-1.083-1.919-2.337-1.919a5.733 5.733 0 0 0-1.235.096v3.875zm-1.026 6.611a5.858 5.858 0 0 0 1.121.077c1.52 0 2.812-.685 2.812-2.337 0-1.69-1.444-2.3-2.888-2.3H16.97zm16.91 1.634a8.954 8.954 0 0 1-3.42.608c-3.268 0-5.129-2.052-5.129-5.338 0-3.04 1.748-5.661 4.844-5.661 2.565 0 4.237 1.823 4.237 5.243a6.485 6.485 0 0 1-.077 1.12H28.01c.076 1.806 1.368 2.527 2.888 2.527a7.725 7.725 0 0 0 2.583-.436zm-2.07-5.984c.018-1.102-.419-2.45-1.806-2.45-1.349 0-1.919 1.405-1.995 2.45zm7.371 6.402H36.37V56.674h2.811zm5.339 0h-2.812V56.674h2.812zm10.506-.418a8.954 8.954 0 0 1-3.42.608c-3.267 0-5.128-2.052-5.128-5.338 0-3.04 1.747-5.661 4.844-5.661 2.564 0 4.236 1.823 4.236 5.243a6.485 6.485 0 0 1-.076 1.12h-6.326c.076 1.806 1.368 2.527 2.887 2.527a7.725 7.725 0 0 0 2.584-.436zm-2.07-5.984c.018-1.102-.418-2.45-1.806-2.45-1.348 0-1.918 1.405-1.994 2.45zm10.126-1.843a4.36 4.36 0 0 0-1.995-.55c-.855 0-1.31.436-1.31 1.006 0 .59.399.893 1.615 1.406 1.785.74 2.621 1.767 2.621 3.23 0 2.014-1.52 3.343-4.16 3.343a6.183 6.183 0 0 1-2.983-.702l.532-2.034a5.557 5.557 0 0 0 2.47.703c.987 0 1.462-.418 1.462-1.064 0-.645-.36-.987-1.52-1.481-1.975-.798-2.697-1.92-2.697-3.078 0-1.9 1.52-3.343 3.876-3.343a5.75 5.75 0 0 1 2.621.589zm10.754 5.737a16.009 16.009 0 0 0 .152 2.508H71.46l-.171-1.102h-.057a3.396 3.396 0 0 1-2.812 1.311 3.073 3.073 0 0 1-3.172-3.173c0-2.716 2.413-3.989 5.775-3.989 0-1.045-.36-1.843-1.9-1.843a5.156 5.156 0 0 0-2.602.722l-.532-1.823a7.449 7.449 0 0 1 3.666-.894c3.287 0 4.18 2.09 4.18 4.408zM71.1 66.8c-1.52 0-3.096.361-3.096 1.9a1.289 1.289 0 0 0 1.33 1.444 1.76 1.76 0 0 0 1.766-1.825zm8.057 5.148h-2.812V56.674h2.812zm5.338 0h-2.811V56.674h2.811zm10.506-.418a8.954 8.954 0 0 1-3.42.608c-3.267 0-5.128-2.052-5.128-5.338 0-3.04 1.747-5.661 4.844-5.661 2.564 0 4.236 1.823 4.236 5.243a6.485 6.485 0 0 1-.076 1.12h-6.326c.076 1.806 1.368 2.527 2.888 2.527a7.725 7.725 0 0 0 2.583-.436zm-2.07-5.984c.018-1.102-.418-2.45-1.806-2.45-1.348 0-1.918 1.405-1.994 2.45zm15.94-5.452a5.63 5.63 0 0 0-2.602-.627c-1.482 0-2.147.798-2.147 1.615 0 1.044.722 1.52 2.507 2.336 2.337 1.045 3.382 2.393 3.382 4.312 0 2.546-1.919 4.408-5.32 4.408a7.822 7.822 0 0 1-3.59-.817l.55-2.355a6.563 6.563 0 0 0 3.155.816c1.557 0 2.374-.741 2.374-1.823 0-1.045-.702-1.672-2.317-2.375-2.204-.95-3.572-2.317-3.572-4.218 0-2.393 1.88-4.236 5.034-4.236a7.072 7.072 0 0 1 3.135.665zm12.179 11.854h-2.812V65.85c0-1.349-.418-2.394-1.634-2.394a1.844 1.844 0 0 0-1.785 2.071v6.421h-2.812V56.674h2.812v5.966h.038a3.446 3.446 0 0 1 2.83-1.501c1.88 0 3.363 1.368 3.363 4.483zm3.896-11.968a1.5 1.5 0 1 1 1.52-1.502 1.447 1.447 0 0 1-1.52 1.501zm1.425 11.968h-2.812V61.366h2.812zm11.569 0h-2.812v-6.175c0-1.29-.418-2.317-1.614-2.317-.76 0-1.805.589-1.805 2.204v6.288h-2.812v-7.39c0-1.235-.038-2.242-.076-3.172h2.432l.133 1.425h.057a3.562 3.562 0 0 1 3.058-1.654c1.938 0 3.439 1.35 3.439 4.313zm5.587-1.026c0 1.748-.095 5.566-4.94 5.566l-.266-2.204c2.242-.17 2.394-1.387 2.394-4.064v-8.854h2.812zm-1.425-10.942a1.5 1.5 0 1 1 1.52-1.501 1.447 1.447 0 0 1-1.52 1.5zm12.862 8.739c0 1.254.057 2.336.095 3.23h-2.451l-.133-1.407h-.057a3.53 3.53 0 0 1-3.04 1.615c-2.013 0-3.38-1.311-3.38-4.483v-6.308h2.81v5.89c0 1.596.457 2.602 1.615 2.602a1.827 1.827 0 0 0 1.73-1.975v-6.517h2.81zm11.913 3.229h-3.344l-2.47-4.521-.74 1.007v3.514h-2.812V56.674h2.812v9.308h.057a13.973 13.973 0 0 1 .703-1.31l2.108-3.306h3.268l-3.458 4.35zm10.013-3.229c0 1.254.056 2.336.094 3.23h-2.45l-.133-1.407h-.057a3.53 3.53 0 0 1-3.04 1.615c-2.013 0-3.381-1.311-3.381-4.483v-6.308h2.811v5.89c0 1.596.456 2.602 1.615 2.602a1.827 1.827 0 0 0 1.73-1.975v-6.517h2.81zm17.365 2.659a12.936 12.936 0 0 1-4.16.722 6.964 6.964 0 0 1-5.149-1.786 7.734 7.734 0 0 1-1.975-5.547c0-4.939 3.286-7.58 7.485-7.58a8.4 8.4 0 0 1 3.419.608l-.589 2.317a6.425 6.425 0 0 0-2.793-.53c-2.602 0-4.578 1.595-4.578 5.128 0 3.382 1.805 5.092 4.217 5.092a3.91 3.91 0 0 0 1.444-.21v-3.571h-2.109v-2.223h4.788zm8.132-7.504a3.966 3.966 0 0 0-.721-.057c-1.273 0-2.242.855-2.242 2.66v5.471h-2.812v-7.276c0-1.31-.038-2.356-.076-3.306h2.413l.114 1.843h.076a2.778 2.778 0 0 1 3.248-2.014zm9.462 5.566a16.009 16.009 0 0 0 .151 2.508h-2.526l-.171-1.102h-.057a3.396 3.396 0 0 1-2.812 1.311 3.073 3.073 0 0 1-3.172-3.173c0-2.716 2.412-3.989 5.775-3.989 0-1.045-.361-1.843-1.9-1.843a5.156 5.156 0 0 0-2.602.722l-.533-1.823a7.449 7.449 0 0 1 3.667-.894c3.287 0 4.18 2.09 4.18 4.408zm-2.736-2.64c-1.52 0-3.096.361-3.096 1.9a1.289 1.289 0 0 0 1.33 1.444 1.76 1.76 0 0 0 1.766-1.825zm14.287 5.148h-2.812v-6.175c0-1.29-.418-2.317-1.614-2.317-.76 0-1.805.589-1.805 2.204v6.288h-2.812v-7.39c0-1.235-.038-2.242-.076-3.172h2.432l.133 1.425h.057a3.562 3.562 0 0 1 3.058-1.654c1.938 0 3.439 1.35 3.439 4.313zm11.609-3.02c0 1.063.038 2.24.075 3.02h-2.469l-.133-1.5h-.057a3.328 3.328 0 0 1-2.983 1.71c-2.393 0-4.103-2.205-4.103-5.415 0-3.61 1.995-5.586 4.274-5.586a2.814 2.814 0 0 1 2.546 1.236h.038v-5.72h2.812zm-2.812-3.25c0-1.537-.93-2.298-1.862-2.298-1.443 0-2.165 1.482-2.165 3.325 0 1.918.798 3.192 2.127 3.192.836 0 1.9-.609 1.9-2.28zm17.499-8.111v2.318h-4.883l-.38 2.811a5.248 5.248 0 0 1 .798-.056c2.508 0 4.864 1.405 4.864 4.502 0 2.755-2.109 5.015-5.49 5.015a7.747 7.747 0 0 1-3.42-.74l.55-2.129a6.168 6.168 0 0 0 2.718.665 2.616 2.616 0 0 0 2.811-2.583c0-1.73-1.273-2.698-3.704-2.698a13.044 13.044 0 0 0-1.615.095l.874-7.2zm3.287 1.862l2.775-.817v2.754h2.336v2.072h-2.336v4.596c0 1.274.398 1.805 1.254 1.805a4.035 4.035 0 0 0 .91-.095l.039 2.147a5.653 5.653 0 0 1-1.88.247c-3.04 0-3.098-2.64-3.098-3.819v-4.882h-1.386v-2.07h1.386zm15.902 12.519h-2.812V65.85c0-1.349-.418-2.394-1.634-2.394a1.845 1.845 0 0 0-1.786 2.071v6.421h-2.811V56.674h2.811v5.966h.038a3.447 3.447 0 0 1 2.831-1.501c1.881 0 3.363 1.368 3.363 4.483zm6.765 0v-14.61h7.828v2.356h-5.016v3.857h4.674v2.299h-4.674v6.098zm12.862 0H285.7V56.674h2.812zm11.76-5.376c0 4.028-2.584 5.585-4.939 5.585-2.85 0-4.901-2.013-4.901-5.452 0-3.553 2.146-5.566 5.014-5.566 2.964 0 4.826 2.222 4.826 5.433zm-4.882-3.363c-1.558 0-2.109 1.824-2.109 3.438 0 1.881.722 3.439 2.09 3.439 1.33 0 2.052-1.576 2.052-3.457 0-1.653-.589-3.42-2.033-3.42zm16.15 3.363c0 4.028-2.585 5.585-4.94 5.585-2.85 0-4.902-2.013-4.902-5.452 0-3.553 2.147-5.566 5.015-5.566 2.964 0 4.826 2.222 4.826 5.433zm-4.884-3.363c-1.557 0-2.108 1.824-2.108 3.438 0 1.881.722 3.439 2.09 3.439 1.329 0 2.051-1.576 2.051-3.457 0-1.653-.588-3.42-2.033-3.42zm12.693.665a3.962 3.962 0 0 0-.722-.057c-1.273 0-2.242.855-2.242 2.66v5.471h-2.812v-7.276c0-1.31-.038-2.356-.075-3.306h2.412l.114 1.843h.077a2.778 2.778 0 0 1 3.248-2.014zm15.141 7.713a8.218 8.218 0 0 1-3.23.55c-4.387 0-6.819-2.982-6.819-7.313 0-5.11 3.287-7.694 7.163-7.694a6.85 6.85 0 0 1 3.02.55l-.55 2.28a5.743 5.743 0 0 0-2.338-.474c-2.413 0-4.35 1.653-4.35 5.186 0 3.306 1.69 5.072 4.33 5.072a6.564 6.564 0 0 0 2.376-.418zm11.135-5.015c0 4.028-2.584 5.585-4.94 5.585-2.85 0-4.9-2.013-4.9-5.452 0-3.553 2.146-5.566 5.014-5.566 2.964 0 4.826 2.222 4.826 5.433zm-4.883-3.363c-1.557 0-2.108 1.824-2.108 3.438 0 1.881.721 3.439 2.09 3.439 1.329 0 2.051-1.576 2.051-3.457 0-1.653-.588-3.42-2.033-3.42zm15.959 8.739h-2.811v-6.175c0-1.29-.418-2.317-1.616-2.317-.76 0-1.804.589-1.804 2.204v6.288h-2.812v-7.39a75.54 75.54 0 0 0-.075-3.172h2.432l.132 1.425h.057a3.56 3.56 0 0 1 3.059-1.654c1.937 0 3.438 1.35 3.438 4.313zm2.87-11.018c0-3.192 1.862-4.465 3.933-4.465a5.46 5.46 0 0 1 1.672.247l-.21 2.166a2.957 2.957 0 0 0-1.026-.171c-1.576 0-1.576 1.596-1.576 2.66h2.109v2.07h-2.09v8.511h-2.812v-8.51h-1.406v-2.072h1.406zm14.344 10.6a8.96 8.96 0 0 1-3.42.608c-3.267 0-5.129-2.052-5.129-5.338 0-3.04 1.747-5.661 4.844-5.661 2.564 0 4.236 1.823 4.236 5.243a6.543 6.543 0 0 1-.075 1.12h-6.326c.075 1.806 1.367 2.527 2.888 2.527a7.727 7.727 0 0 0 2.583-.436zm-2.071-5.984c.02-1.102-.418-2.45-1.805-2.45-1.349 0-1.919 1.405-1.994 2.45zm10.336-1.672a3.962 3.962 0 0 0-.722-.057c-1.272 0-2.242.855-2.242 2.66v5.471h-2.812v-7.276c0-1.31-.038-2.356-.075-3.306h2.412l.114 1.843h.077a2.778 2.778 0 0 1 3.248-2.014zm9.538 7.656a8.96 8.96 0 0 1-3.42.608c-3.268 0-5.13-2.052-5.13-5.338 0-3.04 1.748-5.661 4.845-5.661 2.564 0 4.236 1.823 4.236 5.243a6.543 6.543 0 0 1-.075 1.12h-6.326c.075 1.806 1.367 2.527 2.887 2.527a7.727 7.727 0 0 0 2.583-.436zm-2.072-5.984c.02-1.102-.418-2.45-1.804-2.45-1.349 0-1.92 1.405-1.994 2.45zm13.604 6.402h-2.812v-6.175c0-1.29-.418-2.317-1.615-2.317-.76 0-1.804.589-1.804 2.204v6.288h-2.812v-7.39a75.54 75.54 0 0 0-.075-3.172h2.431l.133 1.425h.057a3.56 3.56 0 0 1 3.058-1.654c1.938 0 3.439 1.35 3.439 4.313zm9.614-.266a6.561 6.561 0 0 1-2.564.456c-3.097 0-5.11-2.014-5.11-5.376a5.278 5.278 0 0 1 5.546-5.605 6.157 6.157 0 0 1 2.204.4l-.456 2.146a3.716 3.716 0 0 0-1.653-.342c-1.767 0-2.792 1.425-2.792 3.286 0 2.072 1.196 3.268 2.812 3.268a4.019 4.019 0 0 0 1.71-.342zm9.786-.152a8.96 8.96 0 0 1-3.42.608c-3.268 0-5.13-2.052-5.13-5.338 0-3.04 1.748-5.661 4.844-5.661 2.565 0 4.237 1.823 4.237 5.243a6.543 6.543 0 0 1-.076 1.12h-6.326c.075 1.806 1.367 2.527 2.888 2.527a7.727 7.727 0 0 0 2.583-.436zm-2.072-5.984c.02-1.102-.418-2.45-1.805-2.45-1.348 0-1.919 1.405-1.994 2.45zm18.144 6.041a8.218 8.218 0 0 1-3.23.55c-4.388 0-6.82-2.982-6.82-7.313 0-5.11 3.287-7.694 7.163-7.694a6.85 6.85 0 0 1 3.02.55l-.551 2.28a5.734 5.734 0 0 0-2.336-.474c-2.413 0-4.35 1.653-4.35 5.186 0 3.306 1.69 5.072 4.33 5.072a6.564 6.564 0 0 0 2.375-.418zm9.881-.057a8.96 8.96 0 0 1-3.42.608c-3.268 0-5.13-2.052-5.13-5.338 0-3.04 1.748-5.661 4.844-5.661 2.565 0 4.237 1.823 4.237 5.243a6.543 6.543 0 0 1-.075 1.12h-6.327c.076 1.806 1.368 2.527 2.888 2.527a7.727 7.727 0 0 0 2.583-.436zm-2.072-5.984c.02-1.102-.418-2.45-1.804-2.45-1.35 0-1.92 1.405-1.995 2.45zm13.605 6.402h-2.812v-6.175c0-1.29-.418-2.317-1.615-2.317-.76 0-1.805.589-1.805 2.204v6.288h-2.811v-7.39a75.54 75.54 0 0 0-.075-3.172h2.431l.133 1.425h.057a3.56 3.56 0 0 1 3.058-1.654c1.938 0 3.439 1.35 3.439 4.313zm2.964-12.519l2.774-.817v2.754h2.337v2.072h-2.337v4.596c0 1.274.4 1.805 1.254 1.805a4.038 4.038 0 0 0 .912-.095l.038 2.147a5.653 5.653 0 0 1-1.88.247c-3.04 0-3.097-2.64-3.097-3.819v-4.882h-1.387v-2.07h1.387zm14.838 12.101a8.96 8.96 0 0 1-3.42.608c-3.267 0-5.128-2.052-5.128-5.338 0-3.04 1.747-5.661 4.843-5.661 2.565 0 4.237 1.823 4.237 5.243a6.543 6.543 0 0 1-.075 1.12h-6.327c.076 1.806 1.368 2.527 2.888 2.527a7.727 7.727 0 0 0 2.583-.436zm-2.07-5.984c.019-1.102-.419-2.45-1.805-2.45-1.35 0-1.92 1.405-1.995 2.45zm10.335-1.672a3.962 3.962 0 0 0-.722-.057c-1.272 0-2.242.855-2.242 2.66v5.471h-2.811v-7.276c0-1.31-.038-2.356-.075-3.306h2.412l.114 1.843h.076a2.778 2.778 0 0 1 3.248-2.014z" transform="translate(-14.178 -2)"/></svg>