<svg id="レイヤー_1" xmlns="http://www.w3.org/2000/svg" width="518.9" height="162.9" viewBox="0 0 518.9 162.9"><style>.st0{fill:#fff}.st1{fill:#29bae6}.st2{fill:none;stroke:#025392;stroke-width:2.5;stroke-linecap:round;stroke-linejoin:round}</style><path class="st0" d="M118.5 62.8c-17 0-30.8-13.8-30.8-30.8s13.8-30.8 30.8-30.8S149.3 15 149.3 32s-13.8 30.8-30.8 30.8zm0-52.7c-12.1 0-21.9 9.8-21.9 21.9 0 12.1 9.8 21.9 21.9 21.9 12.1 0 21.9-9.8 21.9-21.9 0-12-9.8-21.9-21.9-21.9z"/><path transform="rotate(-44.996 118.491 32.04)" class="st0" d="M113.2 26.7h10.7v10.7h-10.7z"/><path class="st0" d="M300.1 62.8c-17 0-30.8-13.8-30.8-30.8s13.8-30.8 30.8-30.8c9.8 0 19 4.7 24.8 12.6l1.7 2.4-7.1 5.3-1.7-2.4c-4.1-5.6-10.7-9-17.7-9-12.1 0-21.9 9.8-21.9 21.9s9.8 22 21.9 22c7.9 0 15.3-4.3 19.2-11.2l1.4-2.6 7.7 4.3L327 47c-5.5 9.8-15.8 15.8-26.9 15.8zm-41.4-42.7c-1.3-3.8-3.2-7.1-5.7-9.9-2.5-2.8-5.7-5-9.3-6.6-3.6-1.5-7.7-2.3-12.2-2.3h-21.9v61.6h21.9c4.6 0 8.8-.8 12.4-2.4 3.7-1.6 6.8-3.9 9.3-6.7 2.5-2.8 4.3-6.2 5.6-10 1.2-3.6 1.8-7.6 1.8-11.8-.1-4.3-.7-8.3-1.9-11.9zM250.3 41c-.9 2.6-2.1 4.9-3.8 6.8-1.6 1.9-3.7 3.4-6.2 4.4-2.5 1.1-5.5 1.6-8.9 1.6h-13.1V10h13.1c3.3 0 6.3.5 8.8 1.6 2.5 1.1 4.6 2.5 6.2 4.4 1.7 1.9 3 4.2 3.9 6.8.9 2.7 1.4 5.8 1.4 9.1-.1 3.3-.5 6.4-1.4 9.1z"/><path transform="rotate(-44.992 359.763 50.457)" class="st0" d="M354.4 45.1h10.7v10.7h-10.7z"/><path class="st0" d="M379.7 62.8l-19.9-47-20 47H330l27-61.6h5.5l27 61.6zm134.8-49.1c-.9-2.3-2.2-4.4-3.9-6.2-1.6-1.9-3.6-3.3-5.8-4.5-2.4-1.2-4.9-1.8-7.6-1.8h-23.3v61.6h8.9V41.1h14.9c2.8 0 5.5-.6 7.9-1.9 2.3-1.2 4.2-2.8 5.8-4.8 1.5-1.9 2.6-4 3.4-6.3.8-2.3 1.2-4.7 1.2-7-.1-2.5-.5-5-1.5-7.4zm-8.1 11.6c-.5 1.4-1.1 2.6-2 3.7-.8 1-1.8 1.8-2.9 2.4-1.1.6-2.4.9-3.8.9h-14.9V10.1h14.4c1.3 0 2.5.3 3.6.9 1.2.6 2.3 1.4 3.2 2.5.9 1 1.7 2.2 2.2 3.6.5 1.3.8 2.7.8 4.1.1 1.3-.2 2.7-.6 4.1zM188.8 62.8h11.5l-14.4-22.2c1.3-.3 2.6-.8 3.9-1.4 2.3-1.2 4.2-2.8 5.8-4.8 1.5-1.9 2.6-4 3.4-6.3.8-2.3 1.2-4.7 1.2-7 0-2.6-.5-5.1-1.4-7.4-.9-2.3-2.2-4.4-3.9-6.2-1.7-1.8-3.6-3.3-5.9-4.4-2.4-1.2-4.9-1.8-7.6-1.8h-23.3v61.6h8.9V41.1h8.6l13.2 21.7zm-21.9-52.7h14.4c1.3 0 2.5.3 3.6.9 1.2.6 2.3 1.4 3.3 2.5.9 1 1.7 2.2 2.2 3.6.5 1.3.8 2.7.8 4.1 0 1.4-.2 2.8-.7 4.2-.5 1.4-1.1 2.6-2 3.7-.8 1-1.8 1.8-2.9 2.4-1.1.6-2.4.9-3.8.9h-14.9V10.1zM78.5 1.2L58 47.4l-8.4-19.1 12-27.1h-9.7l-7.2 16.2-7.1-16.2h-9.7l12 27.1-8.5 19.1L11 1.2H1.2l27.4 61.6h5.7l10.4-23.5 10.5 23.5h5.7L88.2 1.2zm376.2 0l-24 40.5-23.9-40.5h-8.9v61.6h8.9V19.4l21.3 34.8h5.2l21.4-34.8v43.4h8.8V1.2z"/><path class="st1" d="M121.4 65.6c-17 0-30.8-13.8-30.8-30.8S104.4 4 121.4 4s30.8 13.8 30.8 30.8-13.8 30.8-30.8 30.8zm0-52.7c-12.1 0-21.9 9.8-21.9 21.9 0 12.1 9.8 21.9 21.9 21.9 12.1 0 21.9-9.8 21.9-21.9.1-12.1-9.8-21.9-21.9-21.9z"/><path transform="rotate(-45.001 121.439 34.804)" class="st1" d="M116.1 29.5h10.7v10.7h-10.7z"/><path class="st1" d="M303 65.6c-17 0-30.8-13.8-30.8-30.8S286 4 303 4c9.8 0 19 4.7 24.8 12.6l1.7 2.4-7.2 5.3-1.7-2.4c-4.1-5.6-10.7-9-17.7-9-12.1 0-21.9 9.8-21.9 21.9 0 12.1 9.8 21.9 21.9 21.9 7.9 0 15.3-4.3 19.2-11.2l1.4-2.6 7.7 4.3-1.4 2.6c-5.3 9.7-15.6 15.8-26.8 15.8zm-41.4-42.8c-1.3-3.8-3.2-7.1-5.7-9.9-2.5-2.8-5.7-5-9.3-6.6C243 4.8 238.8 4 234.3 4h-21.9v61.6h21.9c4.6 0 8.8-.8 12.4-2.4 3.7-1.6 6.8-3.9 9.3-6.7 2.5-2.8 4.3-6.2 5.6-10 1.2-3.6 1.8-7.6 1.8-11.8.1-4.2-.6-8.2-1.8-11.9zm-8.4 21c-.9 2.6-2.1 4.9-3.8 6.8-1.6 1.9-3.7 3.4-6.2 4.4-2.5 1.1-5.5 1.6-8.9 1.6h-13.1V12.8h13.1c3.3 0 6.3.5 8.8 1.6 2.5 1.1 4.6 2.5 6.2 4.4 1.7 1.9 3 4.2 3.9 6.8.9 2.7 1.4 5.8 1.4 9.1s-.5 6.3-1.4 9.1z"/><path transform="rotate(-44.992 362.712 53.214)" class="st1" d="M357.4 47.9h10.7v10.7h-10.7z"/><path class="st1" d="M382.6 65.6l-19.9-47-19.9 47h-9.9l27-61.6h5.6l27 61.6zm134.8-49.1c-.9-2.3-2.2-4.4-3.9-6.2-1.7-1.8-3.6-3.3-5.9-4.4-2.4-1.2-4.9-1.8-7.6-1.8h-23.3v61.6h8.9V43.9h14.9c2.8 0 5.5-.6 7.9-1.9 2.3-1.2 4.2-2.8 5.8-4.8 1.5-1.9 2.6-4 3.4-6.3.8-2.3 1.2-4.7 1.2-7 .1-2.6-.4-5.1-1.4-7.4zm-8.1 11.6c-.5 1.4-1.1 2.6-2 3.7-.8 1-1.8 1.8-2.9 2.4-1.1.6-2.4.9-3.8.9h-14.9V12.9h14.4c1.3 0 2.5.3 3.6.9 1.2.6 2.3 1.4 3.2 2.5.9 1 1.7 2.2 2.2 3.6.5 1.3.8 2.7.8 4.1.1 1.3-.1 2.7-.6 4.1zM191.8 65.6h11.5l-14.4-22.2c1.3-.3 2.6-.8 3.9-1.4 2.3-1.2 4.2-2.8 5.8-4.8 1.5-1.9 2.6-4 3.4-6.3.8-2.3 1.2-4.7 1.2-7 0-2.6-.5-5.1-1.4-7.4-.9-2.3-2.2-4.4-3.9-6.2-1.7-1.8-3.6-3.3-5.9-4.4-2.4-1.2-4.9-1.8-7.6-1.8H161v61.6h8.9V43.9h8.6l13.3 21.7zm-21.9-52.7h14.4c1.3 0 2.5.3 3.6.9 1.2.6 2.3 1.4 3.2 2.5.9 1 1.7 2.2 2.2 3.6.5 1.3.8 2.7.8 4.1 0 1.4-.2 2.8-.7 4.2-.5 1.4-1.1 2.6-2 3.7-.8 1-1.8 1.8-2.9 2.4-1.1.6-2.4.9-3.8.9h-14.9V12.9zM81.5 4L61 50.1l-8.5-19L64.6 4h-9.8l-7.1 16.2L40.5 4h-9.7l12 27.1-8.4 19L13.9 4H4.2l27.3 61.6h5.7L47.7 42l10.4 23.6h5.7L91.2 4zm376.1 0l-23.9 40.4-24-40.4h-8.9v61.6h8.9V22.2L431.1 57h5.2l21.3-34.8v43.4h8.9V4z"/><path class="st2" d="M118.5 62.8c-17 0-30.8-13.8-30.8-30.8s13.8-30.8 30.8-30.8S149.3 15 149.3 32s-13.8 30.8-30.8 30.8zm0-52.7c-12.1 0-21.9 9.8-21.9 21.9 0 12.1 9.8 21.9 21.9 21.9 12.1 0 21.9-9.8 21.9-21.9 0-12-9.8-21.9-21.9-21.9z"/><path transform="rotate(-44.996 118.491 32.04)" class="st2" d="M113.2 26.7h10.7v10.7h-10.7z"/><path class="st2" d="M300.1 62.8c-17 0-30.8-13.8-30.8-30.8s13.8-30.8 30.8-30.8c9.8 0 19 4.7 24.8 12.6l1.7 2.4-7.1 5.3-1.7-2.4c-4.1-5.6-10.7-9-17.7-9-12.1 0-21.9 9.8-21.9 21.9s9.8 22 21.9 22c7.9 0 15.3-4.3 19.2-11.2l1.4-2.6 7.7 4.3L327 47c-5.5 9.8-15.8 15.8-26.9 15.8zm-41.4-42.7c-1.3-3.8-3.2-7.1-5.7-9.9-2.5-2.8-5.7-5-9.3-6.6-3.6-1.5-7.7-2.3-12.2-2.3h-21.9v61.6h21.9c4.6 0 8.8-.8 12.4-2.4 3.7-1.6 6.8-3.9 9.3-6.7 2.5-2.8 4.3-6.2 5.6-10 1.2-3.6 1.8-7.6 1.8-11.8-.1-4.3-.7-8.3-1.9-11.9zM250.3 41c-.9 2.6-2.1 4.9-3.8 6.8-1.6 1.9-3.7 3.4-6.2 4.4-2.5 1.1-5.5 1.6-8.9 1.6h-13.1V10h13.1c3.3 0 6.3.5 8.8 1.6 2.5 1.1 4.6 2.5 6.2 4.4 1.7 1.9 3 4.2 3.9 6.8.9 2.7 1.4 5.8 1.4 9.1-.1 3.3-.5 6.4-1.4 9.1z"/><path transform="rotate(-44.992 359.763 50.457)" class="st2" d="M354.4 45.1h10.7v10.7h-10.7z"/><path class="st2" d="M379.7 62.8l-19.9-47-20 47H330l27-61.6h5.5l27 61.6zm134.8-49.1c-.9-2.3-2.2-4.4-3.9-6.2-1.6-1.9-3.6-3.3-5.8-4.5-2.4-1.2-4.9-1.8-7.6-1.8h-23.3v61.6h8.9V41.1h14.9c2.8 0 5.5-.6 7.9-1.9 2.3-1.2 4.2-2.8 5.8-4.8 1.5-1.9 2.6-4 3.4-6.3.8-2.3 1.2-4.7 1.2-7-.1-2.5-.5-5-1.5-7.4zm-8.1 11.6c-.5 1.4-1.1 2.6-2 3.7-.8 1-1.8 1.8-2.9 2.4-1.1.6-2.4.9-3.8.9h-14.9V10.1h14.4c1.3 0 2.5.3 3.6.9 1.2.6 2.3 1.4 3.2 2.5.9 1 1.7 2.2 2.2 3.6.5 1.3.8 2.7.8 4.1.1 1.3-.2 2.7-.6 4.1zM188.8 62.8h11.5l-14.4-22.2c1.3-.3 2.6-.8 3.9-1.4 2.3-1.2 4.2-2.8 5.8-4.8 1.5-1.9 2.6-4 3.4-6.3.8-2.3 1.2-4.7 1.2-7 0-2.6-.5-5.1-1.4-7.4-.9-2.3-2.2-4.4-3.9-6.2-1.7-1.8-3.6-3.3-5.9-4.4-2.4-1.2-4.9-1.8-7.6-1.8h-23.3v61.6h8.9V41.1h8.6l13.2 21.7zm-21.9-52.7h14.4c1.3 0 2.5.3 3.6.9 1.2.6 2.3 1.4 3.3 2.5.9 1 1.7 2.2 2.2 3.6.5 1.3.8 2.7.8 4.1 0 1.4-.2 2.8-.7 4.2-.5 1.4-1.1 2.6-2 3.7-.8 1-1.8 1.8-2.9 2.4-1.1.6-2.4.9-3.8.9h-14.9V10.1zM78.5 1.2L58 47.4l-8.4-19.1 12-27.1h-9.7l-7.2 16.2-7.1-16.2h-9.7l12 27.1-8.5 19.1L11 1.2H1.2l27.4 61.6h5.7l10.4-23.5 10.5 23.5h5.7L88.2 1.2zm376.2 0l-24 40.5-23.9-40.5h-8.9v61.6h8.9V19.4l21.3 34.8h5.2l21.4-34.8v43.4h8.8V1.2z"/><path class="st0" d="M92.3 146c-17 0-30.8-13.8-30.8-30.8s13.8-30.8 30.8-30.8 30.8 13.8 30.8 30.8c-.1 17-13.9 30.8-30.8 30.8zm0-52.7c-12.1 0-21.9 9.8-21.9 21.9 0 12.1 9.8 21.9 21.9 21.9 12.1 0 21.9-9.8 21.9-21.9 0-12.1-9.9-21.9-21.9-21.9z"/><path transform="rotate(-45.001 92.253 115.197)" class="st0" d="M86.9 109.9h10.7v10.7H86.9z"/><path class="st0" d="M272.1 146c-17 0-30.8-13.8-30.8-30.8s13.8-30.8 30.8-30.8 30.8 13.8 30.8 30.8S289 146 272.1 146zm0-52.7c-12.1 0-21.9 9.8-21.9 21.9 0 12.1 9.8 21.9 21.9 21.9 12.1 0 21.9-9.8 21.9-21.9 0-12.1-9.8-21.9-21.9-21.9z"/><path transform="rotate(-45.001 272.079 115.2)" class="st0" d="M266.7 109.9h10.7v10.7h-10.7z"/><path class="st0" d="M243.3 84.4h-10.6l-17.1 28.2-16.9-28.2H188l23.2 37.5V146h8.9v-24.1zm-184.4 0H4.6v8.9h22.7V146h8.9V93.3h22.7zM169.7 146h11.1l-27-34 26.7-27.6h-12.3L141 112.5V84.4h-8.9V146h8.9v-20.8l6.6-6.8z"/><path class="st1" d="M95.2 148.7c-17 0-30.8-13.8-30.8-30.8s13.8-30.8 30.8-30.8S126 101 126 118c0 16.9-13.8 30.7-30.8 30.7zm0-52.7c-12.1 0-21.9 9.8-21.9 21.9 0 12.1 9.8 21.9 21.9 21.9 12.1 0 21.9-9.8 21.9-21.9 0-12-9.8-21.9-21.9-21.9z"/><path transform="rotate(-45.001 95.188 117.958)" class="st1" d="M89.9 112.6h10.7v10.7H89.9z"/><path class="st1" d="M275 148.7c-17 0-30.8-13.8-30.8-30.8S258 87.1 275 87.1s30.8 13.8 30.8 30.8-13.8 30.8-30.8 30.8zm0-52.7c-12.1 0-21.9 9.8-21.9 21.9 0 12.1 9.8 21.9 21.9 21.9 12.1 0 21.9-9.8 21.9-21.9 0-12-9.8-21.9-21.9-21.9z"/><path transform="rotate(-45.001 274.99 117.96)" class="st1" d="M269.7 112.6h10.7v10.7h-10.7z"/><path class="st1" d="M246.3 87.2h-10.7l-17 28.1-17-28.1h-10.7l23.3 37.5v24h8.8v-24.1zm-184.4 0H7.5V96h22.8v52.7h8.8V96h22.8zm110.7 61.5h11.1l-27-33.9 26.7-27.6h-12.2l-27.3 28.1V87.2h-8.8v61.5h8.8V128l6.6-6.9z"/><path class="st2" d="M92.3 146c-17 0-30.8-13.8-30.8-30.8s13.8-30.8 30.8-30.8 30.8 13.8 30.8 30.8c-.1 17-13.9 30.8-30.8 30.8zm0-52.7c-12.1 0-21.9 9.8-21.9 21.9 0 12.1 9.8 21.9 21.9 21.9 12.1 0 21.9-9.8 21.9-21.9 0-12.1-9.9-21.9-21.9-21.9z"/><path transform="rotate(-45.001 92.253 115.197)" class="st2" d="M86.9 109.9h10.7v10.7H86.9z"/><path class="st2" d="M272.1 146c-17 0-30.8-13.8-30.8-30.8s13.8-30.8 30.8-30.8 30.8 13.8 30.8 30.8S289 146 272.1 146zm0-52.7c-12.1 0-21.9 9.8-21.9 21.9 0 12.1 9.8 21.9 21.9 21.9 12.1 0 21.9-9.8 21.9-21.9 0-12.1-9.8-21.9-21.9-21.9z"/><path transform="rotate(-45.001 272.079 115.2)" class="st2" d="M266.7 109.9h10.7v10.7h-10.7z"/><path class="st2" d="M243.3 84.4h-10.6l-17.1 28.2-16.9-28.2H188l23.2 37.5V146h8.9v-24.1zm-184.4 0H4.6v8.9h22.7V146h8.9V93.3h22.7zM169.7 146h11.1l-27-34 26.7-27.6h-12.3L141 112.5V84.4h-8.9V146h8.9v-20.8l6.6-6.8z"/><path class="st0" d="M462.6 160.2L497.9 93h-33.7v-8.9h48.4l-40 76.1zm-61.2-17.5c-15.2 0-27.5-12.3-27.5-27.5s12.3-27.5 27.5-27.5 27.5 12.3 27.5 27.5c0 15.1-12.3 27.5-27.5 27.5zm0-46.1c-10.3 0-18.6 8.3-18.6 18.6s8.3 18.6 18.6 18.6 18.6-8.3 18.6-18.6-8.3-18.6-18.6-18.6zm53.9-9.8h-6.8l-13.2 8.8v10.6l11.1-7.4v44.8h8.9zm-112.1 50.5c2.4-2.1 9-8.1 9.9-8.9 5.4-5.4 14.4-14.4 14.4-24 0-11.3-9.3-20.2-21.2-20.2h-.1c-5.3 0-10.5 2.3-14.4 6.2-3.9 4-6.1 9.4-6.1 14.9v2.9h9v-3c0-3.1 1.2-6.2 3.5-8.5 2.2-2.2 5.1-3.5 7.9-3.5h.1c6.8 0 12.2 4.9 12.2 11.2 0 5.5-5.8 11.7-11.8 17.7-.5.5-12.1 11-19.7 18v6.3h41v-9h-24.7z"/><path class="st1" d="M465.5 162.9l35.4-67.2h-33.8v-8.8h48.4l-39.9 76zm-61.2-17.5c-15.2 0-27.5-12.3-27.5-27.5s12.3-27.5 27.5-27.5 27.5 12.3 27.5 27.5-12.3 27.5-27.5 27.5zm0-46.1c-10.3 0-18.6 8.3-18.6 18.6s8.3 18.6 18.6 18.6 18.6-8.3 18.6-18.6c.1-10.2-8.3-18.6-18.6-18.6zm53.9-9.7h-6.8l-13.2 8.7v10.6l11.2-7.4v44.8h8.8zM346.1 140c2.4-2.1 9-8.1 9.9-8.9 5.4-5.4 14.4-14.4 14.4-24 0-11.3-9.3-20.2-21.2-20.2h-.2c-5.3 0-10.5 2.3-14.4 6.2-3.9 4-6.1 9.4-6.1 14.9v2.9h9v-3c0-3.1 1.2-6.2 3.5-8.5 2.2-2.2 5.1-3.5 8-3.5h.1c6.8 0 12.2 4.9 12.2 11.2 0 5.5-5.8 11.7-11.8 17.7-.5.5-12.1 11-19.7 18v6.3h41v-9h-24.7z"/><path class="st2" d="M462.6 160.2L497.9 93h-33.7v-8.9h48.4l-40 76.1zm-61.2-17.5c-15.2 0-27.5-12.3-27.5-27.5s12.3-27.5 27.5-27.5 27.5 12.3 27.5 27.5c0 15.1-12.3 27.5-27.5 27.5zm0-46.1c-10.3 0-18.6 8.3-18.6 18.6s8.3 18.6 18.6 18.6 18.6-8.3 18.6-18.6-8.3-18.6-18.6-18.6zm53.9-9.8h-6.8l-13.2 8.8v10.6l11.1-7.4v44.8h8.9zm-112.1 50.5c2.4-2.1 9-8.1 9.9-8.9 5.4-5.4 14.4-14.4 14.4-24 0-11.3-9.3-20.2-21.2-20.2h-.1c-5.3 0-10.5 2.3-14.4 6.2-3.9 4-6.1 9.4-6.1 14.9v2.9h9v-3c0-3.1 1.2-6.2 3.5-8.5 2.2-2.2 5.1-3.5 7.9-3.5h.1c6.8 0 12.2 4.9 12.2 11.2 0 5.5-5.8 11.7-11.8 17.7-.5.5-12.1 11-19.7 18v6.3h41v-9h-24.7z"/></svg>