<svg id="レイヤー_1" xmlns="http://www.w3.org/2000/svg" width="84" height="30" viewBox="0 0 84 30"><style>.st0{fill:#0097e6}.st1{fill:#fff}</style><path class="st0" d="M81 0H3C1.4 0 0 1.4 0 3v24c0 1.6 1.4 3 3 3h78c1.7 0 3-1.4 3-3V3c0-1.6-1.3-3-3-3zM22.8 20.1c0 .8-.1 1.4-.4 2-.2.6-.6 1.1-1 1.5-.4.4-1 .7-1.6.9-.6.2-1.2.3-1.9.3h-.2V23h.1c.9-.1 1.6-.3 2.1-.8s.8-1.2.8-2.1V8h1.9v12.1zm11.8 2.2c-4 0-7.2-3.2-7.2-7.2s3.2-7.2 7.2-7.2 7.2 3.2 7.2 7.2-3.3 7.2-7.2 7.2zm13.8-.3h-1.9V8h1.9v14zm17.8 0h-.8l-9.5-10.1s0-.1-.1-.1V22H54V8h.8c1.5 1.6 7.8 8.5 9.5 10.3 0 0 0 .1.1.1V8h1.9v14z"/><circle class="st0" cx="34.6" cy="15.2" r="5.2"/><path class="st1" d="M20.9 20c0 .9-.3 1.6-.8 2.1-.6.5-1.3.8-2.1.8h-.1v1.9h.2c.7 0 1.3-.1 1.9-.3.6-.2 1.1-.5 1.6-.9.4-.4.8-.9 1-1.5.2-.6.4-1.3.4-2V8h-1.9v12zM46.5 8h1.9v14h-1.9zM34.6 8c-4 0-7.2 3.2-7.2 7.2s3.2 7.2 7.2 7.2 7.2-3.2 7.2-7.2S38.5 8 34.6 8zm0 12.4c-2.9 0-5.2-2.3-5.2-5.2 0-2.9 2.3-5.2 5.2-5.2 2.9 0 5.2 2.3 5.2 5.2 0 2.9-2.3 5.2-5.2 5.2zm29.7-2.1c-1.7-1.8-8.1-8.7-9.6-10.3H54v14h1.9V11.8s0 .1.1.1L65.4 22h.8V8h-1.9v10.3z"/></svg>