<svg id="aef0a717-0242-4dce-a8d6-543000239603" data-name="レイヤー 1" xmlns="http://www.w3.org/2000/svg" width="449.706" height="305.478" viewBox="0 0 449.706 305.47769"><defs><style>.c8479646-4b61-400f-bfc5-98afccb0186c{fill:url(#d69a2b42-ae69-41a0-843b-140772fcce1b)}.\34 9b96fc8-75af-4daf-a44f-004d139784ea{fill:#040000}.\31 6cd73b5-1c79-4f4a-8dcd-5db5fadb51b0,.\38 afc3037-bd7e-4645-8330-b00bcda5e601{fill:#fff}.b2d6dbe1-74b5-44dd-aba0-53f4ace2b1b5{fill:#e7467a}.\37 aa8f74f-9cd5-404a-9291-13eaabdbe894{clip-path:url(#c7238c7f-b097-405d-bfd7-d5740ccac6c7)}.\35 1eacb84-2b7c-40b7-b1a0-ba91882e9871{fill:#537189}.acb4a3a5-ab46-4f1b-8156-3708f4e88d02{fill:#6b8aa8}.d4f2abd4-01d3-4c45-8b0c-2ebeae785eff{fill:#93b3d4}.\39 c7deb70-8bcf-4f3e-a724-de36ee47ccff{fill:#cbdfef}.\31 6cd73b5-1c79-4f4a-8dcd-5db5fadb51b0{opacity:.4}.aba8740c-bb61-40b4-b104-f7412f2d5738{fill:#dbdbdb}.ef3e05d1-c1da-44bf-b75e-fcbb733a8635{fill:#ef8418}.\38 93a8c42-4f37-41c2-89b0-a0b09ddfc565{fill:#5699b4}.\35 57161a7-6aa9-4760-922d-7353d38ae892{fill:#f4ca1d}.\33 61d61e2-28bc-4529-b594-da48a0fba4e5{stroke:#000;stroke-miterlimit:10;stroke-width:.65311px}.\39 84bcd91-c200-48a3-8d9e-e32fe01c9a75{fill:#71bb49}.fe1fdeb4-d136-4e0e-8d03-8c781328a600{fill:#64b7e7}.\31 0a77e38-2dc0-40e3-9fe3-8a5884f0f091{fill:#eade49}.\34 199a4a6-ad59-4758-ad67-9f27a16733c1{fill:#f0eb9d}</style><linearGradient id="d69a2b42-ae69-41a0-843b-140772fcce1b" data-name="名称未設定グラデーション 28" x1="93.337" y1="129.401" x2="240.554" y2="129.401" gradientUnits="userSpaceOnUse"><stop offset="0" stop-color="#fff"/><stop offset="1" stop-color="#d0e9f6"/></linearGradient><clipPath id="c7238c7f-b097-405d-bfd7-d5740ccac6c7"><path class="c8479646-4b61-400f-bfc5-98afccb0186c" d="M146.378 196.479a96.447 96.447 0 0 0 23.84-3.07c-2.502-11.325-3.718-23.14 6.855-30.196a13.424 13.424 0 0 1 7.54-2.336c8.207 0 15.85 7.419 21.324 15.358 21.316-16.136 34.623-39.895 34.617-63.952a63.565 63.565 0 0 0-1.081-11.628 47.934 47.934 0 0 0-13.913-5.229c-8.8-1.818-19.299.518-28.564 2.562-7.035 1.566-13.088 2.92-17.813 2.416-7.247-.757-12.995-4.58-14.627-9.716-1.155-3.624-.836-9.438 7.22-16.526a47.66 47.66 0 0 1 11.68-7.422 38.861 38.861 0 0 1-18.555-4.418c-7.778 10.818-27.542 18.65-33.621 15.942a14.185 14.185 0 0 1-4.257-3.073l-.401.31a11.344 11.344 0 0 1 3.29 6.081 15.79 15.79 0 0 1-4.659 14.269 17.328 17.328 0 0 1-11.893 5.415 10.198 10.198 0 0 1-7.205-2.75 87.212 87.212 0 0 0-9.88 67.957c4.54 3.735 10.716 13.672 15.811 22.909a84.33 84.33 0 0 0 34.292 7.097z"/></clipPath></defs><title>with-wapuu</title><path class="49b96fc8-75af-4daf-a44f-004d139784ea" d="M114.12 197.507c-22.586.002-34.473-12.687-38.768-22.194-11.743-2.285-26.705-25.611-27.741-28.826a9.259 9.259 0 0 1-.051-.166c-19.27-10.945-26.986-37.758-27.319-38.946a7.762 7.762 0 0 1-.24-1.22C9.065 96.856 1.617 74.48.334 65.872c-.506-3.398-.806-8.14 1.942-11.608 3.097-4.356 8.82-3.458 10.809-3.146 2.095.329 4.968.962 8.784 1.934 6.859 1.749 16.028 4.398 26.645 7.465 26.961 7.788 67.313 19.444 84.086 19.446.498 0 .972-.01 1.427-.032a7.85 7.85 0 0 1 4.026.902c6.167 3.264 11.054 13.929 14.526 31.699 3.211 16.44 3.854 33.689 1.763 47.325-4.09 26.666-17.226 34.528-27.526 36.428a70.028 70.028 0 0 1-12.696 1.221z"/><path class="8afc3037-bd7e-4645-8330-b00bcda5e601" d="M134.387 87.761C105.609 89.081 10.483 55.013 8.573 58.967c-3.842 3.568 8.081 37.597 19.003 42.906 7.846 4.425 27.926 10.851 39.561 11.017-14.997 3.703-39.35-7.632-39.35-7.632s14.448 51.501 51.624 34.345c-7.35 7.033-19.66 6.14-24.34 4.48.802 2.489 14.86 22.61 21.918 23.56 7.4.996 15.739-1.684 25.827-7.423-3.076 2.655-21.131 9.746-21.131 9.746s7.733 25.25 43.71 18.613 20.33-94.817 8.992-100.818z"/><path class="49b96fc8-75af-4daf-a44f-004d139784ea" d="M313.174 170.725a118.143 118.143 0 0 1-17.385-1.355c-13.967-2.077-23.9-10.731-28.725-25.027-10.202-30.227 5.488-81.188 13.106-89.01a7.829 7.829 0 0 1 7.272-2.193c13.985 3.022 67.571-10.142 103.03-18.854 13.738-3.375 25.604-6.29 34.59-8.21 13.271-2.834 19.811-3.946 23.419 1.722a7.834 7.834 0 0 1 1.197 4.866c-1.539 18.271-9.743 33.897-23.727 45.202.232 3.55-1.618 7.16-2.523 8.928a82.209 82.209 0 0 1-24.379 27.748 66.6 66.6 0 0 1-7.007 4.34 18.507 18.507 0 0 1-2.177 6.32 47.054 47.054 0 0 1-27.202 22.15 18.414 18.414 0 0 1-2.685 5.04c-2.49 3.427-15.16 18.333-46.804 18.333z"/><path class="8afc3037-bd7e-4645-8330-b00bcda5e601" d="M285.786 60.8c26.445 5.717 152.985-33.661 156.082-28.794-4.062 48.23-56.996 59.928-81.59 56.644 12.922 7.37 47.972-4.44 57.753-10.353 2.139 1.613-24.068 50.57-66.977 37.278 10.118 7.223 27.323 3.206 33.13 1.547 1.153 2.628-8.862 20.044-27.192 23.56-8.014 1.94-20.91-1.448-32.04-7.423 6.23 8.506 24.436 10.139 30.342 10.003 1.626 3.265-13.72 24.992-58.352 18.356s-18.5-93.276-11.156-100.818z"/><path class="49b96fc8-75af-4daf-a44f-004d139784ea" d="M162.286 305.478c-24.197 0-46.789-12.145-58.43-24.171-6.915-7.141-10.459-14.495-10.246-21.264.411-12.477 8.667-20.88 20.56-20.88 11.31 0 22.79 7.487 29.958 19.54 5.416 9.105 15.49 11.016 22.99 11.016 17.786 0 41.957-10.804 58.681-29.573a90.007 90.007 0 0 1-13.472 1.062c-.478 0-.97-.013-1.447-.013a27.212 27.212 0 0 1-21.57 10.048c-5.76 0-14.998-1.872-18.45-13.114a93.588 93.588 0 0 1-43.855-16.088 15.584 15.584 0 0 1-1.791 3.89 13.613 13.613 0 0 1-11.84 6.039 22.827 22.827 0 0 1-5.31-.677c-19.007-4.566-42.846-31.1-46.111-46.842-1.593-7.725-.054-14.96 4.353-20.361a21.062 21.062 0 0 1 16.46-7.7 24.078 24.078 0 0 1 4.021.346A94.822 94.822 0 0 1 98.92 96.183a19.425 19.425 0 0 1-.796-2.907c-.943-5.044.703-10.433 4.632-15.172a25.416 25.416 0 0 1 1.911-2.057c-5.8-1.911-8.402-6.026-8.813-9.69a9.88 9.88 0 0 1 7.95-10.738c3.067-.69 14.442-7.074 20.495-12.835 17.904-27.742 50.955-43.869 88.28-42.727a81.381 81.381 0 0 1 46.298 15.583c8.441.49 20.295.544 28.763.544 5.27 0 10.54-.027 15.49-.053 4.38-.013 8.495-.04 12.119-.04 11.216 0 14.003.212 15.715.637 4.075 1.022 6.783 4.633 6.89 9.212.198 8.654-9.412 24.45-30.689 30.834a37.745 37.745 0 0 1-10.857 1.566 40.682 40.682 0 0 1-4.885-.292q1.633 3.823 3.053 7.818c13.552 38.334 16.804 124.292-24.131 155.565-11.176 37.776-49.603 72.1-92.49 82.255a67.546 67.546 0 0 1-15.569 1.792z"/><path class="b2d6dbe1-74b5-44dd-aba0-53f4ace2b1b5" d="M176.68 231.144a87.201 87.201 0 0 1-48.46-156.878c15.025 7.792 26.838-6.504 36.17-13.34 26.719 6.836 69.75 2.867 98.913 55.523 4.42 7.99 4.446 17.946 4.446 27.582a87.248 87.248 0 0 1-3.61 24.914c-21.423-7.924-46.908 2.018-54.368 21.29a157.771 157.771 0 0 1-33.09 40.91z"/><path d="M245.175 92.407c-.144-.328-.31-.644-.46-.97l-.173-.17q-1.25-1.227-2.515-2.376l-.312-.28a85.828 85.828 0 0 0-2.638-2.284l-.025-.02a62.46 62.46 0 0 1 3.73 7.151c7.788 17.716 6.959 37.968-2.333 57.024a87.36 87.36 0 0 1-15.837 22.434 43.7 43.7 0 0 1 6.442-3.265 88.848 88.848 0 0 0 11.743-18.024c9.634-19.758 10.479-40.79 2.378-59.22z"/><path d="M113.834 193.003a87.768 87.768 0 0 0 32.544 6.11 100.24 100.24 0 0 0 40.539-8.683c33.649-14.792 56.263-46.197 56.271-78.147a65.076 65.076 0 0 0-5.233-25.742l.003-.002-.257-.585-.006-.012-.263-.599-.003.002c-.084-.187-.177-.368-.263-.554q-2.35-1.838-4.733-3.445l.004.006.001.004.01.016q.73 1.288 1.401 2.614c.5.991.985 1.992 1.435 3.015l.013.032a62.43 62.43 0 0 1 5.257 25.25c.007 30.921-21.973 61.357-54.697 75.736a98.996 98.996 0 0 1-39.479 8.46 82.126 82.126 0 0 1-42.84-11.574l-.024-.015-.032-.021a87.051 87.051 0 0 0 2.614 4.55l.028.015q1.013 1.657 2.094 3.264c12.99 8.363 28.968 12.8 45.765 12.8a100.691 100.691 0 0 0 40.42-8.616 104.479 104.479 0 0 0 16.422-9.065 33.284 33.284 0 0 1 3.589-5.8 100.976 100.976 0 0 1-21.062 12.473c-27.394 12.04-57.285 10.766-79.518-1.487z"/><path d="M245.154 92.396c-.145-.329-.31-.645-.46-.97l-.173-.171q-1.25-1.226-2.515-2.375a85.828 85.828 0 0 0-2.95-2.564l-.025-.02a62.46 62.46 0 0 1 3.73 7.15c7.787 17.716 6.958 37.968-2.334 57.025a87.36 87.36 0 0 1-15.836 22.433 43.7 43.7 0 0 1 6.442-3.265 88.848 88.848 0 0 0 11.743-18.023c9.634-19.759 10.479-40.79 2.378-59.22z"/><path d="M113.813 192.991a87.768 87.768 0 0 0 32.544 6.11 100.24 100.24 0 0 0 40.538-8.683c33.65-14.792 56.264-46.196 56.272-78.146a65.076 65.076 0 0 0-5.234-25.743l.003-.001-.257-.585-.005-.013-.263-.598-.003.001c-.085-.186-.178-.368-.264-.554q-2.35-1.837-4.733-3.445l.004.007.002.003.01.016q.729 1.288 1.4 2.615c.501.99.986 1.992 1.435 3.015l.014.032a62.43 62.43 0 0 1 5.257 25.25c.007 30.92-21.974 61.356-54.697 75.736a98.996 98.996 0 0 1-39.479 8.46 82.126 82.126 0 0 1-42.84-11.575l-.024-.015-.032-.021a87.051 87.051 0 0 0 2.613 4.55l.03.016q1.011 1.656 2.093 3.264c12.989 8.363 28.968 12.8 45.765 12.799a100.691 100.691 0 0 0 40.42-8.616 104.479 104.479 0 0 0 16.422-9.064 33.284 33.284 0 0 1 3.588-5.801 100.976 100.976 0 0 1-21.061 12.473c-27.394 12.04-57.286 10.767-79.518-1.487z"/><path class="c8479646-4b61-400f-bfc5-98afccb0186c" d="M146.378 196.479a96.447 96.447 0 0 0 23.84-3.07c-2.502-11.325-3.718-23.14 6.855-30.196a13.424 13.424 0 0 1 7.54-2.336c8.207 0 15.85 7.419 21.324 15.358 21.316-16.136 34.623-39.895 34.617-63.952a63.565 63.565 0 0 0-1.081-11.628 47.934 47.934 0 0 0-13.913-5.229c-8.8-1.818-19.299.518-28.564 2.562-7.035 1.566-13.088 2.92-17.813 2.416-7.247-.757-12.995-4.58-14.627-9.716-1.155-3.624-.836-9.438 7.22-16.526a47.66 47.66 0 0 1 11.68-7.422 38.861 38.861 0 0 1-18.555-4.418c-7.778 10.818-27.542 18.65-33.621 15.942a14.185 14.185 0 0 1-4.257-3.073l-.401.31a11.344 11.344 0 0 1 3.29 6.081 15.79 15.79 0 0 1-4.659 14.269 17.328 17.328 0 0 1-11.893 5.415 10.198 10.198 0 0 1-7.205-2.75 87.212 87.212 0 0 0-9.88 67.957c4.54 3.735 10.716 13.672 15.811 22.909a84.33 84.33 0 0 0 34.292 7.097z"/><g class="7aa8f74f-9cd5-404a-9291-13eaabdbe894"><ellipse class="51eacb84-2b7c-40b7-b1a0-ba91882e9871" cx="174.146" cy="171.078" rx="72.053" ry="43.436" transform="rotate(-17.719 174.146 171.078)"/><path class="51eacb84-2b7c-40b7-b1a0-ba91882e9871" d="M183.116 123.728c.971-3.148-.144-7.36-.702-8.457a5.698 5.698 0 0 0-1.88-1.74l1.336-3.05s-.299-4.406-1.649-5.827c0 0-3.127 3.056-1.848 6.183.366.893.671 1.548.924 2.037a6.55 6.55 0 0 0-4.434-.412l.458-1.048s-.306-4.52-1.691-5.977c0 0-3.208 3.135-1.895 6.342.335.819.621 1.446.864 1.928-1.577 1.47-1.81 3.588-2.133 4.731-.432 1.53.072 4.823.324 6.064a9.884 9.884 0 0 0 1.385 2.861s-.737 4.157-.791 5.003a1.387 1.387 0 0 0 .341 1.17l2.07 1.547s-.252 1.277-.36 1.583.072.306.36.504c-.486.306-.954 8.17-.954 8.17.504.88 7.198.737 7.827.719a1.209 1.209 0 0 0 .936-.72l-.9-8.223.414-.216-.036-1.17a7.218 7.218 0 0 0 .81-1.475 4.091 4.091 0 0 0 .234-2.52l-1.26-4.3s1.278-.558 2.25-3.707zm-25.612-5.371c-.483-.077-.52-.128-.434-.384s1.067-1.045 1.364-1.493-1.073.234-1.575.559-.764.553-.86.312.658-1.02.862-2.01-.944.556-1.292 1.041-.652.976-.697.699a10.909 10.909 0 0 0-.144-1.914c-.18-.569-.454.332-.454.332s-.245 1.222-.24 1.477-.45 1.114-.705 1.028-.122-.65-.46-1.064c-.787-.71-.727.604-.727.604s.432 1.24.891 2.304c-1.573 2.653-5.732 4.994-7.71 5.997a3.405 3.405 0 0 0-.766-.693c-1.418-.927-2.89-1.855-2.89-1.855v-.709a6.515 6.515 0 0 0 2.94-2.846c.1-.047.206-.099.316-.153.424.002.761-.026.944-.437.016-.037.029-.08.043-.12a3.132 3.132 0 0 0 .837-.73c.62-.887.459-4.118.459-4.118l-1.59 1.893c.088-.334.18-.663.25-.908.219-.763.328-3.436-.981-3.655a5.33 5.33 0 0 0-4.91-1.8c-.038.003-.072.01-.11.013a8.356 8.356 0 0 0-.936-2.81 1.323 1.323 0 1 0-.776.517c.272.718.693 1.613 1.073 2.38-2.704.47-3.997 2.12-3.997 3.773a18.125 18.125 0 0 0 .382 4.146 25.598 25.598 0 0 0 .873 3.328 4.539 4.539 0 0 0 2.891 1.91c.327.49.164.763.164.763l-.382.49s-2.832 1.145-3.109 1.636c-1.886-.994-4.687-2.704-5.858-4.605.404-.9.784-1.949.784-1.949s.052-1.112-.64-.51c-.297.35-.178.827-.403.9s-.624-.655-.62-.87-.211-1.249-.211-1.249-.242-.762-.4-.281a8.886 8.886 0 0 0-.126 1.619c-.04.234-.307-.182-.613-.591s-1.314-1.717-1.135-.88.842 1.496.757 1.7-.315.01-.756-.265-1.645-.85-1.384-.472 1.123 1.045 1.199 1.262.043.26-.381.325-1.388-.015-.824.28 1.32.33 1.639.813a3.116 3.116 0 0 0 1.406 1.078c.257.05 4.175 4.83 6.948 7.203-.105.506-.216 1.01-.336 1.514-.002.566.007 1.132.009 1.697.002.554-.013 1.097-.045 1.634a19.123 19.123 0 0 1-.327 3.688l-.593 7.98h10.747s-.6-5.618-.546-6.764.055-6.273.546-6.437a4.25 4.25 0 0 0 .248-.094c.06-.609.107-1.217.158-1.825 2.854-1.475 9.33-9.765 9.686-9.837a3.562 3.562 0 0 0 1.6-1.275c.361-.572 1.223-.614 1.864-.962s-.455-.252-.937-.33zm44.34-1.197c-1.08-1.06-2.016-.82-2.19-3.27s1.759-3.511.05-3.958a1.958 1.958 0 0 0-.795-.036 1.872 1.872 0 0 0-1.847-1.626c-.153-.29-.392-1.942-1.874-2.028s-5.009-.187-7.53 2.573l1.345-.102a3.437 3.437 0 0 0-1.226 1.54c-1.09-.224-.234 1.73-1.034 4.111-.818 2.44-1.344 1.756-2.338 2.341s-1.11 3.317.643 2.635 2.695-.633 3.69-2.81c.023-.052.042-.109.064-.163.113.646.552 2.475 3.32 2.858a2.4 2.4 0 0 1-.018.766c-.05.154-.426.273-.426.273a4.505 4.505 0 0 0-.562.29 2.823 2.823 0 0 1-.698.323c-.086 0-1.04.324-1.261.886-.187.476-.654 1.922-.804 2.575 0 .12-1.96 8.086-1.81 8.13s0 1.227 1.492 1.227c.089-.073-.826-1.044.321-.736.818.22 1.154-3.005 1.28-4.872-.097 1.882-.26 5.203-.224 5.483a1.997 1.997 0 0 0 .358.852c.12.187.136 3.663.153 3.73s.324 3.613.324 3.613l2.726.17.085-4.43s1.074 4.277 1.193 4.43a13.098 13.098 0 0 0 2.453 0 9.642 9.642 0 0 1 0-2.385 30.07 30.07 0 0 0 0-3.748s.75-1.295.682-1.636l-.068-.34h.443s.272-2.675.374-4.192.137-5.877.069-6.576-.154-1.26-.529-1.465-2.044-1.04-2.044-1.04l-.102-.22-1.057-.495-.51-.273v-.34a5.261 5.261 0 0 0 3.18-2.752 16.297 16.297 0 0 0 2.902 2.429c2.035 1.587 2.881-.683 1.8-1.742z"/><path class="51eacb84-2b7c-40b7-b1a0-ba91882e9871" d="M167.093 118.108c-1.38-.303-1.899.345-1.899.776s-.13 1.425-.13 1.425l-.43 1.295-.303-1.727-2.287-2.244a5.213 5.213 0 0 0 3.539-1.08c1.338-1.25 2.244-5.006 1.122-7.682a13.753 13.753 0 0 0-1.363-2.587l.085.015c.417-2.408-.624-4.599-2.325-4.893-1.442-.25-2.892.947-3.555 2.784-1.508.154-1.647.365-1.647.365a8.847 8.847 0 0 0-1.008.048c-1.459-1.797-3.638-2.463-4.97-1.475-1.383 1.025-1.331 3.439.112 5.4a4.855 4.855 0 0 0-.262 1.12 11.492 11.492 0 0 0 .518 4.575 5.421 5.421 0 0 0 .172 2.072c.302.518.475 2.072 2.029 2.244l-1.986 3.755a22.476 22.476 0 0 1-.777-3.755c0-1.036.216-2.417-.906-2.33s-1.554.345-1.467.906a1.917 1.917 0 0 0 .95 1.338c.215.604.517 3.668.733 5.61s.464 3.022.88 3.238a1.372 1.372 0 0 0 .976 0l-.977 9.193s5.422 2.114 9.868 0c.215-1.166-1.122-6.373-1.036-7.05a17.452 17.452 0 0 1 .863-3.697 13.695 13.695 0 0 1 .196 2.158s.063.734.495.95 1.467-.432 1.467-.432l.95-.389v-1.64l1.51-5.524a5.847 5.847 0 0 0 1.165-.82c.432-.432 1.08-1.64-.302-1.942zm57.863 5.51a3.73 3.73 0 0 1-.485-1.08c-.135-.566-.837-1.726-.998-2.32s-.324-1.051-.324-1.051-1.484-3.966-1.673-4.505-.674-.567-1.322-.756-3.372-.593-3.372-.593l-1.268-.918s-.323-.35-.189-.593a6.108 6.108 0 0 0 .378-.971 3.729 3.729 0 0 1 .405-.863c.135-.216.189-.513.431-1.026s1.214-2.94-.134-4.586a3.339 3.339 0 0 0-2.887-1.411 8.203 8.203 0 0 0-1.888.143 5.37 5.37 0 0 0-1.646 1.565 5.303 5.303 0 0 0-.378 1.565 5.088 5.088 0 0 0 .19 1.969c.026.432.026.998.026.998a1.246 1.246 0 0 0 .378.81c.378.377.593.35.593.35s.162.594.243.783a1.486 1.486 0 0 1 .081 1.16l-.216.404-1.133 1.214-3.938 1.943s-.567-.135-.594.566-2.05 10.036-2.05 10.036-.486 1.753 0 2.454.674.918 1.915 1.08 3.723.431 3.723.431l-.216.998a23.76 23.76 0 0 1-.054 2.617 14.907 14.907 0 0 0-.431 2.482c.027.89.215 2.563.215 2.563h.351a29.04 29.04 0 0 0 .486 3.642 45.171 45.171 0 0 1 .566 6.96c0 1.214 14.352-.216 14.352-.216s-.863-7.958-1.376-8.66c-.27-.836-.512-1.402-.512-1.402s-.081-2.24-.135-3.049-.62-4.664-.594-4.922.297-.554.89-1.31 1.97-2.562 2.05-2.616.567-.297.648-.62.459-.864.486-1.134.297-.458-.594-2.131zm-17.535 3.075v-2.832c0-.405 0 0 .405 0s.364.728.344 1.052a4.005 4.005 0 0 0 .263 1.173 1.132 1.132 0 0 0 .485.607zm14.408-1.85a2.747 2.747 0 0 1-.545.344 2.847 2.847 0 0 1 .503.576c.283.404-.931 1.416-1.012 1.092s0-4.087 0-4.087c.009-.446.51.203.51.203a8.391 8.391 0 0 1 .544 1.872z"/><path class="51eacb84-2b7c-40b7-b1a0-ba91882e9871" d="M234.656 113.041a12.161 12.161 0 0 0-2.758 0 24.477 24.477 0 0 0-2.4 1.584c-.358.204-.256.357-.46 1.123s-1.073 2.452-1.686 2.656a.57.57 0 0 1-.766-.409 6.592 6.592 0 0 1-.408-1.379 2.95 2.95 0 0 0-.256-.918 3.69 3.69 0 0 1-.255-1.176 6.965 6.965 0 0 0-.358-1.572 2.298 2.298 0 0 0-.561-1.186c-.256-.204-.205-.612-.409-.919s-.664-.92-.664-.92-1.2-.638-.568.875c.364.537.632.92.632.92s.21.517.076.574a1.78 1.78 0 0 1-.892.039 2.407 2.407 0 0 0-.985-.46c-.325-.02-1.015.191-.306.651s.766.766.766.766l.153.25a2.383 2.383 0 0 0-.191.42c-.058.192.191.48.306.613s.058.307.077.537.325.21.364.344a2.06 2.06 0 0 1 .019.46s.479.44.632.594.115.345.096.804-.134 1.61-.154 1.992a7.577 7.577 0 0 0 1.035 3.333c.727 1.015 1.302 1.283 2.26.842s1.034-.67 1.302-.708a5.918 5.918 0 0 0 1.187-.422c.058-.057.307-.498.307-.498s.345-.555.517-.383-.268.9-.421 1.264a4.89 4.89 0 0 0-.077 1.916 2.207 2.207 0 0 1-.077 1.551c-.287.709-1.991 4.022-2.145 4.348s-.21.976-.287 1.053-.421.632-.325.881.23.23-.115 1.092-2.292 8.759-2.292 8.759l10.32 2.477s2.27-6.538 2.295-6.742.51.051.842-.026.383.052.358-.587.077-3.345.128-3.907a5.665 5.665 0 0 0 0-1.021s.561-1.022.817-1.66a8.345 8.345 0 0 0 .638-1.839c0-.357-.025-1.047 0-1.328s.766.715.766.715a1.081 1.081 0 0 0 .74.409 5.55 5.55 0 0 0 2.58-.817 3.146 3.146 0 0 0 1.124-2.171 6.6 6.6 0 0 0-.154-1.864 6.547 6.547 0 0 0-.485-.664s-.102-.153.18-.613a15.23 15.23 0 0 0 .765-1.89.884.884 0 0 0 .332-.357c.077-.205-.153-.537-.153-.664s.169-1.89.169-1.89-.144-1.15-.833-1.404a4.603 4.603 0 0 1 .536-1.022 4.387 4.387 0 0 0 .511-.69 2.215 2.215 0 0 1 .332-.485s-.102-.102.128-.715.025-.791.408-.919.792-.434.409-.74a1.33 1.33 0 0 0-1.481.178 3.309 3.309 0 0 1-.945.945c-.204.051-.766-.28-.868-.357a3.115 3.115 0 0 0-1.15.255 1.95 1.95 0 0 0-.28.409s-.613.025-.588-.18a1.491 1.491 0 0 0-.127-.561l-1.584-.179s-.434-.127-.51-.842-.281-1.635-.332-2.018-.052-.179.127-.51.562-1.303.077-1.788-.664-.51-.664-.51l-.204-.333a4.75 4.75 0 0 0-1.124-2.247 2.176 2.176 0 0 0-1.43-.69c-.587-.178-3.116-.204-4.367 1.277s-.843 1.405-.996 1.583-.178.41-.05.869a3.758 3.758 0 0 1 .127.894l.51-.128s.486-.383.562.05.103.614.307.767.204.613.23.945.23.357.408.664a6.41 6.41 0 0 1 .332 1.047c.179.51.841.97 1.097 1.277z"/><path class="acb4a3a5-ab46-4f1b-8156-3708f4e88d02" d="M172.328 142.038c.972-3.15-.144-7.36-.701-8.458a5.698 5.698 0 0 0-1.88-1.739l1.336-3.05s-.299-4.406-1.65-5.828c0 0-3.126 3.056-1.847 6.183.366.893.671 1.548.924 2.037a6.55 6.55 0 0 0-4.435-.412l.46-1.048s-.307-4.519-1.692-5.977c0 0-3.208 3.135-1.896 6.342.335.819.622 1.446.865 1.928-1.577 1.47-1.81 3.588-2.133 4.731-.432 1.53.072 4.823.324 6.064a9.884 9.884 0 0 0 1.385 2.861s-.738 4.157-.792 5.003a1.387 1.387 0 0 0 .342 1.17l2.07 1.547s-.252 1.277-.36 1.583.072.306.36.504c-.486.306-.954 8.17-.954 8.17.504.881 7.198.737 7.827.719a1.209 1.209 0 0 0 .936-.72l-.9-8.223.414-.216-.036-1.17a7.218 7.218 0 0 0 .81-1.475 4.091 4.091 0 0 0 .234-2.52l-1.26-4.3s1.278-.558 2.25-3.706zm43.468-12.183c-.483-.078-.52-.128-.434-.385s1.067-1.044 1.364-1.492-1.073.233-1.575.558-.764.553-.86.313.658-1.02.862-2.01-.945.556-1.292 1.04-.652.977-.697.7a10.909 10.909 0 0 0-.144-1.915c-.18-.568-.454.333-.454.333s-.245 1.221-.24 1.476-.45 1.115-.706 1.029-.12-.65-.46-1.064c-.786-.712-.726.604-.726.604s.431 1.24.891 2.303c-1.573 2.653-5.732 4.994-7.71 5.997a3.405 3.405 0 0 0-.766-.692c-1.418-.928-2.89-1.855-2.89-1.855v-.71a6.515 6.515 0 0 0 2.94-2.846c.1-.046.206-.098.316-.152.424.001.761-.027.944-.438.016-.037.029-.079.043-.119a3.132 3.132 0 0 0 .837-.731c.62-.887.459-4.118.459-4.118l-1.59 1.893c.088-.334.18-.663.25-.907.219-.764.328-3.437-.981-3.655a5.33 5.33 0 0 0-4.91-1.8c-.038.003-.072.009-.11.012a8.356 8.356 0 0 0-.936-2.81 1.323 1.323 0 1 0-.776.517c.272.718.693 1.613 1.073 2.38-2.704.47-3.997 2.12-3.997 3.774a18.125 18.125 0 0 0 .382 4.146 25.598 25.598 0 0 0 .873 3.327 4.539 4.539 0 0 0 2.891 1.91c.327.49.164.763.164.763l-.382.491s-2.832 1.144-3.109 1.636c-1.886-.995-4.687-2.705-5.858-4.606.404-.9.784-1.948.784-1.948s.052-1.112-.64-.51c-.297.35-.178.826-.403.899s-.624-.654-.62-.87-.211-1.248-.211-1.248-.242-.763-.4-.282a8.886 8.886 0 0 0-.126 1.619c-.04.235-.307-.181-.613-.591s-1.314-1.717-1.135-.88.842 1.496.757 1.7-.315.01-.756-.265-1.645-.85-1.384-.472 1.123 1.046 1.199 1.262.043.26-.381.326-1.388-.015-.824.279 1.32.33 1.639.814a3.116 3.116 0 0 0 1.406 1.078c.257.05 4.175 4.829 6.948 7.203-.105.505-.216 1.01-.336 1.514-.002.565.006 1.131.009 1.696.002.554-.013 1.098-.045 1.634a19.123 19.123 0 0 1-.327 3.688l-.593 7.981h10.747s-.6-5.619-.546-6.764.055-6.274.546-6.437a4.25 4.25 0 0 0 .248-.094c.06-.61.107-1.218.158-1.826 2.854-1.474 9.33-9.765 9.686-9.837a3.562 3.562 0 0 0 1.6-1.274c.361-.573 1.223-.615 1.864-.962s-.455-.253-.937-.33z"/><path class="acb4a3a5-ab46-4f1b-8156-3708f4e88d02" d="M191.057 135.469c-1.08-1.06-2.016-.82-2.19-3.27s1.759-3.51.05-3.957a1.958 1.958 0 0 0-.795-.037 1.872 1.872 0 0 0-1.847-1.626c-.154-.29-.392-1.942-1.874-2.027s-5.01-.188-7.53 2.572l1.345-.102a3.437 3.437 0 0 0-1.226 1.54c-1.091-.224-.235 1.73-1.034 4.111-.818 2.44-1.344 1.756-2.338 2.342s-1.111 3.317.643 2.634 2.695-.633 3.69-2.81c.023-.052.042-.109.064-.163.113.646.552 2.475 3.32 2.858a2.4 2.4 0 0 1-.018.766c-.051.154-.426.273-.426.273a4.505 4.505 0 0 0-.562.29 2.823 2.823 0 0 1-.699.323c-.085 0-1.039.324-1.26.886-.188.476-.654 1.922-.804 2.575 0 .12-1.961 8.087-1.81 8.13s0 1.227 1.492 1.227c.089-.073-.826-1.044.321-.736.818.22 1.154-3.005 1.28-4.872-.097 1.882-.26 5.203-.224 5.483a1.997 1.997 0 0 0 .358.852c.12.187.136 3.663.153 3.731s.324 3.612.324 3.612l2.726.17.085-4.43s1.073 4.277 1.193 4.43a13.098 13.098 0 0 0 2.453 0 9.642 9.642 0 0 1 0-2.385 30.07 30.07 0 0 0 0-3.748s.75-1.295.682-1.636l-.069-.34h.443s.273-2.675.375-4.192.137-5.877.068-6.576-.153-1.26-.528-1.465-2.044-1.04-2.044-1.04l-.102-.22-1.057-.495-.51-.272v-.341a5.261 5.261 0 0 0 3.18-2.752 16.297 16.297 0 0 0 2.901 2.429c2.036 1.587 2.882-.683 1.801-1.742zm-54.685 0c-1.08-1.06-2.016-.82-2.191-3.27s1.76-3.51.05-3.957a1.958 1.958 0 0 0-.794-.037 1.872 1.872 0 0 0-1.847-1.626c-.154-.29-.392-1.942-1.874-2.027s-5.01-.188-7.53 2.572l1.345-.102a3.437 3.437 0 0 0-1.226 1.54c-1.091-.224-.235 1.73-1.034 4.111-.818 2.44-1.344 1.756-2.338 2.342s-1.111 3.317.643 2.634 2.695-.633 3.689-2.81c.024-.052.043-.109.065-.163.113.646.552 2.475 3.319 2.858a2.4 2.4 0 0 1-.017.766c-.051.154-.426.273-.426.273a4.505 4.505 0 0 0-.562.29 2.823 2.823 0 0 1-.699.323c-.085 0-1.039.324-1.26.886-.188.476-.654 1.922-.804 2.575 0 .12-1.961 8.087-1.81 8.13s0 1.227 1.492 1.227c.088-.073-.826-1.044.321-.736.818.22 1.154-3.005 1.279-4.872-.096 1.882-.26 5.203-.223 5.483a1.997 1.997 0 0 0 .358.852c.12.187.136 3.663.153 3.731s.324 3.612.324 3.612l2.726.17.085-4.43s1.073 4.277 1.193 4.43a13.098 13.098 0 0 0 2.453 0 9.642 9.642 0 0 1 0-2.385 30.07 30.07 0 0 0 0-3.748s.75-1.295.681-1.636l-.068-.34h.443s.273-2.675.375-4.192.136-5.877.068-6.576-.153-1.26-.528-1.465-2.044-1.04-2.044-1.04l-.103-.22-1.056-.495-.511-.273v-.34a5.261 5.261 0 0 0 3.18-2.752 16.297 16.297 0 0 0 2.902 2.429c2.036 1.587 2.882-.683 1.801-1.742zm111.697-4.002c-1.382-.302-1.9.346-1.9.777s-.129 1.424-.129 1.424l-.431 1.295-.303-1.726-2.287-2.245a5.213 5.213 0 0 0 3.539-1.079c1.338-1.251 2.244-5.006 1.122-7.682a13.753 13.753 0 0 0-1.363-2.588l.086.015c.416-2.408-.625-4.598-2.325-4.893-1.443-.25-2.893.947-3.556 2.785-1.508.154-1.646.365-1.646.365a8.847 8.847 0 0 0-1.008.048c-1.46-1.797-3.638-2.463-4.971-1.475-1.383 1.025-1.331 3.438.112 5.399a4.855 4.855 0 0 0-.262 1.121 11.492 11.492 0 0 0 .518 4.575 5.421 5.421 0 0 0 .172 2.072c.303.517.475 2.071 2.029 2.244l-1.985 3.755a22.476 22.476 0 0 1-.777-3.755c0-1.036.216-2.417-.907-2.33s-1.553.344-1.467.906a1.917 1.917 0 0 0 .95 1.338c.215.604.517 3.668.733 5.61s.464 3.021.88 3.237a1.372 1.372 0 0 0 .976 0l-.976 9.193s5.421 2.115 9.867 0c.216-1.165-1.122-6.373-1.036-7.049a17.452 17.452 0 0 1 .863-3.697 13.695 13.695 0 0 1 .197 2.158s.062.733.494.949 1.467-.432 1.467-.432l.95-.388v-1.64l1.51-5.525a5.847 5.847 0 0 0 1.166-.82c.431-.431 1.079-1.64-.302-1.942zm-90.451 11.254a3.468 3.468 0 0 1-.451-1.003c-.126-.527-.778-1.606-.929-2.158s-.3-.979-.3-.979-1.38-3.688-1.556-4.19-.628-.527-1.23-.702-3.136-.552-3.136-.552l-1.18-.853s-.3-.326-.175-.552a5.68 5.68 0 0 0 .351-.903 3.468 3.468 0 0 1 .377-.803c.125-.201.175-.477.401-.954s1.13-2.735-.125-4.265a3.105 3.105 0 0 0-2.685-1.313 7.63 7.63 0 0 0-1.756.134 4.994 4.994 0 0 0-1.53 1.455 4.932 4.932 0 0 0-.352 1.455 4.732 4.732 0 0 0 .176 1.832c.025.401.025.928.025.928a1.16 1.16 0 0 0 .35.753c.352.351.553.326.553.326s.15.552.226.728a1.382 1.382 0 0 1 .075 1.078l-.2.377-1.055 1.129-3.663 1.806s-.527-.125-.552.527-1.907 9.334-1.907 9.334-.451 1.63 0 2.283.628.853 1.782 1.003 3.462.402 3.462.402l-.2.928a22.097 22.097 0 0 1-.05 2.434 13.864 13.864 0 0 0-.402 2.308c.025.828.2 2.384.2 2.384h.327a27.009 27.009 0 0 0 .451 3.387 42.011 42.011 0 0 1 .527 6.473c0 1.13 13.348-.2 13.348-.2s-.803-7.402-1.28-8.055c-.25-.777-.476-1.304-.476-1.304s-.075-2.083-.126-2.835-.577-4.338-.552-4.578.276-.516.828-1.218 1.832-2.384 1.907-2.434.527-.276.602-.577.427-.803.452-1.054.276-.426-.552-1.982zm-16.308 2.86v-2.634c0-.376 0 0 .376 0s.339.677.32.979a3.725 3.725 0 0 0 .245 1.09 1.053 1.053 0 0 0 .451.565zm13.4-1.72a2.555 2.555 0 0 1-.507.32 2.648 2.648 0 0 1 .467.535c.264.376-.865 1.317-.94 1.016s0-3.801 0-3.801c.007-.415.473.188.473.188a7.804 7.804 0 0 1 .507 1.742zm76.743-3.848c-.203-1.068-2.47-5.333-3.004-6.455a8.79 8.79 0 0 0-1.72-2.352c-.182-.128-1.785-1.015-1.785-1.015a3.617 3.617 0 0 0-.535-.428 1.73 1.73 0 0 1-.46-.47c-.063-.096.31-.256.31-.256s.578.235.877-.032a7.677 7.677 0 0 0 .973-2.993 7.02 7.02 0 0 0-.652-4.03 7.5 7.5 0 0 0-1.999-2.832 2.944 2.944 0 0 0-2.234-.705c-1.133 0-2.223 1.271-2.552 1.603a31.414 31.414 0 0 0-1.851 4.938 15.793 15.793 0 0 0-.054 2.255l.545.727a6.434 6.434 0 0 0-.876-.064 2.89 2.89 0 0 0-.802.096 9.102 9.102 0 0 0-1.558 2.041c-.308.599-.921 1.775-.921 1.775a5.175 5.175 0 0 1-.086-.652c0-.203.225-1.678.246-1.828a5.138 5.138 0 0 1 .182-.588h-.225s.032-.096.075-.235.395-.994.502-1.208a2.953 2.953 0 0 0 .225-1.015c-.022-.203-.203-.332-.193-.428a1 1 0 0 0-.053-.427 1.499 1.499 0 0 0-.31-.492c-.064-.075.01-.47 0-.545s-.064-.118-.139-.086-.15.246-.192.3-.214.064-.214-.054-.353-.128-.438-.224a.719.719 0 0 0-.46-.15c-.118.01-.096.096-.17.278a2.839 2.839 0 0 0-.257-.524c-.097-.203-.396-.288-.571-.352a.564.564 0 0 0-.377 0c-.125.021-.047.181.21.31s.363.513.502.812.064.374.097.577-.214.14-.228.235a.43.43 0 0 1-.221.267.908.908 0 0 0-.332.289c-.085.128.032.492.214.802a5.86 5.86 0 0 1 .31 1.336.791.791 0 0 1 0 .438h-.524l.043.192.086.428a2.199 2.199 0 0 1 .042 1.282 9.229 9.229 0 0 0-.085 2.18 2.917 2.917 0 0 1-.257.984s.086 2.822.257 4.019 1.967.47 1.967.47l.983-.94-.3 3.634s-.427.897-.983 1.923a7.794 7.794 0 0 0-.684 2.566 3.366 3.366 0 0 0-.15.833c0 .364-.363 3.292-.512 3.87s-.684 4.51-.684 4.51 16.951.92 16.866.62-.77-2.523-.77-2.523-1.881-5.461-2.041-5.878-1.197-2.608-1.197-2.608l-.182-.535a3.823 3.823 0 0 1 .48.31c.065.075.546-.053.642-.126a8.329 8.329 0 0 1 1.806-.002 5.714 5.714 0 0 0 2.224-.46s2.362-.737 2.928-.94.417-.577.47-.812a5.5 5.5 0 0 0-.224-1.636zm-3.56.904a17.353 17.353 0 0 1-2.116.689 4.397 4.397 0 0 1-1.459 0c-.304-.016-.144-.128-.272-.32s-.257-.065-.4-.21-.37-.175-.53-.352-.224-.128-.273-.288a2.347 2.347 0 0 1 0-.754c.033-.272.337-.497.37-.69a.836.836 0 0 1 .272-.448 3.143 3.143 0 0 0 .497-1.026 1.22 1.22 0 0 1 .737-.706 2.152 2.152 0 0 1 .836-.144c.308-.032.8.337 1.28.802a11.687 11.687 0 0 1 1.46 2.966c.032.256-.177.336-.401.48z"/><path class="d4f2abd4-01d3-4c45-8b0c-2ebeae785eff" d="M219.138 153.24c.971-3.149-.144-7.36-.702-8.457a5.698 5.698 0 0 0-1.88-1.74l1.336-3.05s-.299-4.406-1.649-5.827c0 0-3.127 3.056-1.848 6.183.366.893.671 1.548.924 2.037a6.55 6.55 0 0 0-4.434-.412l.459-1.048s-.307-4.52-1.692-5.977c0 0-3.207 3.134-1.895 6.342.335.819.621 1.445.864 1.928-1.577 1.47-1.81 3.588-2.133 4.731-.432 1.53.072 4.822.324 6.064a9.884 9.884 0 0 0 1.385 2.861s-.737 4.157-.791 5.002a1.387 1.387 0 0 0 .342 1.17l2.069 1.547s-.252 1.278-.36 1.584.072.306.36.504c-.486.306-.954 8.169-.954 8.169.504.882 7.198.738 7.828.72a1.209 1.209 0 0 0 .935-.72l-.9-8.223.414-.216-.036-1.17a7.218 7.218 0 0 0 .81-1.475 4.091 4.091 0 0 0 .234-2.52l-1.26-4.3s1.278-.558 2.25-3.707zm-57.006 10.35c.972-3.149-.144-7.36-.702-8.457a5.698 5.698 0 0 0-1.879-1.74l1.336-3.05s-.299-4.406-1.65-5.827c0 0-3.126 3.056-1.847 6.183.365.893.67 1.548.923 2.037a6.55 6.55 0 0 0-4.434-.412l.46-1.048s-.308-4.52-1.693-5.977c0 0-3.207 3.134-1.895 6.342.335.819.622 1.445.864 1.928-1.576 1.47-1.81 3.588-2.133 4.731-.431 1.53.072 4.822.324 6.064a9.884 9.884 0 0 0 1.386 2.861s-.738 4.157-.792 5.002a1.387 1.387 0 0 0 .342 1.17l2.07 1.547s-.253 1.278-.36 1.584.071.306.36.504c-.486.306-.954 8.169-.954 8.169.504.882 7.197.738 7.827.72a1.209 1.209 0 0 0 .936-.72l-.9-8.223.414-.216-.036-1.17a7.218 7.218 0 0 0 .81-1.475 4.091 4.091 0 0 0 .234-2.52l-1.26-4.3s1.278-.558 2.25-3.707z"/><path class="d4f2abd4-01d3-4c45-8b0c-2ebeae785eff" d="M205.6 151.407c-.484-.077-.52-.128-.434-.384s1.067-1.045 1.364-1.492-1.073.233-1.575.558-.764.553-.86.312.658-1.02.861-2.01-.944.557-1.291 1.041-.652.976-.698.699a10.909 10.909 0 0 0-.143-1.914c-.18-.569-.454.333-.454.333s-.245 1.22-.241 1.476-.448 1.114-.705 1.028-.12-.65-.46-1.064c-.786-.71-.727.604-.727.604s.432 1.24.892 2.304c-1.573 2.653-5.733 4.994-7.71 5.997a3.405 3.405 0 0 0-.766-.693c-1.418-.927-2.891-1.854-2.891-1.854v-.71a6.515 6.515 0 0 0 2.94-2.846c.1-.047.207-.099.316-.153.425.002.762-.026.944-.437.017-.037.03-.079.044-.12a3.132 3.132 0 0 0 .837-.73c.62-.887.459-4.118.459-4.118l-1.59 1.893c.088-.334.18-.663.25-.908.219-.763.328-3.436-.982-3.655a5.33 5.33 0 0 0-4.91-1.8c-.037.003-.072.01-.109.013a8.356 8.356 0 0 0-.937-2.81 1.323 1.323 0 1 0-.775.517c.272.718.693 1.613 1.073 2.38-2.704.47-3.997 2.12-3.997 3.773a18.125 18.125 0 0 0 .382 4.146 25.598 25.598 0 0 0 .872 3.328 4.539 4.539 0 0 0 2.892 1.91c.327.49.163.763.163.763l-.382.49s-2.832 1.145-3.108 1.636c-1.887-.994-4.687-2.704-5.858-4.605.404-.9.783-1.948.783-1.948s.053-1.113-.639-.511c-.297.35-.179.827-.404.9s-.623-.655-.62-.87-.21-1.249-.21-1.249-.243-.762-.4-.28a8.886 8.886 0 0 0-.126 1.618c-.04.234-.307-.181-.613-.591s-1.314-1.717-1.136-.88.843 1.496.758 1.7-.315.01-.756-.265-1.645-.85-1.385-.472 1.124 1.045 1.2 1.262.043.26-.382.325-1.387-.014-.824.28 1.321.33 1.64.813a3.116 3.116 0 0 0 1.405 1.078c.258.05 4.176 4.83 6.949 7.203-.106.506-.216 1.01-.336 1.514-.002.566.006 1.132.008 1.697.002.554-.012 1.098-.044 1.634a19.123 19.123 0 0 1-.327 3.688l-.593 7.98h10.746s-.6-5.618-.545-6.764.054-6.273.545-6.437a4.25 4.25 0 0 0 .248-.094c.06-.608.108-1.217.159-1.825 2.854-1.475 9.33-9.765 9.686-9.837a3.562 3.562 0 0 0 1.6-1.275c.36-.572 1.223-.614 1.864-.962s-.455-.252-.938-.33zm-51.506.849c-.483-.077-.52-.128-.434-.385s1.068-1.044 1.365-1.492-1.073.234-1.575.558-.764.553-.86.313.658-1.02.861-2.01-.944.556-1.292 1.04-.651.977-.697.7a10.909 10.909 0 0 0-.144-1.914c-.179-.57-.454.332-.454.332s-.244 1.221-.24 1.476-.449 1.115-.705 1.029-.121-.65-.46-1.064c-.786-.711-.727.604-.727.604s.432 1.24.892 2.303c-1.573 2.654-5.733 4.994-7.711 5.998a3.405 3.405 0 0 0-.765-.693c-1.418-.927-2.891-1.855-2.891-1.855v-.709a6.515 6.515 0 0 0 2.94-2.847c.1-.046.207-.098.316-.152.425.001.761-.027.944-.438.017-.037.03-.078.044-.119a3.132 3.132 0 0 0 .837-.73c.62-.887.458-4.119.458-4.119l-1.589 1.894c.088-.334.18-.663.25-.908.218-.764.327-3.437-.982-3.655a5.33 5.33 0 0 0-4.91-1.8c-.037.003-.072.01-.11.013a8.356 8.356 0 0 0-.936-2.81 1.323 1.323 0 1 0-.775.516c.272.718.692 1.614 1.072 2.38-2.704.47-3.996 2.12-3.996 3.774a18.125 18.125 0 0 0 .381 4.146 25.598 25.598 0 0 0 .873 3.328 4.539 4.539 0 0 0 2.891 1.909c.328.49.164.764.164.764l-.382.49s-2.832 1.144-3.108 1.636c-1.887-.995-4.687-2.705-5.859-4.605.405-.9.784-1.949.784-1.949s.053-1.112-.639-.51c-.298.35-.179.827-.404.9s-.623-.655-.62-.87-.211-1.25-.211-1.25-.242-.761-.4-.28a8.886 8.886 0 0 0-.126 1.618c-.04.235-.307-.18-.612-.59s-1.315-1.718-1.136-.88.843 1.496.758 1.699-.315.01-.757-.264-1.645-.851-1.384-.472 1.124 1.045 1.2 1.262.043.26-.382.325-1.387-.015-.824.28 1.321.329 1.64.813a3.116 3.116 0 0 0 1.405 1.078c.258.05 4.175 4.829 6.948 7.203-.105.505-.215 1.01-.335 1.514-.002.566.006 1.131.008 1.697.002.554-.012 1.097-.044 1.634a19.123 19.123 0 0 1-.327 3.688l-.593 7.98h10.746s-.6-5.618-.545-6.764.054-6.273.545-6.437a4.25 4.25 0 0 0 .248-.094c.06-.609.107-1.217.158-1.826 2.854-1.474 9.33-9.764 9.686-9.836a3.562 3.562 0 0 0 1.6-1.275c.362-.572 1.224-.614 1.865-.962s-.455-.253-.938-.33z"/><path class="d4f2abd4-01d3-4c45-8b0c-2ebeae785eff" d="M180.86 157.021c-1.08-1.059-2.015-.82-2.19-3.269s1.76-3.511.05-3.958a1.958 1.958 0 0 0-.794-.037 1.872 1.872 0 0 0-1.847-1.625c-.154-.29-.392-1.943-1.875-2.028s-5.008-.187-7.53 2.573l1.346-.102a3.437 3.437 0 0 0-1.226 1.54c-1.091-.224-.235 1.73-1.034 4.11-.818 2.44-1.345 1.757-2.338 2.342s-1.111 3.317.643 2.634 2.695-.632 3.689-2.809c.024-.052.043-.11.065-.163.112.645.552 2.475 3.319 2.857a2.4 2.4 0 0 1-.017.767c-.051.153-.426.273-.426.273a4.505 4.505 0 0 0-.562.29 2.823 2.823 0 0 1-.699.323c-.085 0-1.04.324-1.26.886-.188.475-.654 1.922-.804 2.575 0 .12-1.961 8.086-1.81 8.13s-.001 1.227 1.491 1.227c.09-.074-.825-1.044.322-.736.818.22 1.154-3.005 1.279-4.872-.097 1.882-.26 5.203-.223 5.483a1.997 1.997 0 0 0 .358.852c.119.187.136 3.663.153 3.73s.324 3.612.324 3.612l2.726.17.085-4.429s1.073 4.277 1.192 4.43a13.098 13.098 0 0 0 2.454 0 9.642 9.642 0 0 1 0-2.385 30.07 30.07 0 0 0 0-3.748s.75-1.295.681-1.636l-.068-.34h.443s.273-2.676.375-4.192.136-5.878.068-6.576-.153-1.26-.528-1.465-2.044-1.04-2.044-1.04l-.103-.221-1.056-.494-.511-.273v-.34a5.261 5.261 0 0 0 3.18-2.752 16.297 16.297 0 0 0 2.902 2.429c2.036 1.587 2.882-.683 1.8-1.743zm57.012-4.001c-1.38-.302-1.899.345-1.899.777s-.13 1.424-.13 1.424l-.43 1.295-.303-1.727-2.287-2.244a5.213 5.213 0 0 0 3.539-1.079c1.338-1.251 2.244-5.006 1.122-7.682a13.753 13.753 0 0 0-1.363-2.588l.085.015c.417-2.408-.624-4.599-2.325-4.893-1.442-.25-2.892.947-3.555 2.784-1.508.154-1.647.366-1.647.366a8.847 8.847 0 0 0-1.008.048c-1.459-1.798-3.638-2.464-4.97-1.476-1.383 1.025-1.331 3.439.112 5.4a4.855 4.855 0 0 0-.262 1.12 11.492 11.492 0 0 0 .518 4.576 5.421 5.421 0 0 0 .172 2.071c.302.518.475 2.072 2.029 2.245l-1.986 3.754a22.476 22.476 0 0 1-.777-3.754c0-1.036.216-2.417-.906-2.331s-1.554.345-1.467.906a1.917 1.917 0 0 0 .95 1.338c.215.604.517 3.669.733 5.611s.464 3.021.88 3.237a1.372 1.372 0 0 0 .976 0l-.977 9.193s5.422 2.115 9.868 0c.215-1.165-1.122-6.373-1.036-7.05a17.452 17.452 0 0 1 .863-3.697 13.695 13.695 0 0 1 .196 2.158s.063.734.495.95 1.467-.432 1.467-.432l.95-.388v-1.64l1.51-5.525a5.847 5.847 0 0 0 1.165-.82c.432-.431 1.08-1.64-.302-1.942zM129.65 165.81c-.2-1.049-2.425-5.237-2.95-6.339a8.632 8.632 0 0 0-1.69-2.309c-.178-.126-1.752-.997-1.752-.997a3.552 3.552 0 0 0-.525-.42 1.7 1.7 0 0 1-.451-.461c-.063-.095.304-.252.304-.252s.567.23.861-.032a7.538 7.538 0 0 0 .955-2.939 6.893 6.893 0 0 0-.64-3.956 7.366 7.366 0 0 0-1.963-2.782 2.89 2.89 0 0 0-2.193-.692c-1.113 0-2.183 1.249-2.506 1.574a30.847 30.847 0 0 0-1.819 4.849 15.508 15.508 0 0 0-.052 2.214l.535.714a6.318 6.318 0 0 0-.86-.063 2.838 2.838 0 0 0-.788.095 8.938 8.938 0 0 0-1.53 2.004c-.302.588-.905 1.743-.905 1.743a5.082 5.082 0 0 1-.084-.64c0-.2.22-1.648.242-1.795a5.045 5.045 0 0 1 .178-.578h-.22s.031-.094.073-.23.389-.977.494-1.187a2.9 2.9 0 0 0 .22-.997c-.02-.2-.2-.325-.189-.42a.982.982 0 0 0-.052-.42 1.472 1.472 0 0 0-.305-.482c-.063-.074.01-.462 0-.535s-.063-.116-.136-.084-.147.241-.19.294-.209.063-.209-.053-.346-.126-.43-.22a.706.706 0 0 0-.452-.147c-.115.01-.094.094-.168.273a2.788 2.788 0 0 0-.251-.515c-.095-.2-.389-.283-.561-.346a.554.554 0 0 0-.37 0c-.122.02-.046.178.206.304s.357.504.494.798.063.367.094.567-.21.136-.224.23a.422.422 0 0 1-.217.263.891.891 0 0 0-.325.283c-.084.126.031.483.21.788a5.754 5.754 0 0 1 .304 1.312.777.777 0 0 1 0 .43h-.514l.042.189.084.42a2.16 2.16 0 0 1 .042 1.26 9.062 9.062 0 0 0-.084 2.14 2.864 2.864 0 0 1-.252.966s.084 2.77.252 3.946 1.931.462 1.931.462l.966-.924-.294 3.569s-.42.881-.966 1.89a7.654 7.654 0 0 0-.671 2.518 3.305 3.305 0 0 0-.147.819c0 .357-.357 3.232-.504 3.8s-.672 4.428-.672 4.428 16.646.903 16.562.609-.756-2.477-.756-2.477-1.847-5.363-2.004-5.773-1.176-2.56-1.176-2.56l-.178-.525a3.754 3.754 0 0 1 .472.304c.063.073.535-.052.63-.124a8.179 8.179 0 0 1 1.774-.002 5.611 5.611 0 0 0 2.183-.451s2.32-.724 2.876-.924.409-.567.461-.798a5.401 5.401 0 0 0-.22-1.605zm-3.495.888a17.04 17.04 0 0 1-2.078.677 4.318 4.318 0 0 1-1.433 0c-.299-.016-.142-.126-.267-.315s-.252-.063-.394-.205-.362-.173-.52-.346-.22-.126-.267-.284a2.305 2.305 0 0 1 0-.74c.031-.267.33-.488.362-.677a.821.821 0 0 1 .267-.44 3.086 3.086 0 0 0 .488-1.008 1.199 1.199 0 0 1 .725-.693 2.113 2.113 0 0 1 .82-.141c.302-.032.786.33 1.258.787a11.476 11.476 0 0 1 1.432 2.912c.032.252-.173.33-.393.473z"/><path class="9c7deb70-8bcf-4f3e-a724-de36ee47ccff" d="M199.997 169.885c.971-3.15-.144-7.36-.702-8.458a5.698 5.698 0 0 0-1.88-1.739l1.336-3.05s-.299-4.406-1.649-5.828c0 0-3.127 3.056-1.848 6.183.366.893.671 1.549.924 2.038a6.55 6.55 0 0 0-4.434-.412l.458-1.048s-.306-4.52-1.691-5.978c0 0-3.208 3.135-1.895 6.342.335.819.621 1.446.864 1.928-1.577 1.47-1.81 3.588-2.133 4.731-.432 1.53.072 4.823.324 6.064a9.884 9.884 0 0 0 1.385 2.861s-.738 4.157-.792 5.003a1.387 1.387 0 0 0 .342 1.17l2.07 1.547s-.252 1.277-.36 1.583.072.306.36.504c-.486.306-.954 8.17-.954 8.17.504.881 7.198.737 7.827.72a1.209 1.209 0 0 0 .936-.72l-.9-8.224.414-.216-.036-1.17a7.219 7.219 0 0 0 .81-1.475 4.091 4.091 0 0 0 .234-2.52l-1.26-4.3s1.278-.557 2.25-3.706zm34.347-2.556c.972-3.149-.144-7.36-.702-8.457a5.698 5.698 0 0 0-1.879-1.74l1.336-3.05s-.3-4.406-1.65-5.827c0 0-3.127 3.056-1.847 6.183.365.893.67 1.548.923 2.037a6.55 6.55 0 0 0-4.434-.412l.459-1.048s-.307-4.52-1.692-5.977c0 0-3.207 3.134-1.895 6.341.335.82.622 1.446.864 1.929-1.577 1.47-1.81 3.588-2.133 4.73-.432 1.53.072 4.823.324 6.065a9.884 9.884 0 0 0 1.386 2.86s-.738 4.157-.792 5.003a1.387 1.387 0 0 0 .342 1.17l2.07 1.547s-.253 1.278-.36 1.584.071.306.36.503c-.487.306-.955 8.17-.955 8.17.504.881 7.198.738 7.828.72a1.209 1.209 0 0 0 .935-.72l-.9-8.224.415-.215-.036-1.17a7.218 7.218 0 0 0 .81-1.476 4.091 4.091 0 0 0 .233-2.519l-1.26-4.3s1.278-.558 2.25-3.707zm-91.353 12.906c.972-3.15-.144-7.36-.702-8.458a5.698 5.698 0 0 0-1.879-1.739l1.336-3.05s-.3-4.406-1.65-5.828c0 0-3.126 3.056-1.847 6.183.365.893.67 1.548.923 2.037a6.55 6.55 0 0 0-4.434-.412l.459-1.047s-.307-4.52-1.692-5.978c0 0-3.207 3.135-1.895 6.342.335.819.622 1.446.864 1.928-1.576 1.47-1.81 3.588-2.133 4.731-.432 1.53.072 4.823.324 6.064a9.884 9.884 0 0 0 1.386 2.861s-.738 4.157-.792 5.003a1.387 1.387 0 0 0 .342 1.17l2.07 1.547s-.253 1.277-.36 1.583.071.306.36.504c-.487.306-.954 8.17-.954 8.17.503.881 7.197.737 7.827.72a1.209 1.209 0 0 0 .936-.72l-.9-8.224.414-.216-.036-1.17a7.218 7.218 0 0 0 .81-1.475 4.091 4.091 0 0 0 .233-2.52l-1.26-4.3s1.278-.557 2.25-3.706z"/><path class="9c7deb70-8bcf-4f3e-a724-de36ee47ccff" d="M186.458 168.052c-.483-.078-.52-.128-.434-.385s1.068-1.044 1.365-1.492-1.073.233-1.575.558-.764.553-.86.313.658-1.02.861-2.01-.944.556-1.292 1.04-.651.977-.697.7a10.909 10.909 0 0 0-.143-1.915c-.18-.568-.454.333-.454.333s-.245 1.221-.241 1.476-.449 1.115-.705 1.029-.121-.65-.46-1.064c-.786-.712-.727.604-.727.604s.432 1.24.892 2.303c-1.573 2.653-5.733 4.994-7.711 5.997a3.405 3.405 0 0 0-.765-.692c-1.418-.928-2.891-1.855-2.891-1.855v-.71a6.515 6.515 0 0 0 2.94-2.846c.1-.046.207-.098.316-.152.425.001.762-.027.944-.438.017-.037.03-.079.044-.119a3.132 3.132 0 0 0 .837-.731c.62-.887.458-4.118.458-4.118l-1.589 1.893c.088-.334.18-.663.25-.907.218-.764.328-3.437-.982-3.655a5.33 5.33 0 0 0-4.91-1.8c-.037.003-.072.009-.109.012a8.356 8.356 0 0 0-.937-2.81 1.323 1.323 0 1 0-.775.517c.272.718.692 1.613 1.073 2.38-2.705.47-3.997 2.12-3.997 3.774a18.125 18.125 0 0 0 .382 4.146 25.598 25.598 0 0 0 .872 3.327 4.539 4.539 0 0 0 2.892 1.91c.327.49.163.763.163.763l-.382.491s-2.832 1.144-3.108 1.636c-1.887-.995-4.687-2.705-5.859-4.606.405-.9.784-1.948.784-1.948s.053-1.112-.639-.51c-.297.35-.179.826-.404.899s-.623-.654-.62-.87-.21-1.248-.21-1.248-.243-.763-.4-.282a8.886 8.886 0 0 0-.126 1.619c-.04.235-.308-.181-.613-.591s-1.314-1.717-1.136-.88.843 1.496.758 1.7-.315.01-.756-.265-1.645-.85-1.385-.472 1.124 1.046 1.2 1.262.043.26-.382.326-1.387-.015-.824.279 1.321.33 1.64.814a3.116 3.116 0 0 0 1.405 1.078c.258.05 4.176 4.829 6.949 7.203-.106.505-.216 1.01-.336 1.514-.002.565.006 1.131.008 1.696.002.554-.012 1.098-.044 1.634a19.123 19.123 0 0 1-.327 3.688l-.593 7.981h10.746s-.6-5.619-.545-6.764.054-6.274.545-6.437a4.25 4.25 0 0 0 .248-.094c.06-.61.108-1.218.159-1.826 2.854-1.474 9.33-9.765 9.686-9.837a3.562 3.562 0 0 0 1.599-1.274c.362-.573 1.224-.615 1.865-.962s-.455-.253-.938-.33zm-51.505.848c-.483-.077-.52-.128-.434-.384s1.068-1.045 1.364-1.492-1.072.233-1.574.558-.764.553-.86.312.658-1.02.861-2.01-.944.557-1.292 1.041-.651.976-.697.699a10.909 10.909 0 0 0-.144-1.914c-.179-.569-.454.333-.454.333s-.245 1.22-.24 1.476-.449 1.114-.705 1.028-.121-.65-.46-1.064c-.787-.71-.727.604-.727.604s.432 1.24.892 2.304c-1.574 2.653-5.733 4.994-7.711 5.997a3.405 3.405 0 0 0-.765-.693c-1.419-.927-2.891-1.854-2.891-1.854v-.71a6.515 6.515 0 0 0 2.94-2.846c.1-.047.207-.099.316-.153.424.002.761-.026.944-.437.016-.037.03-.079.043-.12a3.132 3.132 0 0 0 .838-.73c.62-.887.458-4.118.458-4.118l-1.59 1.893c.089-.334.181-.663.251-.908.218-.763.327-3.436-.982-3.655a5.33 5.33 0 0 0-4.91-1.8c-.037.003-.072.01-.11.013a8.356 8.356 0 0 0-.936-2.81 1.323 1.323 0 1 0-.775.517c.271.718.692 1.613 1.072 2.38-2.704.47-3.997 2.12-3.997 3.773a18.125 18.125 0 0 0 .382 4.146 25.598 25.598 0 0 0 .873 3.328 4.539 4.539 0 0 0 2.891 1.91c.328.49.164.763.164.763l-.382.49s-2.832 1.145-3.108 1.636c-1.887-.994-4.688-2.704-5.859-4.605.404-.9.784-1.948.784-1.948s.052-1.113-.639-.511c-.298.35-.179.827-.404.9s-.623-.655-.62-.87-.211-1.249-.211-1.249-.242-.762-.4-.28a8.886 8.886 0 0 0-.126 1.618c-.04.234-.307-.181-.612-.591s-1.315-1.717-1.136-.88.842 1.496.758 1.7-.315.01-.757-.265-1.645-.85-1.384-.472 1.124 1.045 1.2 1.262.042.26-.382.325-1.387-.014-.824.28 1.321.33 1.639.813a3.116 3.116 0 0 0 1.406 1.078c.258.05 4.175 4.83 6.948 7.203-.105.506-.215 1.01-.335 1.514-.002.566.006 1.132.008 1.697.002.554-.012 1.098-.045 1.634a19.123 19.123 0 0 1-.326 3.688l-.594 7.98h10.747s-.6-5.618-.546-6.764.055-6.273.546-6.437a4.25 4.25 0 0 0 .248-.094c.06-.608.107-1.217.158-1.825 2.854-1.475 9.33-9.765 9.686-9.837a3.562 3.562 0 0 0 1.6-1.275c.361-.572 1.224-.614 1.864-.962s-.454-.252-.937-.33zm83.778.764c-1.381-.302-1.899.346-1.899.777s-.13 1.424-.13 1.424l-.43 1.295-.303-1.726-2.287-2.245a5.213 5.213 0 0 0 3.539-1.079c1.338-1.251 2.244-5.006 1.122-7.682a13.753 13.753 0 0 0-1.363-2.588l.085.015c.417-2.408-.624-4.598-2.325-4.893-1.442-.25-2.892.947-3.555 2.785-1.508.154-1.647.365-1.647.365a8.847 8.847 0 0 0-1.008.048c-1.46-1.797-3.638-2.463-4.97-1.475-1.384 1.025-1.332 3.438.112 5.399a4.855 4.855 0 0 0-.263 1.121 11.492 11.492 0 0 0 .518 4.575 5.421 5.421 0 0 0 .173 2.072c.302.517.475 2.071 2.029 2.244l-1.986 3.755a22.476 22.476 0 0 1-.777-3.755c0-1.036.216-2.417-.906-2.33s-1.554.345-1.467.906a1.917 1.917 0 0 0 .95 1.338c.215.604.517 3.668.733 5.61s.464 3.021.88 3.237a1.372 1.372 0 0 0 .976 0l-.977 9.193s5.422 2.115 9.868 0c.215-1.165-1.123-6.373-1.036-7.049a17.452 17.452 0 0 1 .863-3.697 13.695 13.695 0 0 1 .196 2.158s.063.733.494.95 1.468-.433 1.468-.433l.95-.388v-1.64l1.51-5.524a5.847 5.847 0 0 0 1.165-.82c.432-.432 1.08-1.64-.302-1.943z"/><path class="9c7deb70-8bcf-4f3e-a724-de36ee47ccff" d="M152.573 170.885a12.075 12.075 0 0 0-2.739 0 24.302 24.302 0 0 0-2.383 1.572c-.355.203-.253.355-.456 1.116s-1.065 2.434-1.674 2.637a.566.566 0 0 1-.76-.406 6.545 6.545 0 0 1-.406-1.37 2.93 2.93 0 0 0-.253-.911 3.664 3.664 0 0 1-.254-1.167 6.915 6.915 0 0 0-.355-1.561 2.281 2.281 0 0 0-.558-1.178c-.253-.202-.203-.608-.406-.912s-.659-.913-.659-.913-1.191-.634-.564.868c.361.533.628.913.628.913s.209.513.076.57a1.767 1.767 0 0 1-.886.039 2.39 2.39 0 0 0-.978-.457c-.323-.019-1.008.19-.304.647s.76.76.76.76l.153.248a2.366 2.366 0 0 0-.19.418c-.057.19.19.475.304.608s.057.305.076.533.323.209.361.342a2.045 2.045 0 0 1 .02.457s.475.437.627.589.114.342.095.799-.133 1.597-.152 1.977a7.523 7.523 0 0 0 1.026 3.31c.723 1.007 1.294 1.273 2.244.836s1.027-.666 1.293-.704a5.876 5.876 0 0 0 1.18-.418c.056-.057.304-.495.304-.495s.342-.551.513-.38-.266.894-.418 1.255a4.855 4.855 0 0 0-.076 1.902 2.191 2.191 0 0 1-.076 1.54c-.286.704-1.978 3.993-2.13 4.317s-.21.97-.285 1.046-.419.627-.324.874.229.228-.114 1.084-2.275 8.697-2.275 8.697l10.247 2.46s2.252-6.492 2.278-6.694.507.05.837-.026.38.051.355-.583.076-3.321.126-3.88a5.624 5.624 0 0 0 0-1.013s.558-1.015.812-1.648a8.285 8.285 0 0 0 .634-1.826c0-.355-.026-1.04 0-1.318s.76.71.76.71a1.074 1.074 0 0 0 .735.405 5.51 5.51 0 0 0 2.561-.811 3.123 3.123 0 0 0 1.116-2.155 6.553 6.553 0 0 0-.152-1.851 6.5 6.5 0 0 0-.482-.66s-.101-.151.177-.608a15.121 15.121 0 0 0 .761-1.876.878.878 0 0 0 .33-.355c.076-.203-.152-.532-.152-.66s.167-1.875.167-1.875-.142-1.141-.827-1.395a4.57 4.57 0 0 1 .533-1.014 4.356 4.356 0 0 0 .507-.685 2.2 2.2 0 0 1 .33-.481s-.102-.102.126-.71.026-.786.406-.913.786-.431.406-.735a1.321 1.321 0 0 0-1.47.177 3.285 3.285 0 0 1-.94.938c-.202.05-.76-.279-.861-.355a3.093 3.093 0 0 0-1.141.254 1.937 1.937 0 0 0-.279.405s-.609.026-.583-.177a1.48 1.48 0 0 0-.127-.558l-1.572-.177s-.431-.127-.507-.837-.279-1.623-.33-2.003-.05-.178.127-.507.558-1.293.076-1.775-.659-.507-.659-.507l-.203-.33a4.716 4.716 0 0 0-1.115-2.23 2.16 2.16 0 0 0-1.42-.685 4.987 4.987 0 0 0-4.336 1.267c-1.242 1.47-.837 1.395-.989 1.572s-.177.406-.05.862a3.731 3.731 0 0 1 .126.888l.507-.127s.482-.38.558.05.102.61.304.761.203.609.229.938.228.355.405.66a6.364 6.364 0 0 1 .33 1.04c.177.506.835.963 1.09 1.267z"/><path class="16cd73b5-1c79-4f4a-8dcd-5db5fadb51b0" d="M195.72 98.254a445.9 445.9 0 0 1-1.957.43l-.87.186c-.498.107-.994.21-1.48.31-.333.068-.662.132-.99.197-.436.086-.87.17-1.296.249-.35.064-.693.121-1.037.18a63.5 63.5 0 0 1-1.159.192c-.36.056-.71.1-1.063.147-.348.047-.7.097-1.04.134-.372.042-.73.068-1.092.098-.302.025-.61.057-.905.074-.408.023-.8.025-1.193.03-.231.003-.47.017-.697.013a19.68 19.68 0 0 1-1.78-.102c-7.247-.756-12.994-4.58-14.626-9.716-1.155-3.624-.837-9.437 7.22-16.525l.006-.005c.568-.5 1.16-.982 1.764-1.455q.206-.162.415-.322a43.944 43.944 0 0 1 1.896-1.377l.022-.015c.659-.45 1.338-.881 2.029-1.303l.33-.201q1.07-.641 2.183-1.24 1.481-.792 3.035-1.505-2.265-.001-4.514-.228-1.373-.138-2.739-.368a37.338 37.338 0 0 1-8.867-2.646c-.176-.078-.35-.162-.526-.243a37.048 37.048 0 0 1-1.91-.932v.001a27.18 27.18 0 0 1-2.47 2.942 33.823 33.823 0 0 1-1.622 1.572c-.46.42-.932.835-1.42 1.24l-.02.015c-.49.404-.995.798-1.51 1.186l-.286.215q-.794.59-1.616 1.151l-.029.02c-.55.373-1.11.734-1.676 1.087l-.215.135a55.444 55.444 0 0 1-3.607 2.041l-.114.06q-.932.48-1.869.92c-7.018 3.293-13.977 4.777-17.167 3.356-.24-.107-.49-.244-.739-.378-.12-.065-.236-.12-.357-.191a15.09 15.09 0 0 1-3.16-2.503c-.134.104-.269.206-.401.31a11.343 11.343 0 0 1 3.29 6.08 14.996 14.996 0 0 1-1.52 10.013q-.356.68-.78 1.334l-.103.156q-.26.392-.542.773l-.166.222q-.271.352-.563.694c-.063.074-.124.15-.188.223-.255.29-.52.577-.797.854a17.328 17.328 0 0 1-11.893 5.416 10.198 10.198 0 0 1-7.206-2.751 87.212 87.212 0 0 0-9.88 67.957l.01.009c.23.19.464.398.702.618.078.072.156.15.235.225.169.161.34.329.512.505q.131.134.264.273c.177.186.356.38.536.579l.234.258c.258.29.517.591.78.908l.033.04c.255.306.513.626.772.955l.25.32q.286.368.575.752l.282.377q.296.397.594.81c.08.113.16.222.242.336.28.39.56.788.841 1.197l.029.041q.407.59.816 1.203l.267.402q.298.45.596.908l.292.45q.302.468.604.945l.258.407q.422.67.843 1.354l.107.176q.369.601.736 1.21l.304.506.54.909.333.565q.261.444.52.89l.32.55q.366.636.729 1.273l.32.565.518.92.386.693.384.693q.21.38.416.757l.331.606.43.79.203.378q.49.91.962 1.8l.17.319.487.927.176.335.487.936.107.208a287.606 287.606 0 0 1 2.09 4.118 80.877 80.877 0 0 0 50.62-18.83v-.005a33.28 33.28 0 0 1 .021-2.643l.007-.113q.03-.567.082-1.126l.032-.297c.033-.312.07-.622.113-.93l.056-.36q.067-.43.15-.855l.078-.38c.06-.277.125-.551.195-.825.032-.124.062-.248.096-.371.078-.283.165-.562.255-.84.035-.108.067-.217.103-.324.115-.333.24-.662.373-.988.02-.048.035-.097.055-.144q.238-.568.514-1.12c.03-.06.065-.118.096-.178a17.4 17.4 0 0 1 .487-.886c.069-.117.144-.23.216-.345.145-.232.292-.463.45-.69.09-.13.185-.258.28-.387a17.538 17.538 0 0 1 .8-1.012q.252-.295.521-.583c.12-.128.239-.256.363-.381.19-.193.39-.383.592-.57.127-.118.251-.237.382-.353.23-.201.471-.398.715-.593.12-.096.232-.194.355-.288.37-.284.756-.563 1.161-.833l.007-.005a13.424 13.424 0 0 1 7.54-2.336h.001a14.115 14.115 0 0 1 1.666.11 81.302 81.302 0 0 0 9.462-62.722z"/><path class="aba8740c-bb61-40b4-b104-f7412f2d5738" d="M148.861 93.165a123.456 123.456 0 0 1 15.338-7.5c.534-3.2 2.55-7.11 7.556-11.514a47.655 47.655 0 0 1 11.68-7.423 38.862 38.862 0 0 1-18.555-4.417c-7.779 10.817-27.543 18.649-33.622 15.941a14.185 14.185 0 0 1-4.256-3.072c-.134.104-.269.206-.402.31a11.343 11.343 0 0 1 3.29 6.08 15.79 15.79 0 0 1-4.658 14.27 17.328 17.328 0 0 1-11.893 5.415 10.198 10.198 0 0 1-7.206-2.751 86.66 86.66 0 0 0-11.957 33.222l-.003.022q-.202 1.437-.356 2.889l-.027.253q-.144 1.382-.244 2.778l-.018.236q-.21 3.03-.213 6.116c0 .273.011.544.014.817.008.878.027 1.752.062 2.623a85.824 85.824 0 0 0 .227 3.67c.04.488.073.976.12 1.461.102 1.031.225 2.056.362 3.076.076.557.163 1.11.248 1.664q.138.894.294 1.781c.099.562.197 1.124.307 1.683q.275 1.402.593 2.788c.116.506.245 1.007.37 1.51.116.465.239.926.362 1.388a21.344 21.344 0 0 1 2.055 1.992c-1.256-26.165 18.042-56.55 50.532-75.308z"/></g><path class="ef3e05d1-c1da-44bf-b75e-fcbb733a8635" d="M245.232 229.66c-15.185 27.914-48.316 49.377-77.052 49.921-14.814.24-26.295-5.349-32.534-15.835-6.995-11.773-17.693-16.114-24.648-14.322-4.66 1.195-7.327 5.084-7.513 10.937-.173 5.15 4.367 12 12.132 18.358 13.964 11.415 37.922 20.587 59.97 15.37 39.64-9.388 75.074-40.891 85.272-75.446l-15.638 8.646a2.464 2.464 0 0 1 .01 2.371z"/><path class="49b96fc8-75af-4daf-a44f-004d139784ea" d="M264.531 214.568a2.47 2.47 0 0 0-3.013 1.766c-.202.771-.432 1.54-.66 2.309-10.197 34.555-45.63 66.058-85.272 75.446-22.047 5.217-46.005-3.955-59.97-15.37-7.764-6.358-12.304-13.207-12.131-18.358.186-5.853 2.854-9.742 7.513-10.937 6.955-1.792 17.653 2.549 24.649 14.322 6.238 10.486 17.72 16.074 32.533 15.835 28.736-.544 61.867-22.007 77.052-49.921a2.464 2.464 0 0 0-.011-2.371 2.438 2.438 0 0 0-.972-.974 2.486 2.486 0 0 0-3.358.982c-14.401 26.48-45.7 46.829-72.804 47.347-9.093.199-21.424-2.018-28.206-13.42-8.23-13.857-21.384-18.835-30.104-16.578-6.876 1.765-10.964 7.446-11.23 15.556-.212 6.77 4.872 14.906 13.95 22.326 11.933 9.77 30.768 17.985 49.962 17.985a61.922 61.922 0 0 0 14.269-1.619c42.196-9.995 79.866-44.187 89.569-81.313a2.476 2.476 0 0 0-1.766-3.013z"/><path class="ef3e05d1-c1da-44bf-b75e-fcbb733a8635" d="M124.045 67.778c-21.383 6.04-23.573-3.836-18.635-4.925 4.924-1.101 18.091-8.787 24.675-15.357z"/><path class="893a8c42-4f37-41c2-89b0-a0b09ddfc565" d="M128.213 74.255c-.239.173-.478.372-.716.558.358-.133.716-.253 1.075-.385-.12-.067-.24-.107-.359-.173z"/><path class="557161a7-6aa9-4760-922d-7353d38ae892" d="M262.514 214.927c38.625-26.587 35.227-110.25 22.657-145.769-12.968-36.634-39.541-58.23-72.897-59.24-34.153-1.034-64.097 13.513-80.105 38.892-4.367 6.942-5.88 13.247-4.367 18.25a10.806 10.806 0 0 0 5.482 6.69c3.106 1.394 22.896-5.481 28.644-15.927a2.47 2.47 0 0 1 3.45-.916c13.5 8.309 28.685 4.513 41.838.305a2.472 2.472 0 0 1 3.106 1.593 2.428 2.428 0 0 1 0 1.445l-.235.558 2.123-.008a63.624 63.624 0 0 1 22.987 4.137 2.47 2.47 0 1 1-1.819 4.593c-18.914-7.473-44.545-3.81-58.336 8.335-4.725 4.155-6.783 8.177-5.787 11.323 1.035 3.225 5.23 5.76 10.446 6.304 3.929.412 9.902-.915 16.22-2.322 9.756-2.164 20.813-4.62 30.648-2.575 15.942 3.305 26.52 12.862 42.528 27.343l1.951 1.765a2.475 2.475 0 0 1-1.659 4.3 2.498 2.498 0 0 1-1.564-.566 89.894 89.894 0 0 1-1.047 45.188 20.574 20.574 0 0 1 6.208 5.14 2.47 2.47 0 0 1-3.902 3.027c-4.274-5.522-15.119-8.734-25.857-7.659-7.87.81-22.286 4.58-30.303 20.946a2.482 2.482 0 0 1-2.216 1.38 2.43 2.43 0 0 1-1.023-.228l-3.175 39.863h.03c8.654.756 31.431.73 55.974-16.167z"/><path class="49b96fc8-75af-4daf-a44f-004d139784ea" d="M253.063 25.25a23.743 23.743 0 0 0 4.739 4.99l.637.531c17.149 14.628 30.05 17.694 37.869 17.694a28.163 28.163 0 0 0 8.03-1.142c12.039-3.61 19.432-11.083 22.34-16.857a10.212 10.212 0 0 0 1.313-4.247c-1.646-.173-5.906-.252-12.702-.252-3.624 0-7.739.026-12.119.04-4.978.026-10.3.052-15.61.052-9.822 0-23.905-.08-32.626-.783a11.33 11.33 0 0 0-1.871-.026zm43.245 28.153c-8.641 0-22.777-3.279-41.068-18.875l-.598-.491c-8.083-6.743-6.968-9.823-6.596-10.831.69-1.938 2.628-2.92 5.707-2.92.478 0 .996.026 1.58.066 8.548.69 22.485.77 32.227.77 5.297 0 10.606-.027 15.583-.04 4.394-.027 8.522-.053 12.146-.053 10.446 0 13.286.186 14.48.49 1.912.479 3.094 2.178 3.147 4.527.146 5.986-7.911 20.229-27.171 26.003a32.711 32.711 0 0 1-9.437 1.354zM112.14 72.198c-5.589 0-8.376-1.686-9.717-3.04a5.322 5.322 0 0 1-1.5-5.216 5.13 5.13 0 0 1 3.942-3.504c4.261-.943 16.99-8.203 23.468-14.694a2.468 2.468 0 0 1 3.49 3.49c-6.795 6.797-20.347 14.787-25.882 16.022a.672.672 0 0 0-.306.132 4.09 4.09 0 0 0 .717.638c1.022.69 5.283 2.694 17.03-.61a2.469 2.469 0 1 1 1.34 4.75 47.585 47.585 0 0 1-12.583 2.032zm47.558-27.45c-3.93 2.947-2.734 6.584 1.646 7.128 4.393.558 4.725.836 8.773-2.19 4.394-3.292 4.938-8.774 0-8.23-4.937.558-8.23 1.646-10.42 3.292zm-11.521 2.19a4.931 4.931 0 1 1-4.925-4.924 4.926 4.926 0 0 1 4.925 4.924zm57.049-13.711a4.938 4.938 0 1 1-4.938-4.924 4.937 4.937 0 0 1 4.938 4.924z"/><path class="49b96fc8-75af-4daf-a44f-004d139784ea" d="M289.817 67.512c-13.672-38.665-41.89-61.442-77.384-62.517-35.931-1.102-67.482 14.308-84.432 41.187-6.53 10.34-6.278 17.84-4.924 22.312a15.749 15.749 0 0 0 8.202 9.77c6.08 2.707 25.844-5.124 33.622-15.942a38.861 38.861 0 0 0 18.555 4.418 47.658 47.658 0 0 0-11.68 7.422c-8.056 7.088-8.375 12.902-7.22 16.526 1.633 5.136 7.38 8.96 14.627 9.716 4.726.504 10.778-.85 17.813-2.416 9.265-2.044 19.764-4.38 28.564-2.562 13.09 2.708 22.197 9.992 35.398 21.83a85.103 85.103 0 0 1 1.284 49.274 44.384 44.384 0 0 0-19.506-2.308 42.097 42.097 0 0 0-34.245 23.68 2.475 2.475 0 0 0 1.128 3.305 2.422 2.422 0 0 0 1.088.252 2.483 2.483 0 0 0 2.217-1.38c8.017-16.366 22.432-20.136 30.303-20.946 10.738-1.075 21.583 2.137 25.857 7.66a2.47 2.47 0 1 0 3.902-3.027 20.572 20.572 0 0 0-6.208-5.14 89.893 89.893 0 0 0 1.047-45.19 2.498 2.498 0 0 0 1.564.568 2.475 2.475 0 0 0 1.66-4.3l-1.952-1.766C253.09 103.457 242.511 93.9 226.57 90.595c-9.835-2.044-20.892.411-30.648 2.575-6.318 1.407-12.291 2.734-16.22 2.323-5.217-.545-9.411-3.08-10.446-6.305-.996-3.146 1.062-7.168 5.787-11.323 13.79-12.145 39.422-15.808 58.336-8.335a2.47 2.47 0 1 0 1.819-4.593 64.467 64.467 0 0 0-25.11-4.13 2.455 2.455 0 0 0-2.87-3.595c-13.154 4.208-28.34 8.004-41.838-.305a2.47 2.47 0 0 0-3.451.916c-5.748 10.446-25.538 17.321-28.644 15.928a10.806 10.806 0 0 1-5.482-6.69c-1.513-5.004 0-11.309 4.367-18.251 16.007-25.379 45.952-39.926 80.105-38.891 33.356 1.009 59.93 22.605 72.897 59.24 12.57 35.519 15.968 119.18-22.657 145.768-24.543 16.897-47.32 16.923-55.974 16.167a2.465 2.465 0 1 0-.438 4.91 68.17 68.17 0 0 0 6.145.266c11.575 0 31.737-2.588 53.067-17.269 23.229-15.994 30.556-48.607 32.626-73.136 2.589-30.94-2.203-61.642-8.123-78.353zM82.765 166.266a11.146 11.146 0 0 0-8.813 4.062c-2.482 3.053-3.319 7.367-2.336 12.132 2.521 12.158 24.117 35.719 38.745 39.236a13.358 13.358 0 0 0 3.013.398c2.283 0 3.132-.89 3.57-1.566 1.792-2.721.77-8.668-.637-11.893-4.048-9.265-16.897-33.529-23.374-38.533a16.878 16.878 0 0 0-10.168-3.836zm30.609 60.766a17.967 17.967 0 0 1-4.155-.544c-16.698-4.009-39.541-29.069-42.435-43.033-1.288-6.238-.093-12.012 3.345-16.246a16.206 16.206 0 0 1 12.636-5.88 21.727 21.727 0 0 1 13.18 4.87c8.124 6.253 21.902 33.649 24.888 40.445 1.235 2.827 3.69 11.322.252 16.592-1.141 1.725-3.397 3.796-7.711 3.796z"/><path class="557161a7-6aa9-4760-922d-7353d38ae892" d="M82.765 166.266a11.146 11.146 0 0 0-8.813 4.062c-2.482 3.053-3.319 7.367-2.336 12.132 2.521 12.158 24.117 35.719 38.745 39.236a13.358 13.358 0 0 0 3.013.398c2.283 0 3.132-.89 3.57-1.566 1.792-2.721.77-8.668-.637-11.893-4.048-9.265-16.897-33.529-23.374-38.533a16.878 16.878 0 0 0-10.168-3.836z"/><path class="49b96fc8-75af-4daf-a44f-004d139784ea" d="M184.612 167.448a6.83 6.83 0 0 0-3.89 1.247c-7.777 5.177-6.211 14.561-2.92 28.273.81 3.384 1.647 6.889 2.151 10.167a74.564 74.564 0 0 1 .345 13.619c-.239 7.154-.478 14.534 2.602 17.72 1.34 1.393 3.45 2.07 6.41 2.07 15.053 0 18.04-15.795 18.159-16.472.026-.133.053-.279.093-.425 2.933-9.291 3.81-16.804-.014-29.891-2.442-8.8-14.07-26.308-22.936-26.308zm4.699 79.68c-4.779 0-8.535-1.367-11.15-4.075-5.017-5.19-4.725-14.004-4.446-22.512a71.673 71.673 0 0 0-.266-12.41c-.464-3-1.234-6.226-2.044-9.637-3.053-12.73-6.504-27.157 5.668-35.28a13.424 13.424 0 0 1 7.539-2.337c14.295 0 26.892 22.512 29.268 31.073 4.22 14.495 3.225 23.282.026 33.476-1.393 7.645-8.242 21.702-24.595 21.702z"/><path class="557161a7-6aa9-4760-922d-7353d38ae892" d="M184.612 167.448a6.83 6.83 0 0 0-3.89 1.247c-7.777 5.177-6.211 14.561-2.92 28.273.81 3.384 1.647 6.889 2.151 10.167a74.564 74.564 0 0 1 .345 13.619c-.239 7.154-.478 14.534 2.602 17.72 1.34 1.393 3.45 2.07 6.41 2.07 15.053 0 18.04-15.795 18.159-16.472.026-.133.053-.279.093-.425 2.933-9.291 3.81-16.804-.014-29.891-2.442-8.8-14.07-26.308-22.936-26.308z"/><path class="49b96fc8-75af-4daf-a44f-004d139784ea" d="M113.36 101.266c-5.375 0-9.357-3.41-10.38-8.893-.676-3.584.598-7.526 3.584-11.11 3.863-4.659 9.969-8.043 14.508-8.043a7.568 7.568 0 0 1 2.8.504 10.442 10.442 0 0 1 6.04 7.858 15.79 15.79 0 0 1-4.659 14.269 17.328 17.328 0 0 1-11.893 5.415z"/><path class="361d61e2-28bc-4529-b594-da48a0fba4e5" d="M264.966 150.78a30.62 30.62 0 0 0-18.624-12.268l-.206 1.311c.13.021 12.05 2.046 18.63 13.118.076-.77.143-1.503.2-2.162z"/><path class="361d61e2-28bc-4529-b594-da48a0fba4e5" d="M264.966 150.78a30.62 30.62 0 0 0-18.624-12.268l-.206 1.311c.13.021 12.05 2.046 18.63 13.118.076-.77.143-1.503.2-2.162z"/><path class="8afc3037-bd7e-4645-8330-b00bcda5e601" d="M121.843 180.778c-.87 2.537-17.453-5.654-20.62-25.235-3.251-19.566 9.85-32.624 11.484-30.497 1.94 1.519-5.266 14.102-2.466 29.02 2.109 15.03 12.957 24.653 11.602 26.712z"/><path class="49b96fc8-75af-4daf-a44f-004d139784ea" d="M149.624 204.176l-2.562-.507c-3.585 18.095 8.614 27.122 9.134 27.497l1.528-2.12c-.114-.082-11.361-8.403-8.1-24.87zm6.656 12.214a2.892 2.892 0 1 1 2.892-2.892 2.894 2.894 0 0 1-2.892 2.891zm0-5.017a2.124 2.124 0 1 0 2.124 2.125 2.127 2.127 0 0 0-2.124-2.125zm94.258-61.093a2.897 2.897 0 1 1 1.338-.332 2.895 2.895 0 0 1-1.338.332zm-.008-5.017a2.123 2.123 0 1 0 1.886 1.138 2.126 2.126 0 0 0-1.886-1.138zm3.596-7.654a2.906 2.906 0 0 1-.866-.133 2.892 2.892 0 1 1 3.424-4.103 2.894 2.894 0 0 1-2.558 4.236zm-.008-5.017a2.123 2.123 0 1 0 1.886 1.138 2.111 2.111 0 0 0-1.886-1.138zM141.887 216.39a2.892 2.892 0 1 1 2.892-2.892 2.894 2.894 0 0 1-2.892 2.891zm0-5.017a2.124 2.124 0 1 0 2.124 2.125 2.127 2.127 0 0 0-2.124-2.125zm192.55 11.549c-.462-7.709-13.957-19.672-40.11-35.556a3.918 3.918 0 0 0-5.383 1.314l-2.713 4.465a3.919 3.919 0 0 0 1.314 5.384c14.309 8.691 24.624 16.531 29.944 21.332-10.645-2.521-40.916-14.799-124.09-68.85-61.673-40.077-120.952-82.658-131.99-91.522-.768-.633-1.191-.986-1.24-1.028a3.919 3.919 0 0 0-5.085 5.964c.276.24.636.539 1.075.894 8.61 7.123 70.267 57.749 130.121 96.645 74.079 48.139 118.569 71.539 136.014 71.539h.002c4.995-.003 7.482-1.76 9.232-3.517a8.67 8.67 0 0 0 2.909-7.064z"/><path class="49b96fc8-75af-4daf-a44f-004d139784ea" d="M78.995 28.864l-19.953 2.451L45.71 16.268l-3.834 19.735-18.43 8.028 17.584 9.746 1.941 20.009 14.702-13.712 19.629 4.338-8.498-18.22 10.191-17.328zm241.98 165.802l-6.852-11.584-13.427-.925 8.901-10.095-3.27-13.056 12.351 5.346 11.406-7.146-1.266 13.4 10.318 8.64-13.134 2.936z"/><path class="984bcd91-c200-48a3-8d9e-e32fe01c9a75" d="M325.436 164.742l-.713 7.546 5.811 4.865-7.397 1.654-2.831 7.03-3.858-6.524-7.561-.52 5.012-5.685-1.842-7.352 6.956 3.01 6.423-4.024z"/><path class="49b96fc8-75af-4daf-a44f-004d139784ea" d="M118.392 223.277l-6.727-11.657-13.417-1.067 9.008-10-3.13-13.09 12.294 5.477 11.482-7.023-1.41 13.385 10.227 8.75-13.166 2.795z"/><path class="fe1fdeb4-d136-4e0e-8d03-8c781328a600" d="M109.784 194.273l6.923 3.085 6.466-3.955-.794 7.537 5.759 4.928-7.414 1.574-2.906 7-3.788-6.565-7.556-.601 5.073-5.631-1.763-7.372z"/><path class="10a77e38-2dc0-40e3-9fe3-8a5884f0f091" d="M48.82 27.657l8.133 9.179 12.172-1.496-6.217 10.571 5.184 11.114-11.975-2.645-8.968 8.364-1.184-12.206-10.726-5.944 11.242-4.898 2.339-12.039z"/><path class="4199a4a6-ad59-4758-ad67-9f27a16733c1" d="M322.294 229.585c-11.139 0-41.512-10.884-133.878-70.907C123.67 116.604 57.656 61.47 57.656 61.47c7.013 6.1 69.046 50.874 133.607 92.828 114.317 74.287 131.432 71.662 133.942 69.078l.092-.095c-.536-3.816-16.663-16.526-35.717-28.1l2.712-4.465c8.835 5.365 37.702 23.562 38.232 32.44a4.71 4.71 0 0 1-1.68 3.973c-1.016 1.038-2.534 2.454-6.55 2.457z"/><path class="49b96fc8-75af-4daf-a44f-004d139784ea" d="M253.063 25.25a23.743 23.743 0 0 0 4.739 4.99l.637.531c17.149 14.628 30.05 17.694 37.869 17.694a28.163 28.163 0 0 0 8.03-1.142c12.039-3.61 19.432-11.083 22.34-16.857a10.212 10.212 0 0 0 1.313-4.247c-1.646-.173-5.906-.252-12.702-.252-3.624 0-7.739.026-12.119.04-4.978.026-10.3.052-15.61.052-9.822 0-23.905-.08-32.626-.783a11.33 11.33 0 0 0-1.871-.026zm43.245 28.153c-8.641 0-22.777-3.279-41.068-18.875l-.598-.491c-8.083-6.743-6.968-9.823-6.596-10.831.69-1.938 2.628-2.92 5.707-2.92.478 0 .996.026 1.58.066 8.548.69 22.485.77 32.227.77 5.297 0 10.606-.027 15.583-.04 4.394-.027 8.522-.053 12.146-.053 10.446 0 13.286.186 14.48.49 1.912.479 3.094 2.178 3.147 4.527.146 5.986-7.911 20.229-27.171 26.003a32.711 32.711 0 0 1-9.437 1.354z"/><path class="ef3e05d1-c1da-44bf-b75e-fcbb733a8635" d="M253.063 25.25a23.743 23.743 0 0 0 4.739 4.99l.637.531c17.149 14.628 30.05 17.694 37.869 17.694a28.163 28.163 0 0 0 8.03-1.142c12.039-3.61 19.432-11.083 22.34-16.857a10.212 10.212 0 0 0 1.313-4.247c-1.646-.173-5.906-.252-12.702-.252-3.624 0-7.739.026-12.119.04-4.978.026-10.3.052-15.61.052-9.822 0-23.905-.08-32.626-.783a11.33 11.33 0 0 0-1.871-.026z"/><path class="557161a7-6aa9-4760-922d-7353d38ae892" d="M121.072 78.157c-2.654 0-7.512 2.39-10.725 6.252-1.168 1.42-3.053 4.208-2.522 7.048.757 4.036 3.425 4.872 5.535 4.872a12.513 12.513 0 0 0 8.402-3.969 10.926 10.926 0 0 0 3.319-9.782 5.606 5.606 0 0 0-3.04-4.274 2.864 2.864 0 0 0-.969-.147z"/></svg>