<svg id="f5bc7bcc-af0d-429e-bc94-bed3db4f7538" data-name="レイヤー 1" xmlns="http://www.w3.org/2000/svg" width="1465.48926" height="275.97797" viewBox="0 0 1465.48926 275.97797">
  <defs>
    <style>
      .\33 9beac84-ae1f-4d92-b2f6-078b067ac899 {
        fill: #fff;
      }

      .\33 bbb8c9b-9885-4b23-9882-8d7f5157edcd {
        fill: #dff2fb;
      }

      .\37 281b1bd-a525-40a6-a394-88ac2cc9ee5b {
        fill: none;
        stroke: #b1dff5;
      }
    </style>
  </defs>
  <title>cloud</title>
  <path class="39beac84-ae1f-4d92-b2f6-078b067ac899" d="M412.62939,214.8316c0-16.147-43.30829-29.41431-98.62543-30.87927-4.31982-20.74866-46.13116-37.62225-97.08014-37.62225-44.28931,0-81.67346,14.14819-93.52869,30.4563-.07385-.00006-.14642-.0022-.22034-.0022-40.43317,0-73.47449,14.2207-75.813,28.55C19.52264,209.75366.5,218.65143.5,228.91071c0,14.6582,38.84961,26.5415,86.769,26.5415,5.82343,0,11.51117-.17688,17.01318-.51147,11.03668,4.81946,25.88788,8.02454,42.2359,8.02454a128.48247,128.48247,0,0,0,27.10126-2.78265c18.66931,6.55554,44.73309,10.99554,73.57642,10.99554,50.74127,0,92.89185-12.12067,101.27875-28.05518C386.29846,238.26379,412.62939,227.42322,412.62939,214.8316Z"/>
  <path class="39beac84-ae1f-4d92-b2f6-078b067ac899" d="M435.514,119.48181a7.94983,7.94983,0,0,0,.235-1.87921c0-8.09332-12.43365-14.65631-27.77-14.65631a42.78144,42.78144,0,0,0-17.87482,3.73,71.25436,71.25436,0,0,0-19.8313-2.57336c-17.20306,0-31.14838,5.70514-31.14838,11.24121,0,.09186.01385.18378.02148.2757-17.74707.00647-32.12939,5.88867-32.12939,11.5979,0,5.71289,14.398,11.59912,32.15869,11.59912a80.87876,80.87876,0,0,0,15.09729-1.35724c6.09943,2.59155,15.62549,4.44312,26.33868,4.44312a80.92337,80.92337,0,0,0,23.09521-3.00635,103.78126,103.78126,0,0,0,18.9566,1.64264c19.82813,0,35.90179-4.874,35.90179-10.88867C458.56488,125.01056,448.99249,121.05029,435.514,119.48181Z"/>
  <path class="39beac84-ae1f-4d92-b2f6-078b067ac899" d="M1398.70044,61.3584c-.05847-18.00995-31.88293-32.60693-71.134-32.60693-4.26684,0-8.43872.20618-12.49878.57526C1308.99121,12.9292,1280.12744.5,1245.41107.5c-33.43311,0-61.43958,13.06427-68.89093,27.69708a265.91812,265.91812,0,0,0-34.95178-2.27026c-56.26569,0-101.87988,15.15564-101.87988,33.84265,0,11.49774,17.26758,21.65613,43.65405,27.77289-2.3175,2.39661-3.55933,4.92682-3.55933,7.5426,0,13.58057,33.4588,24.85846,77.40106,27.06512,14.7334,5.61829,36.51611,9.18,60.84113,9.18,19.33929,0,37.07965-2.54926,50.94476-6.50189a470.60274,470.60274,0,0,0,55.29645,3.13861c74.96484,0,135.73828-16.24023,135.73828-36.27252C1460.00488,79.00586,1435.62158,67.84131,1398.70044,61.3584Z"/>
  <path class="39beac84-ae1f-4d92-b2f6-078b067ac899" d="M1088.43549,223.13086c0-4.3194-10.16888-7.82129-22.71381-7.82129-1.28363,0-2.54053.03857-3.76605.109-3.348-3.57928-11.52606-6.109-21.09137-6.109-10.31976,0-19.02765,2.94452-21.79334,6.97546-1.2746-.07642-2.58344-.11859-3.92157-.11859-12.54388,0-22.71387,3.50256-22.71387,7.82135,0,4.31927,10.17,7.82178,22.71387,7.82178,1.938,0,3.81879-.084,5.61469-.24133a110.65189,110.65189,0,0,0,21.814,1.95514c9.73144,0,18.47632-.99872,24.51605-2.58667C1078.99939,230.6922,1088.43549,227.29138,1088.43549,223.13086Z"/>
  <path class="3bbb8c9b-9885-4b23-9882-8d7f5157edcd" d="M418.11469,219.63141c0-16.147-43.30817-29.41431-98.62549-30.87927-4.32019-20.74884-46.131-37.62225-97.08-37.62225-44.28961,0-81.67389,14.14838-93.52887,30.45679-.07367-.00006-.14606-.0022-.21973-.0022-40.43311,0-73.475,14.22034-75.81354,28.54962C25.008,214.55353,5.98541,223.45129,5.98541,233.71045c0,14.65826,38.84961,26.54205,86.769,26.54205,5.82349,0,11.51135-.17682,17.01343-.51147,11.03674,4.8197,25.88818,8.02509,42.23657,8.02509a128.474,128.474,0,0,0,27.10223-2.78308c18.66913,6.55511,44.73206,10.99493,73.57458,10.99493,50.74152,0,92.89209-12.1203,101.27875-28.05481C391.78387,243.064,418.11469,232.22333,418.11469,219.63141Z"/>
  <path class="3bbb8c9b-9885-4b23-9882-8d7f5157edcd" d="M439.37091,122.56757a7.94976,7.94976,0,0,0,.23511-1.87958c0-8.09332-12.43311-14.65582-27.77014-14.65582a42.78211,42.78211,0,0,0-17.87482,3.72992,71.26316,71.26316,0,0,0-19.83118-2.57312c-17.20306,0-31.1485,5.70514-31.1485,11.24072,0,.092.01392.18408.02155.27618-17.74744.00659-32.12891,5.88867-32.12891,11.59729,0,5.713,14.39746,11.59961,32.15869,11.59961a80.88058,80.88058,0,0,0,15.09741-1.35724c6.09961,2.59161,15.62573,4.44324,26.33868,4.44324a80.91577,80.91577,0,0,0,23.0946-3.00653,103.77931,103.77931,0,0,0,18.95709,1.64276c19.82806,0,35.90137-4.87451,35.90137-10.88873C462.42188,128.09613,452.84955,124.136,439.37091,122.56757Z"/>
  <path class="3bbb8c9b-9885-4b23-9882-8d7f5157edcd" d="M1404.18579,66.15875c-.05762-18.00964-31.88245-32.60748-71.134-32.60748-4.2666,0-8.438.20618-12.4978.5752-6.07678-16.39716-34.94116-28.82666-69.65643-28.82666-33.43414,0-61.44073,13.06427-68.89209,27.69708a265.91849,265.91849,0,0,0-34.95178-2.27032c-56.26459,0-101.87884,15.15625-101.87884,33.84271,0,11.49792,17.26733,21.65607,43.6532,27.77277-2.31757,2.39661-3.55945,4.92688-3.55945,7.54272,0,13.581,33.4588,24.85852,77.40179,27.06512,14.7334,5.61823,36.51624,9.18,60.84137,9.18,19.33807,0,37.07776-2.54913,50.94269-6.50159a470.5924,470.5924,0,0,0,55.29755,3.13879c74.96484,0,135.73731-16.24072,135.73731-36.27289C1465.48926,83.806,1441.10645,72.64154,1404.18579,66.15875Z"/>
  <path class="3bbb8c9b-9885-4b23-9882-8d7f5157edcd" d="M1092.72168,226.55957c0-4.3194-10.16992-7.82178-22.71491-7.82178-1.28345,0-2.54016.03857-3.76556.109-3.34863-3.57916-11.527-6.109-21.09186-6.109-10.31964,0-19.027,2.94489-21.79242,6.976-1.2746-.07642-2.58337-.11859-3.92145-.11859-12.54388,0-22.71381,3.502-22.71381,7.82123,0,4.31946,10.16992,7.82135,22.71381,7.82135,1.93726,0,3.81726-.084,5.61249-.24115a110.64505,110.64505,0,0,0,21.81628,1.95557c9.73114,0,18.47632-.99884,24.51623-2.58691C1083.28534,234.12048,1092.72168,230.71942,1092.72168,226.55957Z"/>
  <path class="7281b1bd-a525-40a6-a394-88ac2cc9ee5b" d="M412.62939,214.8316c0-16.147-43.30829-29.41431-98.62543-30.87927-4.31982-20.74866-46.13116-37.62225-97.08014-37.62225-44.28931,0-81.67346,14.14819-93.52869,30.4563-.07385-.00006-.14642-.0022-.22034-.0022-40.43317,0-73.47449,14.2207-75.813,28.55C19.52264,209.75366.5,218.65143.5,228.91071c0,14.6582,38.84961,26.5415,86.769,26.5415,5.82343,0,11.51117-.17688,17.01318-.51147,11.03668,4.81946,25.88788,8.02454,42.2359,8.02454a128.48247,128.48247,0,0,0,27.10126-2.78265c18.66931,6.55554,44.73309,10.99554,73.57642,10.99554,50.74127,0,92.89185-12.12067,101.27875-28.05518C386.29846,238.26379,412.62939,227.42322,412.62939,214.8316Z"/>
  <path class="7281b1bd-a525-40a6-a394-88ac2cc9ee5b" d="M435.514,119.48181a7.94983,7.94983,0,0,0,.235-1.87921c0-8.09332-12.43365-14.65631-27.77-14.65631a42.78144,42.78144,0,0,0-17.87482,3.73,71.25436,71.25436,0,0,0-19.8313-2.57336c-17.20306,0-31.14838,5.70514-31.14838,11.24121,0,.09186.01385.18378.02148.2757-17.74707.00647-32.12939,5.88867-32.12939,11.5979,0,5.71289,14.398,11.59912,32.15869,11.59912a80.87876,80.87876,0,0,0,15.09729-1.35724c6.09943,2.59155,15.62549,4.44312,26.33868,4.44312a80.92337,80.92337,0,0,0,23.09521-3.00635,103.78126,103.78126,0,0,0,18.9566,1.64264c19.82813,0,35.90179-4.874,35.90179-10.88867C458.56488,125.01056,448.99249,121.05029,435.514,119.48181Z"/>
  <path class="7281b1bd-a525-40a6-a394-88ac2cc9ee5b" d="M1398.70044,61.3584c-.05847-18.00995-31.88293-32.60693-71.134-32.60693-4.26684,0-8.43872.20618-12.49878.57526C1308.99121,12.9292,1280.12744.5,1245.41107.5c-33.43311,0-61.43958,13.06427-68.89093,27.69708a265.91812,265.91812,0,0,0-34.95178-2.27026c-56.26569,0-101.87988,15.15564-101.87988,33.84265,0,11.49774,17.26758,21.65613,43.65405,27.77289-2.3175,2.39661-3.55933,4.92682-3.55933,7.5426,0,13.58057,33.4588,24.85846,77.40106,27.06512,14.7334,5.61829,36.51611,9.18,60.84113,9.18,19.33929,0,37.07965-2.54926,50.94476-6.50189a470.60274,470.60274,0,0,0,55.29645,3.13861c74.96484,0,135.73828-16.24023,135.73828-36.27252C1460.00488,79.00586,1435.62158,67.84131,1398.70044,61.3584Z"/>
  <path class="7281b1bd-a525-40a6-a394-88ac2cc9ee5b" d="M1088.43549,223.13086c0-4.3194-10.16888-7.82129-22.71381-7.82129-1.28363,0-2.54053.03857-3.76605.109-3.348-3.57928-11.52606-6.109-21.09137-6.109-10.31976,0-19.02765,2.94452-21.79334,6.97546-1.2746-.07642-2.58344-.11859-3.92157-.11859-12.54388,0-22.71387,3.50256-22.71387,7.82135,0,4.31927,10.17,7.82178,22.71387,7.82178,1.938,0,3.81879-.084,5.61469-.24133a110.65189,110.65189,0,0,0,21.814,1.95514c9.73144,0,18.47632-.99872,24.51605-2.58667C1078.99939,230.6922,1088.43549,227.29138,1088.43549,223.13086Z"/>
</svg>
