<svg id="6e403f1c-84f7-495e-98c5-6974c9e042f0" data-name="レイヤー 1" xmlns="http://www.w3.org/2000/svg" width="137.31772" height="159.57605" viewBox="0 0 137.31772 159.57605">
  <defs>
    <style>
      .\36 a1023b7-34ae-4990-8947-c9c50907191a {
        fill: #f29a63;
      }

      .a86a47e5-8dce-488f-8a4f-d9b5d2e030cc {
        fill: #35a7d2;
      }

      .bcc24617-ffb9-486b-a293-368ff160cb87 {
        fill: #009fa8;
      }

      .e4cff7ff-b163-46d7-98b9-e16576a22d0e {
        fill: #fdd000;
      }

      .\38 f028300-5875-4f25-b478-a639417d05e1 {
        fill: #ee86a1;
      }

      .\31 695bde9-9629-4b08-8232-f9940ca99386 {
        fill: #9fa0a0;
      }

      .\39 26befa2-71d7-4ffd-826c-4e54d6fd378d {
        fill: #b4b4b4;
      }
    </style>
  </defs>
  <title>ferris-wheel</title>
  <g id="c92a91aa-46d5-476e-954d-610c64580ea3" data-name="cart">
    <circle class="6a1023b7-34ae-4990-8947-c9c50907191a" cx="105.98633" cy="119.3881" r="6.30962" transform="translate(-19.65029 217.88715) rotate(-86.49948)"/>
    <circle class="6a1023b7-34ae-4990-8947-c9c50907191a" cx="111.85281" cy="23.42788" r="6.31104" transform="translate(81.64944 133.64437) rotate(-86.50482)"/>
    <circle class="a86a47e5-8dce-488f-8a4f-d9b5d2e030cc" cx="86.48368" cy="129.1132" r="6.31068" transform="translate(-47.68076 207.53227) rotate(-86.49098)"/>
    <circle class="bcc24617-ffb9-486b-a293-368ff160cb87" cx="120.98683" cy="103.58" r="6.31115" transform="translate(10.20554 218.00961) rotate(-86.49579)"/>
    <circle class="e4cff7ff-b163-46d7-98b9-e16576a22d0e" cx="129.67603" cy="83.59413" r="6.31057" transform="translate(38.32033 207.92428) rotate(-86.49956)"/>
    <circle class="8f028300-5875-4f25-b478-a639417d05e1" cx="131.00613" cy="61.84173" r="6.31154" transform="translate(61.29331 188.83436) rotate(-86.50509)"/>
    <circle class="a86a47e5-8dce-488f-8a4f-d9b5d2e030cc" cx="124.81646" cy="40.94451" r="6.3111" transform="translate(76.31941 163.02496) rotate(-86.49576)"/>
    <circle class="bcc24617-ffb9-486b-a293-368ff160cb87" cx="93.67901" cy="11.39835" r="6.31206" transform="translate(76.58431 104.20703) rotate(-86.50084)"/>
    <circle class="a86a47e5-8dce-488f-8a4f-d9b5d2e030cc" cx="50.83668" cy="8.77851" r="6.31107" transform="translate(38.9713 58.98451) rotate(-86.50029)"/>
    <circle class="bcc24617-ffb9-486b-a293-368ff160cb87" cx="16.33183" cy="34.31168" r="6.30971" transform="translate(-18.91638 48.50969) rotate(-86.48589)"/>
    <path class="6a1023b7-34ae-4990-8947-c9c50907191a" d="M31.71606,12.20406a6.31157,6.31157,0,1,0,5.9151,6.6845A6.31887,6.31887,0,0,0,31.71606,12.20406Z"/>
    <circle class="e4cff7ff-b163-46d7-98b9-e16576a22d0e" cx="7.63991" cy="54.29826" r="6.3101" transform="translate(-47.02384 58.60444) rotate(-86.49512)"/>
    <circle class="8f028300-5875-4f25-b478-a639417d05e1" cx="6.31156" cy="76.04998" r="6.31168" transform="translate(-69.98212 77.69576) rotate(-86.49153)"/>
    <circle class="a86a47e5-8dce-488f-8a4f-d9b5d2e030cc" cx="12.50053" cy="96.94596" r="6.31062" transform="translate(-85.02773 103.50483) rotate(-86.50004)"/>
    <circle class="bcc24617-ffb9-486b-a293-368ff160cb87" cx="43.63821" cy="126.49453" r="6.31113" transform="translate(-85.28968 162.31013) rotate(-86.49159)"/>
    <circle class="6a1023b7-34ae-4990-8947-c9c50907191a" cx="25.46461" cy="114.4662" r="6.30962" transform="translate(-90.34284 132.89428) rotate(-86.49948)"/>
    <circle class="8f028300-5875-4f25-b478-a639417d05e1" cx="64.83011" cy="131.58075" r="6.3096" transform="translate(-70.45948 188.26554) rotate(-86.50356)"/>
    <circle class="8f028300-5875-4f25-b478-a639417d05e1" cx="72.48879" cy="6.31118" r="6.31063" transform="translate(61.75324 78.27786) rotate(-86.4914)"/>
    <g>
      <path class="1695bde9-9629-4b08-8232-f9940ca99386" d="M78.62336,46.90615a.37972.37972,0,0,1-.3516-.32029L72.306,9.35926,61.848,45.582a.3803.3803,0,0,1-.4698.2607.37588.37588,0,0,1-.2617-.4697l10.9287-37.8594a.38171.38171,0,0,1,.3897-.27241.37613.37613,0,0,1,.3535.31741l6.23532,38.9091a.37821.37821,0,0,1-.31732.4346.237.237,0,0,1-.083.00389Z"/>
      <path class="1695bde9-9629-4b08-8232-f9940ca99386" d="M53.86456,49.72746a.38283.38283,0,0,1-.3565-.3525l-2.6777-39.3155a.38133.38133,0,0,1,.7139-.2089l19.1669,34.42959a.37939.37939,0,0,1-.664.36721L51.70636,11.707l2.5605,37.61519a.38115.38115,0,0,1-.3525.40631c-.01568.001-.0323-.001-.0498-.001Z"/>
      <path class="1695bde9-9629-4b08-8232-f9940ca99386" d="M48.055,55.96286a.37983.37983,0,0,1-.3252-.2266l-15.9609-36.0274a.37931.37931,0,0,1,.5957-.4404l29.78612,25.7969a.37975.37975,0,1,1-.49712.5742L33.15168,20.958l15.27148,34.4726a.37584.37584,0,0,1-.1944.5.35818.35818,0,0,1-.1738.0323Z"/>
      <path class="1695bde9-9629-4b08-8232-f9940ca99386" d="M44.72486,63.80946a.38921.38921,0,0,1-.251-.1172L17.15268,35.29776a.38087.38087,0,0,1,.41108-.6191l36.8096,14.0547a.37888.37888,0,1,1-.2676.7089l-35.2256-13.4472L45.02176,63.165a.381.381,0,0,1-.2969.6445Z"/>
      <path class="1695bde9-9629-4b08-8232-f9940ca99386" d="M44.28056,72.31926a.39368.39368,0,0,1-.1445-.03611L8.74836,54.94526a.38326.38326,0,0,1-.2002-.4307.37875.37875,0,0,1,.374-.292l39.4023.6162a.3714.3714,0,0,1,.375.3858.38061.38061,0,0,1-.3867.374l-37.7002-.5889L44.47,71.59856a.37944.37944,0,0,1-.1894.7207Z"/>
      <path class="1695bde9-9629-4b08-8232-f9940ca99386" d="M46.77368,80.47066a.04492.04492,0,0,1-.01662-.002l-39.1835-4.1894a.38077.38077,0,0,1-.0821-.7383l37.2334-12.8955a.37846.37846,0,0,1,.4854.2334.3828.3828,0,0,1-.2334.48529L9.347,75.705l37.4902,4.0059a.38134.38134,0,0,1-.06348.7598Z"/>
      <path class="1695bde9-9629-4b08-8232-f9940ca99386" d="M13.65268,96.74115a.38483.38483,0,0,1-.31842-.21189.3805.3805,0,0,1,.1016-.4639L44.015,71.20986a.38112.38112,0,0,1,.4804.5918L15.23568,95.58386l36.60048-9.0566a.38029.38029,0,0,1,.1827.7383L13.765,96.73036a.36084.36084,0,0,1-.11228.01079Z"/>
      <path class="1695bde9-9629-4b08-8232-f9940ca99386" d="M26.345,113.89345a.37328.37328,0,0,1-.2382-.1025.3868.3868,0,0,1-.0655-.4727l20.23542-33.8154a.38.38,0,0,1,.65128.3916L27.56868,112.25l31.29588-21.0284a.37974.37974,0,1,1,.4228.6309l-32.707,21.9756a.38433.38433,0,0,1-.2354.0654Z"/>
      <path class="1695bde9-9629-4b08-8232-f9940ca99386" d="M44.139,125.67175a.49988.49988,0,0,1-.1279-.0332.37921.37921,0,0,1-.2227-.4199l7.44732-38.6933a.38015.38015,0,1,1,.747.1416l-7.123,37.0253,22.21478-30.4638a.3801.3801,0,1,1,.6133.4492l-23.2187,31.835a.37939.37939,0,0,1-.3301.1591Z"/>
      <path class="1695bde9-9629-4b08-8232-f9940ca99386" d="M64.88606,130.65225a.385.385,0,0,1-.3526-.3193l-6.2344-38.9102a.38163.38163,0,0,1,.7539-.1191l5.9649,37.22949,10.457-36.22459a.38037.38037,0,0,1,.7315.2089l-10.93068,37.8604a.38043.38043,0,0,1-.38962.2744Z"/>
      <path class="1695bde9-9629-4b08-8232-f9940ca99386" d="M86.09016,128.23625a.38322.38322,0,0,1-.3106-.1963l-19.168-34.4287a.38034.38034,0,0,1,.66512-.36911l18.34178,32.9414L83.056,88.56726a.37709.37709,0,0,1,.3496-.4023.372.372,0,0,1,.4062.3525l2.6817,39.3125a.3835.3835,0,0,1-.2725.3916.47184.47184,0,0,1-.1308.0147Z"/>
      <path class="1695bde9-9629-4b08-8232-f9940ca99386" d="M105.18386,118.71575a.38379.38379,0,0,1-.2236-.0967l-29.7871-25.7949a.37937.37937,0,1,1,.497-.57329l28.5,24.6856-15.2724-34.4736a.38051.38051,0,0,1,.6943-.3116l15.9629,36.0293a.37248.37248,0,0,1-.1201.458.37874.37874,0,0,1-.251.0772Z"/>
      <path class="1695bde9-9629-4b08-8232-f9940ca99386" d="M119.87236,103.23626a.48131.48131,0,0,1-.1123-.0244L82.94556,89.15815a.38072.38072,0,0,1,.2725-.711l35.22562,13.44731L92.30006,74.72556a.38023.38023,0,0,1,.5488-.52641l27.3213,28.39451a.37633.37633,0,0,1,.044.4727.38868.38868,0,0,1-.3418.1699Z"/>
      <path class="1695bde9-9629-4b08-8232-f9940ca99386" d="M88.98076,83.05166a.37981.37981,0,0,1,.0303-.7588l37.7011.586L92.85476,66.292a.38023.38023,0,0,1,.3311-.6846l35.3886,17.3389a.38405.38405,0,0,1,.20022.4316.37757.37757,0,0,1-.375.29l-39.40042-.6142-.0185-.002Z"/>
      <path class="1695bde9-9629-4b08-8232-f9940ca99386" d="M92.44946,75.26656a.37918.37918,0,0,1-.1015-.73641l35.6289-12.34179-37.49118-4.0097a.37835.37835,0,0,1-.335-.4199.38321.38321,0,0,1,.415-.337l39.18268,4.1895a.37961.37961,0,0,1,.0839.7353L92.597,75.247a.36464.36464,0,0,1-.1475.0196Z"/>
      <path class="1695bde9-9629-4b08-8232-f9940ca99386" d="M93.04426,66.76556a.3909.3909,0,0,1-.27058-.1387.38172.38172,0,0,1,.05468-.5361l29.2588-23.7832-36.5986,9.05559a.38119.38119,0,0,1-.1826-.74019l38.249-9.4629a.38015.38015,0,0,1,.332.66409L93.30886,66.67966a.39576.39576,0,0,1-.2646.0859Z"/>
      <path class="1695bde9-9629-4b08-8232-f9940ca99386" d="M90.69856,58.57026a.33671.33671,0,0,1-.17-.0518.37925.37925,0,0,1-.1338-.5205l19.3594-32.3574-31.2959,21.0283a.37849.37849,0,0,1-.5263-.1025.38475.38475,0,0,1,.1025-.5303l32.709-21.9756a.3812.3812,0,0,1,.4746.042.3856.3856,0,0,1,.0644.47069L91.04816,58.38666a.37554.37554,0,0,1-.3496.1836Z"/>
      <path class="1695bde9-9629-4b08-8232-f9940ca99386" d="M85.69168,51.67566c-.01852-.0009-.03322-.0039-.04982-.0058a.37826.37826,0,0,1-.3008-.4463l7.1231-37.02541L70.24926,44.66206a.38066.38066,0,0,1-.6132-.4512l23.2187-31.834a.38143.38143,0,0,1,.458-.126.38694.38694,0,0,1,.2236.4209l-7.4472,38.69539a.38309.38309,0,0,1-.39748.30851Z"/>
    </g>
    <g>
      <path class="1695bde9-9629-4b08-8232-f9940ca99386" d="M75.53736,62.33586a.38522.38522,0,0,1-.3398-.2705l-5.0811-16.876L63.015,61.31826a.3804.3804,0,0,1-.69628-.3066l7.51558-17.0723a.387.387,0,0,1,.3721-.2265.37679.37679,0,0,1,.3388.2705l5.3799,17.8603a.37978.37978,0,0,1-.2539.4756.492.492,0,0,1-.1338.0166Z"/>
      <path class="1695bde9-9629-4b08-8232-f9940ca99386" d="M60.345,64.06436h-.0009a.37926.37926,0,0,1-.3545-.4033l1.2236-18.6152a.38078.38078,0,0,1,.6846-.1993l11.1611,14.9415a.38153.38153,0,0,1-.6103.458L61.90356,46.125l-1.1552,17.5859a.38117.38117,0,0,1-.4034.3535Z"/>
      <path class="1695bde9-9629-4b08-8232-f9940ca99386" d="M59.04426,67.21866a.37712.37712,0,0,1-.3409-.2744l-5.21768-17.9062a.38834.38834,0,0,1,.14058-.4131.38414.38414,0,0,1,.4346-.01181l15.6015,10.22271a.38763.38763,0,0,1,.11132.52929.38039.38039,0,0,1-.52922.10641l-14.7383-9.6572,4.9287,16.919a.385.385,0,0,1-.2608.4726.49311.49311,0,0,1-.1298.0127Z"/>
      <path class="1695bde9-9629-4b08-8232-f9940ca99386" d="M58.90268,70.62786a.38753.38753,0,0,1-.28422-.1553l-11.0254-15.0439a.37734.37734,0,0,1-.0088-.4356.3733.3733,0,0,1,.4043-.1582l18.1543,4.2696a.37818.37818,0,0,1,.2842.456.382.382,0,0,1-.4571.2852l-17.15328-4.0352,10.419,14.2129a.38.38,0,0,1-.085.5293.36155.36155,0,0,1-.248.0752Z"/>
      <path class="1695bde9-9629-4b08-8232-f9940ca99386" d="M59.93586,73.87886a.36888.36888,0,0,1-.1885-.0635L44.24146,63.45015a.38161.38161,0,0,1-.1582-.40629.37657.37657,0,0,1,.3242-.2881l18.5245-2.1953a.38005.38005,0,0,1,.0888.7549l-17.501,2.0742,14.6504,9.793a.38072.38072,0,0,1-.2343.6963Z"/>
      <path class="1695bde9-9629-4b08-8232-f9940ca99386" d="M62.01786,76.581a.3.3,0,0,1-.0664-.0107l-18.1182-4.4365a.38042.38042,0,0,1-.2861-.3282.37105.37105,0,0,1,.206-.3799l16.6553-8.3994a.38087.38087,0,0,1,.5117.168.38707.38707,0,0,1-.1699.5127l-15.7334,7.9355,17.1123,4.1895a.37993.37993,0,0,1-.1113.749Z"/>
      <path class="1695bde9-9629-4b08-8232-f9940ca99386" d="M46.35676,80.43446a.38287.38287,0,0,1-.254-.6425l12.7793-13.586a.38033.38033,0,1,1,.5528.5225l-12.0713,12.8369,17.5166-1.915a.38017.38017,0,0,1,.083.75579l-18.543,2.02741a.34039.34039,0,0,1-.0634.0009Z"/>
      <path class="1695bde9-9629-4b08-8232-f9940ca99386" d="M51.49926,87.38466a.35651.35651,0,0,1-.2382-.10351.3793.3793,0,0,1-.086-.42669l7.3604-17.1368a.3793.3793,0,1,1,.69722.2989l-6.955,16.1923,15.80848-7.79a.38086.38086,0,0,1,.336.6836l-16.73048,8.2451a.387.387,0,0,1-.19242.0371Z"/>
      <path class="1695bde9-9629-4b08-8232-f9940ca99386" d="M58.71116,92.15906a.38615.38615,0,0,1-.3584-.4013l1.0557-18.6221a.38092.38092,0,0,1,.4004-.3594h.0029a.38165.38165,0,0,1,.3565.4004l-.9971,17.5928,12.18752-12.7246a.38023.38023,0,1,1,.54978.5254l-12.8994,13.4726a.38391.38391,0,0,1-.2979.1162Z"/>
      <path class="1695bde9-9629-4b08-8232-f9940ca99386" d="M67.12136,94.17866a.3782.3782,0,0,1-.3428-.27051L61.39868,76.04486a.38008.38008,0,0,1,.72858-.2168l5.083,16.873,7.0986-16.12791a.37977.37977,0,0,1,.6953.30571l-7.5137,17.0742a.387.387,0,0,1-.3691.2256Z"/>
      <path class="1695bde9-9629-4b08-8232-f9940ca99386" d="M75.71026,93.19815a.3849.3849,0,0,1-.2823-.15229l-11.1611-14.9424a.38089.38089,0,0,1,.6094-.4571l10.5469,14.1163,1.1543-17.5801a.4029.4029,0,0,1,.4023-.3535.37745.37745,0,0,1,.3545.4033l-1.2217,18.6113a.38209.38209,0,0,1-.2715.3399.42355.42355,0,0,1-.1308.01459Z"/>
      <path class="1695bde9-9629-4b08-8232-f9940ca99386" d="M83.44946,89.33876a.401.401,0,0,1-.1875-.0595l-15.5986-10.2246a.37963.37963,0,0,1,.415-.6358l14.74032,9.6582L77.889,71.15815a.381.381,0,0,1,.7324-.21l5.2168,17.90531a.38975.38975,0,0,1-.1406.4121.37132.37132,0,0,1-.2481.0732Z"/>
      <path class="1695bde9-9629-4b08-8232-f9940ca99386" d="M89.39968,83.06826a.32442.32442,0,0,1-.06352-.0097L71.181,78.78606a.37852.37852,0,0,1-.2842-.457.38331.38331,0,0,1,.46-.2823l17.1494,4.0352-10.4151-14.2109a.38053.38053,0,1,1,.6114-.4532l11.0273,15.0459a.37748.37748,0,0,1,.0117.4346.38621.38621,0,0,1-.34178.1699Z"/>
      <path class="1695bde9-9629-4b08-8232-f9940ca99386" d="M74.32546,77.33486a.38057.38057,0,0,1-.0195-.7578l17.497-2.0732-14.6484-9.793a.38028.38028,0,0,1,.4219-.6328l15.5058,10.3652a.37869.37869,0,0,1-.1679.6924l-18.5196,2.1924a.19.19,0,0,1-.0693.0068Z"/>
      <path class="1695bde9-9629-4b08-8232-f9940ca99386" d="M76.723,74.90615a.38429.38429,0,0,1-.3194-.209.38.38,0,0,1,.169-.50879l15.7353-7.9365-17.11418-4.1914a.38.38,0,1,1,.18058-.73831l18.1143,4.43751a.3778.3778,0,0,1,.28812.3252.383.383,0,0,1-.20512.3838l-16.6553,8.39549a.35148.35148,0,0,1-.1933.042Z"/>
      <path class="1695bde9-9629-4b08-8232-f9940ca99386" d="M78.14186,71.80466a.36961.36961,0,0,1-.2373-.1036.37789.37789,0,0,1-.0166-.5371l12.0713-12.8379-17.5137,1.919a.38385.38385,0,0,1-.41988-.3408.379.379,0,0,1,.33588-.418l18.54112-2.0264a.37817.37817,0,0,1,.31638.6377L78.44068,71.68546a.36481.36481,0,0,1-.29882.1192Z"/>
      <path class="1695bde9-9629-4b08-8232-f9940ca99386" d="M78.41726,68.40515a.31673.31673,0,0,1-.125-.03019.37982.37982,0,0,1-.2012-.4991l6.9541-16.1923-15.8037,7.788a.379.379,0,1,1-.3359-.6796l16.7265-8.2452a.3801.3801,0,0,1,.51762.4913l-7.36032,17.1386a.37581.37581,0,0,1-.3721.22849Z"/>
      <path class="1695bde9-9629-4b08-8232-f9940ca99386" d="M77.512,65.11415a.37825.37825,0,0,1-.3554-.39839l.99512-17.5928L65.96606,59.84756a.38055.38055,0,0,1-.5498-.5263l12.8985-13.4698a.38255.38255,0,0,1,.4267-.0869.37776.37776,0,0,1,.2276.3711l-1.0528,18.6221a.37977.37977,0,0,1-.4013.35639Z"/>
    </g>
    <g>
      <path class="1695bde9-9629-4b08-8232-f9940ca99386" d="M64.83136,131.581a.50583.50583,0,0,1-.47368-.5361L71.95436,6.78506a.50678.50678,0,0,1,1.0117.0615l-7.5976,124.2598a.50382.50382,0,0,1-.5371.4746Z"/>
      <path class="1695bde9-9629-4b08-8232-f9940ca99386" d="M86.31276,129.13375a.50163.50163,0,0,1-.456-.3624L50.49536,9.40815a.5069.5069,0,1,1,.9717-.28909l35.3594,119.3652a.50662.50662,0,0,1-.3399.6309.54524.54524,0,0,1-.1738.0186Z"/>
      <path class="1695bde9-9629-4b08-8232-f9940ca99386" d="M105.65656,119.48725a.50969.50969,0,0,1-.377-.20511L31.23076,19.20986a.50547.50547,0,1,1,.8125-.6015l74.0537,100.0713a.50753.50753,0,0,1-.4404.8076Z"/>
      <path class="1695bde9-9629-4b08-8232-f9940ca99386" d="M120.53636,103.80556a.49779.49779,0,0,1-.248-.083l-103.8115-68.706a.50826.50826,0,1,1,.5595-.8487l103.8106,68.71a.50655.50655,0,0,1-.3106.9277Z"/>
      <path class="1695bde9-9629-4b08-8232-f9940ca99386" d="M129.15656,83.98236a.47985.47985,0,0,1-.08788-.0127L8.01686,54.90906a.50746.50746,0,1,1,.2393-.9863L129.306,82.98236a.50747.50747,0,0,1-.1494,1Z"/>
      <path class="1695bde9-9629-4b08-8232-f9940ca99386" d="M6.78546,76.499a.50713.50713,0,0,1-.0254-1.00981l123.6894-14.09669a.50718.50718,0,0,1,.1143,1.0079L6.87426,76.49506a.3936.3936,0,0,1-.0888.0039Z"/>
      <path class="1695bde9-9629-4b08-8232-f9940ca99386" d="M12.92706,97.22556a.50777.50777,0,0,1-.1993-.961l111.4141-55.5469a.50707.50707,0,0,1,.4531.9073L13.182,97.17276a.47582.47582,0,0,1-.2549.0528Z"/>
      <path class="1695bde9-9629-4b08-8232-f9940ca99386" d="M25.78446,114.60445a.51084.51084,0,0,1-.3184-.1397.50527.50527,0,0,1-.0185-.7158l85.6914-90.3037a.5067.5067,0,1,1,.7363.6963l-85.6924,90.3047a.51349.51349,0,0,1-.3984.1582Z"/>
      <path class="1695bde9-9629-4b08-8232-f9940ca99386" d="M43.80986,126.53315a.50469.50469,0,0,1-.4336-.709L93.01686,11.66106a.50736.50736,0,0,1,.9307.4043l-49.6387,114.166a.50553.50553,0,0,1-.499.3018Z"/>
    </g>
    <g>
      <path class="1695bde9-9629-4b08-8232-f9940ca99386" d="M65.23176,125.00185a56.16044,56.16044,0,1,1,59.4843-52.6279,56.22663,56.22663,0,0,1-59.4843,52.6279Zm6.7666-110.5918a54.63811,54.63811,0,1,0,51.1992,57.87209,54.6972,54.6972,0,0,0-51.1992-57.87209Z"/>
      <path class="1695bde9-9629-4b08-8232-f9940ca99386" d="M66.16236,109.81536a40.946,40.946,0,1,1,43.3692-38.3711,40.99487,40.99487,0,0,1-43.3692,38.3711Zm4.90532-80.2207A39.42455,39.42455,0,1,0,108.012,71.35056a39.46753,39.46753,0,0,0-36.94428-41.7559Z"/>
      <path class="1695bde9-9629-4b08-8232-f9940ca99386" d="M67.09106,94.63076A25.73254,25.73254,0,1,1,94.345,70.51556a25.76468,25.76468,0,0,1-27.2539,24.1152ZM70.14,44.78015a24.21071,24.21071,0,1,0,22.6855,25.64361A24.23727,24.23727,0,0,0,70.14,44.78015Z"/>
      <path class="1695bde9-9629-4b08-8232-f9940ca99386" d="M68.01976,79.44426a10.51767,10.51767,0,1,1,11.1407-9.8584,10.52816,10.52816,0,0,1-11.1407,9.8584Zm1.1924-19.4775a8.9963,8.9963,0,1,0,8.4297,9.5273,9.00432,9.00432,0,0,0-8.4297-9.5273Z"/>
    </g>
  </g>
  <g>
    <polygon class="926befa2-71d7-4ffd-826c-4e54d6fd378d" points="70.174 67.213 67.444 65.868 23.6 154.725 26.893 154.926 70.174 67.213"/>
    <rect class="926befa2-71d7-4ffd-826c-4e54d6fd378d" x="21.36358" y="111.08426" width="89.25536" height="3.04128" transform="translate(-50.43277 171.59775) rotate(-86.49952)"/>
    <polygon class="926befa2-71d7-4ffd-826c-4e54d6fd378d" points="70.245 66.039 67.372 67.042 99.642 159.375 102.933 159.576 70.245 66.039"/>
  </g>
  <path class="926befa2-71d7-4ffd-826c-4e54d6fd378d" d="M68.30986,74.67666a5.74169,5.74169,0,1,1,6.082-5.3818,5.7513,5.7513,0,0,1-6.082,5.3818Z"/>
</svg>
