<svg xmlns="http://www.w3.org/2000/svg" xmlns:xlink="http://www.w3.org/1999/xlink" width="121.0157" height="83.66789" viewBox="0 0 121.0157 83.66789">
  <defs>
    <style>
      .\31 0a1cd36-158d-4b60-92e4-eb43a32c480e {
        fill: none;
      }

      .db0e7339-debc-4d7c-b9f1-50ecd947acc9 {
        isolation: isolate;
      }

      .bb0007a4-caf0-4463-8dea-61d4264305ec {
        fill: #868585;
      }

      .\34 ebc8616-64da-4e87-a005-bdbd7308b147 {
        fill: #cf000e;
      }

      .d628cdf1-0d0e-4a99-bdf8-7406124d966b {
        fill: #201513;
      }

      .\35 cd58b65-6755-4fec-8ec0-e491ffeda7a9 {
        fill: #e6e6e6;
      }

      .\30 bf2de84-ad7b-44a3-9b12-1bd9129bb6cf, .\35 cd58b65-6755-4fec-8ec0-e491ffeda7a9 {
        mix-blend-mode: multiply;
      }

      .acbbf12e-dc09-4cc4-9331-c201356fcb9e {
        fill: #f1bf70;
      }

      .\34 3dee6cb-29e2-48ee-97c5-9eb82448d8a8 {
        fill: #fff;
      }

      .\35 1351bc5-8fa4-4a8d-973a-27b99489deab {
        fill: #200f0d;
      }

      .\30 bf2de84-ad7b-44a3-9b12-1bd9129bb6cf {
        fill: #dcdddd;
      }

      .de385976-92f4-4b2f-8183-3c3268042c7e {
        fill: #006c3b;
      }

      .\39 b9a08a5-d6ba-48fb-bb04-3a63fc81512b {
        fill: #9fa0a0;
      }

      .\35 0c3b9b7-7a30-4420-a7e8-296bfc2e059f {
        clip-path: url(#8726f71b-ffb7-4889-bf83-4ed1362908dd);
      }
    </style>
    <clipPath id="8726f71b-ffb7-4889-bf83-4ed1362908dd">
      <path class="10a1cd36-158d-4b60-92e4-eb43a32c480e" d="M114.7579,30.0615c-1.3936-1.9951-1.7237-5.791-1.752-9.1924-.02538-3.3955.4512-8.8896.7471-12.1348-1.73148.7002-4.3467,1.7198-7.294,2.6924-2.9707.9834-3.9492.6543-8.8203.3965-3.6221-.1914-67.4453-5.2139-71.0527-5.5918-4.85348-.5068-5.8711-.3369-8.6494-1.77051C15.1748,3.0361,12.752,1.622,11.1504.6562c-.21188,3.2539-.6035,8.7568-1.1631,12.1074-.5537,3.3506-1.4755,7.0528-3.165,8.8047C5.1329,23.3213,3.8907,24.1875,0,24.6367c1.6123,1.8867,6.667,4.7578,9.6114,5.7021,2.5097.8047,6.9179,1.0469,12.081,1.4532,2.2207.1728,74.5586,5.8671,76.7774,6.04289,5.166.4063,9.5586.8565,12.1601.4541,3.05762-.4726,8.5-2.5176,10.3858-4.1279C117.2422,33.1084,116.1504,32.0595,114.7579,30.0615Z"/>
    </clipPath>
  </defs>
  <title>kaminarimon</title>
  <g class="db0e7339-debc-4d7c-b9f1-50ecd947acc9">
    <g id="c1de19c1-fe72-4f60-9a8a-af56dcf7198c" data-name="レイヤー 1">
      <g>
        <rect class="bb0007a4-caf0-4463-8dea-61d4264305ec" x="40.01218" y="42.02964" width="35.89664" height="35.51827" transform="translate(4.86622 -4.36038) rotate(4.49694)"/>
        <g>
          <g>
            <rect class="4ebc8616-64da-4e87-a005-bdbd7308b147" x="69.96152" y="44.321" width="5.06045" height="30.90474" transform="translate(4.89234 -5.48174) rotate(4.48166)"/>
            <rect class="d628cdf1-0d0e-4a99-bdf8-7406124d966b" x="68.41168" y="75.08057" width="5.35249" height="5.05996" transform="translate(6.30759 -5.33762) rotate(4.49944)"/>
          </g>
          <g>
            <rect class="4ebc8616-64da-4e87-a005-bdbd7308b147" x="41.38868" y="42.07289" width="5.06204" height="30.90491" transform="translate(4.6523 -3.27085) rotate(4.50332)"/>
            <rect class="5cd58b65-6755-4fec-8ec0-e491ffeda7a9" x="69.96152" y="44.321" width="5.06045" height="30.90474" transform="translate(4.89234 -5.48174) rotate(4.48166)"/>
            <rect class="5cd58b65-6755-4fec-8ec0-e491ffeda7a9" x="41.38868" y="42.07289" width="5.06204" height="30.90491" transform="translate(4.6523 -3.27085) rotate(4.50332)"/>
            <rect class="d628cdf1-0d0e-4a99-bdf8-7406124d966b" x="39.83892" y="72.83103" width="5.35251" height="5.06053" transform="translate(6.04321 -3.1031) rotate(4.49954)"/>
          </g>
        </g>
        <path class="acbbf12e-dc09-4cc4-9331-c201356fcb9e" d="M56.45795,62.50638h2.33976a1.17291,1.17291,0,0,1,1.17291,1.17291v4.63842a1.17348,1.17348,0,0,1-1.17348,1.17348H56.45923a1.17446,1.17446,0,0,1-1.17446-1.17446V63.67956a1.17318,1.17318,0,0,1,1.17318-1.17318Z" transform="translate(-12.69424 118.26364) rotate(-85.49431)"/>
        <path class="4ebc8616-64da-4e87-a005-bdbd7308b147" d="M68.5508,53.1953c.51172-7.2744-3.8047-8.8174-9.1875-9.2422-5.3847-.4229-9.8896.4267-10.5205,7.6924-.0039.0381-.0098.0722-.0127.1084l-.001.0381-.4189,5.2871-.001.04c-.0039.0361-.0029.0732-.0049.1094-.5136,7.2744,3.8018,8.8183,9.1875,9.2412,5.3838.4238,9.8858-.4258,10.5186-7.6924.0029-.0361.0098-.0713.0137-.1074l.0009-.0381.418-5.2881.0029-.0381C68.5489,53.2685,68.5479,53.2324,68.5508,53.1953Z"/>
        <g>
          <g>
            <g>
              <path class="43dee6cb-29e2-48ee-97c5-9eb82448d8a8" d="M53.39752,64.1923a1.95092,1.95092,0,0,1-.75682-.248c-.1729-.0938-1.2559-.8389-1.251-1.1816a.25783.25783,0,0,1,.125-.1973.46681.46681,0,0,1,.2295-.0488,1.866,1.866,0,0,1,.0351-.3594,14.02084,14.02084,0,0,0,.1641-1.7402c.0068-.2706.0547-1.0137.0996-1.7315.0508-.75.1016-1.5254.1006-1.708-.001-.0293-.001-.0547-.001-.0752a.2781.2781,0,0,1-.0908-.1035l-.0088-.0137a.45992.45992,0,0,1-.1318-.0732c-.2891-.2295.0908-.8838.1367-.959a3.40909,3.40909,0,0,1,.3857-.4316,5.86792,5.86792,0,0,0,.4405-.4874c.206-.3037.5185-.3496.6787-.1347a3.29456,3.29456,0,0,0,.59472.3388,14.34764,14.34764,0,0,0,1.90918.1348,2.00118,2.00118,0,0,0,.3711-.2002,1.54426,1.54426,0,0,1,.2578-.1416c.248-.1035.4844-.0283.832.2822a4.97068,4.97068,0,0,1,.707.7149.77625.77625,0,0,1,.0762-.0713l.0469-.042c.6582-.5684.9961-.7803,1.207-.7637l.0293.1983.0166-.1944.0547.0039a.4513.4513,0,0,1,.3291.1729l.043.043c.0469.0468.0967.0996.1465.1552a3.8886,3.8886,0,0,0,1.1748.2413c.2617.0185.5166.0273.749.0341l.1064.0039a.58392.58392,0,0,1,.7012-.3672l.0693.0127a1.23154,1.23154,0,0,1,.54792.1924,2.89582,2.89582,0,0,1,.99608,1.1963l.04.0801a2.21139,2.21139,0,0,1-.0595,1.584.27539.27539,0,0,1-.2559.1416c-.0019.0263-.0342.1865-.05368.4638-.02342.2881-.14842,2.9512-.14652,3.6309.001.1094.0049.2139.0068.3174A1.67339,1.67339,0,0,1,63.668,64.29a2.5667,2.5667,0,0,1-1.4277.5225.64528.64528,0,0,1-.1426.0048h0a1.28325,1.28325,0,0,1-.4541-.164c-.1025-.0498-.2344-.1172-.41308-.1973a13.81429,13.81429,0,0,0-1.69632-.4707,8.20032,8.20032,0,0,1-1.6972-.498.74537.74537,0,0,1-.4239-.6924.253.253,0,0,1,.1856-.2197.55026.55026,0,0,1,.17382-.0079,6.17149,6.17149,0,0,1,.91018.1846,21.90585,21.90585,0,0,0,2.3252.2725c.3095.0254.498.0351.6015.04a13.55831,13.55831,0,0,0,.20412-1.6982c.01468-.1983.03418-.5069.06058-.8692a16.695,16.695,0,0,0-2.1739-.1347.97731.97731,0,0,1-.5654.1504.952.952,0,0,1-.624-.3487,5.16,5.16,0,0,1-.4424-.6113l-.0781-.1182a5.48722,5.48722,0,0,1-.8965.71,1.17031,1.17031,0,0,1-.9492.1064.44888.44888,0,0,1-.1348-.0703c-.0586-.042-.1387-.0937-.5791-.1289-.2061-.0176-.4727-.0254-.792-.0273-.15818-.003-.2969-.0049-.4219-.0059-.0234.5752-.0429,1.0488-.0468,1.2588-.0098.4346-.02448.9443-.0381,1.3926-.0088.3066-.0166.5859-.0176.792-.0127.4238-.0977.5937-.34278.6758-.01272.0039-.02542.0068-.04.0127a.67317.67317,0,0,1-.334.0419ZM51.9493,62.9287a5.08029,5.08029,0,0,0,.8779.6767,1.629,1.629,0,0,0,.6045.2012.4777.4777,0,0,0,.1367-.0059.49464.49464,0,0,1,.08112-.0322c.03408-.0117.06828-.0674.07508-.3144.00492-.2071.0118-.4883.0215-.7979.0137-.4473.0293-.9531.0371-1.3867.003-.2334.0274-.793.0577-1.459a.19267.19267,0,0,1,.1962-.1855c.1661.0029.3633.0088.6055.0088.3291.0039.6045.0146.8213.0322a1.36038,1.36038,0,0,1,.7647.1953.1567.1567,0,0,0,.0556.0283.36735.36735,0,0,0,.1475.041.91537.91537,0,0,0,.4804-.1299,5.17818,5.17818,0,0,0,.8516-.6904c-.0166.0049-.03118-.0586-.043-.1006a.73763.73763,0,0,1-.039-.2539c.0039-.0498.00882-.2871.0156-.583.0137-.7217.0293-1.3349.0488-1.4863a.68721.68721,0,0,1,.1846-.417l.0137-.0391a1.22317,1.22317,0,0,1,.0039-.1386,5.379,5.379,0,0,0-.6895-.6895c-.206-.1855-.3174-.2588-.4277-.2129a1.14,1.14,0,0,0-.1943.1123,2.49873,2.49873,0,0,1-.4747.2471.18751.18751,0,0,1-.0859.0117,14.02689,14.02689,0,0,1-2.0224-.1455.29316.29316,0,0,1-.0459-.0137,3.56509,3.56509,0,0,1-.7393-.4394.65337.65337,0,0,0-.0742.0898,5.65435,5.65435,0,0,1-.4815.5381,4.57835,4.57835,0,0,0-.333.3643,1.71588,1.71588,0,0,0-.1875.4648.33253.33253,0,0,1,.1758.1572c.165.0508.1641.2373.165.4024-.0019.1943-.05068.9394-.0996,1.7324-.0488.7158-.0947,1.4531-.1015,1.7158a14.36711,14.36711,0,0,1-.1758,1.8233,1.33468,1.33468,0,0,0-.0234.2754c-.002.1533-.003.2734-.0958.3584a.285.285,0,0,1-.0878.0449Zm5.8877.0371a.71349.71349,0,0,0,.208.1963,10.44766,10.44766,0,0,0,1.582.4453,13.35611,13.35611,0,0,1,1.7646.4971c.1797.082.3174.1474.419.1972.2363.1162.2871.1377.3818.126A2.2389,2.2389,0,0,0,63.4121,64c.27542-.2442.2667-.6153.25-1.127-.0009-.1064-.0058-.2158-.0068-.3281-.0029-.6738.11922-3.3047.1475-3.6631.0234-.2959.0615-.7783.3906-.8193a2.03432,2.03432,0,0,0,.0205-1.1651l-.042-.0801a2.51314,2.51314,0,0,0-.8779-1.0585.89315.89315,0,0,0-.3828-.1202l-.0772-.0136c-.164-.0313-.2431.0459-.2656.1152-.00488.0186-.0137.0557-.0234.1064a.19218.19218,0,0,1-.1973.1553l-.2627-.0088c-.2373-.0068-.499-.0156-.7646-.0351a3.98265,3.98265,0,0,1-1.3418-.292.22183.22183,0,0,1-.0655-.0459c-.05658-.0625-.1133-.1221-.165-.1758l-.042-.0439a.36659.36659,0,0,0-.0615-.0547l-.003-.1944-.038.1924-.08208-.0068c-.042.0058-.24022.082-.92192.6709l-.0468.042a.182.182,0,0,0-.0469.2568.71053.71053,0,0,0,.0469.082.4972.4972,0,0,1,.0693.3916c-.0078.0694-.0088.2246-.0098.42a4.79592,4.79592,0,0,1-.1562,1.7255l-.0352.0547a.70992.70992,0,0,0-.122.2129l.0937.1455a5.70967,5.70967,0,0,0,.4004.5625.53138.53138,0,0,0,.7324.1133.23692.23692,0,0,1,.1094-.0371,17.04669,17.04669,0,0,1,2.4736.1602.19527.19527,0,0,1,.16312.205c-.02832.4434-.05472.8223-.07132,1.0557a5.84358,5.84358,0,0,1-.2851,1.9541.21313.21313,0,0,1-.044.0508c-.0703.0605-.0849.0722-.8925.0078a22.36932,22.36932,0,0,1-2.3916-.2842,7.414,7.414,0,0,0-.75-.1611Zm.3623-6.4131a.33132.33132,0,0,0-.0694.1865c-.0176.1436-.0342.9248-.0439,1.4404-.0078.3096-.0137.5557-.0166.6065-.002.0039-.001.0098.0029.0185a.329.329,0,0,1,.0264-.041l.0371-.0537a9.29249,9.29249,0,0,0,.0888-1.5146c.001-.209.00592-.3731.0108-.4453a.76435.76435,0,0,0,.0039-.1377c-.0147-.0186-.0264-.0391-.04-.0596Zm-4.127,2.2412a.18941.18941,0,0,1-.1269-.0596.20606.20606,0,0,1-.0508-.1425l.0175-.3926a.1975.1975,0,0,1,.1963-.1846c.4053.0049.8584.0137,1.2657.0186l.664.0097a.18142.18142,0,0,1,.1407.0664.1933.1933,0,0,1,.0488.1465c-.0147.1563-.0352.3076-.0567.4473a.19269.19269,0,0,1-.2002.165c-.5048-.0244-1.28118-.0537-1.8896-.0732l-.0088-.001Zm.2197-.3896v.0097c.501.0186,1.0791.0381,1.52152.0576l.00488-.0429-.4492-.0078c-.34568-.0049-.7246-.0098-1.0772-.0166Zm6.1543.6865-.2217-.0176a.18948.18948,0,0,1-.1308-.0693.18708.18708,0,0,1-.0449-.1407l.0332-.3632a.215.215,0,0,1,.205-.2002c.5215.0254,1.36042.0742,1.9102.125a.19036.19036,0,0,1,.1758.2021l-.0205.3877a.192.192,0,0,1-.20308.1797c-.418-.0166-1.13972-.0596-1.70322-.1035Zm.0069-.3867h.0254c.4804.038,1.0752.0742,1.496.0957l.001-.0059c-.4687-.0439-1.0703-.0723-1.5224-.0986v.0088Zm-6.3008-1.4688a.20353.20353,0,0,1-.12888-.0615.20135.20135,0,0,1-.05182-.1426c.0127-.2275.0244-.4228.0342-.5771a.19471.19471,0,0,1,.2021-.1817c.4961.0186,1.1504.0703,1.39852.0899.12788.0097.30468.0215.48528.0302a.1905.1905,0,0,1,.18272.1866c.00478.1474.00868.3173.00778.5039a.19367.19367,0,0,1-.0596.1396.19872.19872,0,0,1-.1387.0547l-.3799-.0098c-.4345-.0097-.9853-.0244-1.54-.0312l-.0117-.001Zm.2324-.5674c-.0059.0596-.0088.1192-.0117.1817.48342.0097.957.0205,1.3418.0293l.1787.0039c-.001-.0381-.002-.0772-.001-.1133-.11808-.0088-.2285-.0137-.3164-.0205-.2148-.0176-.7402-.0586-1.1914-.0811Zm6.8584.9854c-.3115-.0244-.6269-.0547-.8955-.0908a.19585.19585,0,0,1-.167-.21l.0439-.5078a.19736.19736,0,0,1,.209-.1768l.04592.0049c.54688.043,1.33788.1231,1.79978.1865a.19253.19253,0,0,1,.169.1963c-.0029.1211-.00778.2793-.0176.4727a.19511.19511,0,0,1-.2031.1855c-.2617-.0127-.6192-.0332-.9844-.0605Zm-.6592-.4531c.4727.0556,1.043.0937,1.4668.1171.002-.0351.0039-.0673.0039-.0966-.4179-.0508-.999-.1114-1.459-.1494l-.0117.1289Z"/>
              <path class="43dee6cb-29e2-48ee-97c5-9eb82448d8a8" d="M53.39752,64.1923a1.95092,1.95092,0,0,1-.75682-.248c-.1729-.0938-1.2559-.8389-1.251-1.1816a.25783.25783,0,0,1,.125-.1973.46681.46681,0,0,1,.2295-.0488,1.866,1.866,0,0,1,.0351-.3594,14.02084,14.02084,0,0,0,.1641-1.7402c.0068-.2706.0547-1.0137.0996-1.7315.0508-.75.1016-1.5254.1006-1.708-.001-.0293-.001-.0547-.001-.0752a.2781.2781,0,0,1-.0908-.1035l-.0088-.0137a.45992.45992,0,0,1-.1318-.0732c-.2891-.2295.0908-.8838.1367-.959a3.40909,3.40909,0,0,1,.3857-.4316,5.86792,5.86792,0,0,0,.4405-.4874c.206-.3037.5185-.3496.6787-.1347a3.29456,3.29456,0,0,0,.59472.3388,14.34764,14.34764,0,0,0,1.90918.1348,2.00118,2.00118,0,0,0,.3711-.2002,1.54426,1.54426,0,0,1,.2578-.1416c.248-.1035.4844-.0283.832.2822a4.97068,4.97068,0,0,1,.707.7149.77625.77625,0,0,1,.0762-.0713l.0469-.042c.6582-.5684.9961-.7803,1.207-.7637l.0293.1983.0166-.1944.0547.0039a.4513.4513,0,0,1,.3291.1729l.043.043c.0469.0468.0967.0996.1465.1552a3.8886,3.8886,0,0,0,1.1748.2413c.2617.0185.5166.0273.749.0341l.1064.0039a.58392.58392,0,0,1,.7012-.3672l.0693.0127a1.23154,1.23154,0,0,1,.54792.1924,2.89582,2.89582,0,0,1,.99608,1.1963l.04.0801a2.21139,2.21139,0,0,1-.0595,1.584.27539.27539,0,0,1-.2559.1416c-.0019.0263-.0342.1865-.05368.4638-.02342.2881-.14842,2.9512-.14652,3.6309.001.1094.0049.2139.0068.3174A1.67339,1.67339,0,0,1,63.668,64.29a2.5667,2.5667,0,0,1-1.4277.5225.64528.64528,0,0,1-.1426.0048h0a1.28325,1.28325,0,0,1-.4541-.164c-.1025-.0498-.2344-.1172-.41308-.1973a13.81429,13.81429,0,0,0-1.69632-.4707,8.20032,8.20032,0,0,1-1.6972-.498.74537.74537,0,0,1-.4239-.6924.253.253,0,0,1,.1856-.2197.55026.55026,0,0,1,.17382-.0079,6.17149,6.17149,0,0,1,.91018.1846,21.90585,21.90585,0,0,0,2.3252.2725c.3095.0254.498.0351.6015.04a13.55831,13.55831,0,0,0,.20412-1.6982c.01468-.1983.03418-.5069.06058-.8692a16.695,16.695,0,0,0-2.1739-.1347.97731.97731,0,0,1-.5654.1504.952.952,0,0,1-.624-.3487,5.16,5.16,0,0,1-.4424-.6113l-.0781-.1182a5.48722,5.48722,0,0,1-.8965.71,1.17031,1.17031,0,0,1-.9492.1064.44888.44888,0,0,1-.1348-.0703c-.0586-.042-.1387-.0937-.5791-.1289-.2061-.0176-.4727-.0254-.792-.0273-.15818-.003-.2969-.0049-.4219-.0059-.0234.5752-.0429,1.0488-.0468,1.2588-.0098.4346-.02448.9443-.0381,1.3926-.0088.3066-.0166.5859-.0176.792-.0127.4238-.0977.5937-.34278.6758-.01272.0039-.02542.0068-.04.0127a.67317.67317,0,0,1-.334.0419ZM51.9493,62.9287a5.08029,5.08029,0,0,0,.8779.6767,1.629,1.629,0,0,0,.6045.2012.4777.4777,0,0,0,.1367-.0059.49464.49464,0,0,1,.08112-.0322c.03408-.0117.06828-.0674.07508-.3144.00492-.2071.0118-.4883.0215-.7979.0137-.4473.0293-.9531.0371-1.3867.003-.2334.0274-.793.0577-1.459a.19267.19267,0,0,1,.1962-.1855c.1661.0029.3633.0088.6055.0088.3291.0039.6045.0146.8213.0322a1.36038,1.36038,0,0,1,.7647.1953.1567.1567,0,0,0,.0556.0283.36735.36735,0,0,0,.1475.041.91537.91537,0,0,0,.4804-.1299,5.17818,5.17818,0,0,0,.8516-.6904c-.0166.0049-.03118-.0586-.043-.1006a.73763.73763,0,0,1-.039-.2539c.0039-.0498.00882-.2871.0156-.583.0137-.7217.0293-1.3349.0488-1.4863a.68721.68721,0,0,1,.1846-.417l.0137-.0391a1.22317,1.22317,0,0,1,.0039-.1386,5.379,5.379,0,0,0-.6895-.6895c-.206-.1855-.3174-.2588-.4277-.2129a1.14,1.14,0,0,0-.1943.1123,2.49873,2.49873,0,0,1-.4747.2471.18751.18751,0,0,1-.0859.0117,14.02689,14.02689,0,0,1-2.0224-.1455.29316.29316,0,0,1-.0459-.0137,3.56509,3.56509,0,0,1-.7393-.4394.65337.65337,0,0,0-.0742.0898,5.65435,5.65435,0,0,1-.4815.5381,4.57835,4.57835,0,0,0-.333.3643,1.71588,1.71588,0,0,0-.1875.4648.33253.33253,0,0,1,.1758.1572c.165.0508.1641.2373.165.4024-.0019.1943-.05068.9394-.0996,1.7324-.0488.7158-.0947,1.4531-.1015,1.7158a14.36711,14.36711,0,0,1-.1758,1.8233,1.33468,1.33468,0,0,0-.0234.2754c-.002.1533-.003.2734-.0958.3584a.285.285,0,0,1-.0878.0449Zm5.8877.0371a.71349.71349,0,0,0,.208.1963,10.44766,10.44766,0,0,0,1.582.4453,13.35611,13.35611,0,0,1,1.7646.4971c.1797.082.3174.1474.419.1972.2363.1162.2871.1377.3818.126A2.2389,2.2389,0,0,0,63.4121,64c.27542-.2442.2667-.6153.25-1.127-.0009-.1064-.0058-.2158-.0068-.3281-.0029-.6738.11922-3.3047.1475-3.6631.0234-.2959.0615-.7783.3906-.8193a2.03432,2.03432,0,0,0,.0205-1.1651l-.042-.0801a2.51314,2.51314,0,0,0-.8779-1.0585.89315.89315,0,0,0-.3828-.1202l-.0772-.0136c-.164-.0313-.2431.0459-.2656.1152-.00488.0186-.0137.0557-.0234.1064a.19218.19218,0,0,1-.1973.1553l-.2627-.0088c-.2373-.0068-.499-.0156-.7646-.0351a3.98265,3.98265,0,0,1-1.3418-.292.22183.22183,0,0,1-.0655-.0459c-.05658-.0625-.1133-.1221-.165-.1758l-.042-.0439a.36659.36659,0,0,0-.0615-.0547l-.003-.1944-.038.1924-.08208-.0068c-.042.0058-.24022.082-.92192.6709l-.0468.042a.182.182,0,0,0-.0469.2568.71053.71053,0,0,0,.0469.082.4972.4972,0,0,1,.0693.3916c-.0078.0694-.0088.2246-.0098.42a4.79592,4.79592,0,0,1-.1562,1.7255l-.0352.0547a.70992.70992,0,0,0-.122.2129l.0937.1455a5.70967,5.70967,0,0,0,.4004.5625.53138.53138,0,0,0,.7324.1133.23692.23692,0,0,1,.1094-.0371,17.04669,17.04669,0,0,1,2.4736.1602.19527.19527,0,0,1,.16312.205c-.02832.4434-.05472.8223-.07132,1.0557a5.84358,5.84358,0,0,1-.2851,1.9541.21313.21313,0,0,1-.044.0508c-.0703.0605-.0849.0722-.8925.0078a22.36932,22.36932,0,0,1-2.3916-.2842,7.414,7.414,0,0,0-.75-.1611Zm.3623-6.4131a.33132.33132,0,0,0-.0694.1865c-.0176.1436-.0342.9248-.0439,1.4404-.0078.3096-.0137.5557-.0166.6065-.002.0039-.001.0098.0029.0185a.329.329,0,0,1,.0264-.041l.0371-.0537a9.29249,9.29249,0,0,0,.0888-1.5146c.001-.209.00592-.3731.0108-.4453a.76435.76435,0,0,0,.0039-.1377c-.0147-.0186-.0264-.0391-.04-.0596Zm-4.127,2.2412a.18941.18941,0,0,1-.1269-.0596.20606.20606,0,0,1-.0508-.1425l.0175-.3926a.1975.1975,0,0,1,.1963-.1846c.4053.0049.8584.0137,1.2657.0186l.664.0097a.18142.18142,0,0,1,.1407.0664.1933.1933,0,0,1,.0488.1465c-.0147.1563-.0352.3076-.0567.4473a.19269.19269,0,0,1-.2002.165c-.5048-.0244-1.28118-.0537-1.8896-.0732l-.0088-.001Zm.2197-.3896v.0097c.501.0186,1.0791.0381,1.52152.0576l.00488-.0429-.4492-.0078c-.34568-.0049-.7246-.0098-1.0772-.0166Zm6.1543.6865-.2217-.0176a.18948.18948,0,0,1-.1308-.0693.18708.18708,0,0,1-.0449-.1407l.0332-.3632a.215.215,0,0,1,.205-.2002c.5215.0254,1.36042.0742,1.9102.125a.19036.19036,0,0,1,.1758.2021l-.0205.3877a.192.192,0,0,1-.20308.1797c-.418-.0166-1.13972-.0596-1.70322-.1035Zm.0069-.3867h.0254c.4804.038,1.0752.0742,1.496.0957l.001-.0059c-.4687-.0439-1.0703-.0723-1.5224-.0986v.0088Zm-6.3008-1.4688a.20353.20353,0,0,1-.12888-.0615.20135.20135,0,0,1-.05182-.1426c.0127-.2275.0244-.4228.0342-.5771a.19471.19471,0,0,1,.2021-.1817c.4961.0186,1.1504.0703,1.39852.0899.12788.0097.30468.0215.48528.0302a.1905.1905,0,0,1,.18272.1866c.00478.1474.00868.3173.00778.5039a.19367.19367,0,0,1-.0596.1396.19872.19872,0,0,1-.1387.0547l-.3799-.0098c-.4345-.0097-.9853-.0244-1.54-.0312l-.0117-.001Zm.2324-.5674c-.0059.0596-.0088.1192-.0117.1817.48342.0097.957.0205,1.3418.0293l.1787.0039c-.001-.0381-.002-.0772-.001-.1133-.11808-.0088-.2285-.0137-.3164-.0205-.2148-.0176-.7402-.0586-1.1914-.0811Zm6.8584.9854c-.3115-.0244-.6269-.0547-.8955-.0908a.19585.19585,0,0,1-.167-.21l.0439-.5078a.19736.19736,0,0,1,.209-.1768l.04592.0049c.54688.043,1.33788.1231,1.79978.1865a.19253.19253,0,0,1,.169.1963c-.0029.1211-.00778.2793-.0176.4727a.19511.19511,0,0,1-.2031.1855c-.2617-.0127-.6192-.0332-.9844-.0605Zm-.6592-.4531c.4727.0556,1.043.0937,1.4668.1171.002-.0351.0039-.0673.0039-.0966-.4179-.0508-.999-.1114-1.459-.1494l-.0117.1289Z"/>
              <path class="43dee6cb-29e2-48ee-97c5-9eb82448d8a8" d="M53.39752,64.1923a1.95092,1.95092,0,0,1-.75682-.248c-.1729-.0938-1.2559-.8389-1.251-1.1816a.25783.25783,0,0,1,.125-.1973.46681.46681,0,0,1,.2295-.0488,1.866,1.866,0,0,1,.0351-.3594,14.02084,14.02084,0,0,0,.1641-1.7402c.0068-.2706.0547-1.0137.0996-1.7315.0508-.75.1016-1.5254.1006-1.708-.001-.0293-.001-.0547-.001-.0752a.2781.2781,0,0,1-.0908-.1035l-.0088-.0137a.45992.45992,0,0,1-.1318-.0732c-.2891-.2295.0908-.8838.1367-.959a3.40909,3.40909,0,0,1,.3857-.4316,5.86792,5.86792,0,0,0,.4405-.4874c.206-.3037.5185-.3496.6787-.1347a3.29456,3.29456,0,0,0,.59472.3388,14.34764,14.34764,0,0,0,1.90918.1348,2.00118,2.00118,0,0,0,.3711-.2002,1.54426,1.54426,0,0,1,.2578-.1416c.248-.1035.4844-.0283.832.2822a4.97068,4.97068,0,0,1,.707.7149.77625.77625,0,0,1,.0762-.0713l.0469-.042c.6582-.5684.9961-.7803,1.207-.7637l.0293.1983.0166-.1944.0547.0039a.4513.4513,0,0,1,.3291.1729l.043.043c.0469.0468.0967.0996.1465.1552a3.8886,3.8886,0,0,0,1.1748.2413c.2617.0185.5166.0273.749.0341l.1064.0039a.58392.58392,0,0,1,.7012-.3672l.0693.0127a1.23154,1.23154,0,0,1,.54792.1924,2.89582,2.89582,0,0,1,.99608,1.1963l.04.0801a2.21139,2.21139,0,0,1-.0595,1.584.27539.27539,0,0,1-.2559.1416c-.0019.0263-.0342.1865-.05368.4638-.02342.2881-.14842,2.9512-.14652,3.6309.001.1094.0049.2139.0068.3174A1.67339,1.67339,0,0,1,63.668,64.29a2.5667,2.5667,0,0,1-1.4277.5225.64528.64528,0,0,1-.1426.0048h0a1.28325,1.28325,0,0,1-.4541-.164c-.1025-.0498-.2344-.1172-.41308-.1973a13.81429,13.81429,0,0,0-1.69632-.4707,8.20032,8.20032,0,0,1-1.6972-.498.74537.74537,0,0,1-.4239-.6924.253.253,0,0,1,.1856-.2197.55026.55026,0,0,1,.17382-.0079,6.17149,6.17149,0,0,1,.91018.1846,21.90585,21.90585,0,0,0,2.3252.2725c.3095.0254.498.0351.6015.04a13.55831,13.55831,0,0,0,.20412-1.6982c.01468-.1983.03418-.5069.06058-.8692a16.695,16.695,0,0,0-2.1739-.1347.97731.97731,0,0,1-.5654.1504.952.952,0,0,1-.624-.3487,5.16,5.16,0,0,1-.4424-.6113l-.0781-.1182a5.48722,5.48722,0,0,1-.8965.71,1.17031,1.17031,0,0,1-.9492.1064.44888.44888,0,0,1-.1348-.0703c-.0586-.042-.1387-.0937-.5791-.1289-.2061-.0176-.4727-.0254-.792-.0273-.15818-.003-.2969-.0049-.4219-.0059-.0234.5752-.0429,1.0488-.0468,1.2588-.0098.4346-.02448.9443-.0381,1.3926-.0088.3066-.0166.5859-.0176.792-.0127.4238-.0977.5937-.34278.6758-.01272.0039-.02542.0068-.04.0127a.67317.67317,0,0,1-.334.0419ZM51.9493,62.9287a5.08029,5.08029,0,0,0,.8779.6767,1.629,1.629,0,0,0,.6045.2012.4777.4777,0,0,0,.1367-.0059.49464.49464,0,0,1,.08112-.0322c.03408-.0117.06828-.0674.07508-.3144.00492-.2071.0118-.4883.0215-.7979.0137-.4473.0293-.9531.0371-1.3867.003-.2334.0274-.793.0577-1.459a.19267.19267,0,0,1,.1962-.1855c.1661.0029.3633.0088.6055.0088.3291.0039.6045.0146.8213.0322a1.36038,1.36038,0,0,1,.7647.1953.1567.1567,0,0,0,.0556.0283.36735.36735,0,0,0,.1475.041.91537.91537,0,0,0,.4804-.1299,5.17818,5.17818,0,0,0,.8516-.6904c-.0166.0049-.03118-.0586-.043-.1006a.73763.73763,0,0,1-.039-.2539c.0039-.0498.00882-.2871.0156-.583.0137-.7217.0293-1.3349.0488-1.4863a.68721.68721,0,0,1,.1846-.417l.0137-.0391a1.22317,1.22317,0,0,1,.0039-.1386,5.379,5.379,0,0,0-.6895-.6895c-.206-.1855-.3174-.2588-.4277-.2129a1.14,1.14,0,0,0-.1943.1123,2.49873,2.49873,0,0,1-.4747.2471.18751.18751,0,0,1-.0859.0117,14.02689,14.02689,0,0,1-2.0224-.1455.29316.29316,0,0,1-.0459-.0137,3.56509,3.56509,0,0,1-.7393-.4394.65337.65337,0,0,0-.0742.0898,5.65435,5.65435,0,0,1-.4815.5381,4.57835,4.57835,0,0,0-.333.3643,1.71588,1.71588,0,0,0-.1875.4648.33253.33253,0,0,1,.1758.1572c.165.0508.1641.2373.165.4024-.0019.1943-.05068.9394-.0996,1.7324-.0488.7158-.0947,1.4531-.1015,1.7158a14.36711,14.36711,0,0,1-.1758,1.8233,1.33468,1.33468,0,0,0-.0234.2754c-.002.1533-.003.2734-.0958.3584a.285.285,0,0,1-.0878.0449Zm5.8877.0371a.71349.71349,0,0,0,.208.1963,10.44766,10.44766,0,0,0,1.582.4453,13.35611,13.35611,0,0,1,1.7646.4971c.1797.082.3174.1474.419.1972.2363.1162.2871.1377.3818.126A2.2389,2.2389,0,0,0,63.4121,64c.27542-.2442.2667-.6153.25-1.127-.0009-.1064-.0058-.2158-.0068-.3281-.0029-.6738.11922-3.3047.1475-3.6631.0234-.2959.0615-.7783.3906-.8193a2.03432,2.03432,0,0,0,.0205-1.1651l-.042-.0801a2.51314,2.51314,0,0,0-.8779-1.0585.89315.89315,0,0,0-.3828-.1202l-.0772-.0136c-.164-.0313-.2431.0459-.2656.1152-.00488.0186-.0137.0557-.0234.1064a.19218.19218,0,0,1-.1973.1553l-.2627-.0088c-.2373-.0068-.499-.0156-.7646-.0351a3.98265,3.98265,0,0,1-1.3418-.292.22183.22183,0,0,1-.0655-.0459c-.05658-.0625-.1133-.1221-.165-.1758l-.042-.0439a.36659.36659,0,0,0-.0615-.0547l-.003-.1944-.038.1924-.08208-.0068c-.042.0058-.24022.082-.92192.6709l-.0468.042a.182.182,0,0,0-.0469.2568.71053.71053,0,0,0,.0469.082.4972.4972,0,0,1,.0693.3916c-.0078.0694-.0088.2246-.0098.42a4.79592,4.79592,0,0,1-.1562,1.7255l-.0352.0547a.70992.70992,0,0,0-.122.2129l.0937.1455a5.70967,5.70967,0,0,0,.4004.5625.53138.53138,0,0,0,.7324.1133.23692.23692,0,0,1,.1094-.0371,17.04669,17.04669,0,0,1,2.4736.1602.19527.19527,0,0,1,.16312.205c-.02832.4434-.05472.8223-.07132,1.0557a5.84358,5.84358,0,0,1-.2851,1.9541.21313.21313,0,0,1-.044.0508c-.0703.0605-.0849.0722-.8925.0078a22.36932,22.36932,0,0,1-2.3916-.2842,7.414,7.414,0,0,0-.75-.1611Zm.3623-6.4131a.33132.33132,0,0,0-.0694.1865c-.0176.1436-.0342.9248-.0439,1.4404-.0078.3096-.0137.5557-.0166.6065-.002.0039-.001.0098.0029.0185a.329.329,0,0,1,.0264-.041l.0371-.0537a9.29249,9.29249,0,0,0,.0888-1.5146c.001-.209.00592-.3731.0108-.4453a.76435.76435,0,0,0,.0039-.1377c-.0147-.0186-.0264-.0391-.04-.0596Zm-4.127,2.2412a.18941.18941,0,0,1-.1269-.0596.20606.20606,0,0,1-.0508-.1425l.0175-.3926a.1975.1975,0,0,1,.1963-.1846c.4053.0049.8584.0137,1.2657.0186l.664.0097a.18142.18142,0,0,1,.1407.0664.1933.1933,0,0,1,.0488.1465c-.0147.1563-.0352.3076-.0567.4473a.19269.19269,0,0,1-.2002.165c-.5048-.0244-1.28118-.0537-1.8896-.0732l-.0088-.001Zm.2197-.3896v.0097c.501.0186,1.0791.0381,1.52152.0576l.00488-.0429-.4492-.0078c-.34568-.0049-.7246-.0098-1.0772-.0166Zm6.1543.6865-.2217-.0176a.18948.18948,0,0,1-.1308-.0693.18708.18708,0,0,1-.0449-.1407l.0332-.3632a.215.215,0,0,1,.205-.2002c.5215.0254,1.36042.0742,1.9102.125a.19036.19036,0,0,1,.1758.2021l-.0205.3877a.192.192,0,0,1-.20308.1797c-.418-.0166-1.13972-.0596-1.70322-.1035Zm.0069-.3867h.0254c.4804.038,1.0752.0742,1.496.0957l.001-.0059c-.4687-.0439-1.0703-.0723-1.5224-.0986v.0088Zm-6.3008-1.4688a.20353.20353,0,0,1-.12888-.0615.20135.20135,0,0,1-.05182-.1426c.0127-.2275.0244-.4228.0342-.5771a.19471.19471,0,0,1,.2021-.1817c.4961.0186,1.1504.0703,1.39852.0899.12788.0097.30468.0215.48528.0302a.1905.1905,0,0,1,.18272.1866c.00478.1474.00868.3173.00778.5039a.19367.19367,0,0,1-.0596.1396.19872.19872,0,0,1-.1387.0547l-.3799-.0098c-.4345-.0097-.9853-.0244-1.54-.0312l-.0117-.001Zm.2324-.5674c-.0059.0596-.0088.1192-.0117.1817.48342.0097.957.0205,1.3418.0293l.1787.0039c-.001-.0381-.002-.0772-.001-.1133-.11808-.0088-.2285-.0137-.3164-.0205-.2148-.0176-.7402-.0586-1.1914-.0811Zm6.8584.9854c-.3115-.0244-.6269-.0547-.8955-.0908a.19585.19585,0,0,1-.167-.21l.0439-.5078a.19736.19736,0,0,1,.209-.1768l.04592.0049c.54688.043,1.33788.1231,1.79978.1865a.19253.19253,0,0,1,.169.1963c-.0029.1211-.00778.2793-.0176.4727a.19511.19511,0,0,1-.2031.1855c-.2617-.0127-.6192-.0332-.9844-.0605Zm-.6592-.4531c.4727.0556,1.043.0937,1.4668.1171.002-.0351.0039-.0673.0039-.0966-.4179-.0508-.999-.1114-1.459-.1494l-.0117.1289Z"/>
            </g>
            <g>
              <path class="43dee6cb-29e2-48ee-97c5-9eb82448d8a8" d="M53.2618,55.29589c-.19728-.0147-.376-.2373-.73828-.7461a4.20006,4.20006,0,0,0-.29012-.3868.69362.69362,0,0,1-.2177-.5898.29908.29908,0,0,1,.1562-.2353.73719.73719,0,0,0,.14362-.2627,9.497,9.497,0,0,0,.01558-1.0323c-.002-.2041-.0049-.3847-.001-.4804a.40742.40742,0,0,0-.1484-.3428l-.0596-.0674a.19332.19332,0,0,1,.0059-.2598c.0029-.0048.0088-.0078.0146-.0146a.66513.66513,0,0,1-.5205-.4805,3.64363,3.64363,0,0,1-.01558-1.5547c.08788-.4892.41008-.4814.56248-.4775a.40943.40943,0,0,0,.0849-.001,1.55816,1.55816,0,0,0,.5821-.6357.44508.44508,0,0,0,.06252-.3955l-.01862-.0645c-.0342-.1035-.124-.3779.1299-.499a2.01263,2.01263,0,0,1,.38572-.1279l.01468-.0245a4.4416,4.4416,0,0,1,.4844-.8105l.0508-.0537c.2334-.2627.622-.7022,1.08-.667.08012.0068.2139.0195.3926.0352.3438.0322.85452.0791,1.4473.1259.7168.0576,1.3818.0987,1.9717.1241,1.76852.081,2.4794.1689,2.9257.1894a3.58849,3.58849,0,0,0,.501-.0137,1.62786,1.62786,0,0,1,.4561.0059c.33.0576.4043.0928,1.0322.5771a2.3377,2.3377,0,0,1,.9473,1.3311.80955.80955,0,0,1,.1347.1201,4.36665,4.36665,0,0,1,.4199.6748l.1163.2149a13.45937,13.45937,0,0,1,.8877,1.8662,1.6841,1.6841,0,0,1-.8321,1.5898.71814.71814,0,0,1-.498.166h0a.48112.48112,0,0,1-.127-.0234c.0098.0264.0205.0508.0283.0742l.0176.0469c.1133.2891.2783.7275.0264.9609a.51441.51441,0,0,0-.1641.4073c-.0097.1425-.0381.5351-.0586.8544-.0146.2208-.0263.4073-.0273.4522a1.49,1.49,0,0,1-.68358.7598,1.52951,1.52951,0,0,1-1.17382-.1397,1.71462,1.71462,0,0,0-.2149-.1045,1.884,1.884,0,0,1-.1826-.0898c-1.6055-.1211-6.707-.416-8.1152-.4414a2.98824,2.98824,0,0,1-.9356.4453.36955.36955,0,0,1-.0556.001Zm-.86628-1.6426a.34037.34037,0,0,0,.11628.2392,4.62775,4.62775,0,0,1,.3291.4317,4.20817,4.20817,0,0,0,.456.5801,3.20138,3.20138,0,0,0,.7041-.3467l.0508-.0469a.20026.20026,0,0,1,.1348-.0488c1.3105.0136,6.6767.3252,8.2578.4472v-.0019a.21384.21384,0,0,1,.0898.0312,1.45906,1.45906,0,0,0,.1738.087,1.92582,1.92582,0,0,1,.2569.1298,1.06225,1.06225,0,0,0,.4629.1407,1.02477,1.02477,0,0,0,.3779-.0352,1.38912,1.38912,0,0,0,.4326-.4492c-.0019-.0205.0108-.207.0244-.4238.0215-.3233.0489-.7159.0577-.8604a.88041.88041,0,0,1,.289-.6592c.0235-.0351.0215-.1592-.125-.54l-.0195-.0498a6.04933,6.04933,0,0,0-.6738-1.127,1.51069,1.51069,0,0,0-.1641-.207.1994.1994,0,0,1-.044-.1738.18982.18982,0,0,1,.1163-.1358.09685.09685,0,0,1,.03122-.0195.44948.44948,0,0,0,.03608-.2217,2.71029,2.71029,0,0,0-.497-.8926.09816.09816,0,0,0-.0479-.0195,1.48441,1.48441,0,0,1-.6894.1719c-.0186,0-.041.001-.0762.001a.19315.19315,0,0,1-.1943-.1827,2.20832,2.20832,0,0,1,.0068-.3349.19852.19852,0,0,1,.0703-.1328.246.246,0,0,1,.14162-.042c.43358.0459.80368.0859,1.08788.1172a.20109.20109,0,0,1,.1475.1015,7.257,7.257,0,0,1,.3681.7657c.0137.038.0332.0761.0528.1181a.99678.99678,0,0,1,.123.6211.25734.25734,0,0,1-.1191.1836c.0224.0342.0459.0674.0693.1025.083.1221.167.2442.2393.336.2031.2529.375.3877.5087.3984h0a.32665.32665,0,0,0,.2334-.0879,1.30215,1.30215,0,0,0,.6817-1.2353,13.63555,13.63555,0,0,0-.8418-1.7217l-.1211-.2207a3.71956,3.71956,0,0,0-.3701-.6055.39528.39528,0,0,0-.126-.0918.19712.19712,0,0,1-.1025-.209c.0322-.1699-.2334-.6611-.7959-1.0976-.5889-.4551-.61818-.459-.833-.4981-.0586-.0097-.084-.0127-.1104-.0156a1.74983,1.74983,0,0,0-.2744.0108,4.11629,4.11629,0,0,1-.5527.0156c-.4834-.0225-1.22068-.1104-2.9258-.1875-.5957-.0283-1.2647-.0713-1.9844-.1289-.5957-.0459-1.1064-.0928-1.4521-.1231-.1768-.0176-.3106-.0293-.3877-.0361-.2666-.0215-.586.3398-.7598.5352l-.0527.0585a4.354,4.354,0,0,0-.4288.7266l-.0576.1113a.18882.18882,0,0,1-.1396.1006,1.84089,1.84089,0,0,0-.32518.0899.5183.5183,0,0,1,.01558.0527.70793.70793,0,0,1,.02642.085.82452.82452,0,0,1-.10552.6943c-.2109.3477-.5576.7705-.8486.8193a.71551.71551,0,0,1-.1592.0049c-.1338-.001-.1455-.0019-.1738.1602a3.3336,3.3336,0,0,0,.0068,1.3691c.0811.2647.3652.2803.6797.1113a3.322,3.322,0,0,0,.7168-.6894.19609.19609,0,0,1,.2959-.002c.0361.0391.0713.0801.1074.1133a.188.188,0,0,1,.06152.1494.19226.19226,0,0,1-.07522.1465c-.1172.0938-.3769.2891-.6455.4922-.19328.1465-.4326.3281-.5869.4463a.75093.75093,0,0,1,.1699.5264c-.0039.0937,0,.2646.001.4619a5.52831,5.52831,0,0,1-.0351,1.1552.99049.99049,0,0,1-.28718.461Zm2.07818-.0987a.19349.19349,0,0,1-.1768-.2001c.001-.0733,0-.1495,0-.2315v-.1738a.19544.19544,0,0,1,.2051-.1934c.56052.0313,1.4111.0899,2.3633.1612a.1679.1679,0,0,1,.1338.0703.179.179,0,0,1,.0429.1416c-.0127.1513-.0302.289-.0478.4131a.19279.19279,0,0,1-.2051.164c-.9033-.0586-1.7275-.1113-2.3125-.1523l-.0029.0009Zm.2119-.3994.001.0244c.5254.0352,1.2041.0782,1.9453.128a.05106.05106,0,0,1,.0049-.0176c-.7588-.0566-1.4444-.1045-1.9512-.1348Zm5.2676.7549a.19686.19686,0,0,1-.18168-.1963c.002-.1074.003-.2265.00588-.3525a.19832.19832,0,0,1,.0664-.1416.266.266,0,0,1,.1445-.0469c1.0615.0938,1.8574.1748,2.3028.2363a.193.193,0,0,1,.1679.208l-.02148.2618a.19716.19716,0,0,1-.207.1777l-2.27642-.1465Zm-5.4551-1.6894a.19646.19646,0,0,1-.1807-.2041c.0127-.1846.0283-.3125.041-.4297a.206.206,0,0,1,.1983-.1856c.5703.0147,1.3769.0508,2.3994.1094l.0029.001a.19458.19458,0,0,1,.1807.2021c-.0068.1426-.0147.3057-.0234.4766a.208.208,0,0,1-.0645.1348.18455.18455,0,0,1-.1416.0468c-.9629-.0586-1.832-.1132-2.4082-.1494l-.0039-.0019Zm.2295-.4258a.44623.44623,0,0,0-.0049.0537c.5244.0342,1.2344.0771,2.0166.126.002-.0303.001-.0596.0049-.086-.8311-.0488-1.5069-.08-2.0166-.0937Zm5.2607.7676a.19175.19175,0,0,1-.1767-.2032c.0078-.1748.0175-.331.0293-.4697a.19115.19115,0,0,1,.206-.1777c.9697.0683,1.8154.1328,2.3389.1767a.1959.1959,0,0,1,.17772.1934c-.001.123-.00682.2754-.01562.4473a.19256.19256,0,0,1-.06538.1298.20261.20261,0,0,1-.13972.0508c-.3857-.0263-1.15228-.0742-2.0771-.1308l-.2725-.0157-.0049-.0009Zm.2256-.4502c-.0039.0244-.0029.0488-.0059.0732l.0831.0049c.7861.0488,1.4609.0918,1.8798.1172a.35376.35376,0,0,0,.003-.0459c-.4893-.0401-1.1797-.0947-1.96-.1494Zm-5.8213-1.3272a.19522.19522,0,0,1-.16108-.1181,3.51456,3.51456,0,0,0-.21972-.4297.196.196,0,0,1,.1699-.295c.46682.0088,2.3369.125,2.8994.1602a.19415.19415,0,0,1,.1826.2129c-.0156.1738-.03318.3281-.0459.4551a.19276.19276,0,0,1-.2041.1738c-1.0176-.0645-1.956-.123-2.61518-.1592Zm.1182-.4443c.0088.0215.0185.042.0273.0644.60742.0332,1.4258.084,2.3115.1387.004-.0205.00692-.042.0098-.0644-1.0547-.0674-1.8828-.1163-2.3486-.1387Zm5.5713.7998a.19213.19213,0,0,1-.1797-.1953c.0029-.126.0068-.2676.0117-.4356a.1954.1954,0,0,1,.21-.1865h0c.913.082,2.1582.2022,2.8632.2764a.1966.1966,0,0,1,.1651.1416.19177.19177,0,0,1-.0645.2041,3.0391,3.0391,0,0,0-.2636.2431l-.0606.0616a.19112.19112,0,0,1-.1504.0556c-.38078-.0234-1.0937-.0713-1.9629-.1289l-.5664-.0351-.0019-.001Zm.2138-.4131c-.0009.0146-.0009.0273-.0009.0381l.3828.0254c.3359.0224.6523.0439.9316.0605-.4433-.0429-.9033-.0849-1.3135-.124Zm-5.4765-1.5801c-.2823-.0195-.5088-.0381-.6631-.0517a.18689.18689,0,0,1-.1524-.0996.19229.19229,0,0,1-.0019-.1827l.124-.2568a.19646.19646,0,0,1,.1807-.1103l.6035.0195a.18885.18885,0,0,1,.1484.0752.19163.19163,0,0,1,.0362.1592c-.0225.1025-.0469.2089-.07328.3037a.18873.18873,0,0,1-.20212.1435Zm1.6299.124a.193.193,0,0,1-.1797-.1962l.00392-.3623a.2005.2005,0,0,1,.06148-.1387.20981.20981,0,0,1,.1406-.0547l.7217.0312a.178.178,0,0,1,.1397.0655.19773.19773,0,0,1,.0478.1406l-.02928.3857a.19608.19608,0,0,1-.208.1807l-.69822-.0508v-.001Zm3.7089.2598a.19238.19238,0,0,1-.17868-.206l.02638-.4014a.19366.19366,0,0,1,.0674-.1348.17165.17165,0,0,1,.1435-.0469c.2403.0215.4844.043.7276.0674a.192.192,0,0,1,.1758.2032c-.0069.1289-.0206.2802-.0391.3974a.19438.19438,0,0,1-.2031.167l-.7188-.0469-.001.001Zm.2217-.3838-.001.0078.3379.0215c-.1132-.0107-.2265-.0215-.3369-.0293Zm-5.8428-1.8125a.19563.19563,0,0,1-.1152-.0498,1.43037,1.43037,0,0,0-.165-.1299.19153.19153,0,0,1-.0869-.1826.196.196,0,0,1,.1279-.1601,2.234,2.234,0,0,1,.8828-.0899c.50882.0108,1.4395.0654,2.13282.1113l.00288-.0009a.18951.18951,0,0,1,.1768.2031l-.0166.3232a.18339.18339,0,0,1-.0664.1338.19294.19294,0,0,1-.1436.0489L56.711,47.5c-.8379-.0635-1.60648-.125-2.1719-.1651Zm5.7549.4346a.20209.20209,0,0,1-.1318-.0693.18456.18456,0,0,1-.0459-.1436c.0137-.1426.0264-.2725.04-.377a.189.189,0,0,1,.20222-.1699c.50188.0215.96188.0479,1.30078.0733a2.88815,2.88815,0,0,1,.5488.0722c.27342.0772.8232.2598,1.1465.3819a.19516.19516,0,0,1,.1211.2207.19192.19192,0,0,1-.1983.1552c-.124-.0058-.29288-.0068-.5371-.0087l-.2373-.0039c-.2812-.003-1.0029-.0459-2.208-.1319l-.001.001Zm1.3018-.3018c-.1524-.0117-.3272-.0244-.5176-.0351.1904.0137.36232.0254.5176.0351Z"/>
              <path class="43dee6cb-29e2-48ee-97c5-9eb82448d8a8" d="M53.2618,55.29589c-.19728-.0147-.376-.2373-.73828-.7461a4.20006,4.20006,0,0,0-.29012-.3868.69362.69362,0,0,1-.2177-.5898.29908.29908,0,0,1,.1562-.2353.73719.73719,0,0,0,.14362-.2627,9.497,9.497,0,0,0,.01558-1.0323c-.002-.2041-.0049-.3847-.001-.4804a.40742.40742,0,0,0-.1484-.3428l-.0596-.0674a.19332.19332,0,0,1,.0059-.2598c.0029-.0048.0088-.0078.0146-.0146a.66513.66513,0,0,1-.5205-.4805,3.64363,3.64363,0,0,1-.01558-1.5547c.08788-.4892.41008-.4814.56248-.4775a.40943.40943,0,0,0,.0849-.001,1.55816,1.55816,0,0,0,.5821-.6357.44508.44508,0,0,0,.06252-.3955l-.01862-.0645c-.0342-.1035-.124-.3779.1299-.499a2.01263,2.01263,0,0,1,.38572-.1279l.01468-.0245a4.4416,4.4416,0,0,1,.4844-.8105l.0508-.0537c.2334-.2627.622-.7022,1.08-.667.08012.0068.2139.0195.3926.0352.3438.0322.85452.0791,1.4473.1259.7168.0576,1.3818.0987,1.9717.1241,1.76852.081,2.4794.1689,2.9257.1894a3.58849,3.58849,0,0,0,.501-.0137,1.62786,1.62786,0,0,1,.4561.0059c.33.0576.4043.0928,1.0322.5771a2.3377,2.3377,0,0,1,.9473,1.3311.80955.80955,0,0,1,.1347.1201,4.36665,4.36665,0,0,1,.4199.6748l.1163.2149a13.45937,13.45937,0,0,1,.8877,1.8662,1.6841,1.6841,0,0,1-.8321,1.5898.71814.71814,0,0,1-.498.166h0a.48112.48112,0,0,1-.127-.0234c.0098.0264.0205.0508.0283.0742l.0176.0469c.1133.2891.2783.7275.0264.9609a.51441.51441,0,0,0-.1641.4073c-.0097.1425-.0381.5351-.0586.8544-.0146.2208-.0263.4073-.0273.4522a1.49,1.49,0,0,1-.68358.7598,1.52951,1.52951,0,0,1-1.17382-.1397,1.71462,1.71462,0,0,0-.2149-.1045,1.884,1.884,0,0,1-.1826-.0898c-1.6055-.1211-6.707-.416-8.1152-.4414a2.98824,2.98824,0,0,1-.9356.4453.36955.36955,0,0,1-.0556.001Zm-.86628-1.6426a.34037.34037,0,0,0,.11628.2392,4.62775,4.62775,0,0,1,.3291.4317,4.20817,4.20817,0,0,0,.456.5801,3.20138,3.20138,0,0,0,.7041-.3467l.0508-.0469a.20026.20026,0,0,1,.1348-.0488c1.3105.0136,6.6767.3252,8.2578.4472v-.0019a.21384.21384,0,0,1,.0898.0312,1.45906,1.45906,0,0,0,.1738.087,1.92582,1.92582,0,0,1,.2569.1298,1.06225,1.06225,0,0,0,.4629.1407,1.02477,1.02477,0,0,0,.3779-.0352,1.38912,1.38912,0,0,0,.4326-.4492c-.0019-.0205.0108-.207.0244-.4238.0215-.3233.0489-.7159.0577-.8604a.88041.88041,0,0,1,.289-.6592c.0235-.0351.0215-.1592-.125-.54l-.0195-.0498a6.04933,6.04933,0,0,0-.6738-1.127,1.51069,1.51069,0,0,0-.1641-.207.1994.1994,0,0,1-.044-.1738.18982.18982,0,0,1,.1163-.1358.09685.09685,0,0,1,.03122-.0195.44948.44948,0,0,0,.03608-.2217,2.71029,2.71029,0,0,0-.497-.8926.09816.09816,0,0,0-.0479-.0195,1.48441,1.48441,0,0,1-.6894.1719c-.0186,0-.041.001-.0762.001a.19315.19315,0,0,1-.1943-.1827,2.20832,2.20832,0,0,1,.0068-.3349.19852.19852,0,0,1,.0703-.1328.246.246,0,0,1,.14162-.042c.43358.0459.80368.0859,1.08788.1172a.20109.20109,0,0,1,.1475.1015,7.257,7.257,0,0,1,.3681.7657c.0137.038.0332.0761.0528.1181a.99678.99678,0,0,1,.123.6211.25734.25734,0,0,1-.1191.1836c.0224.0342.0459.0674.0693.1025.083.1221.167.2442.2393.336.2031.2529.375.3877.5087.3984h0a.32665.32665,0,0,0,.2334-.0879,1.30215,1.30215,0,0,0,.6817-1.2353,13.63555,13.63555,0,0,0-.8418-1.7217l-.1211-.2207a3.71956,3.71956,0,0,0-.3701-.6055.39528.39528,0,0,0-.126-.0918.19712.19712,0,0,1-.1025-.209c.0322-.1699-.2334-.6611-.7959-1.0976-.5889-.4551-.61818-.459-.833-.4981-.0586-.0097-.084-.0127-.1104-.0156a1.74983,1.74983,0,0,0-.2744.0108,4.11629,4.11629,0,0,1-.5527.0156c-.4834-.0225-1.22068-.1104-2.9258-.1875-.5957-.0283-1.2647-.0713-1.9844-.1289-.5957-.0459-1.1064-.0928-1.4521-.1231-.1768-.0176-.3106-.0293-.3877-.0361-.2666-.0215-.586.3398-.7598.5352l-.0527.0585a4.354,4.354,0,0,0-.4288.7266l-.0576.1113a.18882.18882,0,0,1-.1396.1006,1.84089,1.84089,0,0,0-.32518.0899.5183.5183,0,0,1,.01558.0527.70793.70793,0,0,1,.02642.085.82452.82452,0,0,1-.10552.6943c-.2109.3477-.5576.7705-.8486.8193a.71551.71551,0,0,1-.1592.0049c-.1338-.001-.1455-.0019-.1738.1602a3.3336,3.3336,0,0,0,.0068,1.3691c.0811.2647.3652.2803.6797.1113a3.322,3.322,0,0,0,.7168-.6894.19609.19609,0,0,1,.2959-.002c.0361.0391.0713.0801.1074.1133a.188.188,0,0,1,.06152.1494.19226.19226,0,0,1-.07522.1465c-.1172.0938-.3769.2891-.6455.4922-.19328.1465-.4326.3281-.5869.4463a.75093.75093,0,0,1,.1699.5264c-.0039.0937,0,.2646.001.4619a5.52831,5.52831,0,0,1-.0351,1.1552.99049.99049,0,0,1-.28718.461Zm2.07818-.0987a.19349.19349,0,0,1-.1768-.2001c.001-.0733,0-.1495,0-.2315v-.1738a.19544.19544,0,0,1,.2051-.1934c.56052.0313,1.4111.0899,2.3633.1612a.1679.1679,0,0,1,.1338.0703.179.179,0,0,1,.0429.1416c-.0127.1513-.0302.289-.0478.4131a.19279.19279,0,0,1-.2051.164c-.9033-.0586-1.7275-.1113-2.3125-.1523l-.0029.0009Zm.2119-.3994.001.0244c.5254.0352,1.2041.0782,1.9453.128a.05106.05106,0,0,1,.0049-.0176c-.7588-.0566-1.4444-.1045-1.9512-.1348Zm5.2676.7549a.19686.19686,0,0,1-.18168-.1963c.002-.1074.003-.2265.00588-.3525a.19832.19832,0,0,1,.0664-.1416.266.266,0,0,1,.1445-.0469c1.0615.0938,1.8574.1748,2.3028.2363a.193.193,0,0,1,.1679.208l-.02148.2618a.19716.19716,0,0,1-.207.1777l-2.27642-.1465Zm-5.4551-1.6894a.19646.19646,0,0,1-.1807-.2041c.0127-.1846.0283-.3125.041-.4297a.206.206,0,0,1,.1983-.1856c.5703.0147,1.3769.0508,2.3994.1094l.0029.001a.19458.19458,0,0,1,.1807.2021c-.0068.1426-.0147.3057-.0234.4766a.208.208,0,0,1-.0645.1348.18455.18455,0,0,1-.1416.0468c-.9629-.0586-1.832-.1132-2.4082-.1494l-.0039-.0019Zm.2295-.4258a.44623.44623,0,0,0-.0049.0537c.5244.0342,1.2344.0771,2.0166.126.002-.0303.001-.0596.0049-.086-.8311-.0488-1.5069-.08-2.0166-.0937Zm5.2607.7676a.19175.19175,0,0,1-.1767-.2032c.0078-.1748.0175-.331.0293-.4697a.19115.19115,0,0,1,.206-.1777c.9697.0683,1.8154.1328,2.3389.1767a.1959.1959,0,0,1,.17772.1934c-.001.123-.00682.2754-.01562.4473a.19256.19256,0,0,1-.06538.1298.20261.20261,0,0,1-.13972.0508c-.3857-.0263-1.15228-.0742-2.0771-.1308l-.2725-.0157-.0049-.0009Zm.2256-.4502c-.0039.0244-.0029.0488-.0059.0732l.0831.0049c.7861.0488,1.4609.0918,1.8798.1172a.35376.35376,0,0,0,.003-.0459c-.4893-.0401-1.1797-.0947-1.96-.1494Zm-5.8213-1.3272a.19522.19522,0,0,1-.16108-.1181,3.51456,3.51456,0,0,0-.21972-.4297.196.196,0,0,1,.1699-.295c.46682.0088,2.3369.125,2.8994.1602a.19415.19415,0,0,1,.1826.2129c-.0156.1738-.03318.3281-.0459.4551a.19276.19276,0,0,1-.2041.1738c-1.0176-.0645-1.956-.123-2.61518-.1592Zm.1182-.4443c.0088.0215.0185.042.0273.0644.60742.0332,1.4258.084,2.3115.1387.004-.0205.00692-.042.0098-.0644-1.0547-.0674-1.8828-.1163-2.3486-.1387Zm5.5713.7998a.19213.19213,0,0,1-.1797-.1953c.0029-.126.0068-.2676.0117-.4356a.1954.1954,0,0,1,.21-.1865h0c.913.082,2.1582.2022,2.8632.2764a.1966.1966,0,0,1,.1651.1416.19177.19177,0,0,1-.0645.2041,3.0391,3.0391,0,0,0-.2636.2431l-.0606.0616a.19112.19112,0,0,1-.1504.0556c-.38078-.0234-1.0937-.0713-1.9629-.1289l-.5664-.0351-.0019-.001Zm.2138-.4131c-.0009.0146-.0009.0273-.0009.0381l.3828.0254c.3359.0224.6523.0439.9316.0605-.4433-.0429-.9033-.0849-1.3135-.124Zm-5.4765-1.5801c-.2823-.0195-.5088-.0381-.6631-.0517a.18689.18689,0,0,1-.1524-.0996.19229.19229,0,0,1-.0019-.1827l.124-.2568a.19646.19646,0,0,1,.1807-.1103l.6035.0195a.18885.18885,0,0,1,.1484.0752.19163.19163,0,0,1,.0362.1592c-.0225.1025-.0469.2089-.07328.3037a.18873.18873,0,0,1-.20212.1435Zm1.6299.124a.193.193,0,0,1-.1797-.1962l.00392-.3623a.2005.2005,0,0,1,.06148-.1387.20981.20981,0,0,1,.1406-.0547l.7217.0312a.178.178,0,0,1,.1397.0655.19773.19773,0,0,1,.0478.1406l-.02928.3857a.19608.19608,0,0,1-.208.1807l-.69822-.0508v-.001Zm3.7089.2598a.19238.19238,0,0,1-.17868-.206l.02638-.4014a.19366.19366,0,0,1,.0674-.1348.17165.17165,0,0,1,.1435-.0469c.2403.0215.4844.043.7276.0674a.192.192,0,0,1,.1758.2032c-.0069.1289-.0206.2802-.0391.3974a.19438.19438,0,0,1-.2031.167l-.7188-.0469-.001.001Zm.2217-.3838-.001.0078.3379.0215c-.1132-.0107-.2265-.0215-.3369-.0293Zm-5.8428-1.8125a.19563.19563,0,0,1-.1152-.0498,1.43037,1.43037,0,0,0-.165-.1299.19153.19153,0,0,1-.0869-.1826.196.196,0,0,1,.1279-.1601,2.234,2.234,0,0,1,.8828-.0899c.50882.0108,1.4395.0654,2.13282.1113l.00288-.0009a.18951.18951,0,0,1,.1768.2031l-.0166.3232a.18339.18339,0,0,1-.0664.1338.19294.19294,0,0,1-.1436.0489L56.711,47.5c-.8379-.0635-1.60648-.125-2.1719-.1651Zm5.7549.4346a.20209.20209,0,0,1-.1318-.0693.18456.18456,0,0,1-.0459-.1436c.0137-.1426.0264-.2725.04-.377a.189.189,0,0,1,.20222-.1699c.50188.0215.96188.0479,1.30078.0733a2.88815,2.88815,0,0,1,.5488.0722c.27342.0772.8232.2598,1.1465.3819a.19516.19516,0,0,1,.1211.2207.19192.19192,0,0,1-.1983.1552c-.124-.0058-.29288-.0068-.5371-.0087l-.2373-.0039c-.2812-.003-1.0029-.0459-2.208-.1319l-.001.001Zm1.3018-.3018c-.1524-.0117-.3272-.0244-.5176-.0351.1904.0137.36232.0254.5176.0351Z"/>
              <path class="43dee6cb-29e2-48ee-97c5-9eb82448d8a8" d="M53.2618,55.29589c-.19728-.0147-.376-.2373-.73828-.7461a4.20006,4.20006,0,0,0-.29012-.3868.69362.69362,0,0,1-.2177-.5898.29908.29908,0,0,1,.1562-.2353.73719.73719,0,0,0,.14362-.2627,9.497,9.497,0,0,0,.01558-1.0323c-.002-.2041-.0049-.3847-.001-.4804a.40742.40742,0,0,0-.1484-.3428l-.0596-.0674a.19332.19332,0,0,1,.0059-.2598c.0029-.0048.0088-.0078.0146-.0146a.66513.66513,0,0,1-.5205-.4805,3.64363,3.64363,0,0,1-.01558-1.5547c.08788-.4892.41008-.4814.56248-.4775a.40943.40943,0,0,0,.0849-.001,1.55816,1.55816,0,0,0,.5821-.6357.44508.44508,0,0,0,.06252-.3955l-.01862-.0645c-.0342-.1035-.124-.3779.1299-.499a2.01263,2.01263,0,0,1,.38572-.1279l.01468-.0245a4.4416,4.4416,0,0,1,.4844-.8105l.0508-.0537c.2334-.2627.622-.7022,1.08-.667.08012.0068.2139.0195.3926.0352.3438.0322.85452.0791,1.4473.1259.7168.0576,1.3818.0987,1.9717.1241,1.76852.081,2.4794.1689,2.9257.1894a3.58849,3.58849,0,0,0,.501-.0137,1.62786,1.62786,0,0,1,.4561.0059c.33.0576.4043.0928,1.0322.5771a2.3377,2.3377,0,0,1,.9473,1.3311.80955.80955,0,0,1,.1347.1201,4.36665,4.36665,0,0,1,.4199.6748l.1163.2149a13.45937,13.45937,0,0,1,.8877,1.8662,1.6841,1.6841,0,0,1-.8321,1.5898.71814.71814,0,0,1-.498.166h0a.48112.48112,0,0,1-.127-.0234c.0098.0264.0205.0508.0283.0742l.0176.0469c.1133.2891.2783.7275.0264.9609a.51441.51441,0,0,0-.1641.4073c-.0097.1425-.0381.5351-.0586.8544-.0146.2208-.0263.4073-.0273.4522a1.49,1.49,0,0,1-.68358.7598,1.52951,1.52951,0,0,1-1.17382-.1397,1.71462,1.71462,0,0,0-.2149-.1045,1.884,1.884,0,0,1-.1826-.0898c-1.6055-.1211-6.707-.416-8.1152-.4414a2.98824,2.98824,0,0,1-.9356.4453.36955.36955,0,0,1-.0556.001Zm-.86628-1.6426a.34037.34037,0,0,0,.11628.2392,4.62775,4.62775,0,0,1,.3291.4317,4.20817,4.20817,0,0,0,.456.5801,3.20138,3.20138,0,0,0,.7041-.3467l.0508-.0469a.20026.20026,0,0,1,.1348-.0488c1.3105.0136,6.6767.3252,8.2578.4472v-.0019a.21384.21384,0,0,1,.0898.0312,1.45906,1.45906,0,0,0,.1738.087,1.92582,1.92582,0,0,1,.2569.1298,1.06225,1.06225,0,0,0,.4629.1407,1.02477,1.02477,0,0,0,.3779-.0352,1.38912,1.38912,0,0,0,.4326-.4492c-.0019-.0205.0108-.207.0244-.4238.0215-.3233.0489-.7159.0577-.8604a.88041.88041,0,0,1,.289-.6592c.0235-.0351.0215-.1592-.125-.54l-.0195-.0498a6.04933,6.04933,0,0,0-.6738-1.127,1.51069,1.51069,0,0,0-.1641-.207.1994.1994,0,0,1-.044-.1738.18982.18982,0,0,1,.1163-.1358.09685.09685,0,0,1,.03122-.0195.44948.44948,0,0,0,.03608-.2217,2.71029,2.71029,0,0,0-.497-.8926.09816.09816,0,0,0-.0479-.0195,1.48441,1.48441,0,0,1-.6894.1719c-.0186,0-.041.001-.0762.001a.19315.19315,0,0,1-.1943-.1827,2.20832,2.20832,0,0,1,.0068-.3349.19852.19852,0,0,1,.0703-.1328.246.246,0,0,1,.14162-.042c.43358.0459.80368.0859,1.08788.1172a.20109.20109,0,0,1,.1475.1015,7.257,7.257,0,0,1,.3681.7657c.0137.038.0332.0761.0528.1181a.99678.99678,0,0,1,.123.6211.25734.25734,0,0,1-.1191.1836c.0224.0342.0459.0674.0693.1025.083.1221.167.2442.2393.336.2031.2529.375.3877.5087.3984h0a.32665.32665,0,0,0,.2334-.0879,1.30215,1.30215,0,0,0,.6817-1.2353,13.63555,13.63555,0,0,0-.8418-1.7217l-.1211-.2207a3.71956,3.71956,0,0,0-.3701-.6055.39528.39528,0,0,0-.126-.0918.19712.19712,0,0,1-.1025-.209c.0322-.1699-.2334-.6611-.7959-1.0976-.5889-.4551-.61818-.459-.833-.4981-.0586-.0097-.084-.0127-.1104-.0156a1.74983,1.74983,0,0,0-.2744.0108,4.11629,4.11629,0,0,1-.5527.0156c-.4834-.0225-1.22068-.1104-2.9258-.1875-.5957-.0283-1.2647-.0713-1.9844-.1289-.5957-.0459-1.1064-.0928-1.4521-.1231-.1768-.0176-.3106-.0293-.3877-.0361-.2666-.0215-.586.3398-.7598.5352l-.0527.0585a4.354,4.354,0,0,0-.4288.7266l-.0576.1113a.18882.18882,0,0,1-.1396.1006,1.84089,1.84089,0,0,0-.32518.0899.5183.5183,0,0,1,.01558.0527.70793.70793,0,0,1,.02642.085.82452.82452,0,0,1-.10552.6943c-.2109.3477-.5576.7705-.8486.8193a.71551.71551,0,0,1-.1592.0049c-.1338-.001-.1455-.0019-.1738.1602a3.3336,3.3336,0,0,0,.0068,1.3691c.0811.2647.3652.2803.6797.1113a3.322,3.322,0,0,0,.7168-.6894.19609.19609,0,0,1,.2959-.002c.0361.0391.0713.0801.1074.1133a.188.188,0,0,1,.06152.1494.19226.19226,0,0,1-.07522.1465c-.1172.0938-.3769.2891-.6455.4922-.19328.1465-.4326.3281-.5869.4463a.75093.75093,0,0,1,.1699.5264c-.0039.0937,0,.2646.001.4619a5.52831,5.52831,0,0,1-.0351,1.1552.99049.99049,0,0,1-.28718.461Zm2.07818-.0987a.19349.19349,0,0,1-.1768-.2001c.001-.0733,0-.1495,0-.2315v-.1738a.19544.19544,0,0,1,.2051-.1934c.56052.0313,1.4111.0899,2.3633.1612a.1679.1679,0,0,1,.1338.0703.179.179,0,0,1,.0429.1416c-.0127.1513-.0302.289-.0478.4131a.19279.19279,0,0,1-.2051.164c-.9033-.0586-1.7275-.1113-2.3125-.1523l-.0029.0009Zm.2119-.3994.001.0244c.5254.0352,1.2041.0782,1.9453.128a.05106.05106,0,0,1,.0049-.0176c-.7588-.0566-1.4444-.1045-1.9512-.1348Zm5.2676.7549a.19686.19686,0,0,1-.18168-.1963c.002-.1074.003-.2265.00588-.3525a.19832.19832,0,0,1,.0664-.1416.266.266,0,0,1,.1445-.0469c1.0615.0938,1.8574.1748,2.3028.2363a.193.193,0,0,1,.1679.208l-.02148.2618a.19716.19716,0,0,1-.207.1777l-2.27642-.1465Zm-5.4551-1.6894a.19646.19646,0,0,1-.1807-.2041c.0127-.1846.0283-.3125.041-.4297a.206.206,0,0,1,.1983-.1856c.5703.0147,1.3769.0508,2.3994.1094l.0029.001a.19458.19458,0,0,1,.1807.2021c-.0068.1426-.0147.3057-.0234.4766a.208.208,0,0,1-.0645.1348.18455.18455,0,0,1-.1416.0468c-.9629-.0586-1.832-.1132-2.4082-.1494l-.0039-.0019Zm.2295-.4258a.44623.44623,0,0,0-.0049.0537c.5244.0342,1.2344.0771,2.0166.126.002-.0303.001-.0596.0049-.086-.8311-.0488-1.5069-.08-2.0166-.0937Zm5.2607.7676a.19175.19175,0,0,1-.1767-.2032c.0078-.1748.0175-.331.0293-.4697a.19115.19115,0,0,1,.206-.1777c.9697.0683,1.8154.1328,2.3389.1767a.1959.1959,0,0,1,.17772.1934c-.001.123-.00682.2754-.01562.4473a.19256.19256,0,0,1-.06538.1298.20261.20261,0,0,1-.13972.0508c-.3857-.0263-1.15228-.0742-2.0771-.1308l-.2725-.0157-.0049-.0009Zm.2256-.4502c-.0039.0244-.0029.0488-.0059.0732l.0831.0049c.7861.0488,1.4609.0918,1.8798.1172a.35376.35376,0,0,0,.003-.0459c-.4893-.0401-1.1797-.0947-1.96-.1494Zm-5.8213-1.3272a.19522.19522,0,0,1-.16108-.1181,3.51456,3.51456,0,0,0-.21972-.4297.196.196,0,0,1,.1699-.295c.46682.0088,2.3369.125,2.8994.1602a.19415.19415,0,0,1,.1826.2129c-.0156.1738-.03318.3281-.0459.4551a.19276.19276,0,0,1-.2041.1738c-1.0176-.0645-1.956-.123-2.61518-.1592Zm.1182-.4443c.0088.0215.0185.042.0273.0644.60742.0332,1.4258.084,2.3115.1387.004-.0205.00692-.042.0098-.0644-1.0547-.0674-1.8828-.1163-2.3486-.1387Zm5.5713.7998a.19213.19213,0,0,1-.1797-.1953c.0029-.126.0068-.2676.0117-.4356a.1954.1954,0,0,1,.21-.1865h0c.913.082,2.1582.2022,2.8632.2764a.1966.1966,0,0,1,.1651.1416.19177.19177,0,0,1-.0645.2041,3.0391,3.0391,0,0,0-.2636.2431l-.0606.0616a.19112.19112,0,0,1-.1504.0556c-.38078-.0234-1.0937-.0713-1.9629-.1289l-.5664-.0351-.0019-.001Zm.2138-.4131c-.0009.0146-.0009.0273-.0009.0381l.3828.0254c.3359.0224.6523.0439.9316.0605-.4433-.0429-.9033-.0849-1.3135-.124Zm-5.4765-1.5801c-.2823-.0195-.5088-.0381-.6631-.0517a.18689.18689,0,0,1-.1524-.0996.19229.19229,0,0,1-.0019-.1827l.124-.2568a.19646.19646,0,0,1,.1807-.1103l.6035.0195a.18885.18885,0,0,1,.1484.0752.19163.19163,0,0,1,.0362.1592c-.0225.1025-.0469.2089-.07328.3037a.18873.18873,0,0,1-.20212.1435Zm1.6299.124a.193.193,0,0,1-.1797-.1962l.00392-.3623a.2005.2005,0,0,1,.06148-.1387.20981.20981,0,0,1,.1406-.0547l.7217.0312a.178.178,0,0,1,.1397.0655.19773.19773,0,0,1,.0478.1406l-.02928.3857a.19608.19608,0,0,1-.208.1807l-.69822-.0508v-.001Zm3.7089.2598a.19238.19238,0,0,1-.17868-.206l.02638-.4014a.19366.19366,0,0,1,.0674-.1348.17165.17165,0,0,1,.1435-.0469c.2403.0215.4844.043.7276.0674a.192.192,0,0,1,.1758.2032c-.0069.1289-.0206.2802-.0391.3974a.19438.19438,0,0,1-.2031.167l-.7188-.0469-.001.001Zm.2217-.3838-.001.0078.3379.0215c-.1132-.0107-.2265-.0215-.3369-.0293Zm-5.8428-1.8125a.19563.19563,0,0,1-.1152-.0498,1.43037,1.43037,0,0,0-.165-.1299.19153.19153,0,0,1-.0869-.1826.196.196,0,0,1,.1279-.1601,2.234,2.234,0,0,1,.8828-.0899c.50882.0108,1.4395.0654,2.13282.1113l.00288-.0009a.18951.18951,0,0,1,.1768.2031l-.0166.3232a.18339.18339,0,0,1-.0664.1338.19294.19294,0,0,1-.1436.0489L56.711,47.5c-.8379-.0635-1.60648-.125-2.1719-.1651Zm5.7549.4346a.20209.20209,0,0,1-.1318-.0693.18456.18456,0,0,1-.0459-.1436c.0137-.1426.0264-.2725.04-.377a.189.189,0,0,1,.20222-.1699c.50188.0215.96188.0479,1.30078.0733a2.88815,2.88815,0,0,1,.5488.0722c.27342.0772.8232.2598,1.1465.3819a.19516.19516,0,0,1,.1211.2207.19192.19192,0,0,1-.1983.1552c-.124-.0058-.29288-.0068-.5371-.0087l-.2373-.0039c-.2812-.003-1.0029-.0459-2.208-.1319l-.001.001Zm1.3018-.3018c-.1524-.0117-.3272-.0244-.5176-.0351.1904.0137.36232.0254.5176.0351Z"/>
            </g>
          </g>
          <g>
            <path class="51351bc5-8fa4-4a8d-973a-27b99489deab" d="M57.876,58.7695c.0108-.1397.0303-1.8184.06152-2.0566a.55693.55693,0,0,1,.17088-.3545c.0469-.0664.0225-.0967.0323-.251.0127-.1553-.4756-.6035-.752-.8516-.2773-.247-.4551-.3174-.6308-.2451-.1739.0684-.3497.2383-.6661.3564h0a13.98476,13.98476,0,0,1-2.0019-.1416,2.98386,2.98386,0,0,1-.69338-.4101c-.08882-.1191-.23442-.0625-.36232.1269-.1435.2139-.7392.7745-.8203.9092-.082.1358-.3027.6133-.1826.708.1211.0928.0996-.0088.1865.1407.0889.1474.1201-.0899.1201.2793,0,.3652-.1855,2.8925-.2002,3.4433a13.75455,13.75455,0,0,1-.1709,1.7813c-.0605.248.01472.5693-.0976.542-.083-.0206-.1494-.0674-.2676-.0059-.1475.0732.71292.8057,1.1328,1.0361a1.26925,1.26925,0,0,0,.916.1973c.1338-.0586.2569-.0068.2686-.5147.0107-.5078.043-1.4531.0576-2.1855.00492-.2344.0273-.79.0547-1.4561.167.0069.36522.0098.6074.0118,1.55182.0127,1.3721.1816,1.5859.248a.93583.93583,0,0,0,.7784-.1045,5.32121,5.32121,0,0,0,.9082-.7334C58.002,59.1338,57.8623,58.9101,57.876,58.7695Zm-3.7099-1.7266c.0136-.2295.02442-.4228.0332-.5761.4843.0185,1.122.0664,1.3916.0888.1308.0108.30762.0196.4902.0303.0039.1484.0088.3145.0068.4971C55.6241,57.0713,54.89952,57.0517,54.1661,57.04289Zm1.81442,1.6309c-.50592-.0244-1.28322-.0527-1.89262-.0723.0059-.1308.0117-.2627.01762-.3926.64748.0088,1.418.0215,1.93068.0284C56.02152,58.3896,55.9991,58.538,55.98052,58.6738Zm8.27928-.419c.1943.0166.3232-1.0605.127-1.4423a2.78756,2.78756,0,0,0-.9795-1.21,1.22056,1.22056,0,0,0-.5371-.168.38613.38613,0,0,0-.4844.2442c-.0078.0244-.0186.0703-.03128.1308a6.66136,6.66136,0,0,1-2.29592-.3203c-.0742-.083-.1494-.1582-.2129-.2226-.1289-.1348-.15618-.1055-.3017-.1231-.2276-.0264-.9502.6182-1.1172.7598a.37061.37061,0,0,0-.0967.4873c.085.1758.1192.1084.0977.375a11.16782,11.16782,0,0,1-.1328,2.0498c-.1416.2168-.252.3476-.1524.4971a6.80688,6.80688,0,0,0,.5098.7177.68376.68376,0,0,0,.9756.1494c.0058-.0029.0088-.0068.0156-.0097a16.33034,16.33034,0,0,1,2.4326.1611c-.0254.4414-.05168.8194-.0703,1.0518a9.51055,9.51055,0,0,1-.2598,1.872,24.87915,24.87915,0,0,1-3.1113-.3144,3.57207,3.57207,0,0,0-.9902-.1768c-.085.0205-.08008.3174.2988.5596.375.2422,2.7275.668,3.36912.9561.64158.2929.69048.3671.90528.3427a2.63044,2.63044,0,0,0,1.3233-.4765c.4101-.3633.3115-.9219.3085-1.6006-.0029-.6778.1211-3.3223.1465-3.6465C64.02052,58.5761,64.0606,58.2392,64.2598,58.2548ZM60.42,56.8623c.5586.0429,1.3789.1279,1.8349.1884-.0039.1211-.0097.2774-.0166.4698-.4834-.0215-1.2871-.0742-1.8642-.1504C60.3907,57.1836,60.4063,57.0136,60.42,56.8623Zm-.1778,2.0185c.0108-.1318.0235-.2627.0342-.3887.5205.0264,1.3555.0733,1.9043.1241-.0068.1289-.0146.2558-.0225.3847C61.64852,58.9804,60.7823,58.9277,60.2422,58.8808Z"/>
            <path class="51351bc5-8fa4-4a8d-973a-27b99489deab" d="M66.06552,50.3593a13.30432,13.30432,0,0,0-.86532-1.7959,5.93659,5.93659,0,0,0-.5146-.8554.59739.59739,0,0,0-.1836-.1387c.0557-.3008-.3242-.8652-.8691-1.2861-.65238-.503-.667-.4912-.9463-.5411-.2784-.0488-.45408.0362-.9336.0127-.4756-.0224-1.2051-.1093-2.9248-.1875-1.7168-.08-3.4248-.2558-3.8194-.2871-.3925-.0312-.7675.4346-.9697.6582a5.22381,5.22381,0,0,0-.51558.877,1.76212,1.76212,0,0,0-.43172.1299c-.122.0576-.041.2051-.0058.3388a.62411.62411,0,0,1-.085.542c-.2431.4073-.542.7002-.7139.7305-.1728.0273-.4169-.0977-.4921.3203a3.43228,3.43228,0,0,0,.0127,1.4619c.1357.4356.58.4287.957.2237a3.57958,3.57958,0,0,0,.7744-.7344c.0391.0449.0791.0889.1201.1289l-.0224.0176c-.2237.1826-1.3067.9873-1.3682,1.0498a.68311.68311,0,0,1,.25492.5449c-.00982.2949.02928,1.3857-.02352,1.5645a.73377.73377,0,0,1-.2431.3779c-.0742.0381-.10738.2881.1152.5166.2217.2305.7315,1.1035.918,1.0732a2.93071,2.93071,0,0,0,.8349-.3974.50314.50314,0,0,0,.0577-.0498c1.3232.0156,6.7431.333,8.2451.4462.1211.0801.2734.1211.4375.2188a1.27412,1.27412,0,0,0,1.0078.123,1.38833,1.38833,0,0,0,.5537-.5918c.01072-.1113.0703-1.0683.0869-1.3076a.697.697,0,0,1,.2276-.5322c.1689-.1582-.01178-.5801-.09278-.7988A5.88523,5.88523,0,0,0,63.9512,51.04a2.83449,2.83449,0,0,0-.17868-.2266.34334.34334,0,0,0,.06538-.0341c.1514.2002.3213.4746.461.6484.3974.498.6933.5859,1.0097.3447A1.49409,1.49409,0,0,0,66.06552,50.3593ZM62.1504,47.3408c.252.0713.8047.2529,1.1348.3769-.165-.0048-.4053-.0058-.7813-.0107-.31338-.0039-1.1513-.0576-2.1972-.1318.0137-.1426.0283-.2725.039-.3731A15.50767,15.50767,0,0,1,62.1504,47.3408Zm-1.2597,2.041c-.2266-.0156-.4649-.0303-.7178-.0449.0088-.1348.01762-.2666.0264-.4014q.36033.03075.7265.0664C60.918,49.122,60.9043,49.2714,60.8907,49.3818ZM54.4913,53.122c0-.0605.0009-.1172,0-.1738.5595.0322,1.4101.0918,2.3593.1621-.0146.1475-.0322.2832-.0498.4024-.90228-.0596-1.7256-.1133-2.3105-.1514C54.4913,53.2851,54.4922,53.208,54.4913,53.122Zm.0615-1.5263c.6152.0156,1.4668.0556,2.3935.1103-.00678.1426-.0156.3028-.0224.4727-.9639-.0586-1.834-.1123-2.4121-.1504C54.5264,51.8408,54.5391,51.7138,54.5528,51.5957Zm-.374-1.461c.3652.0078,1.6572.085,2.8896.1631-.0146.1719-.0293.3272-.042.4531-1.0176-.0654-1.957-.124-2.6172-.1591A3.80976,3.80976,0,0,0,54.1788,50.1347Zm8.1904,1.9483c.001.1191-.0039.2656-.0156.4326-.4209-.0274-1.3018-.084-2.3477-.1475q.0117-.25635.0264-.4648C60.9991,51.9726,61.8457,52.0371,62.3692,52.083Zm-5.2071-2.9532q-.3588-.0249-.7001-.0507l.0068-.3643c.2383.0107.4834.0205.72072.0303C57.1807,48.872,57.1719,49.00089,57.1621,49.1298Zm2.8086,4.2344c.9737.0889,1.8164.1699,2.2959.2344-.0068.0898-.0156.1787-.0224.2637-.4248-.0264-1.2715-.0811-2.2793-.1455C59.9649,53.6084,59.9688,53.4912,59.9707,53.3642Zm2.6573-2.2519c-.4639-.0293-1.4121-.0909-2.5313-.1641.002-.1221.0059-.2656.0117-.4316.9102.08,2.1534.2021,2.8565.2773A4.0444,4.0444,0,0,0,62.628,51.1123Zm-7.4502-4.1944c.4883.0098,1.3828.0606,2.124.1094-.0049.0938-.0127.2002-.0195.3203-1.05178-.0791-2.0381-.1572-2.7295-.207a1.84023,1.84023,0,0,0-.1905-.1455A2.04727,2.04727,0,0,1,55.1778,46.91789Zm-.98828,1.9561c.03708-.0742.07618-.1533.11228-.2344.1768.0068.3818.0117.6035.0205-.0224.1006-.04878.2022-.0713.2959-.2822-.0215-.5078-.039-.6601-.0527A.1428.1428,0,0,1,54.18952,48.874Zm9.68358,1.8721a.575.575,0,0,0,.0879-.3702,2.768,2.768,0,0,0-.544-1.0009.33542.33542,0,0,0-.2607-.0909s-.1231.1446-.63578.1758H62.4551a1.94443,1.94443,0,0,1,.0059-.3056c.4306.0449.8027.0859,1.084.1181a6.63636,6.63636,0,0,1,.3554.7364,1.09915,1.09915,0,0,1,.16512.6484C64.0567,50.7168,63.98152,50.7314,63.8731,50.7461Z"/>
          </g>
        </g>
        <rect class="0bf2de84-ad7b-44a3-9b12-1bd9129bb6cf" x="39.8096" y="42.68447" width="39.56789" height="5.45475" transform="translate(3.74805 -4.5372) rotate(4.50157)"/>
        <g>
          <rect class="d628cdf1-0d0e-4a99-bdf8-7406124d966b" x="78.17152" y="45.18776" width="22.47246" height="34.31967" transform="translate(5.15949 -6.81309) rotate(4.49349)"/>
          <g>
            <rect class="de385976-92f4-4b2f-8183-3c3268042c7e" x="79.78316" y="66.69294" width="2.26822" height="12.26931" transform="translate(5.95031 -6.11174) rotate(4.49048)"/>
            <rect class="de385976-92f4-4b2f-8183-3c3268042c7e" x="95.02096" y="67.89164" width="2.26678" height="12.26837" transform="translate(6.13199 -7.34651) rotate(4.51942)"/>
            <rect class="de385976-92f4-4b2f-8183-3c3268042c7e" x="91.97214" y="67.65298" width="2.26821" height="12.26863" transform="translate(6.104 -7.10737) rotate(4.51962)"/>
            <rect class="de385976-92f4-4b2f-8183-3c3268042c7e" x="88.92528" y="67.41222" width="2.26574" height="12.26971" transform="translate(6.04817 -6.83928) rotate(4.50008)"/>
            <rect class="de385976-92f4-4b2f-8183-3c3268042c7e" x="85.87784" y="67.17247" width="2.26782" height="12.26971" transform="translate(6.0506 -6.63203) rotate(4.52204)"/>
            <rect class="de385976-92f4-4b2f-8183-3c3268042c7e" x="82.83149" y="66.9337" width="2.26627" height="12.26875" transform="translate(5.98672 -6.35767) rotate(4.49642)"/>
          </g>
          <g>
            <rect class="de385976-92f4-4b2f-8183-3c3268042c7e" x="81.70362" y="44.78907" width="2.26716" height="7.27091" transform="translate(4.00359 -6.27646) rotate(4.44649)"/>
            <rect class="de385976-92f4-4b2f-8183-3c3268042c7e" x="96.94135" y="45.98875" width="2.26581" height="7.27" transform="translate(4.221 -7.58327) rotate(4.52529)"/>
            <rect class="de385976-92f4-4b2f-8183-3c3268042c7e" x="93.89252" y="45.74761" width="2.26825" height="7.27228" transform="translate(4.16019 -7.29169) rotate(4.49257)"/>
            <rect class="de385976-92f4-4b2f-8183-3c3268042c7e" x="90.84513" y="45.50825" width="2.26685" height="7.27145" transform="translate(4.13425 -7.05712) rotate(4.49482)"/>
            <rect class="de385976-92f4-4b2f-8183-3c3268042c7e" x="87.79831" y="45.26759" width="2.26673" height="7.27232" transform="translate(4.081 -6.78092) rotate(4.46905)"/>
            <rect class="de385976-92f4-4b2f-8183-3c3268042c7e" x="84.75092" y="45.02878" width="2.26636" height="7.27149" transform="translate(4.12779 -6.65473) rotate(4.54649)"/>
          </g>
          <g>
            <rect class="4ebc8616-64da-4e87-a005-bdbd7308b147" x="79.01358" y="51.15421" width="22.27173" height="3.51573" transform="translate(4.42842 -6.90862) rotate(4.49912)"/>
            <rect class="4ebc8616-64da-4e87-a005-bdbd7308b147" x="77.88026" y="65.56828" width="22.27032" height="3.51913" transform="matrix(0.99692, 0.07849, -0.07849, 0.99692, 5.55904, -6.77894)"/>
            <rect class="4ebc8616-64da-4e87-a005-bdbd7308b147" x="76.91788" y="77.78412" width="22.27225" height="3.5181" transform="translate(6.51524 -6.66619) rotate(4.50194)"/>
          </g>
          <g>
            <g>
              <rect class="4ebc8616-64da-4e87-a005-bdbd7308b147" x="98.83869" y="46.32846" width="5.84663" height="32.70927" transform="matrix(0.99691, 0.07851, -0.07851, 0.99691, 5.23561, -7.7962)"/>
              <rect class="d628cdf1-0d0e-4a99-bdf8-7406124d966b" x="97.26684" y="77.59054" width="6.18371" height="5.84371" transform="translate(6.62761 -7.62725) rotate(4.50085)"/>
              <rect class="43dee6cb-29e2-48ee-97c5-9eb82448d8a8" x="101.16896" y="53.14939" width="2.48978" height="2.48872" transform="translate(4.65831 -7.98518) rotate(4.56887)"/>
              <rect class="43dee6cb-29e2-48ee-97c5-9eb82448d8a8" x="100.03425" y="67.5649" width="2.48971" height="2.49024" transform="translate(5.73957 -7.76983) rotate(4.52139)"/>
            </g>
            <g>
              <rect class="4ebc8616-64da-4e87-a005-bdbd7308b147" x="74.22925" y="44.39282" width="5.84676" height="32.7094" transform="translate(5.03005 -5.89423) rotate(4.52237)"/>
              <rect class="d628cdf1-0d0e-4a99-bdf8-7406124d966b" x="72.65898" y="75.65259" width="6.18266" height="5.84516" transform="translate(6.40192 -5.70393) rotate(4.50236)"/>
              <rect class="43dee6cb-29e2-48ee-97c5-9eb82448d8a8" x="76.56069" y="51.21095" width="2.48952" height="2.4911" transform="translate(4.31105 -5.88684) rotate(4.45633)"/>
              <rect class="43dee6cb-29e2-48ee-97c5-9eb82448d8a8" x="75.42541" y="65.62646" width="2.49058" height="2.49218" transform="translate(5.51003 -5.83572) rotate(4.52122)"/>
            </g>
          </g>
          <rect class="5cd58b65-6755-4fec-8ec0-e491ffeda7a9" x="75.36756" y="45.23503" width="30.53209" height="3.04605" transform="translate(3.94626 -6.9641) rotate(4.49816)"/>
        </g>
        <g>
          <rect class="d628cdf1-0d0e-4a99-bdf8-7406124d966b" x="15.57381" y="40.26005" width="22.47114" height="34.3221" transform="translate(4.58943 -1.92702) rotate(4.50153)"/>
          <g>
            <rect class="de385976-92f4-4b2f-8183-3c3268042c7e" x="17.18694" y="61.76627" width="2.26387" height="12.27066" transform="translate(5.41462 -1.23369) rotate(4.5254)"/>
            <rect class="de385976-92f4-4b2f-8183-3c3268042c7e" x="32.42331" y="62.96595" width="2.26722" height="12.27019" transform="translate(5.48679 -2.40482) rotate(4.46935)"/>
            <rect class="de385976-92f4-4b2f-8183-3c3268042c7e" x="29.37645" y="62.72522" width="2.26576" height="12.26972" transform="translate(5.5236 -2.19091) rotate(4.52165)"/>
            <rect class="de385976-92f4-4b2f-8183-3c3268042c7e" x="26.32857" y="62.48648" width="2.26822" height="12.26918" transform="translate(5.43383 -1.93231) rotate(4.47176)"/>
            <rect class="de385976-92f4-4b2f-8183-3c3268042c7e" x="23.28216" y="62.24577" width="2.26486" height="12.27011" transform="translate(5.3818 -1.68887) rotate(4.45212)"/>
            <rect class="de385976-92f4-4b2f-8183-3c3268042c7e" x="20.23384" y="62.00603" width="2.26726" height="12.27054" transform="translate(5.41035 -1.466) rotate(4.4985)"/>
          </g>
          <g>
            <rect class="de385976-92f4-4b2f-8183-3c3268042c7e" x="19.10739" y="39.86324" width="2.26624" height="7.27102" transform="translate(3.47574 -1.45414) rotate(4.5006)"/>
            <rect class="de385976-92f4-4b2f-8183-3c3268042c7e" x="34.34326" y="41.06151" width="2.26768" height="7.27242" transform="translate(3.59461 -2.6311) rotate(4.47374)"/>
            <rect class="de385976-92f4-4b2f-8183-3c3268042c7e" x="31.29532" y="40.82127" width="2.26737" height="7.27141" transform="translate(3.60584 -2.41827) rotate(4.52178)"/>
            <rect class="de385976-92f4-4b2f-8183-3c3268042c7e" x="28.24898" y="40.58202" width="2.26624" height="7.27091" transform="translate(3.55848 -2.16823) rotate(4.49832)"/>
            <rect class="de385976-92f4-4b2f-8183-3c3268042c7e" x="25.2022" y="40.34279" width="2.26665" height="7.27038" transform="translate(3.50746 -1.91866) rotate(4.4698)"/>
            <rect class="de385976-92f4-4b2f-8183-3c3268042c7e" x="22.15378" y="40.10205" width="2.26674" height="7.27095" transform="translate(3.48554 -1.68448) rotate(4.47748)"/>
          </g>
          <g>
            <rect class="4ebc8616-64da-4e87-a005-bdbd7308b147" x="16.41636" y="46.22698" width="22.27234" height="3.51763" transform="translate(3.85131 -2.01451) rotate(4.50167)"/>
            <rect class="4ebc8616-64da-4e87-a005-bdbd7308b147" x="15.28305" y="60.64195" width="22.27036" height="3.51971" transform="translate(4.97975 -1.88116) rotate(4.50207)"/>
            <rect class="4ebc8616-64da-4e87-a005-bdbd7308b147" x="14.31929" y="72.85785" width="22.27273" height="3.51859" transform="translate(5.93491 -1.76773) rotate(4.50154)"/>
          </g>
          <g>
            <g>
              <rect class="4ebc8616-64da-4e87-a005-bdbd7308b147" x="36.24196" y="41.40212" width="5.84574" height="32.70985" transform="translate(4.6762 -2.90838) rotate(4.52258)"/>
              <rect class="d628cdf1-0d0e-4a99-bdf8-7406124d966b" x="34.66919" y="72.66286" width="6.18217" height="5.84557" transform="matrix(0.99691, 0.07851, -0.07851, 0.99691, 6.05098, -2.73133)"/>
              <rect class="43dee6cb-29e2-48ee-97c5-9eb82448d8a8" x="38.57142" y="48.22225" width="2.49107" height="2.489" transform="translate(4.0234 -2.98486) rotate(4.52135)"/>
              <rect class="43dee6cb-29e2-48ee-97c5-9eb82448d8a8" x="37.43523" y="62.63771" width="2.49191" height="2.49157" transform="translate(5.10084 -2.82254) rotate(4.47368)"/>
            </g>
            <g>
              <rect class="4ebc8616-64da-4e87-a005-bdbd7308b147" x="11.63171" y="39.46564" width="5.84804" height="32.70981" transform="matrix(0.99691, 0.0785, -0.0785, 0.99691, 4.42684, -0.97037)"/>
              <rect class="d628cdf1-0d0e-4a99-bdf8-7406124d966b" x="10.05981" y="70.72574" width="6.18512" height="5.84527" transform="translate(5.81829 -0.80483) rotate(4.49951)"/>
              <rect class="43dee6cb-29e2-48ee-97c5-9eb82448d8a8" x="13.96308" y="46.28568" width="2.49045" height="2.48958" transform="translate(3.73736 -1.03758) rotate(4.45432)"/>
              <rect class="43dee6cb-29e2-48ee-97c5-9eb82448d8a8" x="12.82719" y="60.7017" width="2.49022" height="2.49105" transform="translate(4.92514 -0.91626) rotate(4.51954)"/>
            </g>
          </g>
          <rect class="5cd58b65-6755-4fec-8ec0-e491ffeda7a9" x="12.77133" y="40.30878" width="30.53164" height="3.04498" transform="translate(3.37122 -2.07236) rotate(4.50359)"/>
        </g>
        <g>
          <rect class="43dee6cb-29e2-48ee-97c5-9eb82448d8a8" x="14.90921" y="33.50829" width="90.59327" height="8.24562" transform="translate(3.13782 -4.60732) rotate(4.49963)"/>
          <rect class="d628cdf1-0d0e-4a99-bdf8-7406124d966b" x="52.35473" y="32.57151" width="15.07285" height="9.33149" transform="translate(3.109 -4.58799) rotate(4.50381)"/>
          <rect class="4ebc8616-64da-4e87-a005-bdbd7308b147" x="12.38997" y="40.27035" width="94.21671" height="3.89669" transform="matrix(0.99692, 0.07846, -0.07846, 0.99692, 3.49606, -4.53828)"/>
          <g>
            <g>
              <rect class="4ebc8616-64da-4e87-a005-bdbd7308b147" x="103.5278" y="34.88213" width="2.9206" height="10.56619" transform="translate(3.48389 -8.13222) rotate(4.51059)"/>
              <rect class="4ebc8616-64da-4e87-a005-bdbd7308b147" x="89.86279" y="33.80643" width="2.92441" height="10.56918" transform="translate(3.33171 -7.01261) rotate(4.47906)"/>
            </g>
            <g>
              <rect class="4ebc8616-64da-4e87-a005-bdbd7308b147" x="27.09318" y="28.86704" width="2.92113" height="10.56762" transform="matrix(0.99691, 0.07854, -0.07854, 0.99691, 2.77036, -2.13708)"/>
              <rect class="4ebc8616-64da-4e87-a005-bdbd7308b147" x="13.42916" y="27.78984" width="2.92254" height="10.56821" transform="translate(2.63285 -1.06346) rotate(4.48656)"/>
            </g>
          </g>
          <rect class="5cd58b65-6755-4fec-8ec0-e491ffeda7a9" x="13.37045" y="33.48763" width="93.29971" height="4.20384" transform="translate(2.97615 -4.59773) rotate(4.49829)"/>
        </g>
        <g>
          <path class="d628cdf1-0d0e-4a99-bdf8-7406124d966b" d="M113.5752,8.04c-1.7236.6973-4.3291,1.71089-7.26268,2.6797-2.956.9775-3.93162.6533-8.77932.3945-3.6064-.1894-67.1435-5.1894-70.7324-5.5664-4.8291-.50291-5.8437-.33491-8.61128-1.7637C15.4414,2.3681,13.0293.958,11.4366,0c-.1495,2.2451-.3819,5.5673-.6953,8.5068l102.1875,8.043C113.0811,13.5976,113.3702,10.2793,113.5752,8.04Z"/>
          <path class="9b9a08a5-d6ba-48fb-bb04-3a63fc81512b" d="M114.7579,30.0615c-1.3936-1.9951-1.7237-5.791-1.752-9.1924-.02538-3.3955.4512-8.8896.7471-12.1348-1.73148.7002-4.3467,1.7198-7.294,2.6924-2.9707.9834-3.9492.6543-8.8203.3965-3.6221-.1914-67.4453-5.2139-71.0527-5.5918-4.85348-.5068-5.8711-.3369-8.6494-1.77051C15.1748,3.0361,12.752,1.622,11.1504.6562c-.21188,3.2539-.6035,8.7568-1.1631,12.1074-.5537,3.3506-1.4755,7.0528-3.165,8.8047C5.1329,23.3213,3.8907,24.1875,0,24.6367c1.6123,1.8867,6.667,4.7578,9.6114,5.7021,2.5097.8047,6.9179,1.0469,12.081,1.4532,2.2207.1728,74.5586,5.8671,76.7774,6.04289,5.166.4063,9.5586.8565,12.1601.4541,3.05762-.4726,8.5-2.5176,10.3858-4.1279C117.2422,33.1084,116.1504,32.0595,114.7579,30.0615Z"/>
          <g class="50c3b9b7-7a30-4420-a7e8-296bfc2e059f">
            <g>
              <path class="d628cdf1-0d0e-4a99-bdf8-7406124d966b" d="M1.9493,26.1914l-.0977-.8311A9.10341,9.10341,0,0,0,8.544,21.67089c1.123-1.47369,2.3974-5.16019,2.9658-8.57229.38572-2.3281.7725-6.3633,1.1406-11.9844l.835.05469c-.3721,5.64941-.7598,9.71-1.1514,12.06841-.5107,3.0732-1.75,7.1328-3.125,8.9394A10.096,10.096,0,0,1,1.9493,26.1914Z"/>
              <path class="d628cdf1-0d0e-4a99-bdf8-7406124d966b" d="M3.97952,27.3574l-.09472-.8311c3.4043-.3906,6.4531-3.2851,7.3232-4.5449,1.3946-2.02251,2.4092-5.8643,2.85452-8.541.49128-2.958.917-8.72851,1.12308-11.9053l.83492.0537c-.20992,3.1934-.63472,8.99509-1.13372,11.9883-.4561,2.75979-1.5186,6.7432-2.9922,8.8789C10.92,23.8701,7.7041,26.9296,3.97952,27.3574Z"/>
              <path class="d628cdf1-0d0e-4a99-bdf8-7406124d966b" d="M6.1309,28.4218l-.0957-.831c2.0986-.2403,5.4551-2.04491,7.8584-5.4297,1.165-1.6836,2.0605-4.4629,2.7324-8.49221.5059-3.05179.9746-9.82229,1.10652-11.82419l.83388.0557c-.1298,2.0107-.6015,8.8144-1.1171,11.9082-.6905,4.15129-1.6289,7.04-2.8711,8.833C13.1954,24.5888,9.8623,27.9912,6.1309,28.4218Z"/>
              <path class="d628cdf1-0d0e-4a99-bdf8-7406124d966b" d="M8.8516,29.3623l-.0977-.8301c3.43462-.3955,6.502-4.11131,7.6612-5.6885,1.6679-2.2705,2.1631-5.3984,2.5576-7.9072.04982-.3194.1006-.6309.1475-.9297.5146-3.0908,1.0361-10.8652,1.0937-11.7441l.835.0537c-.0586.8799-.583,8.6972-1.1035,11.8281-.04988.2988-.0977.6045-.1475.9209-.4111,2.6006-.9199,5.8369-2.708,8.27249C15.8653,25.0058,12.6094,28.9296,8.8516,29.3623Z"/>
              <path class="d628cdf1-0d0e-4a99-bdf8-7406124d966b" d="M11.6368,30.1972l-.0967-.832c2.7051-.3096,6.0586-4.0449,7.5732-6.5957,1.3535-2.2793,2.0254-5.5361,2.5059-8.4258.40532-2.4287.8808-8.6924,1.0752-11.6641l.8359.0547c-.1963,2.9864-.6787,9.2842-1.0859,11.7471-.4922,2.9639-1.1895,6.3193-2.6114,8.7139C18.3399,25.70989,14.794,29.833,11.6368,30.1972Z"/>
              <path class="d628cdf1-0d0e-4a99-bdf8-7406124d966b" d="M14.7891,30.6103l-.0967-.8271c1.12312-.1289,2.5879-1.0694,4.127-2.6426a17.54585,17.54585,0,0,0,3.0078-4.042,37.47936,37.47936,0,0,0,2.4014-8.4092c.371-2.2402.874-8.7724,1.0576-11.584l.8349.0537c-.1465,2.2461-.6611,9.2149-1.0703,11.669a38.03312,38.03312,0,0,1-2.4726,8.63479C21.4854,25.71089,17.7481,30.2705,14.7891,30.6103Z"/>
              <path class="d628cdf1-0d0e-4a99-bdf8-7406124d966b" d="M17.9551,30.8593l-.0957-.8281c1.0283-.1182,2.2969-1.0019,3.6709-2.5537a23.74,23.74,0,0,0,2.86822-4.1094c1.27438-2.3427,1.97358-6.5498,2.27238-8.3476.3604-2.1719.8907-9.1944,1.044-11.5039l.832.0556c-.15138,2.3203-.6846,9.3809-1.0537,11.5869-.4736,2.8594-1.1738,6.4209-2.3603,8.6075a24.75716,24.75716,0,0,1-2.9776,4.2656C20.6221,29.7666,19.2071,30.7158,17.9551,30.8593Z"/>
              <path class="d628cdf1-0d0e-4a99-bdf8-7406124d966b" d="M21.10452,31.332l-.09762-.83111c2.0957-.24019,4.7832-4.20989,5.9414-6.81729a39.74088,39.74088,0,0,0,2.1621-8.3291c.3476-2.085.9023-9.5118,1.0273-11.4258l.834.0566c-.126,1.9219-.6846,9.3877-1.0381,11.5068a40.49481,40.49481,0,0,1-2.2226,8.5293C26.5264,26.6904,23.6846,31.0351,21.10452,31.332Z"/>
              <path class="d628cdf1-0d0e-4a99-bdf8-7406124d966b" d="M23.8936,31.3847l-.0957-.831c.876-.1016,2.0234-.9707,3.22462-2.4483a17.236,17.236,0,0,0,2.48138-4.1201,50.32237,50.32237,0,0,0,2.0489-8.2988c.3076-1.8408.873-9.2442,1.01072-11.3438l.835.0537c-.14062,2.1104-.709,9.5557-1.02052,11.4278a51.47464,51.47464,0,0,1-2.0967,8.4668C29.3457,26.6796,26.4121,31.0966,23.8936,31.3847Z"/>
              <path class="d628cdf1-0d0e-4a99-bdf8-7406124d966b" d="M26.8243,31.7822l-.09378-.8291c1.74018-.20121,4.17188-4.0381,5.34278-6.6973a33.22705,33.22705,0,0,0,1.7939-7.4414c.0469-.2978.0899-.5664.1289-.7949.2832-1.7139.8789-9.5361.9932-11.2647l.835.0567c-.1192,1.7978-.712,9.5742-1.0039,11.3447-.0391.2276-.0801.4912-.126.7871a33.85022,33.85022,0,0,1-1.8555,7.6485C31.7969,26.957,29.1993,31.5088,26.8243,31.7822Z"/>
              <path class="d628cdf1-0d0e-4a99-bdf8-7406124d966b" d="M29.5918,32.1123l-.0957-.8301c1.3106-.1504,3.8506-3.0039,5.1582-6.4541a37.95907,37.95907,0,0,0,1.7627-8.3213l.0186-.1406c.21092-1.6094.87692-9.6514.9805-11.19831l.8339.05281c-.10248,1.5537-.7754,9.6318-.9873,11.2539l-.0175.1396a38.80046,38.80046,0,0,1-1.80768,8.5108C34.4121,27.8242,31.7422,31.8642,29.5918,32.1123Z"/>
              <path class="d628cdf1-0d0e-4a99-bdf8-7406124d966b" d="M32.8829,32.2041l-.0948-.8301c1.3301-.1543,3.2217-3.0488,4.3203-5.6934a33.77376,33.77376,0,0,0,1.7657-8.9648c.0312-.3477.0966-1.08691.1826-2.0313.2685-3.0107.71582-8.0507.7842-9.1054l.8339.0537c-.06828,1.0674-.5195,6.1113-.788,9.1279-.084.9424-.1504,1.6797-.1788,2.0273a34.628,34.628,0,0,1-1.8271,9.21289C36.9668,28.1963,34.8868,31.9736,32.8829,32.2041Z"/>
              <path class="d628cdf1-0d0e-4a99-bdf8-7406124d966b" d="M35.8829,32.4404l-.0997-.8301c2.2725-.27241,3.5752-4.4111,3.919-5.6758a48.8658,48.8658,0,0,0,1.57032-8.6894c.21-2.2383.91408-10.0059.99408-11.2559l.833.05669c-.081,1.25581-.78608,9.03711-.99408,11.27731a49.34179,49.34179,0,0,1-1.59962,8.834,15.84873,15.84873,0,0,1-1.56838,3.8525A4.378,4.378,0,0,1,35.8829,32.4404Z"/>
              <path class="d628cdf1-0d0e-4a99-bdf8-7406124d966b" d="M38.9073,32.6787l-.09478-.8301c1.07038-.125,2.61428-2.083,3.36718-5.4746a76.55733,76.55733,0,0,0,1.5791-8.99611c.0918-.98729.8604-9.87789.9346-10.97359l.833.05459C45.4561,7.54,44.7071,16.1923,44.5909,17.456a77.78858,77.78858,0,0,1-1.5948,9.0996C42.2383,29.9716,40.5577,32.4882,38.9073,32.6787Z"/>
              <path class="d628cdf1-0d0e-4a99-bdf8-7406124d966b" d="M42.045,32.8574l-.1924-.81351C43.169,31.7324,44.2549,29.3261,44.75,27.082a89.25546,89.25546,0,0,0,1.4502-9.3652c.03032-.4073.1846-2.2002.3614-4.2764.2441-2.85451.5205-6.0869.5576-6.624l.834.0547c-.0362.5429-.3135,3.7832-.5586,6.6416-.1778,2.07419-.33008,3.8623-.3614,4.2656a89.78515,89.78515,0,0,1-1.4658,9.4805C45.3809,28.0976,44.3448,32.3125,42.045,32.8574Z"/>
              <path class="d628cdf1-0d0e-4a99-bdf8-7406124d966b" d="M45.2657,33l-.1719-.8184c1.1338-.2334,1.8769-3.748,2.1572-5.0703.042-.1943.0772-.3643.10652-.4981.29978-1.3242,1.09958-6.2246,1.28608-8.5644.0215-.292.1416-1.7188.2881-3.4541.2519-2.9815.5957-7.0654.6269-7.5567l.833.0557c-.0312.4971-.3632,4.419-.6289,7.5713-.1455,1.7344-.2656,3.1563-.2861,3.4473-.1865,2.373-1,7.3427-1.3027,8.68359-.02838.13471-.0655.29881-.1045.48731C47.47952,30.0742,46.7286,32.6972,45.2657,33Z"/>
              <path class="d628cdf1-0d0e-4a99-bdf8-7406124d966b" d="M48.3223,33.3291l-.3047-.7784c.79592-.3144,1.4131-3.1816,1.7451-4.7236.0703-.332.13482-.6387.1983-.9023.3213-1.3838.8076-5.4053,1.123-8.5528.0596-.6015.8711-10.4433.9121-11.0849l.834.0527c-.043.6465-.8545,10.5137-.914,11.1162-.3194,3.1738-.8125,7.2393-1.14158,8.6592-.06162.26069-.128.5605-.19632.88769C50.0098,30.6552,49.4454,32.8867,48.3223,33.3291Z"/>
              <path class="d628cdf1-0d0e-4a99-bdf8-7406124d966b" d="M51.3789,33.6748l-.56338-.6162c.76748-.7012,1.45018-4.7608,1.706-6.2911l.03228-.18261c.3154-1.874.915-7.01069.9824-7.99409.0156-.2383.2177-2.7256.4345-5.3623.2276-2.76661.4629-5.6221.4776-5.8604l.834.0547c-.0186.2442-.251,3.1055-.4776,5.874-.207,2.5166-.4218,5.1172-.4365,5.3516-.0684.9932-.6719,6.1846-.9893,8.0752l-.0322.1836C52.8711,29.749,52.2832,32.8505,51.3789,33.6748Z"/>
              <path class="d628cdf1-0d0e-4a99-bdf8-7406124d966b" d="M54.1944,34.1045l-.0967-.8282a.32035.32035,0,0,0-.2285.1201,42.96247,42.96247,0,0,0,1.2471-6.5361c.2285-1.6191.8066-6.9023.86422-7.9775.00878-.1846.252-3.1436.56248-6.9922.1699-2.1026.332-4.0908.3399-4.21971l.833.05561c-.0079.1338-.1553,1.94139-.3409,4.23239-.2441,3.02151-.5507,6.78231-.56048,6.96591-.05862,1.12109-.63482,6.3769-.86912,8.0507-.1094.7676-.3624,2.4708-.6407,3.9903C54.7627,33.9091,54.56352,34.0615,54.1944,34.1045Z"/>
              <path class="d628cdf1-0d0e-4a99-bdf8-7406124d966b" d="M57.4776,34.0781l-.7764-.3145a54.94417,54.94417,0,0,0,.9844-6.67771c.167-1.36039.4512-4.63869.623-6.59669.0977-1.1338.1202-1.40531.12892-1.4638.04108-.3448.88378-11.10451.88968-11.19051l.834.05471c-.0049.0986-.8682,11.083-.8985,11.2686-.0078.0664-.0605.6845-.124,1.4033-.1709,1.9629-.4551,5.251-.626,6.6279C57.836,32.75089,57.5957,33.7841,57.4776,34.0781Z"/>
              <rect class="d628cdf1-0d0e-4a99-bdf8-7406124d966b" x="48.23457" y="20.69056" width="25.85173" height="0.83508" transform="matrix(0.07709, -0.99702, 0.99702, 0.07709, 35.40047, 80.45938)"/>
              <path class="d628cdf1-0d0e-4a99-bdf8-7406124d966b" d="M118.8506,35.3916a10.10639,10.10639,0,0,1-6.5488-5.1016c-1.0742-1.998-1.6611-6.2012-1.6855-9.3184-.0186-2.3906.2343-6.4589.7529-12.0986l.832.0762c-.5156,5.6123-.7666,9.6553-.75,12.0146.0274,3.459.7119,7.2998,1.5899,8.9317a9.22,9.22,0,0,0,6.0332,4.69039Z"/>
              <path class="d628cdf1-0d0e-4a99-bdf8-7406124d966b" d="M116.6612,36.2265c-3.6104-1.0058-6.3116-4.5322-7.05468-6.081-1.12012-2.3399-1.542-6.4385-1.56152-9.2383-.0254-3.0342.4619-8.8301.7529-12.0156l.831.0761c-.291,3.169-.77438,8.9356-.7519,11.9346.02152,2.7129.4219,6.666,1.4844,8.8838.66112,1.3799,3.2216,4.71479,6.5244,5.63479Z"/>
              <path class="d628cdf1-0d0e-4a99-bdf8-7406124d966b" d="M114.3682,36.9414a10.4518,10.4518,0,0,1-4.5371-2.9463,17.1584,17.1584,0,0,1-2.8984-4.0811c-.9483-1.9677-1.4229-4.9687-1.4571-9.1777-.0244-3.1328.5742-9.9297.75692-11.9365l.83388.07709c-.1816,1.99711-.7773,8.75691-.75388,11.85261.03028,4.083.47858,6.9668,1.37018,8.8173,1.84182,3.7159,4.874,6.0225,6.9101,6.5889Z"/>
              <path class="d628cdf1-0d0e-4a99-bdf8-7406124d966b" d="M111.5342,37.4443c-3.6455-1.0147-6.2441-5.4033-7.1963-7.2393-1.3828-2.6845-1.3789-5.9599-1.3799-8.5947.002-.3223.002-.6328-.0019-.9346-.0234-3.1757.6816-10.9746.7607-11.8525l.833.0772c-.0781.874-.7802,8.6328-.7568,11.77049.001.30171.001.61621,0,.93941-.001,2.543-.0019,5.708,1.2891,8.21.89742,1.7402,3.3486,5.89059,6.6748,6.8193Z"/>
              <path class="d628cdf1-0d0e-4a99-bdf8-7406124d966b" d="M108.6553,37.832c-3.0654-.8535-5.9199-5.4795-7.001-8.1982-1.0312-2.58791-1.1953-6.0098-1.21678-9.0147-.01952-2.4941.49218-8.791.76568-11.7705l.832.0742c-.2705,2.9678-.7803,9.2266-.76168,11.6914.02238,2.9268.17668,6.249,1.15718,8.7129,1.0977,2.75679,3.8223,6.96879,6.4482,7.7002Z"/>
              <path class="d628cdf1-0d0e-4a99-bdf8-7406124d966b" d="M105.4756,37.749c-2.872-.7988-5.8496-5.8887-6.57608-8.2774a38.37731,38.37731,0,0,1-1.09382-8.9209c-.0166-2.4824.5654-9.4453.7686-11.6865l.833.0752c-.2569,2.8067-.7813,9.3369-.7647,11.60549a37.34968,37.34968,0,0,0,1.0547,8.68361,17.62566,17.62566,0,0,0,2.3379,4.459c1.2754,1.7968,2.5752,2.955,3.6641,3.2578Z"/>
              <path class="d628cdf1-0d0e-4a99-bdf8-7406124d966b" d="M102.3077,37.50089c-1.2159-.33979-2.4639-1.5-3.7061-3.45309a24.80372,24.80372,0,0,1-2.2734-4.6777c-.8321-2.3438-.9629-5.9727-.9854-8.8731-.0166-2.2363.5596-9.292.7715-11.6064l.832.0752c-.209,2.3066-.7822,9.3193-.7675,11.5263.0146,1.8213.0488,6.086.9365,8.6006a23.87029,23.87029,0,0,0,2.1904,4.5059c1.1152,1.7471,2.2305,2.8184,3.2275,3.0967Z"/>
              <path class="d628cdf1-0d0e-4a99-bdf8-7406124d966b" d="M99.125,37.4736c-2.5029-.6982-4.6308-5.4336-5.3818-8.2559a40.30077,40.30077,0,0,1-.8623-8.7734c-.0186-2.1475.59962-9.60841.7734-11.5283l.833.0781c-.1757,1.9102-.789,9.3281-.7724,11.4443a39.90769,39.90769,0,0,0,.832,8.5664c.7373,2.7549,2.7725,7.0987,4.7998,7.66409Z"/>
              <path class="d628cdf1-0d0e-4a99-bdf8-7406124d966b" d="M96.3614,37.08789c-2.4405-.67879-4.6504-5.49909-5.2012-8.00489a51.11034,51.11034,0,0,1-.7441-8.6914c-.01758-2.0039.6162-9.669.7783-11.4463l.832.0781c-.1924,2.0947-.79,9.4961-.7754,11.3613a50.27491,50.27491,0,0,0,.7266,8.5186,17.14226,17.14226,0,0,0,1.8066,4.4551c.9541,1.6484,1.9502,2.6884,2.8018,2.9238Z"/>
              <path class="d628cdf1-0d0e-4a99-bdf8-7406124d966b" d="M93.4043,37.0224c-2.3017-.6406-4.1562-5.541-4.8164-8.042a33.91562,33.91562,0,0,1-.6347-7.8447c.0019-.29981.0019-.5684-.001-.79981-.01368-1.791.6182-9.56539.7822-11.36129l.833.0761c-.1582,1.7247-.79488,9.544-.7803,11.2793.001.2325.003.50489.001.8057a33.35363,33.35363,0,0,0,.60842,7.6338c.73928,2.8076,2.543,6.9785,4.23148,7.4473Z"/>
              <path class="d628cdf1-0d0e-4a99-bdf8-7406124d966b" d="M90.6182,36.915c-2.084-.58111-4.0918-4.9883-4.68068-7.8164a38.85885,38.85885,0,0,1-.45412-8.6865l.0049-.1426c.0449-1.6387.6436-9.7197.7871-11.26861l.83012.07721c-.13872,1.542-.73832,9.58979-.78032,11.2129l-.0048.1445a38.169,38.169,0,0,0,.4355,8.4941c.7539,3.6124,2.8154,6.8272,4.0869,7.1797Z"/>
              <path class="d628cdf1-0d0e-4a99-bdf8-7406124d966b" d="M87.35452,36.4912c-1.94432-.541-3.40912-4.5987-3.96482-6.9092a34.48413,34.48413,0,0,1-.3633-9.3838c.0234-.3496.0752-1.0879.1377-2.03031.207-3.02049.5537-8.07519.64842-9.13769l.835.0762c-.09672,1.0518-.44242,6.10249-.65042,9.1172-.0644.94529-.1142,1.6826-.1387,2.0312a33.86018,33.86018,0,0,0,.3428,9.1319c.6729,2.7851,2.085,5.9394,3.3779,6.2988Z"/>
              <path class="d628cdf1-0d0e-4a99-bdf8-7406124d966b" d="M84.3526,36.2548a4.38642,4.38642,0,0,1-2.6358-2.87691,15.78249,15.78249,0,0,1-.9482-4.05179,49.57213,49.57213,0,0,1-.1943-8.9765c.1445-2.2451.666-10.0401.78122-11.292l.83108.0771c-.1143,1.24419-.6338,9.0244-.7803,11.2686a48.58673,48.58673,0,0,0,.1943,8.8301c.1416,1.3007.7803,5.5937,2.9805,6.2158Z"/>
              <path class="d628cdf1-0d0e-4a99-bdf8-7406124d966b" d="M81.3282,36.0175c-1.5996-.4462-2.8653-3.1962-3.0782-6.6875a77.49517,77.49517,0,0,1-.1523-9.2392c.0654-.9863.6943-9.9014.7939-11.00591l.833.07911c-.0947,1.0381-.7119,9.751-.7929,10.9834a76.56025,76.56025,0,0,0,.1523,9.1309c.2119,3.4658,1.4297,5.6445,2.4678,5.93259Z"/>
              <path class="d628cdf1-0d0e-4a99-bdf8-7406124d966b" d="M78.2022,35.7031c-2.1856-.8975-2.5508-5.2227-2.6026-6.0781a90.04245,90.04245,0,0,1,.0352-9.5918c.0322-.4034.1621-2.19731.3096-4.2754.206-2.8594.4404-6.1006.4902-6.6455l.8311.0781c-.0489.5332-.2823,3.77149-.4873,6.6279-.1485,2.0781-.2774,3.8731-.3116,4.2803a88.73654,88.73654,0,0,0-.0322,9.4746c.1358,2.2949.83692,4.8428,2.08592,5.3564Z"/>
              <path class="d628cdf1-0d0e-4a99-bdf8-7406124d966b" d="M75.001,35.3398c-1.4004-.5264-1.72648-3.2353-1.875-6.083-.0097-.1924-.01948-.3604-.0273-.498-.0908-1.3731-.1143-6.4073.0732-8.7793.0195-.292.127-1.7188.2539-3.4551.2295-3.1533.5156-7.0772.5615-7.5742l.8331.0771c-.04688.4893-.3448,4.5752-.5635,7.55759-.126,1.73931-.23238,3.168-.2539,3.458-.1866,2.34281-.1612,7.30671-.0713,8.65921.00782.1406.0185.3145.0293.51079.0693,1.35051.2529,4.93751,1.3349,5.34761Z"/>
              <path class="d628cdf1-0d0e-4a99-bdf8-7406124d966b" d="M71.9288,35.1865c-1.042-.6152-1.2471-2.9053-1.3965-5.6133-.0157-.334-.0332-.6406-.0537-.9062-.1055-1.45711.04492-5.5469.2265-8.7344.0352-.6016.77542-10.47271.8369-11.1182l.8321.0762c-.05958.6426-.8018,10.4902-.8321,11.0908-.1836,3.1602-.332,7.2051-.2304,8.625.0205.27249.038.582.0556.9229.086,1.5703.2461,4.5019.9864,4.9375Z"/>
              <path class="d628cdf1-0d0e-4a99-bdf8-7406124d966b" d="M68.85452,35.0498c-.76362-.9561-.85642-4.1114-.88472-6.9922l-.002-.1856c-.0185-1.9209.1992-7.1406.2852-8.1308.0224-.2324.2197-2.8604.4111-5.4014.207-2.7441.4199-5.585.44142-5.8291l.832.07519c-.02052.23731-.23432,3.07521-.44042,5.81741-.2002,2.6601-.39058,5.1719-.4121,5.4101-.0869.98249-.3008,6.14649-.2822,8.0498l.0029.1866c.0127,1.5498.0547,5.666.7012,6.4804Z"/>
              <path class="d628cdf1-0d0e-4a99-bdf8-7406124d966b" d="M66.0069,35.0332c-.35838-.0996-.5323-.28031-.6045-3.2725-.0361-1.5449-.0225-3.2666-.0078-4.041.0293-1.6895.2822-6.9707.3994-8.0879.01852-.1816.3037-3.9082.5303-6.9004.1718-2.2363.3183-4.167.332-4.3027l.831.0761c-.0117.128-.165,2.1485-.3291,4.2872-.29,3.8154-.5146,6.746-.5322,6.9296-.1142,1.07129-.3681,6.3809-.3984,8.0118a42.56145,42.56145,0,0,0,.2138,6.6504.33908.33908,0,0,0-.207-.1524Z"/>
              <path class="d628cdf1-0d0e-4a99-bdf8-7406124d966b" d="M62.77052,34.4951c-.07322-.3086-.14552-1.3653.05178-6.9678.0488-1.3867.28222-4.6807.4199-6.64841.0518-.71589.0948-1.336.0977-1.40629-.001-.1826.8662-11.165.874-11.26371l.833.07721c-.0078.084-.85738,10.8447-.8711,11.2021-.0029.0479-.0185.3174-.0986,1.4502-.13768,1.962-.3721,5.2481-.4199,6.6192a55.40725,55.40725,0,0,0-.0733,6.748Z"/>
            </g>
          </g>
          <path class="d628cdf1-0d0e-4a99-bdf8-7406124d966b" d="M119.23052,33.5908c-.05272.0273-.09572.0537-.126.0674l-.02732.0185a31.04607,31.04607,0,0,1-8.6758,3.126,42.14453,42.14453,0,0,1-8.0176-.1611c-.5859-.0469-1.1894-.09571-1.8066-.1485l-.042-.001c-.6348-.0507-1.2842-.1064-1.9473-.15721L21.81352,30.292c-.66312-.0518-1.31352-.0997-1.95022-.1485l-.0429-.0049c-.6153-.0449-1.2188-.0918-1.8038-.13771a42.31147,42.31147,0,0,1-7.9462-1.09469,30.95688,30.95688,0,0,1-8.0411-4.416c-.041-.041-.0927-.0908-.1494-.1436-.5527.1114-1.1728.208-1.8799.2901,1.6123,1.8867,6.667,4.7578,9.6114,5.7021,2.5097.8047,6.9179,1.0469,12.081,1.4532,2.2207.1728,74.5586,5.8671,76.7774,6.04289,5.166.4063,9.5586.8565,12.1601.4541,3.05762-.4726,8.5-2.5176,10.3858-4.1279C120.3389,33.9726,119.75,33.7841,119.23052,33.5908Z"/>
        </g>
      </g>
    </g>
  </g>
</svg>
