<svg id="59945c10-d7a2-474f-9c4f-654e3840cd1a" data-name="レイヤー 1" xmlns="http://www.w3.org/2000/svg" width="60" height="76.1088" viewBox="0 0 60 76.1088">
  <defs>
    <style>
      .e0d95190-a814-4a2c-8b35-7e0f37e24646 {
        fill: #dbdbdb;
      }

      .\35 9b7e746-6678-4f8b-9ed3-eb90ea3b433d {
        fill: #b0b0b0;
      }

      .ebf3355c-98d9-4107-9134-01099804ac55 {
        fill: #fff;
      }

      .\31 8dfecb6-f1ff-4b95-92d7-b631ac6fd046 {
        fill: #f0f0f0;
      }
    </style>
  </defs>
  <title>satellite</title>
  <g>
    <rect class="e0d95190-a814-4a2c-8b35-7e0f37e24646" x="14.883" y="18.59477" width="5.93575" height="18.27985" transform="translate(-12.50024 14.82435) rotate(-34.19019)"/>
    <rect class="e0d95190-a814-4a2c-8b35-7e0f37e24646" x="32.14584" y="44.01233" width="5.93616" height="18.27993" transform="translate(-23.79509 28.90602) rotate(-34.1786)"/>
    <path class="59b7e746-6678-4f8b-9ed3-eb90ea3b433d" d="M32.4664,25.0947,17.044,35.5693,0,10.4746,15.4229,0Z"/>
    <path class="59b7e746-6678-4f8b-9ed3-eb90ea3b433d" d="M60,65.6342,44.5772,76.1088,27.5337,51.0141,42.9561,40.53948Z"/>
    <path class="ebf3355c-98d9-4107-9134-01099804ac55" d="M17.1407,35.0639,31.961,24.998,15.3262.5048.5049,10.5708Z"/>
    <path class="ebf3355c-98d9-4107-9134-01099804ac55" d="M44.6739,75.60348,59.4947,65.538,42.8589,41.0444,28.0386,51.1103Z"/>
    <rect class="e0d95190-a814-4a2c-8b35-7e0f37e24646" x="31.26395" y="27.3781" width="15.18095" height="9.3248" transform="translate(-11.28943 27.36571) rotate(-34.18384)"/>
    <rect class="ebf3355c-98d9-4107-9134-01099804ac55" x="16.87522" y="39.48159" width="15.1815" height="4.66246" transform="translate(-19.26559 20.96944) rotate(-34.18333)"/>
    <rect class="59b7e746-6678-4f8b-9ed3-eb90ea3b433d" x="19.80225" y="33.60192" width="15.18171" height="12.44581" transform="translate(-17.64247 22.26932) rotate(-34.18172)"/>
    <path class="59b7e746-6678-4f8b-9ed3-eb90ea3b433d" d="M35.7808,12.1484c-2.3867,1.6206.2217,9.624,5.8267,17.876,5.6045,8.2514,12.083,13.6269,14.4692,12.0063Z"/>
    <ellipse class="e0d95190-a814-4a2c-8b35-7e0f37e24646" cx="45.9285" cy="27.08957" rx="3.29594" ry="18.06153" transform="translate(-7.28566 30.48445) rotate(-34.1833)"/>
    <path class="18dfecb6-f1ff-4b95-92d7-b631ac6fd046" d="M48.9659,25.0263c5.0288,7.4043,8.769,15.628,7.0561,16.9243-.7558.5137-5.9458-5.8085-11.4624-13.93112C39.043,19.8964,35.0811,12.7446,35.837,12.2309,37.4371,11.0688,43.9371,17.623,48.9659,25.0263Z"/>
    <g>
      <g>
        <rect class="59b7e746-6678-4f8b-9ed3-eb90ea3b433d" x="3.16503" y="9.20746" width="4.30195" height="5.81424" transform="translate(-5.88824 5.07982) rotate(-34.18433)"/>
        <rect class="59b7e746-6678-4f8b-9ed3-eb90ea3b433d" x="8.00081" y="5.92312" width="4.30143" height="5.81405" transform="translate(-3.20729 7.22797) rotate(-34.17882)"/>
        <rect class="59b7e746-6678-4f8b-9ed3-eb90ea3b433d" x="12.83685" y="2.63888" width="4.30139" height="5.81395" transform="translate(-0.52639 9.38001) rotate(-34.18808)"/>
      </g>
      <g>
        <rect class="59b7e746-6678-4f8b-9ed3-eb90ea3b433d" x="7.21961" y="15.17737" width="4.30162" height="5.8139" transform="translate(-8.54192 8.38919) rotate(-34.18433)"/>
        <rect class="59b7e746-6678-4f8b-9ed3-eb90ea3b433d" x="12.05551" y="11.89262" width="4.30143" height="5.81406" transform="translate(-5.86086 10.53836) rotate(-34.18323)"/>
        <rect class="59b7e746-6678-4f8b-9ed3-eb90ea3b433d" x="16.89112" y="8.60836" width="4.30125" height="5.81424" transform="translate(-3.18021 12.68968) rotate(-34.18808)"/>
      </g>
      <g>
        <rect class="59b7e746-6678-4f8b-9ed3-eb90ea3b433d" x="11.27394" y="21.14697" width="4.30157" height="5.8139" transform="translate(-11.1973 11.70198) rotate(-34.19248)"/>
        <rect class="59b7e746-6678-4f8b-9ed3-eb90ea3b433d" x="16.10949" y="17.86233" width="4.30187" height="5.81409" transform="translate(-8.51465 13.84799) rotate(-34.18433)"/>
        <rect class="59b7e746-6678-4f8b-9ed3-eb90ea3b433d" x="20.9459" y="14.57803" width="4.30111" height="5.81404" transform="translate(-5.83378 15.99683) rotate(-34.18257)"/>
      </g>
      <g>
        <rect class="59b7e746-6678-4f8b-9ed3-eb90ea3b433d" x="15.32827" y="27.11663" width="4.30132" height="5.81353" transform="translate(-13.84864 15.00671) rotate(-34.18257)"/>
        <rect class="59b7e746-6678-4f8b-9ed3-eb90ea3b433d" x="20.16387" y="23.83221" width="4.30201" height="5.81347" transform="translate(-11.1676 17.15516) rotate(-34.18059)"/>
        <rect class="59b7e746-6678-4f8b-9ed3-eb90ea3b433d" x="25.00034" y="20.54783" width="4.30111" height="5.81395" transform="translate(-8.4871 19.30369) rotate(-34.17882)"/>
      </g>
    </g>
    <g>
      <g>
        <rect class="59b7e746-6678-4f8b-9ed3-eb90ea3b433d" x="30.69845" y="49.74726" width="4.3015" height="5.81377" transform="translate(-23.91403 27.56501) rotate(-34.19606)"/>
        <rect class="59b7e746-6678-4f8b-9ed3-eb90ea3b433d" x="35.53411" y="46.46286" width="4.30173" height="5.81347" transform="translate(-21.22482 29.69344) rotate(-34.17508)"/>
        <rect class="59b7e746-6678-4f8b-9ed3-eb90ea3b433d" x="40.37007" y="43.17849" width="4.3019" height="5.81357" transform="translate(-18.54779 31.85538) rotate(-34.18685)"/>
      </g>
      <g>
        <rect class="59b7e746-6678-4f8b-9ed3-eb90ea3b433d" x="34.75309" y="55.71673" width="4.30111" height="5.81403" transform="translate(-26.56163 30.8608) rotate(-34.18257)"/>
        <rect class="59b7e746-6678-4f8b-9ed3-eb90ea3b433d" x="39.58847" y="52.43226" width="4.30166" height="5.81382" transform="translate(-23.87944 33.00593) rotate(-34.17882)"/>
        <rect class="59b7e746-6678-4f8b-9ed3-eb90ea3b433d" x="44.4246" y="49.14777" width="4.30146" height="5.81401" transform="translate(-21.1991 35.15545) rotate(-34.17882)"/>
      </g>
      <g>
        <rect class="59b7e746-6678-4f8b-9ed3-eb90ea3b433d" x="38.80722" y="61.68641" width="4.30125" height="5.81381" transform="translate(-29.21809 34.17656) rotate(-34.18808)"/>
        <rect class="59b7e746-6678-4f8b-9ed3-eb90ea3b433d" x="43.64301" y="58.40192" width="4.30174" height="5.81401" transform="translate(-26.53688 36.32643) rotate(-34.18808)"/>
        <rect class="59b7e746-6678-4f8b-9ed3-eb90ea3b433d" x="48.4788" y="55.11748" width="4.30146" height="5.81409" transform="translate(-23.85257 38.46405) rotate(-34.17882)"/>
      </g>
      <g>
        <rect class="59b7e746-6678-4f8b-9ed3-eb90ea3b433d" x="42.86139" y="67.65598" width="4.30172" height="5.81395" transform="translate(-31.87016 37.48232) rotate(-34.18508)"/>
        <rect class="59b7e746-6678-4f8b-9ed3-eb90ea3b433d" x="47.69785" y="64.37138" width="4.30146" height="5.81409" transform="translate(-29.18789 39.62875) rotate(-34.18257)"/>
        <rect class="59b7e746-6678-4f8b-9ed3-eb90ea3b433d" x="52.53327" y="61.08686" width="4.30166" height="5.81424" transform="translate(-26.50793 41.78062) rotate(-34.18433)"/>
      </g>
    </g>
    <rect class="59b7e746-6678-4f8b-9ed3-eb90ea3b433d" x="43.6625" y="24.7199" width="10.39135" height="0.76275" transform="translate(-5.66234 31.78773) rotate(-34.1841)"/>
    <circle class="59b7e746-6678-4f8b-9ed3-eb90ea3b433d" cx="54.20547" cy="21.4702" r="1.99579" transform="translate(-2.70023 34.15655) rotate(-34.17577)"/>
  </g>
</svg>
