<?xml version="1.0" encoding="utf-8"?>
<!-- Generator: Adobe Illustrator 20.1.0, SVG Export Plug-In . SVG Version: 6.00 Build 0)  -->
<svg version="1.1" id="レイヤー_1" xmlns="http://www.w3.org/2000/svg" xmlns:xlink="http://www.w3.org/1999/xlink" x="0px"
	 y="0px" width="84px" height="30px" viewBox="0 0 84 30" style="enable-background:new 0 0 84 30;" xml:space="preserve">
<style type="text/css">
	.st0{fill:#0097E6;}
	.st1{fill:#FFFFFF;}
</style>
<g>
	<path class="st0" d="M81,0H3C1.4,0,0,1.4,0,3v24c0,1.6,1.4,3,3,3h78c1.7,0,3-1.4,3-3V3C84,1.4,82.7,0,81,0z M22.8,20.1
		c0,0.8-0.1,1.4-0.4,2c-0.2,0.6-0.6,1.1-1,1.5c-0.4,0.4-1,0.7-1.6,0.9c-0.6,0.2-1.2,0.3-1.9,0.3l-0.2,0V23l0.1,0
		c0.9-0.1,1.6-0.3,2.1-0.8c0.5-0.5,0.8-1.2,0.8-2.1V8h1.9V20.1z M34.6,22.3c-4,0-7.2-3.2-7.2-7.2c0-4,3.2-7.2,7.2-7.2
		c4,0,7.2,3.2,7.2,7.2C41.8,19.1,38.5,22.3,34.6,22.3z M48.4,22h-1.9V8h1.9V22z M66.2,22h-0.8l-9.5-10.1c0,0,0-0.1-0.1-0.1
		c0,0,0,0,0,0.1l0,10.1H54V8h0.8c1.5,1.6,7.8,8.5,9.5,10.3c0,0,0,0.1,0.1,0.1c0,0,0,0,0-0.1V8h1.9V22z"/>
	<circle class="st0" cx="34.6" cy="15.2" r="5.2"/>
	<path class="st1" d="M20.9,20c0,0.9-0.3,1.6-0.8,2.1c-0.6,0.5-1.3,0.8-2.1,0.8l-0.1,0v1.9l0.2,0c0.7,0,1.3-0.1,1.9-0.3
		c0.6-0.2,1.1-0.5,1.6-0.9c0.4-0.4,0.8-0.9,1-1.5c0.2-0.6,0.4-1.3,0.4-2V8h-1.9V20z"/>
	<rect x="46.5" y="8" class="st1" width="1.9" height="14"/>
	<path class="st1" d="M34.6,8c-4,0-7.2,3.2-7.2,7.2c0,4,3.2,7.2,7.2,7.2c4,0,7.2-3.2,7.2-7.2C41.8,11.2,38.5,8,34.6,8z M34.6,20.4
		c-2.9,0-5.2-2.3-5.2-5.2c0-2.9,2.3-5.2,5.2-5.2c2.9,0,5.2,2.3,5.2,5.2C39.8,18.1,37.5,20.4,34.6,20.4z"/>
	<path class="st1" d="M64.3,18.3C64.3,18.3,64.3,18.3,64.3,18.3C64.3,18.3,64.3,18.3,64.3,18.3c-1.7-1.8-8.1-8.7-9.6-10.3H54v14h1.9
		l0-10.1c0,0,0,0,0-0.1c0,0,0,0.1,0.1,0.1L65.4,22h0.8V8h-1.9V18.3z"/>
</g>
</svg>
