<?xml version="1.0" encoding="utf-8"?>
<!-- Generator: Adobe Illustrator 20.1.0, SVG Export Plug-In . SVG Version: 6.00 Build 0)  -->
<svg version="1.1" id="レイヤー_1" xmlns="http://www.w3.org/2000/svg" xmlns:xlink="http://www.w3.org/1999/xlink" x="0px"
	 y="0px" width="518.9px" height="162.9px" viewBox="0 0 518.9 162.9" style="enable-background:new 0 0 518.9 162.9;"
	 xml:space="preserve">
<style type="text/css">
	.st0{fill:#FFFFFF;}
	.st1{fill:#29BAE6;}
	.st2{fill:none;stroke:#025392;stroke-width:2.5;stroke-linecap:round;stroke-linejoin:round;}
</style>
<g>
	<path class="st0" d="M118.5,62.8c-17,0-30.8-13.8-30.8-30.8c0-17,13.8-30.8,30.8-30.8c17,0,30.8,13.8,30.8,30.8
		C149.3,49,135.5,62.8,118.5,62.8L118.5,62.8z M118.5,10.1c-12.1,0-21.9,9.8-21.9,21.9c0,12.1,9.8,21.9,21.9,21.9
		c12.1,0,21.9-9.8,21.9-21.9C140.4,20,130.6,10.1,118.5,10.1L118.5,10.1z"/>
	
		<rect x="113.2" y="26.7" transform="matrix(0.7072 -0.7071 0.7071 0.7072 12.0455 93.1688)" class="st0" width="10.7" height="10.7"/>
	<path class="st0" d="M300.1,62.8c-17,0-30.8-13.8-30.8-30.8c0-17,13.8-30.8,30.8-30.8c9.8,0,19,4.7,24.8,12.6l1.7,2.4l-7.1,5.3
		l-1.7-2.4c-4.1-5.6-10.7-9-17.7-9c-12.1,0-21.9,9.8-21.9,21.9S288,54,300.1,54c7.9,0,15.3-4.3,19.2-11.2l1.4-2.6l7.7,4.3L327,47
		C321.5,56.8,311.2,62.8,300.1,62.8L300.1,62.8z"/>
	<path class="st0" d="M258.7,20.1c-1.3-3.8-3.2-7.1-5.7-9.9c-2.5-2.8-5.7-5-9.3-6.6c-3.6-1.5-7.7-2.3-12.2-2.3h-21.9v61.6h21.9
		c4.6,0,8.8-0.8,12.4-2.4c3.7-1.6,6.8-3.9,9.3-6.7c2.5-2.8,4.3-6.2,5.6-10c1.2-3.6,1.8-7.6,1.8-11.8
		C260.5,27.7,259.9,23.7,258.7,20.1z M250.3,41c-0.9,2.6-2.1,4.9-3.8,6.8c-1.6,1.9-3.7,3.4-6.2,4.4c-2.5,1.1-5.5,1.6-8.9,1.6
		c0,0-11.7,0-13.1,0c0-1.7,0-40.2,0-43.8c3.3,0,13.1,0,13.1,0c3.3,0,6.3,0.5,8.8,1.6c2.5,1.1,4.6,2.5,6.2,4.4c1.7,1.9,3,4.2,3.9,6.8
		c0.9,2.7,1.4,5.8,1.4,9.1C251.6,35.2,251.2,38.3,250.3,41z"/>
	
		<rect x="354.4" y="45.1" transform="matrix(0.7072 -0.707 0.707 0.7072 69.6652 269.1264)" class="st0" width="10.7" height="10.7"/>
	<polygon class="st0" points="379.7,62.8 359.8,15.8 339.8,62.8 330,62.8 357,1.2 362.5,1.2 389.5,62.8 	"/>
	<path class="st0" d="M514.5,13.7c-0.9-2.3-2.2-4.4-3.9-6.2C509,5.6,507,4.2,504.8,3c-2.4-1.2-4.9-1.8-7.6-1.8h-23.3v61.6h8.9V41.1
		h14.9c2.8,0,5.5-0.6,7.9-1.9c2.3-1.2,4.2-2.8,5.8-4.8c1.5-1.9,2.6-4,3.4-6.3c0.8-2.3,1.2-4.7,1.2-7
		C515.9,18.6,515.5,16.1,514.5,13.7z M506.4,25.3c-0.5,1.4-1.1,2.6-2,3.7c-0.8,1-1.8,1.8-2.9,2.4c-1.1,0.6-2.4,0.9-3.8,0.9h-14.9
		V10.1h14.4c1.3,0,2.5,0.3,3.6,0.9c1.2,0.6,2.3,1.4,3.2,2.5c0.9,1,1.7,2.2,2.2,3.6c0.5,1.3,0.8,2.7,0.8,4.1
		C507.1,22.5,506.8,23.9,506.4,25.3z"/>
	<path class="st0" d="M188.8,62.8h11.5l-14.4-22.2c1.3-0.3,2.6-0.8,3.9-1.4c2.3-1.2,4.2-2.8,5.8-4.8c1.5-1.9,2.6-4,3.4-6.3
		c0.8-2.3,1.2-4.7,1.2-7c0-2.6-0.5-5.1-1.4-7.4c-0.9-2.3-2.2-4.4-3.9-6.2c-1.7-1.8-3.6-3.3-5.9-4.4c-2.4-1.2-4.9-1.8-7.6-1.8h-23.3
		v61.6h8.9V41.1h8.6L188.8,62.8z M166.9,10.1h14.4c1.3,0,2.5,0.3,3.6,0.9c1.2,0.6,2.3,1.4,3.3,2.5c0.9,1,1.7,2.2,2.2,3.6
		c0.5,1.3,0.8,2.7,0.8,4.1c0,1.4-0.2,2.8-0.7,4.2c-0.5,1.4-1.1,2.6-2,3.7c-0.8,1-1.8,1.8-2.9,2.4c-1.1,0.6-2.4,0.9-3.8,0.9h-14.9
		V10.1z"/>
	<polygon class="st0" points="78.5,1.2 58,47.4 49.6,28.3 61.6,1.2 51.9,1.2 44.7,17.4 37.6,1.2 27.9,1.2 39.9,28.3 31.4,47.4 
		11,1.2 1.2,1.2 28.6,62.8 34.3,62.8 44.7,39.3 55.2,62.8 60.9,62.8 88.2,1.2 	"/>
	<polygon class="st0" points="454.7,1.2 430.7,41.7 406.8,1.2 397.9,1.2 397.9,62.8 406.8,62.8 406.8,19.4 428.1,54.2 433.3,54.2 
		454.7,19.4 454.7,62.8 463.5,62.8 463.5,1.2 	"/>
	<path class="st1" d="M121.4,65.6c-17,0-30.8-13.8-30.8-30.8c0-17,13.8-30.8,30.8-30.8c17,0,30.8,13.8,30.8,30.8
		C152.2,51.8,138.4,65.6,121.4,65.6L121.4,65.6z M121.4,12.9c-12.1,0-21.9,9.8-21.9,21.9c0,12.1,9.8,21.9,21.9,21.9
		c12.1,0,21.9-9.8,21.9-21.9C143.4,22.7,133.5,12.9,121.4,12.9L121.4,12.9z"/>
	
		<rect x="116.1" y="29.5" transform="matrix(0.7071 -0.7071 0.7071 0.7071 10.9595 96.0634)" class="st1" width="10.7" height="10.7"/>
	<path class="st1" d="M303,65.6c-17,0-30.8-13.8-30.8-30.8C272.2,17.8,286,4,303,4c9.8,0,19,4.7,24.8,12.6l1.7,2.4l-7.2,5.3
		l-1.7-2.4c-4.1-5.6-10.7-9-17.7-9c-12.1,0-21.9,9.8-21.9,21.9c0,12.1,9.8,21.9,21.9,21.9c7.9,0,15.3-4.3,19.2-11.2l1.4-2.6l7.7,4.3
		l-1.4,2.6C324.5,59.5,314.2,65.6,303,65.6L303,65.6z"/>
	<path class="st1" d="M261.6,22.8c-1.3-3.8-3.2-7.1-5.7-9.9c-2.5-2.8-5.7-5-9.3-6.6C243,4.8,238.8,4,234.3,4h-21.9v61.6h21.9
		c4.6,0,8.8-0.8,12.4-2.4c3.7-1.6,6.8-3.9,9.3-6.7c2.5-2.8,4.3-6.2,5.6-10c1.2-3.6,1.8-7.6,1.8-11.8
		C263.5,30.5,262.8,26.5,261.6,22.8z M253.2,43.8c-0.9,2.6-2.1,4.9-3.8,6.8c-1.6,1.9-3.7,3.4-6.2,4.4c-2.5,1.1-5.5,1.6-8.9,1.6
		c0,0-11.7,0-13.1,0c0-1.7,0-40.2,0-43.8c3.3,0,13.1,0,13.1,0c3.3,0,6.3,0.5,8.8,1.6c2.5,1.1,4.6,2.5,6.2,4.4c1.7,1.9,3,4.2,3.9,6.8
		c0.9,2.7,1.4,5.8,1.4,9.1C254.6,38,254.1,41,253.2,43.8z"/>
	
		<rect x="357.4" y="47.9" transform="matrix(0.7072 -0.707 0.707 0.7072 68.5795 272.0186)" class="st1" width="10.7" height="10.7"/>
	<polygon class="st1" points="382.6,65.6 362.7,18.6 342.8,65.6 332.9,65.6 359.9,4 365.5,4 392.5,65.6 	"/>
	<path class="st1" d="M517.4,16.5c-0.9-2.3-2.2-4.4-3.9-6.2c-1.7-1.8-3.6-3.3-5.9-4.4c-2.4-1.2-4.9-1.8-7.6-1.8h-23.3v61.6h8.9V43.9
		h14.9c2.8,0,5.5-0.6,7.9-1.9c2.3-1.2,4.2-2.8,5.8-4.8c1.5-1.9,2.6-4,3.4-6.3c0.8-2.3,1.2-4.7,1.2-7
		C518.9,21.3,518.4,18.8,517.4,16.5z M509.3,28.1c-0.5,1.4-1.1,2.6-2,3.7c-0.8,1-1.8,1.8-2.9,2.4c-1.1,0.6-2.4,0.9-3.8,0.9h-14.9
		V12.9h14.4c1.3,0,2.5,0.3,3.6,0.9c1.2,0.6,2.3,1.4,3.2,2.5c0.9,1,1.7,2.2,2.2,3.6c0.5,1.3,0.8,2.7,0.8,4.1
		C510,25.3,509.8,26.7,509.3,28.1z"/>
	<path class="st1" d="M191.8,65.6h11.5l-14.4-22.2c1.3-0.3,2.6-0.8,3.9-1.4c2.3-1.2,4.2-2.8,5.8-4.8c1.5-1.9,2.6-4,3.4-6.3
		c0.8-2.3,1.2-4.7,1.2-7c0-2.6-0.5-5.1-1.4-7.4c-0.9-2.3-2.2-4.4-3.9-6.2c-1.7-1.8-3.6-3.3-5.9-4.4c-2.4-1.2-4.9-1.8-7.6-1.8H161
		v61.6h8.9V43.9h8.6L191.8,65.6z M169.9,12.9h14.4c1.3,0,2.5,0.3,3.6,0.9c1.2,0.6,2.3,1.4,3.2,2.5c0.9,1,1.7,2.2,2.2,3.6
		c0.5,1.3,0.8,2.7,0.8,4.1c0,1.4-0.2,2.8-0.7,4.2c-0.5,1.4-1.1,2.6-2,3.7c-0.8,1-1.8,1.8-2.9,2.4c-1.1,0.6-2.4,0.9-3.8,0.9h-14.9
		V12.9z"/>
	<polygon class="st1" points="81.5,4 61,50.1 52.5,31.1 64.6,4 54.8,4 47.7,20.2 40.5,4 30.8,4 42.8,31.1 34.4,50.1 13.9,4 4.2,4 
		31.5,65.6 37.2,65.6 47.7,42 58.1,65.6 63.8,65.6 91.2,4 	"/>
	<polygon class="st1" points="457.6,4 433.7,44.4 409.7,4 400.8,4 400.8,65.6 409.7,65.6 409.7,22.2 431.1,57 436.3,57 457.6,22.2 
		457.6,65.6 466.5,65.6 466.5,4 	"/>
	<path class="st2" d="M118.5,62.8c-17,0-30.8-13.8-30.8-30.8c0-17,13.8-30.8,30.8-30.8c17,0,30.8,13.8,30.8,30.8
		C149.3,49,135.5,62.8,118.5,62.8L118.5,62.8z M118.5,10.1c-12.1,0-21.9,9.8-21.9,21.9c0,12.1,9.8,21.9,21.9,21.9
		c12.1,0,21.9-9.8,21.9-21.9C140.4,20,130.6,10.1,118.5,10.1L118.5,10.1z"/>
	
		<rect x="113.2" y="26.7" transform="matrix(0.7072 -0.7071 0.7071 0.7072 12.0455 93.1688)" class="st2" width="10.7" height="10.7"/>
	<path class="st2" d="M300.1,62.8c-17,0-30.8-13.8-30.8-30.8c0-17,13.8-30.8,30.8-30.8c9.8,0,19,4.7,24.8,12.6l1.7,2.4l-7.1,5.3
		l-1.7-2.4c-4.1-5.6-10.7-9-17.7-9c-12.1,0-21.9,9.8-21.9,21.9S288,54,300.1,54c7.9,0,15.3-4.3,19.2-11.2l1.4-2.6l7.7,4.3L327,47
		C321.5,56.8,311.2,62.8,300.1,62.8L300.1,62.8z"/>
	<path class="st2" d="M258.7,20.1c-1.3-3.8-3.2-7.1-5.7-9.9c-2.5-2.8-5.7-5-9.3-6.6c-3.6-1.5-7.7-2.3-12.2-2.3h-21.9v61.6h21.9
		c4.6,0,8.8-0.8,12.4-2.4c3.7-1.6,6.8-3.9,9.3-6.7c2.5-2.8,4.3-6.2,5.6-10c1.2-3.6,1.8-7.6,1.8-11.8
		C260.5,27.7,259.9,23.7,258.7,20.1z M250.3,41c-0.9,2.6-2.1,4.9-3.8,6.8c-1.6,1.9-3.7,3.4-6.2,4.4c-2.5,1.1-5.5,1.6-8.9,1.6
		c0,0-11.7,0-13.1,0c0-1.7,0-40.2,0-43.8c3.3,0,13.1,0,13.1,0c3.3,0,6.3,0.5,8.8,1.6c2.5,1.1,4.6,2.5,6.2,4.4c1.7,1.9,3,4.2,3.9,6.8
		c0.9,2.7,1.4,5.8,1.4,9.1C251.6,35.2,251.2,38.3,250.3,41z"/>
	
		<rect x="354.4" y="45.1" transform="matrix(0.7072 -0.707 0.707 0.7072 69.6652 269.1264)" class="st2" width="10.7" height="10.7"/>
	<polygon class="st2" points="379.7,62.8 359.8,15.8 339.8,62.8 330,62.8 357,1.2 362.5,1.2 389.5,62.8 	"/>
	<path class="st2" d="M514.5,13.7c-0.9-2.3-2.2-4.4-3.9-6.2C509,5.6,507,4.2,504.8,3c-2.4-1.2-4.9-1.8-7.6-1.8h-23.3v61.6h8.9V41.1
		h14.9c2.8,0,5.5-0.6,7.9-1.9c2.3-1.2,4.2-2.8,5.8-4.8c1.5-1.9,2.6-4,3.4-6.3c0.8-2.3,1.2-4.7,1.2-7
		C515.9,18.6,515.5,16.1,514.5,13.7z M506.4,25.3c-0.5,1.4-1.1,2.6-2,3.7c-0.8,1-1.8,1.8-2.9,2.4c-1.1,0.6-2.4,0.9-3.8,0.9h-14.9
		V10.1h14.4c1.3,0,2.5,0.3,3.6,0.9c1.2,0.6,2.3,1.4,3.2,2.5c0.9,1,1.7,2.2,2.2,3.6c0.5,1.3,0.8,2.7,0.8,4.1
		C507.1,22.5,506.8,23.9,506.4,25.3z"/>
	<path class="st2" d="M188.8,62.8h11.5l-14.4-22.2c1.3-0.3,2.6-0.8,3.9-1.4c2.3-1.2,4.2-2.8,5.8-4.8c1.5-1.9,2.6-4,3.4-6.3
		c0.8-2.3,1.2-4.7,1.2-7c0-2.6-0.5-5.1-1.4-7.4c-0.9-2.3-2.2-4.4-3.9-6.2c-1.7-1.8-3.6-3.3-5.9-4.4c-2.4-1.2-4.9-1.8-7.6-1.8h-23.3
		v61.6h8.9V41.1h8.6L188.8,62.8z M166.9,10.1h14.4c1.3,0,2.5,0.3,3.6,0.9c1.2,0.6,2.3,1.4,3.3,2.5c0.9,1,1.7,2.2,2.2,3.6
		c0.5,1.3,0.8,2.7,0.8,4.1c0,1.4-0.2,2.8-0.7,4.2c-0.5,1.4-1.1,2.6-2,3.7c-0.8,1-1.8,1.8-2.9,2.4c-1.1,0.6-2.4,0.9-3.8,0.9h-14.9
		V10.1z"/>
	<polygon class="st2" points="78.5,1.2 58,47.4 49.6,28.3 61.6,1.2 51.9,1.2 44.7,17.4 37.6,1.2 27.9,1.2 39.9,28.3 31.4,47.4 
		11,1.2 1.2,1.2 28.6,62.8 34.3,62.8 44.7,39.3 55.2,62.8 60.9,62.8 88.2,1.2 	"/>
	<polygon class="st2" points="454.7,1.2 430.7,41.7 406.8,1.2 397.9,1.2 397.9,62.8 406.8,62.8 406.8,19.4 428.1,54.2 433.3,54.2 
		454.7,19.4 454.7,62.8 463.5,62.8 463.5,1.2 	"/>
</g>
<g>
	<path class="st0" d="M92.3,146c-17,0-30.8-13.8-30.8-30.8c0-17,13.8-30.8,30.8-30.8c17,0,30.8,13.8,30.8,30.8
		C123,132.2,109.2,146,92.3,146L92.3,146z M92.3,93.3c-12.1,0-21.9,9.8-21.9,21.9c0,12.1,9.8,21.9,21.9,21.9
		c12.1,0,21.9-9.8,21.9-21.9C114.2,103.1,104.3,93.3,92.3,93.3L92.3,93.3z"/>
	
		<rect x="86.9" y="109.9" transform="matrix(0.7071 -0.7071 0.7071 0.7071 -54.4351 98.9734)" class="st0" width="10.7" height="10.7"/>
	<path class="st0" d="M272.1,146c-17,0-30.8-13.8-30.8-30.8c0-17,13.8-30.8,30.8-30.8c17,0,30.8,13.8,30.8,30.8
		C302.9,132.2,289,146,272.1,146L272.1,146z M272.1,93.3c-12.1,0-21.9,9.8-21.9,21.9c0,12.1,9.8,21.9,21.9,21.9
		c12.1,0,21.9-9.8,21.9-21.9C294,103.1,284.2,93.3,272.1,93.3L272.1,93.3z"/>
	
		<rect x="266.7" y="109.9" transform="matrix(0.7071 -0.7071 0.7071 0.7071 -1.7661 226.129)" class="st0" width="10.7" height="10.7"/>
	<polygon class="st0" points="243.3,84.4 232.7,84.4 215.6,112.6 198.7,84.4 188,84.4 211.2,121.9 211.2,146 220.1,146 220.1,121.9 
			"/>
	<polygon class="st0" points="58.9,84.4 4.6,84.4 4.6,93.3 27.3,93.3 27.3,146 36.2,146 36.2,93.3 58.9,93.3 	"/>
	<polygon class="st0" points="169.7,146 180.8,146 153.8,112 180.5,84.4 168.2,84.4 141,112.5 141,84.4 132.1,84.4 132.1,146 
		141,146 141,125.2 147.6,118.4 	"/>
	<path class="st1" d="M95.2,148.7c-17,0-30.8-13.8-30.8-30.8c0-17,13.8-30.8,30.8-30.8S126,101,126,118
		C126,134.9,112.2,148.7,95.2,148.7L95.2,148.7z M95.2,96c-12.1,0-21.9,9.8-21.9,21.9c0,12.1,9.8,21.9,21.9,21.9
		c12.1,0,21.9-9.8,21.9-21.9C117.1,105.9,107.3,96,95.2,96L95.2,96z"/>
	
		<rect x="89.9" y="112.6" transform="matrix(0.7071 -0.7071 0.7071 0.7071 -55.5278 101.8574)" class="st1" width="10.7" height="10.7"/>
	<path class="st1" d="M275,148.7c-17,0-30.8-13.8-30.8-30.8c0-17,13.8-30.8,30.8-30.8c17,0,30.8,13.8,30.8,30.8
		C305.8,134.9,292,148.7,275,148.7L275,148.7z M275,96c-12.1,0-21.9,9.8-21.9,21.9c0,12.1,9.8,21.9,21.9,21.9
		c12.1,0,21.9-9.8,21.9-21.9C296.9,105.9,287.1,96,275,96L275,96z"/>
	
		<rect x="269.7" y="112.6" transform="matrix(0.7071 -0.7071 0.7071 0.7071 -2.8653 228.9956)" class="st1" width="10.7" height="10.7"/>
	<polygon class="st1" points="246.3,87.2 235.6,87.2 218.6,115.3 201.6,87.2 190.9,87.2 214.2,124.7 214.2,148.7 223,148.7 
		223,124.6 	"/>
	<polygon class="st1" points="61.9,87.2 7.5,87.2 7.5,96 30.3,96 30.3,148.7 39.1,148.7 39.1,96 61.9,96 	"/>
	<polygon class="st1" points="172.6,148.7 183.7,148.7 156.7,114.8 183.4,87.2 171.2,87.2 143.9,115.3 143.9,87.2 135.1,87.2 
		135.1,148.7 143.9,148.7 143.9,128 150.5,121.1 	"/>
	<path class="st2" d="M92.3,146c-17,0-30.8-13.8-30.8-30.8c0-17,13.8-30.8,30.8-30.8c17,0,30.8,13.8,30.8,30.8
		C123,132.2,109.2,146,92.3,146L92.3,146z M92.3,93.3c-12.1,0-21.9,9.8-21.9,21.9c0,12.1,9.8,21.9,21.9,21.9
		c12.1,0,21.9-9.8,21.9-21.9C114.2,103.1,104.3,93.3,92.3,93.3L92.3,93.3z"/>
	
		<rect x="86.9" y="109.9" transform="matrix(0.7071 -0.7071 0.7071 0.7071 -54.4351 98.9734)" class="st2" width="10.7" height="10.7"/>
	<path class="st2" d="M272.1,146c-17,0-30.8-13.8-30.8-30.8c0-17,13.8-30.8,30.8-30.8c17,0,30.8,13.8,30.8,30.8
		C302.9,132.2,289,146,272.1,146L272.1,146z M272.1,93.3c-12.1,0-21.9,9.8-21.9,21.9c0,12.1,9.8,21.9,21.9,21.9
		c12.1,0,21.9-9.8,21.9-21.9C294,103.1,284.2,93.3,272.1,93.3L272.1,93.3z"/>
	
		<rect x="266.7" y="109.9" transform="matrix(0.7071 -0.7071 0.7071 0.7071 -1.7661 226.129)" class="st2" width="10.7" height="10.7"/>
	<polygon class="st2" points="243.3,84.4 232.7,84.4 215.6,112.6 198.7,84.4 188,84.4 211.2,121.9 211.2,146 220.1,146 220.1,121.9 
			"/>
	<polygon class="st2" points="58.9,84.4 4.6,84.4 4.6,93.3 27.3,93.3 27.3,146 36.2,146 36.2,93.3 58.9,93.3 	"/>
	<polygon class="st2" points="169.7,146 180.8,146 153.8,112 180.5,84.4 168.2,84.4 141,112.5 141,84.4 132.1,84.4 132.1,146 
		141,146 141,125.2 147.6,118.4 	"/>
	<polygon class="st0" points="462.6,160.2 497.9,93 464.2,93 464.2,84.1 512.6,84.1 472.6,160.2 	"/>
	<path class="st0" d="M401.4,142.7c-15.2,0-27.5-12.3-27.5-27.5c0-15.2,12.3-27.5,27.5-27.5c15.2,0,27.5,12.3,27.5,27.5
		C428.9,130.3,416.6,142.7,401.4,142.7L401.4,142.7z M401.4,96.6c-10.3,0-18.6,8.3-18.6,18.6c0,10.3,8.3,18.6,18.6,18.6
		c10.3,0,18.6-8.3,18.6-18.6C420,104.9,411.7,96.6,401.4,96.6L401.4,96.6z"/>
	<polygon class="st0" points="455.3,86.8 448.5,86.8 435.3,95.6 435.3,106.2 446.4,98.8 446.4,143.6 455.3,143.6 	"/>
	<path class="st0" d="M343.2,137.3c2.4-2.1,9-8.1,9.9-8.9c5.4-5.4,14.4-14.4,14.4-24c0-11.3-9.3-20.2-21.2-20.2h-0.1
		c-5.3,0-10.5,2.3-14.4,6.2c-3.9,4-6.1,9.4-6.1,14.9l0,2.9h9l0-3c0-3.1,1.2-6.2,3.5-8.5c2.2-2.2,5.1-3.5,7.9-3.5h0.1
		c6.8,0,12.2,4.9,12.2,11.2c0,5.5-5.8,11.7-11.8,17.7c-0.5,0.5-12.1,11-19.7,18v6.3h41v-9H343.2z"/>
	<polygon class="st1" points="465.5,162.9 500.9,95.7 467.1,95.7 467.1,86.9 515.5,86.9 475.6,162.9 	"/>
	<path class="st1" d="M404.3,145.4c-15.2,0-27.5-12.3-27.5-27.5c0-15.2,12.3-27.5,27.5-27.5c15.2,0,27.5,12.3,27.5,27.5
		C431.8,133.1,419.5,145.4,404.3,145.4L404.3,145.4z M404.3,99.3c-10.3,0-18.6,8.3-18.6,18.6c0,10.3,8.3,18.6,18.6,18.6
		c10.3,0,18.6-8.3,18.6-18.6C423,107.7,414.6,99.3,404.3,99.3L404.3,99.3z"/>
	<polygon class="st1" points="458.2,89.6 451.4,89.6 438.2,98.3 438.2,108.9 449.4,101.5 449.4,146.3 458.2,146.3 	"/>
	<path class="st1" d="M346.1,140c2.4-2.1,9-8.1,9.9-8.9c5.4-5.4,14.4-14.4,14.4-24c0-11.3-9.3-20.2-21.2-20.2H349
		c-5.3,0-10.5,2.3-14.4,6.2c-3.9,4-6.1,9.4-6.1,14.9l0,2.9h9l0-3c0-3.1,1.2-6.2,3.5-8.5c2.2-2.2,5.1-3.5,8-3.5h0.1
		c6.8,0,12.2,4.9,12.2,11.2c0,5.5-5.8,11.7-11.8,17.7c-0.5,0.5-12.1,11-19.7,18v6.3h41v-9H346.1z"/>
	<polygon class="st2" points="462.6,160.2 497.9,93 464.2,93 464.2,84.1 512.6,84.1 472.6,160.2 	"/>
	<path class="st2" d="M401.4,142.7c-15.2,0-27.5-12.3-27.5-27.5c0-15.2,12.3-27.5,27.5-27.5c15.2,0,27.5,12.3,27.5,27.5
		C428.9,130.3,416.6,142.7,401.4,142.7L401.4,142.7z M401.4,96.6c-10.3,0-18.6,8.3-18.6,18.6c0,10.3,8.3,18.6,18.6,18.6
		c10.3,0,18.6-8.3,18.6-18.6C420,104.9,411.7,96.6,401.4,96.6L401.4,96.6z"/>
	<polygon class="st2" points="455.3,86.8 448.5,86.8 435.3,95.6 435.3,106.2 446.4,98.8 446.4,143.6 455.3,143.6 	"/>
	<path class="st2" d="M343.2,137.3c2.4-2.1,9-8.1,9.9-8.9c5.4-5.4,14.4-14.4,14.4-24c0-11.3-9.3-20.2-21.2-20.2h-0.1
		c-5.3,0-10.5,2.3-14.4,6.2c-3.9,4-6.1,9.4-6.1,14.9l0,2.9h9l0-3c0-3.1,1.2-6.2,3.5-8.5c2.2-2.2,5.1-3.5,7.9-3.5h0.1
		c6.8,0,12.2,4.9,12.2,11.2c0,5.5-5.8,11.7-11.8,17.7c-0.5,0.5-12.1,11-19.7,18v6.3h41v-9H343.2z"/>
</g>
</svg>
