<?xml version="1.0" encoding="utf-8"?>
<!-- Generator: Adobe Illustrator 20.1.0, SVG Export Plug-In . SVG Version: 6.00 Build 0)  -->
<svg version="1.1" id="レイヤー_1" xmlns="http://www.w3.org/2000/svg" xmlns:xlink="http://www.w3.org/1999/xlink" x="0px"
	 y="0px" width="470.3px" height="73.9px" viewBox="0 0 470.3 73.9" style="enable-background:new 0 0 470.3 73.9;"
	 xml:space="preserve">
<style type="text/css">
	.st0{fill:none;stroke:#FFFFFF;stroke-width:4;stroke-linecap:round;stroke-linejoin:round;}
	.st1{fill:#025392;}
</style>
<g>
	<g>
		<path class="st0" d="M0,65.4c0.8-0.9,4.1-5.1,4.8-5.9c0.8-0.9,1.5-1.5,2.5-1.5c0.9,0,1.7,0.4,3,1.7l8.9,9.3l-1.8,2.1l-8.9-9.6
			c-0.4-0.4-0.8-0.8-1.3-0.8c-0.4,0-0.7,0.3-1,0.6c-0.8,0.9-3.9,5.3-4.5,6.1L0,65.4z M13.6,56.6c1.2,1.2,1.9,2.3,2.7,3.7l-1.5,1.1
			c-0.9-1.6-1.5-2.5-2.6-3.8L13.6,56.6z M16.5,54.9c1.1,1.1,1.8,2.2,2.7,3.7l-1.5,1.1c-0.9-1.6-1.5-2.4-2.6-3.7L16.5,54.9z"/>
		<path class="st0" d="M26.6,61c0,7.2-2,10.2-3.9,12l-1.7-1.7c2-2.1,3.3-4.3,3.3-10v-5.1h2.3V61z M32.1,69.7
			c2.3-0.9,4.8-1.8,5.7-7.6L40,63c-1,4.2-2.8,9-10.2,9.6V55.5h2.3V69.7z"/>
		<path class="st0" d="M60.2,59.1v2.2h-3.4v2.3c0,7.6-6.5,8.8-9.9,9.3l-0.9-2.2c4-0.5,8.4-1.6,8.4-7.1v-2.3h-6.6v5.3h-2.4v-5.3h-3.3
			v-2.2h3.3v-3.7h2.4v3.7h6.6v-3.8h2.3v3.8H60.2z"/>
		<path class="st0" d="M76,62.9v2.4H61.7v-2.4H76z"/>
		<path class="st0" d="M82.8,61c0,7.2-2,10.2-3.9,12l-1.7-1.7c2-2.1,3.3-4.3,3.3-10v-5.1h2.3V61z M88.3,69.7
			c2.3-0.9,4.8-1.8,5.7-7.6l2.2,0.9c-1,4.2-2.8,9-10.2,9.6V55.5h2.3V69.7z"/>
		<path class="st0" d="M98.2,70.5c1.3-0.9,2.9-2,4.2-3.9h-3.6v-1.9h4.2v-1.9h-4.3v-1.9h2.3c0-0.2-0.2-1.8-0.6-3h-1.3v-1.9h3.9v-1.7
			h2v1.7h3.6v1.9h-1c-0.4,1.9-0.5,2.1-0.7,3h2v1.9H105v1.9h3.4v1.9h-3c0.5,0.6,1.3,1.6,2.6,2.4l-1,1.9c-1.1-1-1.3-1.4-1.9-2.2v5.2
			h-2v-5.2c-1.7,2.3-2.9,3.2-3.7,3.7L98.2,70.5z M102.3,57.9c0.3,1,0.6,2.7,0.6,3h2.1c0.2-0.8,0.5-2.2,0.6-3H102.3z M118.1,56.3
			c-1.9,0.9-4.2,1.5-6.4,1.6V61h6.4v2h-2v10.9h-2.2V63h-2.2v0.6c0,5.8-1.1,8-2.8,10.3l-2-1.4c1.8-2.2,2.7-4.3,2.7-8.9v-7.7
			c3.7,0.1,6-0.9,7.3-1.6L118.1,56.3z"/>
		<path class="st0" d="M124.4,73.9h-2.1v-8.7c-0.5,0.6-0.9,0.9-1.6,1.6l-1-2.1c2.8-2.2,4.1-5.5,4.4-6.4l1.9,0.7
			c-0.5,1.2-0.9,2-1.6,3.2V73.9z M137,61.1h-4.2c-0.2,0.8-0.3,1.1-0.6,1.9h5.8v10.5h-11.2V63h3.3c0.3-0.7,0.3-0.8,0.6-1.9h-4.3v-1.9
			h10.3v-1.3h-14.1v2.3h-2.2v-4.3h8.1v-1.6h2.2v1.6h8.1v4.3H137V61.1z M136,64.9h-7v2.3h7V64.9z M136,69h-7v2.5h7V69z"/>
		<path class="st0" d="M142.2,71c8.2-1.5,11.1-6.3,12.2-12.1h-6.7c-1.3,2-2.8,3.7-5.1,5.3l-1.5-1.7c1.5-1,3.6-2.7,5.1-5.7h8.3
			l2.2,2.9c-1.2,5.4-3.8,11.5-13.5,13.5L142.2,71z M155.9,54.4c1,1.2,1.5,2.1,2.4,3.8l-1.4,0.9c-0.7-1.6-1.3-2.5-2.3-3.8L155.9,54.4
			z M158.7,53.6c1,1.3,1.5,2.1,2.3,3.8l-1.4,0.9c-0.7-1.6-1.1-2.4-2.2-3.9L158.7,53.6z"/>
		<path class="st0" d="M179.3,60.9c-1,8.2-4.7,11.1-13.3,11.9l-0.7-2.2c3.6-0.2,6.1-0.9,7.7-2c1.1-0.7,3-2.5,3.6-5.6h-13.7v-2.2
			H179.3z M178,56v2.1h-13.7V56H178z"/>
		<path class="st0" d="M188.9,61.5c-1.3-0.9-3.3-2-6.4-3.1l1.1-2c3.5,1.1,5.6,2.3,6.6,2.9L188.9,61.5z M182.9,69.9
			c8.2-0.6,12.4-4.5,14.8-12.4l2,1.5c-1.1,3.3-4.2,12.6-16.4,13.5L182.9,69.9z"/>
		<path class="st0" d="M216.1,67.2c-3.4-2.1-5.5-3.2-8.7-4.4V73h-2.5V55.3h2.5v5.2c4.9,1.5,8.6,3.6,10,4.4L216.1,67.2z M212.8,55.9
			c1,1.2,1.6,2.5,2.2,3.9l-1.6,0.9c-0.6-1.6-1.2-2.6-2.1-4L212.8,55.9z M215.8,54.5c0.9,1.1,1.5,2.2,2.3,3.9l-1.6,0.9
			c-0.7-1.7-1.1-2.5-2.2-4L215.8,54.5z"/>
		<path class="st0" d="M238,57.8h-6.9V62c0.5-0.2,1.2-0.4,2.4-0.4c3.5,0,5.8,2.3,5.8,5.3c0,2.6-1.9,5.5-6.5,5.5
			c-1.8,0-3.4-0.4-5-1.3l0.7-2.3c1.3,0.9,2.7,1.3,4.3,1.3c3.2,0,4-1.9,4-3.2c0-1.9-1.6-3.1-3.5-3.1c-0.9,0-1.7,0.2-2.4,0.8h-2.1v-9
			h9.2V57.8z"/>
		<path class="st0" d="M251.9,62.5v2.2h-7.1V72h-2.5V55.5h10.2v2.2h-7.7v4.8H251.9z"/>
		<path class="st0" d="M277,57.1v14.4h-14.9v-2.3h12.5v-9.9h-12.3v-2.2H277z"/>
		<path class="st0" d="M287.7,61.5c-1.3-0.9-3.3-2-6.4-3.1l1.1-2c3.5,1.1,5.6,2.3,6.6,2.9L287.7,61.5z M281.7,69.9
			c8.2-0.6,12.4-4.5,14.8-12.4l2,1.5c-1.1,3.3-4.2,12.6-16.4,13.5L281.7,69.9z"/>
		<path class="st0" d="M317.7,56.6c-0.4,6.3-2.1,13.8-13.3,16.1l-1-2.2c9.3-1.8,11-7,11.6-11.6h-13.4v-2.3H317.7z"/>
		<path class="st0" d="M335.6,59.4c-0.4,3.9-2.5,6.3-5.1,7.4l-1.3-1.6c1.1-0.4,2.9-1.3,3.9-3.9h-11.5v-2H335.6z M321.8,71.6
			c4.8-2.3,5.1-5,5.1-8.8l2.2,0c-0.2,5.7-1.6,8.1-5.9,10.4L321.8,71.6z"/>
		<path class="st0" d="M342.4,70c5.3-0.6,8.9-2.8,11.1-9.7l2.1,1.3c-2.6,7.1-6.3,10.6-15.7,11v-17h2.5V70z"/>
		<path class="st0" d="M364.1,61.5c-1.3-0.9-3.3-2-6.4-3.1l1.1-2c3.5,1.1,5.6,2.3,6.6,2.9L364.1,61.5z M358.1,69.9
			c8.2-0.6,12.4-4.5,14.8-12.4l2,1.5c-1.1,3.3-4.2,12.6-16.4,13.5L358.1,69.9z"/>
		<path class="st0" d="M392.2,56.3c-1,4.2-2.5,6.7-3.8,8.6c1.2,0.9,3.8,3,6.9,6l-2,1.9c-1-1.1-2.8-3-6.4-6.2
			c-2.8,3.1-5.7,5.1-8.3,6.2l-1.4-1.9c2.5-1.1,8.7-4.2,11.8-12.4h-10.7v-2.2H392.2z"/>
		<path class="st0" d="M396.5,62.4l-0.1-2.3l4.4-0.4v-4.5h2.3v4.3l10.6-0.9c-0.4,4.4-2.3,7.1-6.2,8.9l-1.4-1.8
			c3.3-1.3,4.2-3.1,4.7-4.7l-7.8,0.7v6.5c0,1.7,0.6,1.9,2.3,1.9h4.4c1.1,0,2.4-0.1,3.6-0.3l0,2.3c-0.7,0.1-1.6,0.2-3.4,0.2h-4.8
			c-3.9,0-4.4-2-4.4-3.9V62L396.5,62.4z"/>
		<path class="st0" d="M423.7,61.5c-1.3-0.9-3.3-2-6.4-3.1l1.1-2c3.5,1.1,5.6,2.3,6.6,2.9L423.7,61.5z M417.7,69.9
			c8.2-0.6,12.4-4.5,14.8-12.4l2,1.5c-1.1,3.3-4.2,12.6-16.4,13.5L417.7,69.9z"/>
		<path class="st0" d="M437.1,62.5c2.5-1.5,4.3-3.5,5.5-6.2h11.1c-0.3,3.3-1.4,13.5-14,16.8l-1.2-2.1c5.2-1.2,8-3.9,8.8-4.7
			c-1.7-1.4-3.4-2.6-6.1-3.9c-0.6,0.5-1.2,1.1-2.5,2L437.1,62.5z M444.2,58.4c-0.7,1.2-1.2,1.8-1.6,2.3c0.9,0.4,3.7,1.8,6.1,3.8
			c1.1-1.6,1.8-3.4,2.2-6.1H444.2z"/>
		<path class="st0" d="M470.3,62.9v2.4H456v-2.4H470.3z"/>
	</g>
	<g>
		<path class="st1" d="M0,65.4c0.8-0.9,4.1-5.1,4.8-5.9c0.8-0.9,1.5-1.5,2.5-1.5c0.9,0,1.7,0.4,3,1.7l8.9,9.3l-1.8,2.1l-8.9-9.6
			c-0.4-0.4-0.8-0.8-1.3-0.8c-0.4,0-0.7,0.3-1,0.6c-0.8,0.9-3.9,5.3-4.5,6.1L0,65.4z M13.6,56.6c1.2,1.2,1.9,2.3,2.7,3.7l-1.5,1.1
			c-0.9-1.6-1.5-2.5-2.6-3.8L13.6,56.6z M16.5,54.9c1.1,1.1,1.8,2.2,2.7,3.7l-1.5,1.1c-0.9-1.6-1.5-2.4-2.6-3.7L16.5,54.9z"/>
		<path class="st1" d="M26.6,61c0,7.2-2,10.2-3.9,12l-1.7-1.7c2-2.1,3.3-4.3,3.3-10v-5.1h2.3V61z M32.1,69.7
			c2.3-0.9,4.8-1.8,5.7-7.6L40,63c-1,4.2-2.8,9-10.2,9.6V55.5h2.3V69.7z"/>
		<path class="st1" d="M60.2,59.1v2.2h-3.4v2.3c0,7.6-6.5,8.8-9.9,9.3l-0.9-2.2c4-0.5,8.4-1.6,8.4-7.1v-2.3h-6.6v5.3h-2.4v-5.3h-3.3
			v-2.2h3.3v-3.7h2.4v3.7h6.6v-3.8h2.3v3.8H60.2z"/>
		<path class="st1" d="M76,62.9v2.4H61.7v-2.4H76z"/>
		<path class="st1" d="M82.8,61c0,7.2-2,10.2-3.9,12l-1.7-1.7c2-2.1,3.3-4.3,3.3-10v-5.1h2.3V61z M88.3,69.7
			c2.3-0.9,4.8-1.8,5.7-7.6l2.2,0.9c-1,4.2-2.8,9-10.2,9.6V55.5h2.3V69.7z"/>
		<path class="st1" d="M98.2,70.5c1.3-0.9,2.9-2,4.2-3.9h-3.6v-1.9h4.2v-1.9h-4.3v-1.9h2.3c0-0.2-0.2-1.8-0.6-3h-1.3v-1.9h3.9v-1.7
			h2v1.7h3.6v1.9h-1c-0.4,1.9-0.5,2.1-0.7,3h2v1.9H105v1.9h3.4v1.9h-3c0.5,0.6,1.3,1.6,2.6,2.4l-1,1.9c-1.1-1-1.3-1.4-1.9-2.2v5.2
			h-2v-5.2c-1.7,2.3-2.9,3.2-3.7,3.7L98.2,70.5z M102.3,57.9c0.3,1,0.6,2.7,0.6,3h2.1c0.2-0.8,0.5-2.2,0.6-3H102.3z M118.1,56.3
			c-1.9,0.9-4.2,1.5-6.4,1.6V61h6.4v2h-2v10.9h-2.2V63h-2.2v0.6c0,5.8-1.1,8-2.8,10.3l-2-1.4c1.8-2.2,2.7-4.3,2.7-8.9v-7.7
			c3.7,0.1,6-0.9,7.3-1.6L118.1,56.3z"/>
		<path class="st1" d="M124.4,73.9h-2.1v-8.7c-0.5,0.6-0.9,0.9-1.6,1.6l-1-2.1c2.8-2.2,4.1-5.5,4.4-6.4l1.9,0.7
			c-0.5,1.2-0.9,2-1.6,3.2V73.9z M137,61.1h-4.2c-0.2,0.8-0.3,1.1-0.6,1.9h5.8v10.5h-11.2V63h3.3c0.3-0.7,0.3-0.8,0.6-1.9h-4.3v-1.9
			h10.3v-1.3h-14.1v2.3h-2.2v-4.3h8.1v-1.6h2.2v1.6h8.1v4.3H137V61.1z M136,64.9h-7v2.3h7V64.9z M136,69h-7v2.5h7V69z"/>
		<path class="st1" d="M142.2,71c8.2-1.5,11.1-6.3,12.2-12.1h-6.7c-1.3,2-2.8,3.7-5.1,5.3l-1.5-1.7c1.5-1,3.6-2.7,5.1-5.7h8.3
			l2.2,2.9c-1.2,5.4-3.8,11.5-13.5,13.5L142.2,71z M155.9,54.4c1,1.2,1.5,2.1,2.4,3.8l-1.4,0.9c-0.7-1.6-1.3-2.5-2.3-3.8L155.9,54.4
			z M158.7,53.6c1,1.3,1.5,2.1,2.3,3.8l-1.4,0.9c-0.7-1.6-1.1-2.4-2.2-3.9L158.7,53.6z"/>
		<path class="st1" d="M179.3,60.9c-1,8.2-4.7,11.1-13.3,11.9l-0.7-2.2c3.6-0.2,6.1-0.9,7.7-2c1.1-0.7,3-2.5,3.6-5.6h-13.7v-2.2
			H179.3z M178,56v2.1h-13.7V56H178z"/>
		<path class="st1" d="M188.9,61.5c-1.3-0.9-3.3-2-6.4-3.1l1.1-2c3.5,1.1,5.6,2.3,6.6,2.9L188.9,61.5z M182.9,69.9
			c8.2-0.6,12.4-4.5,14.8-12.4l2,1.5c-1.1,3.3-4.2,12.6-16.4,13.5L182.9,69.9z"/>
		<path class="st1" d="M216.1,67.2c-3.4-2.1-5.5-3.2-8.7-4.4V73h-2.5V55.3h2.5v5.2c4.9,1.5,8.6,3.6,10,4.4L216.1,67.2z M212.8,55.9
			c1,1.2,1.6,2.5,2.2,3.9l-1.6,0.9c-0.6-1.6-1.2-2.6-2.1-4L212.8,55.9z M215.8,54.5c0.9,1.1,1.5,2.2,2.3,3.9l-1.6,0.9
			c-0.7-1.7-1.1-2.5-2.2-4L215.8,54.5z"/>
		<path class="st1" d="M238,57.8h-6.9V62c0.5-0.2,1.2-0.4,2.4-0.4c3.5,0,5.8,2.3,5.8,5.3c0,2.6-1.9,5.5-6.5,5.5
			c-1.8,0-3.4-0.4-5-1.3l0.7-2.3c1.3,0.9,2.7,1.3,4.3,1.3c3.2,0,4-1.9,4-3.2c0-1.9-1.6-3.1-3.5-3.1c-0.9,0-1.7,0.2-2.4,0.8h-2.1v-9
			h9.2V57.8z"/>
		<path class="st1" d="M251.9,62.5v2.2h-7.1V72h-2.5V55.5h10.2v2.2h-7.7v4.8H251.9z"/>
		<path class="st1" d="M277,57.1v14.4h-14.9v-2.3h12.5v-9.9h-12.3v-2.2H277z"/>
		<path class="st1" d="M287.7,61.5c-1.3-0.9-3.3-2-6.4-3.1l1.1-2c3.5,1.1,5.6,2.3,6.6,2.9L287.7,61.5z M281.7,69.9
			c8.2-0.6,12.4-4.5,14.8-12.4l2,1.5c-1.1,3.3-4.2,12.6-16.4,13.5L281.7,69.9z"/>
		<path class="st1" d="M317.7,56.6c-0.4,6.3-2.1,13.8-13.3,16.1l-1-2.2c9.3-1.8,11-7,11.6-11.6h-13.4v-2.3H317.7z"/>
		<path class="st1" d="M335.6,59.4c-0.4,3.9-2.5,6.3-5.1,7.4l-1.3-1.6c1.1-0.4,2.9-1.3,3.9-3.9h-11.5v-2H335.6z M321.8,71.6
			c4.8-2.3,5.1-5,5.1-8.8l2.2,0c-0.2,5.7-1.6,8.1-5.9,10.4L321.8,71.6z"/>
		<path class="st1" d="M342.4,70c5.3-0.6,8.9-2.8,11.1-9.7l2.1,1.3c-2.6,7.1-6.3,10.6-15.7,11v-17h2.5V70z"/>
		<path class="st1" d="M364.1,61.5c-1.3-0.9-3.3-2-6.4-3.1l1.1-2c3.5,1.1,5.6,2.3,6.6,2.9L364.1,61.5z M358.1,69.9
			c8.2-0.6,12.4-4.5,14.8-12.4l2,1.5c-1.1,3.3-4.2,12.6-16.4,13.5L358.1,69.9z"/>
		<path class="st1" d="M392.2,56.3c-1,4.2-2.5,6.7-3.8,8.6c1.2,0.9,3.8,3,6.9,6l-2,1.9c-1-1.1-2.8-3-6.4-6.2
			c-2.8,3.1-5.7,5.1-8.3,6.2l-1.4-1.9c2.5-1.1,8.7-4.2,11.8-12.4h-10.7v-2.2H392.2z"/>
		<path class="st1" d="M396.5,62.4l-0.1-2.3l4.4-0.4v-4.5h2.3v4.3l10.6-0.9c-0.4,4.4-2.3,7.1-6.2,8.9l-1.4-1.8
			c3.3-1.3,4.2-3.1,4.7-4.7l-7.8,0.7v6.5c0,1.7,0.6,1.9,2.3,1.9h4.4c1.1,0,2.4-0.1,3.6-0.3l0,2.3c-0.7,0.1-1.6,0.2-3.4,0.2h-4.8
			c-3.9,0-4.4-2-4.4-3.9V62L396.5,62.4z"/>
		<path class="st1" d="M423.7,61.5c-1.3-0.9-3.3-2-6.4-3.1l1.1-2c3.5,1.1,5.6,2.3,6.6,2.9L423.7,61.5z M417.7,69.9
			c8.2-0.6,12.4-4.5,14.8-12.4l2,1.5c-1.1,3.3-4.2,12.6-16.4,13.5L417.7,69.9z"/>
		<path class="st1" d="M437.1,62.5c2.5-1.5,4.3-3.5,5.5-6.2h11.1c-0.3,3.3-1.4,13.5-14,16.8l-1.2-2.1c5.2-1.2,8-3.9,8.8-4.7
			c-1.7-1.4-3.4-2.6-6.1-3.9c-0.6,0.5-1.2,1.1-2.5,2L437.1,62.5z M444.2,58.4c-0.7,1.2-1.2,1.8-1.6,2.3c0.9,0.4,3.7,1.8,6.1,3.8
			c1.1-1.6,1.8-3.4,2.2-6.1H444.2z"/>
		<path class="st1" d="M470.3,62.9v2.4H456v-2.4H470.3z"/>
	</g>
</g>
<g>
	<g>
		<path class="st0" d="M275.3,34.5c0.8-1.2,1.4-2.5,1.8-3.8c0.5-1.4,0.7-2.9,0.7-4.4l0-0.3c0,0-3.3,0-3.4,0c0,0.3-0.1,0.8-0.1,1.1
			c-0.1,0.9-0.3,1.8-0.6,2.7c-0.2,0.8-0.5,1.5-0.9,2.2l-7.5-7.6c-0.5-0.5-0.9-0.9-1.2-1.3c-0.3-0.4-0.6-0.8-0.8-1.2
			c-0.2-0.4-0.4-0.8-0.5-1.2c-0.1-0.4-0.1-0.8-0.1-1.2c0-0.5,0.1-1,0.3-1.5c0.2-0.4,0.4-0.8,0.8-1.2c0.3-0.3,0.7-0.6,1.2-0.8
			c0.5-0.2,1-0.3,1.6-0.3c0.5,0,1,0.1,1.4,0.3c0.4,0.2,0.7,0.4,1,0.7c0.3,0.3,0.5,0.6,0.7,0.9c0.2,0.3,0.3,0.6,0.4,1
			c0.1,0.3,0.1,0.7,0.2,1c0.3-0.1,3.6-0.7,3.6-0.7l0-0.3c-0.1-0.8-0.3-1.6-0.6-2.3c-0.4-0.7-0.9-1.4-1.5-2c-0.6-0.6-1.4-1-2.2-1.3
			c-0.9-0.3-1.8-0.5-2.9-0.5c-1.2,0-2.2,0.2-3.2,0.5c-0.9,0.4-1.8,0.9-2.4,1.5c-0.7,0.6-1.2,1.4-1.5,2.2c-0.3,0.8-0.5,1.8-0.5,2.7
			c0,1,0.2,2,0.6,3c0.3,0.8,0.8,1.7,1.5,2.6c-0.7,0.4-1.4,0.8-2,1.2c-0.7,0.5-1.4,1.2-1.9,1.9c-0.5,0.7-1,1.5-1.3,2.3
			c-0.3,0.8-0.5,1.7-0.5,2.6c0,1.2,0.2,2.3,0.7,3.3c0.5,1,1.1,1.8,1.9,2.5c0.8,0.7,1.7,1.2,2.7,1.5c1,0.4,2,0.5,3.1,0.5
			c1.9,0,3.7-0.3,5.2-1c1.5-0.6,2.8-1.5,4-2.6c0,0,3.1,3.1,3.3,3.3c0.3,0,5.2,0,5.2,0L275.3,34.5z M264.3,37.5
			c-0.6,0-1.2-0.1-1.8-0.3c-0.6-0.2-1.1-0.5-1.6-0.9c-0.5-0.4-0.8-0.9-1.1-1.5c-0.3-0.6-0.4-1.3-0.4-2c0-1.1,0.3-2.2,1-3.1
			c0.6-0.9,1.5-1.7,2.7-2.4l7.6,7.7c-0.8,0.7-1.7,1.3-2.6,1.8C266.9,37.3,265.7,37.5,264.3,37.5z"/>
		<g>
			<g>
				<path class="st0" d="M142.7,6.3l-7.4,6.8l-3.2-3.8L143.3,0h4.8v40.3h-5.5V6.3z"/>
				<path class="st0" d="M169.2,15.6h0.2c1.3-0.6,2.7-0.9,4.4-0.9c1.4,0,2.9,0.2,4.4,0.7c1.5,0.5,2.8,1.3,4,2.3c1.2,1,2.2,2.4,2.9,4
					c0.8,1.6,1.1,3.5,1.1,5.7c0,2.2-0.4,4.2-1.1,5.9c-0.7,1.7-1.7,3.1-3,4.2c-1.3,1.1-2.7,2-4.4,2.6c-1.7,0.6-3.5,0.9-5.3,0.9
					c-1.9,0-3.7-0.3-5.3-0.9c-1.7-0.6-3.1-1.5-4.4-2.6c-1.3-1.1-2.2-2.5-3-4.1c-0.7-1.6-1.1-3.4-1.1-5.3c0-1.3,0.1-2.4,0.3-3.4
					c0.2-1,0.5-2,0.8-2.9c0.4-0.9,0.8-1.8,1.3-2.7c0.5-0.9,1-1.8,1.6-2.8L172.9,0h6.4L169.2,15.6z M164.1,27.8
					c0,1.2,0.2,2.3,0.6,3.4c0.4,1,1,1.9,1.7,2.6c0.7,0.7,1.6,1.3,2.6,1.7c1,0.4,2.2,0.6,3.4,0.6c1.3,0,2.4-0.2,3.4-0.6
					c1-0.4,1.9-1,2.6-1.7c0.7-0.7,1.3-1.6,1.7-2.6c0.4-1,0.6-2.1,0.6-3.4c0-1.2-0.2-2.3-0.6-3.4c-0.4-1-1-1.9-1.7-2.6
					c-0.7-0.7-1.6-1.3-2.6-1.7c-1-0.4-2.2-0.6-3.4-0.6c-1.3,0-2.4,0.2-3.4,0.6c-1,0.4-1.9,1-2.6,1.7c-0.7,0.7-1.3,1.6-1.7,2.6
					C164.3,25.5,164.1,26.6,164.1,27.8z"/>
			</g>
			<g>
				<path class="st0" d="M142.7,6.3l-7.4,6.8l-3.2-3.8L143.3,0h4.8v40.3h-5.5V6.3z"/>
				<path class="st0" d="M169.2,15.6h0.2c1.3-0.6,2.7-0.9,4.4-0.9c1.4,0,2.9,0.2,4.4,0.7c1.5,0.5,2.8,1.3,4,2.3c1.2,1,2.2,2.4,2.9,4
					c0.8,1.6,1.1,3.5,1.1,5.7c0,2.2-0.4,4.2-1.1,5.9c-0.7,1.7-1.7,3.1-3,4.2c-1.3,1.1-2.7,2-4.4,2.6c-1.7,0.6-3.5,0.9-5.3,0.9
					c-1.9,0-3.7-0.3-5.3-0.9c-1.7-0.6-3.1-1.5-4.4-2.6c-1.3-1.1-2.2-2.5-3-4.1c-0.7-1.6-1.1-3.4-1.1-5.3c0-1.3,0.1-2.4,0.3-3.4
					c0.2-1,0.5-2,0.8-2.9c0.4-0.9,0.8-1.8,1.3-2.7c0.5-0.9,1-1.8,1.6-2.8L172.9,0h6.4L169.2,15.6z M164.1,27.8
					c0,1.2,0.2,2.3,0.6,3.4c0.4,1,1,1.9,1.7,2.6c0.7,0.7,1.6,1.3,2.6,1.7c1,0.4,2.2,0.6,3.4,0.6c1.3,0,2.4-0.2,3.4-0.6
					c1-0.4,1.9-1,2.6-1.7c0.7-0.7,1.3-1.6,1.7-2.6c0.4-1,0.6-2.1,0.6-3.4c0-1.2-0.2-2.3-0.6-3.4c-0.4-1-1-1.9-1.7-2.6
					c-0.7-0.7-1.6-1.3-2.6-1.7c-1-0.4-2.2-0.6-3.4-0.6c-1.3,0-2.4,0.2-3.4,0.6c-1,0.4-1.9,1-2.6,1.7c-0.7,0.7-1.3,1.6-1.7,2.6
					C164.3,25.5,164.1,26.6,164.1,27.8z"/>
			</g>
			<g>
				<path class="st0" d="M142.7,6.3l-7.4,6.8l-3.2-3.8L143.3,0h4.8v40.3h-5.5V6.3z"/>
				<path class="st0" d="M169.2,15.6h0.2c1.3-0.6,2.7-0.9,4.4-0.9c1.4,0,2.9,0.2,4.4,0.7c1.5,0.5,2.8,1.3,4,2.3c1.2,1,2.2,2.4,2.9,4
					c0.8,1.6,1.1,3.5,1.1,5.7c0,2.2-0.4,4.2-1.1,5.9c-0.7,1.7-1.7,3.1-3,4.2c-1.3,1.1-2.7,2-4.4,2.6c-1.7,0.6-3.5,0.9-5.3,0.9
					c-1.9,0-3.7-0.3-5.3-0.9c-1.7-0.6-3.1-1.5-4.4-2.6c-1.3-1.1-2.2-2.5-3-4.1c-0.7-1.6-1.1-3.4-1.1-5.3c0-1.3,0.1-2.4,0.3-3.4
					c0.2-1,0.5-2,0.8-2.9c0.4-0.9,0.8-1.8,1.3-2.7c0.5-0.9,1-1.8,1.6-2.8L172.9,0h6.4L169.2,15.6z M164.1,27.8
					c0,1.2,0.2,2.3,0.6,3.4c0.4,1,1,1.9,1.7,2.6c0.7,0.7,1.6,1.3,2.6,1.7c1,0.4,2.2,0.6,3.4,0.6c1.3,0,2.4-0.2,3.4-0.6
					c1-0.4,1.9-1,2.6-1.7c0.7-0.7,1.3-1.6,1.7-2.6c0.4-1,0.6-2.1,0.6-3.4c0-1.2-0.2-2.3-0.6-3.4c-0.4-1-1-1.9-1.7-2.6
					c-0.7-0.7-1.6-1.3-2.6-1.7c-1-0.4-2.2-0.6-3.4-0.6c-1.3,0-2.4,0.2-3.4,0.6c-1,0.4-1.9,1-2.6,1.7c-0.7,0.7-1.3,1.6-1.7,2.6
					C164.3,25.5,164.1,26.6,164.1,27.8z"/>
			</g>
		</g>
		<g>
			<path class="st0" d="M107.3,41l-4-1.2l18.2-36.4l3.9,1.2L107.3,41z"/>
		</g>
		<g>
			<g>
				<path class="st0" d="M89.8,25.4h-0.2c-1.3,0.6-2.7,0.9-4.4,0.9c-1.4,0-2.9-0.2-4.4-0.7c-1.5-0.5-2.8-1.3-4-2.3
					c-1.2-1-2.2-2.4-2.9-4c-0.8-1.6-1.1-3.5-1.1-5.7c0-2.2,0.4-4.1,1.1-5.8c0.7-1.7,1.7-3.1,3-4.2c1.3-1.1,2.7-2,4.4-2.6
					C82.9,0.3,84.6,0,86.5,0c1.9,0,3.7,0.3,5.3,0.9c1.7,0.6,3.1,1.5,4.4,2.6c1.3,1.1,2.2,2.5,3,4.1c0.7,1.6,1.1,3.4,1.1,5.3
					c0,1.3-0.1,2.4-0.3,3.4c-0.2,1-0.5,2-0.8,2.9c-0.4,0.9-0.8,1.8-1.3,2.8c-0.5,0.9-1,1.8-1.7,2.8L86.1,41h-6.4L89.8,25.4z
					 M94.9,13.1c0-1.2-0.2-2.3-0.6-3.4c-0.4-1-1-1.9-1.7-2.6C91.9,6.4,91,5.8,90,5.4c-1-0.4-2.2-0.6-3.4-0.6S84.2,5,83.1,5.4
					c-1,0.4-1.9,1-2.6,1.7c-0.7,0.7-1.3,1.6-1.7,2.6c-0.4,1-0.6,2.1-0.6,3.4c0,1.2,0.2,2.3,0.6,3.4c0.4,1,1,1.9,1.7,2.6
					c0.7,0.7,1.6,1.3,2.6,1.7c1,0.4,2.2,0.6,3.4,0.6s2.4-0.2,3.4-0.6c1-0.4,1.9-1,2.6-1.7c0.7-0.7,1.3-1.6,1.7-2.6
					C94.7,15.5,94.9,14.4,94.9,13.1z"/>
			</g>
			<g>
				<path class="st0" d="M89.8,25.4h-0.2c-1.3,0.6-2.7,0.9-4.4,0.9c-1.4,0-2.9-0.2-4.4-0.7c-1.5-0.5-2.8-1.3-4-2.3
					c-1.2-1-2.2-2.4-2.9-4c-0.8-1.6-1.1-3.5-1.1-5.7c0-2.2,0.4-4.1,1.1-5.8c0.7-1.7,1.7-3.1,3-4.2c1.3-1.1,2.7-2,4.4-2.6
					C82.9,0.3,84.6,0,86.5,0c1.9,0,3.7,0.3,5.3,0.9c1.7,0.6,3.1,1.5,4.4,2.6c1.3,1.1,2.2,2.5,3,4.1c0.7,1.6,1.1,3.4,1.1,5.3
					c0,1.3-0.1,2.4-0.3,3.4c-0.2,1-0.5,2-0.8,2.9c-0.4,0.9-0.8,1.8-1.3,2.8c-0.5,0.9-1,1.8-1.7,2.8L86.1,41h-6.4L89.8,25.4z
					 M94.9,13.1c0-1.2-0.2-2.3-0.6-3.4c-0.4-1-1-1.9-1.7-2.6C91.9,6.4,91,5.8,90,5.4c-1-0.4-2.2-0.6-3.4-0.6S84.2,5,83.1,5.4
					c-1,0.4-1.9,1-2.6,1.7c-0.7,0.7-1.3,1.6-1.7,2.6c-0.4,1-0.6,2.1-0.6,3.4c0,1.2,0.2,2.3,0.6,3.4c0.4,1,1,1.9,1.7,2.6
					c0.7,0.7,1.6,1.3,2.6,1.7c1,0.4,2.2,0.6,3.4,0.6s2.4-0.2,3.4-0.6c1-0.4,1.9-1,2.6-1.7c0.7-0.7,1.3-1.6,1.7-2.6
					C94.7,15.5,94.9,14.4,94.9,13.1z"/>
			</g>
			<g>
				<path class="st0" d="M89.8,25.4h-0.2c-1.3,0.6-2.7,0.9-4.4,0.9c-1.4,0-2.9-0.2-4.4-0.7c-1.5-0.5-2.8-1.3-4-2.3
					c-1.2-1-2.2-2.4-2.9-4c-0.8-1.6-1.1-3.5-1.1-5.7c0-2.2,0.4-4.1,1.1-5.8c0.7-1.7,1.7-3.1,3-4.2c1.3-1.1,2.7-2,4.4-2.6
					C82.9,0.3,84.6,0,86.5,0c1.9,0,3.7,0.3,5.3,0.9c1.7,0.6,3.1,1.5,4.4,2.6c1.3,1.1,2.2,2.5,3,4.1c0.7,1.6,1.1,3.4,1.1,5.3
					c0,1.3-0.1,2.4-0.3,3.4c-0.2,1-0.5,2-0.8,2.9c-0.4,0.9-0.8,1.8-1.3,2.8c-0.5,0.9-1,1.8-1.7,2.8L86.1,41h-6.4L89.8,25.4z
					 M94.9,13.1c0-1.2-0.2-2.3-0.6-3.4c-0.4-1-1-1.9-1.7-2.6C91.9,6.4,91,5.8,90,5.4c-1-0.4-2.2-0.6-3.4-0.6S84.2,5,83.1,5.4
					c-1,0.4-1.9,1-2.6,1.7c-0.7,0.7-1.3,1.6-1.7,2.6c-0.4,1-0.6,2.1-0.6,3.4c0,1.2,0.2,2.3,0.6,3.4c0.4,1,1,1.9,1.7,2.6
					c0.7,0.7,1.6,1.3,2.6,1.7c1,0.4,2.2,0.6,3.4,0.6s2.4-0.2,3.4-0.6c1-0.4,1.9-1,2.6-1.7c0.7-0.7,1.3-1.6,1.7-2.6
					C94.7,15.5,94.9,14.4,94.9,13.1z"/>
			</g>
		</g>
		<g>
			<path class="st0" d="M294.1,6.9l-7.4,6.8l-3.2-3.8l11.2-9.3h4.8V41h-5.5V6.9z"/>
			<path class="st0" d="M330.8,5.5h-19.5V0.7h25.3v4.7l-16,35.6h-6.1L330.8,5.5z"/>
		</g>
		<g>
			<path class="st0" d="M207.8,30.9c-0.6-0.5-1.3-0.8-2.2-1.1c-0.8-0.3-1.8-0.6-2.8-0.8c-0.8-0.2-1.6-0.4-2.2-0.6
				c-0.6-0.2-1.2-0.4-1.6-0.6c-0.4-0.2-0.7-0.5-0.9-0.8c-0.2-0.3-0.3-0.7-0.3-1.2c0-0.9,0.3-1.5,0.9-2c0.6-0.5,1.6-0.7,3-0.7
				c0.6,0,1.2,0.1,1.8,0.2c0.6,0.1,1.1,0.3,1.6,0.5c0.5,0.2,0.9,0.4,1.3,0.7c0.4,0.2,0.6,0.5,0.8,0.7l0.1,0.1l1.6-2.9l-0.1-0.1
				c-0.9-0.7-1.9-1.2-3.1-1.7c-1.2-0.4-2.5-0.7-3.9-0.7c-1.1,0-2.1,0.1-3,0.4c-0.9,0.3-1.7,0.7-2.4,1.2c-0.7,0.5-1.2,1.2-1.6,2
				c-0.4,0.8-0.6,1.7-0.6,2.7c0,0.8,0.1,1.5,0.4,2.1c0.3,0.6,0.7,1.1,1.2,1.5c0.5,0.4,1.2,0.8,1.9,1.1c0.8,0.3,1.7,0.6,2.7,0.9
				c0.9,0.2,1.7,0.5,2.4,0.7c0.7,0.2,1.3,0.4,1.7,0.7c0.5,0.3,0.8,0.5,1.1,0.9c0.2,0.3,0.4,0.7,0.4,1.2c0,0.8-0.3,1.4-1,1.9
				c-0.7,0.4-1.6,0.6-2.9,0.6c-0.8,0-1.5-0.1-2.3-0.3c-0.7-0.2-1.4-0.4-2-0.7c-0.6-0.3-1.2-0.5-1.6-0.8c-0.5-0.3-0.8-0.6-1.1-0.8
				l-0.1-0.1l-1.6,3l0.1,0.1c1.2,0.9,2.5,1.6,4,2.1c1.5,0.5,3,0.7,4.6,0.7c1,0,2-0.1,3-0.3c0.9-0.2,1.7-0.6,2.4-1.1
				c0.7-0.5,1.3-1.1,1.7-1.9c0.4-0.8,0.6-1.7,0.6-2.8c0-0.9-0.2-1.8-0.5-2.4C208.8,32,208.3,31.4,207.8,30.9z"/>
			<path class="st0" d="M220.2,20L212,40.9h3.7l2.1-5.6h7.8l2.2,5.6h3.7L223.2,20H220.2z M224.9,32.6h-6.4l3.2-8.4L224.9,32.6z"/>
			<polygon class="st0" points="230.3,20 230.3,23.2 237.2,23.2 237.2,40.9 240.7,40.9 240.7,23.2 247.6,23.2 247.6,20 			"/>
		</g>
		<g>
			<path class="st0" d="M351.5,30.9c-0.6-0.5-1.3-0.8-2.2-1.1c-0.8-0.3-1.8-0.6-2.8-0.8c-0.8-0.2-1.6-0.4-2.2-0.6
				c-0.6-0.2-1.2-0.4-1.6-0.6c-0.4-0.2-0.7-0.5-0.9-0.8c-0.2-0.3-0.3-0.7-0.3-1.2c0-0.8,0.3-1.5,0.9-2c0.6-0.5,1.6-0.7,3-0.7
				c0.6,0,1.2,0.1,1.8,0.2c0.6,0.1,1.1,0.3,1.6,0.5c0.5,0.2,0.9,0.4,1.3,0.7c0.4,0.2,0.6,0.5,0.8,0.7l0.1,0.1l1.6-2.9l-0.1-0.1
				c-0.9-0.7-1.9-1.2-3.1-1.7c-1.2-0.4-2.5-0.7-3.9-0.7c-1.1,0-2.1,0.1-3,0.4c-0.9,0.3-1.7,0.7-2.4,1.2c-0.7,0.5-1.2,1.2-1.6,2
				c-0.4,0.8-0.6,1.7-0.6,2.7c0,0.8,0.1,1.5,0.4,2.1c0.3,0.6,0.7,1.1,1.2,1.5c0.5,0.4,1.2,0.8,1.9,1.1c0.8,0.3,1.7,0.6,2.7,0.9
				c0.9,0.2,1.7,0.5,2.4,0.7c0.7,0.2,1.3,0.4,1.7,0.7c0.5,0.3,0.8,0.5,1.1,0.9c0.2,0.3,0.4,0.7,0.4,1.2c0,0.8-0.3,1.4-1,1.9
				c-0.7,0.4-1.6,0.6-2.9,0.6c-0.8,0-1.5-0.1-2.3-0.3c-0.7-0.2-1.4-0.4-2-0.7c-0.6-0.3-1.2-0.5-1.6-0.8c-0.5-0.3-0.8-0.6-1.1-0.8
				l-0.1-0.1l-1.6,3l0.1,0.1c1.2,0.9,2.5,1.6,4,2.1c1.5,0.5,3,0.7,4.6,0.7c1,0,2-0.1,3-0.3c0.9-0.2,1.7-0.6,2.4-1.1
				c0.7-0.5,1.3-1.1,1.7-1.9c0.4-0.8,0.6-1.7,0.6-2.8c0-0.9-0.2-1.8-0.5-2.4C352.6,32,352.1,31.4,351.5,30.9z"/>
			<path class="st0" d="M372.1,30.6c0,0.9-0.1,1.8-0.3,2.7c-0.2,0.9-0.5,1.6-0.9,2.3c-0.4,0.7-1,1.2-1.7,1.6
				c-0.7,0.4-1.6,0.6-2.6,0.6c-1,0-1.9-0.2-2.6-0.6c-0.7-0.4-1.3-0.9-1.7-1.6c-0.4-0.7-0.7-1.4-0.9-2.3c-0.2-0.9-0.3-1.8-0.3-2.7V20
				h-3.5v10.6c0,1.3,0.2,2.6,0.5,3.9c0.3,1.2,0.8,2.4,1.5,3.3c0.7,1,1.6,1.8,2.8,2.3c1.1,0.6,2.6,0.9,4.2,0.9c1.6,0,3-0.3,4.1-0.8
				c1.1-0.5,2.1-1.3,2.8-2.3c0.7-0.9,1.3-2.1,1.6-3.3c0.3-1.3,0.5-2.6,0.5-4V20h-3.5V30.6z"/>
			<polygon class="st0" points="394,20.1 394,34.7 382.5,20.1 379.7,20 379.7,40.9 383.2,40.9 383.2,26.6 394.6,40.8 397.5,40.9 
				397.5,20.1 			"/>
		</g>
	</g>
	<g>
		<path class="st1" d="M275.3,34.5c0.8-1.2,1.4-2.5,1.8-3.8c0.5-1.4,0.7-2.9,0.7-4.4l0-0.3c0,0-3.3,0-3.4,0c0,0.3-0.1,0.8-0.1,1.1
			c-0.1,0.9-0.3,1.8-0.6,2.7c-0.2,0.8-0.5,1.5-0.9,2.2l-7.5-7.6c-0.5-0.5-0.9-0.9-1.2-1.3c-0.3-0.4-0.6-0.8-0.8-1.2
			c-0.2-0.4-0.4-0.8-0.5-1.2c-0.1-0.4-0.1-0.8-0.1-1.2c0-0.5,0.1-1,0.3-1.5c0.2-0.4,0.4-0.8,0.8-1.2c0.3-0.3,0.7-0.6,1.2-0.8
			c0.5-0.2,1-0.3,1.6-0.3c0.5,0,1,0.1,1.4,0.3c0.4,0.2,0.7,0.4,1,0.7c0.3,0.3,0.5,0.6,0.7,0.9c0.2,0.3,0.3,0.6,0.4,1
			c0.1,0.3,0.1,0.7,0.2,1c0.3-0.1,3.6-0.7,3.6-0.7l0-0.3c-0.1-0.8-0.3-1.6-0.6-2.3c-0.4-0.7-0.9-1.4-1.5-2c-0.6-0.6-1.4-1-2.2-1.3
			c-0.9-0.3-1.8-0.5-2.9-0.5c-1.2,0-2.2,0.2-3.2,0.5c-0.9,0.4-1.8,0.9-2.4,1.5c-0.7,0.6-1.2,1.4-1.5,2.2c-0.3,0.8-0.5,1.8-0.5,2.7
			c0,1,0.2,2,0.6,3c0.3,0.8,0.8,1.7,1.5,2.6c-0.7,0.4-1.4,0.8-2,1.2c-0.7,0.5-1.4,1.2-1.9,1.9c-0.5,0.7-1,1.5-1.3,2.3
			c-0.3,0.8-0.5,1.7-0.5,2.6c0,1.2,0.2,2.3,0.7,3.3c0.5,1,1.1,1.8,1.9,2.5c0.8,0.7,1.7,1.2,2.7,1.5c1,0.4,2,0.5,3.1,0.5
			c1.9,0,3.7-0.3,5.2-1c1.5-0.6,2.8-1.5,4-2.6c0,0,3.1,3.1,3.3,3.3c0.3,0,5.2,0,5.2,0L275.3,34.5z M264.3,37.5
			c-0.6,0-1.2-0.1-1.8-0.3c-0.6-0.2-1.1-0.5-1.6-0.9c-0.5-0.4-0.8-0.9-1.1-1.5c-0.3-0.6-0.4-1.3-0.4-2c0-1.1,0.3-2.2,1-3.1
			c0.6-0.9,1.5-1.7,2.7-2.4l7.6,7.7c-0.8,0.7-1.7,1.3-2.6,1.8C266.9,37.3,265.7,37.5,264.3,37.5z"/>
		<g>
			<g>
				<path class="st1" d="M142.7,6.3l-7.4,6.8l-3.2-3.8L143.3,0h4.8v40.3h-5.5V6.3z"/>
				<path class="st1" d="M169.2,15.6h0.2c1.3-0.6,2.7-0.9,4.4-0.9c1.4,0,2.9,0.2,4.4,0.7c1.5,0.5,2.8,1.3,4,2.3c1.2,1,2.2,2.4,2.9,4
					c0.8,1.6,1.1,3.5,1.1,5.7c0,2.2-0.4,4.2-1.1,5.9c-0.7,1.7-1.7,3.1-3,4.2c-1.3,1.1-2.7,2-4.4,2.6c-1.7,0.6-3.5,0.9-5.3,0.9
					c-1.9,0-3.7-0.3-5.3-0.9c-1.7-0.6-3.1-1.5-4.4-2.6c-1.3-1.1-2.2-2.5-3-4.1c-0.7-1.6-1.1-3.4-1.1-5.3c0-1.3,0.1-2.4,0.3-3.4
					c0.2-1,0.5-2,0.8-2.9c0.4-0.9,0.8-1.8,1.3-2.7c0.5-0.9,1-1.8,1.6-2.8L172.9,0h6.4L169.2,15.6z M164.1,27.8
					c0,1.2,0.2,2.3,0.6,3.4c0.4,1,1,1.9,1.7,2.6c0.7,0.7,1.6,1.3,2.6,1.7c1,0.4,2.2,0.6,3.4,0.6c1.3,0,2.4-0.2,3.4-0.6
					c1-0.4,1.9-1,2.6-1.7c0.7-0.7,1.3-1.6,1.7-2.6c0.4-1,0.6-2.1,0.6-3.4c0-1.2-0.2-2.3-0.6-3.4c-0.4-1-1-1.9-1.7-2.6
					c-0.7-0.7-1.6-1.3-2.6-1.7c-1-0.4-2.2-0.6-3.4-0.6c-1.3,0-2.4,0.2-3.4,0.6c-1,0.4-1.9,1-2.6,1.7c-0.7,0.7-1.3,1.6-1.7,2.6
					C164.3,25.5,164.1,26.6,164.1,27.8z"/>
			</g>
		</g>
		<g>
			<path class="st1" d="M107.3,41l-4-1.2l18.2-36.4l3.9,1.2L107.3,41z"/>
		</g>
		<g>
			<g>
				<path class="st1" d="M89.8,25.4h-0.2c-1.3,0.6-2.7,0.9-4.4,0.9c-1.4,0-2.9-0.2-4.4-0.7c-1.5-0.5-2.8-1.3-4-2.3
					c-1.2-1-2.2-2.4-2.9-4c-0.8-1.6-1.1-3.5-1.1-5.7c0-2.2,0.4-4.1,1.1-5.8c0.7-1.7,1.7-3.1,3-4.2c1.3-1.1,2.7-2,4.4-2.6
					C82.9,0.3,84.6,0,86.5,0c1.9,0,3.7,0.3,5.3,0.9c1.7,0.6,3.1,1.5,4.4,2.6c1.3,1.1,2.2,2.5,3,4.1c0.7,1.6,1.1,3.4,1.1,5.3
					c0,1.3-0.1,2.4-0.3,3.4c-0.2,1-0.5,2-0.8,2.9c-0.4,0.9-0.8,1.8-1.3,2.8c-0.5,0.9-1,1.8-1.7,2.8L86.1,41h-6.4L89.8,25.4z
					 M94.9,13.1c0-1.2-0.2-2.3-0.6-3.4c-0.4-1-1-1.9-1.7-2.6C91.9,6.4,91,5.8,90,5.4c-1-0.4-2.2-0.6-3.4-0.6S84.2,5,83.1,5.4
					c-1,0.4-1.9,1-2.6,1.7c-0.7,0.7-1.3,1.6-1.7,2.6c-0.4,1-0.6,2.1-0.6,3.4c0,1.2,0.2,2.3,0.6,3.4c0.4,1,1,1.9,1.7,2.6
					c0.7,0.7,1.6,1.3,2.6,1.7c1,0.4,2.2,0.6,3.4,0.6s2.4-0.2,3.4-0.6c1-0.4,1.9-1,2.6-1.7c0.7-0.7,1.3-1.6,1.7-2.6
					C94.7,15.5,94.9,14.4,94.9,13.1z"/>
			</g>
		</g>
		<g>
			<path class="st1" d="M294.1,6.9l-7.4,6.8l-3.2-3.8l11.2-9.3h4.8V41h-5.5V6.9z"/>
			<path class="st1" d="M330.8,5.5h-19.5V0.7h25.3v4.7l-16,35.6h-6.1L330.8,5.5z"/>
		</g>
		<g>
			<path class="st1" d="M207.8,30.9c-0.6-0.5-1.3-0.8-2.2-1.1c-0.8-0.3-1.8-0.6-2.8-0.8c-0.8-0.2-1.6-0.4-2.2-0.6
				c-0.6-0.2-1.2-0.4-1.6-0.6c-0.4-0.2-0.7-0.5-0.9-0.8c-0.2-0.3-0.3-0.7-0.3-1.2c0-0.9,0.3-1.5,0.9-2c0.6-0.5,1.6-0.7,3-0.7
				c0.6,0,1.2,0.1,1.8,0.2c0.6,0.1,1.1,0.3,1.6,0.5c0.5,0.2,0.9,0.4,1.3,0.7c0.4,0.2,0.6,0.5,0.8,0.7l0.1,0.1l1.6-2.9l-0.1-0.1
				c-0.9-0.7-1.9-1.2-3.1-1.7c-1.2-0.4-2.5-0.7-3.9-0.7c-1.1,0-2.1,0.1-3,0.4c-0.9,0.3-1.7,0.7-2.4,1.2c-0.7,0.5-1.2,1.2-1.6,2
				c-0.4,0.8-0.6,1.7-0.6,2.7c0,0.8,0.1,1.5,0.4,2.1c0.3,0.6,0.7,1.1,1.2,1.5c0.5,0.4,1.2,0.8,1.9,1.1c0.8,0.3,1.7,0.6,2.7,0.9
				c0.9,0.2,1.7,0.5,2.4,0.7c0.7,0.2,1.3,0.4,1.7,0.7c0.5,0.3,0.8,0.5,1.1,0.9c0.2,0.3,0.4,0.7,0.4,1.2c0,0.8-0.3,1.4-1,1.9
				c-0.7,0.4-1.6,0.6-2.9,0.6c-0.8,0-1.5-0.1-2.3-0.3c-0.7-0.2-1.4-0.4-2-0.7c-0.6-0.3-1.2-0.5-1.6-0.8c-0.5-0.3-0.8-0.6-1.1-0.8
				l-0.1-0.1l-1.6,3l0.1,0.1c1.2,0.9,2.5,1.6,4,2.1c1.5,0.5,3,0.7,4.6,0.7c1,0,2-0.1,3-0.3c0.9-0.2,1.7-0.6,2.4-1.1
				c0.7-0.5,1.3-1.1,1.7-1.9c0.4-0.8,0.6-1.7,0.6-2.8c0-0.9-0.2-1.8-0.5-2.4C208.8,32,208.3,31.4,207.8,30.9z"/>
			<path class="st1" d="M220.2,20L212,40.9h3.7l2.1-5.6h7.8l2.2,5.6h3.7L223.2,20H220.2z M224.9,32.6h-6.4l3.2-8.4L224.9,32.6z"/>
			<polygon class="st1" points="230.3,20 230.3,23.2 237.2,23.2 237.2,40.9 240.7,40.9 240.7,23.2 247.6,23.2 247.6,20 			"/>
		</g>
		<g>
			<path class="st1" d="M351.5,30.9c-0.6-0.5-1.3-0.8-2.2-1.1c-0.8-0.3-1.8-0.6-2.8-0.8c-0.8-0.2-1.6-0.4-2.2-0.6
				c-0.6-0.2-1.2-0.4-1.6-0.6c-0.4-0.2-0.7-0.5-0.9-0.8c-0.2-0.3-0.3-0.7-0.3-1.2c0-0.8,0.3-1.5,0.9-2c0.6-0.5,1.6-0.7,3-0.7
				c0.6,0,1.2,0.1,1.8,0.2c0.6,0.1,1.1,0.3,1.6,0.5c0.5,0.2,0.9,0.4,1.3,0.7c0.4,0.2,0.6,0.5,0.8,0.7l0.1,0.1l1.6-2.9l-0.1-0.1
				c-0.9-0.7-1.9-1.2-3.1-1.7c-1.2-0.4-2.5-0.7-3.9-0.7c-1.1,0-2.1,0.1-3,0.4c-0.9,0.3-1.7,0.7-2.4,1.2c-0.7,0.5-1.2,1.2-1.6,2
				c-0.4,0.8-0.6,1.7-0.6,2.7c0,0.8,0.1,1.5,0.4,2.1c0.3,0.6,0.7,1.1,1.2,1.5c0.5,0.4,1.2,0.8,1.9,1.1c0.8,0.3,1.7,0.6,2.7,0.9
				c0.9,0.2,1.7,0.5,2.4,0.7c0.7,0.2,1.3,0.4,1.7,0.7c0.5,0.3,0.8,0.5,1.1,0.9c0.2,0.3,0.4,0.7,0.4,1.2c0,0.8-0.3,1.4-1,1.9
				c-0.7,0.4-1.6,0.6-2.9,0.6c-0.8,0-1.5-0.1-2.3-0.3c-0.7-0.2-1.4-0.4-2-0.7c-0.6-0.3-1.2-0.5-1.6-0.8c-0.5-0.3-0.8-0.6-1.1-0.8
				l-0.1-0.1l-1.6,3l0.1,0.1c1.2,0.9,2.5,1.6,4,2.1c1.5,0.5,3,0.7,4.6,0.7c1,0,2-0.1,3-0.3c0.9-0.2,1.7-0.6,2.4-1.1
				c0.7-0.5,1.3-1.1,1.7-1.9c0.4-0.8,0.6-1.7,0.6-2.8c0-0.9-0.2-1.8-0.5-2.4C352.6,32,352.1,31.4,351.5,30.9z"/>
			<path class="st1" d="M372.1,30.6c0,0.9-0.1,1.8-0.3,2.7c-0.2,0.9-0.5,1.6-0.9,2.3c-0.4,0.7-1,1.2-1.7,1.6
				c-0.7,0.4-1.6,0.6-2.6,0.6c-1,0-1.9-0.2-2.6-0.6c-0.7-0.4-1.3-0.9-1.7-1.6c-0.4-0.7-0.7-1.4-0.9-2.3c-0.2-0.9-0.3-1.8-0.3-2.7V20
				h-3.5v10.6c0,1.3,0.2,2.6,0.5,3.9c0.3,1.2,0.8,2.4,1.5,3.3c0.7,1,1.6,1.8,2.8,2.3c1.1,0.6,2.6,0.9,4.2,0.9c1.6,0,3-0.3,4.1-0.8
				c1.1-0.5,2.1-1.3,2.8-2.3c0.7-0.9,1.3-2.1,1.6-3.3c0.3-1.3,0.5-2.6,0.5-4V20h-3.5V30.6z"/>
			<polygon class="st1" points="394,20.1 394,34.7 382.5,20.1 379.7,20 379.7,40.9 383.2,40.9 383.2,26.6 394.6,40.8 397.5,40.9 
				397.5,20.1 			"/>
		</g>
	</g>
</g>
</svg>
