<svg id="00e68c93-9a6d-437b-a6f0-c9ddb7d66aa2" data-name="5da50ed0-1839-4ed3-adcc-0e6101993664" xmlns="http://www.w3.org/2000/svg" width="472.02539" height="74.48866" viewBox="0 0 472.02539 74.48866">
  <defs>
    <style>
      .\30 c20af9f-b38b-470e-aa88-b281b615acc3 {
        fill: #025392;
      }
    </style>
  </defs>
  <title>wct2017-date-en</title>
  <g>
    <path class="0c20af9f-b38b-470e-aa88-b281b615acc3" d="M289.56592,36.5088a15.27306,15.27306,0,0,0,1.80469-3.8018,15.461,15.461,0,0,0,.7178-4.3809l.00781-.3442h-3.4248c-.02249.3423-.0694.7695-.1026,1.0801a14.60031,14.60031,0,0,1-.5654,2.7344,12.912,12.912,0,0,1-.9014,2.1997l-7.49411-7.6221a15.49617,15.49617,0,0,1-1.207-1.3433,7.944,7.944,0,0,1-.79791-1.2187,5.5865,5.5865,0,0,1-.458-1.1529,4.65,4.65,0,0,1-.14941-1.1835,3.89654,3.89654,0,0,1,.26859-1.4556,3.42277,3.42277,0,0,1,.76178-1.1587,3.47885,3.47885,0,0,1,1.18359-.7691,4.24283,4.24283,0,0,1,1.582-.2783,3.48452,3.48452,0,0,1,1.39063.2559,3.52612,3.52612,0,0,1,1.02148.6572,3.62754,3.62754,0,0,1,.69431.8838,4.22449,4.22449,0,0,1,.39651.9512,6.01622,6.01622,0,0,1,.15329,1.0332c.33011-.0532,3.584-.6787,3.584-.6787l-.02151-.2969a6.08866,6.08866,0,0,0-.62891-2.3184,6.43716,6.43716,0,0,0-1.50189-1.9516,7.45437,7.45437,0,0,0-2.23441-1.3408,7.77239,7.77239,0,0,0-2.85349-.5083,8.76085,8.76085,0,0,0-3.166.5459,7.25224,7.25224,0,0,0-2.4151,1.4907,6.47217,6.47217,0,0,0-1.53021,2.2304,7.10227,7.10227,0,0,0-.5274,2.7271,8.08557,8.08557,0,0,0,.5723,2.9873,11.45936,11.45936,0,0,0,1.494,2.5894,12.83288,12.83288,0,0,0-2.04391,1.2231,9.95193,9.95193,0,0,0-1.93259,1.8657,8.60483,8.60483,0,0,0-1.2832,2.2793,7.47523,7.47523,0,0,0-.4668,2.6314,7.35871,7.35871,0,0,0,.7363,3.3188,7.84538,7.84538,0,0,0,1.93359,2.4854,8.49116,8.49116,0,0,0,2.71481,1.5493,9.30624,9.30624,0,0,0,3.08789.5317,13.15459,13.15459,0,0,0,5.24319-1.0317,14.00365,14.00365,0,0,0,3.96579-2.5689s3.05661,3.1016,3.2529,3.2959h5.20511Zm-11.0322,3.0205a5.51986,5.51986,0,0,1-1.8233-.313,4.82962,4.82962,0,0,1-1.5752-.9126,4.4789,4.4789,0,0,1-1.5332-3.4981,5.47545,5.47545,0,0,1,.95712-3.102,7.783,7.783,0,0,1,2.68259-2.3565l7.60059,7.6714a10.02041,10.02041,0,0,1-2.63681,1.7647A8.72376,8.72376,0,0,1,278.53372,39.5293Z" transform="translate(-14.17773 -1.99962)"/>
    <g>
      <path class="0c20af9f-b38b-470e-aa88-b281b615acc3" d="M156.91841,8.2588l-7.3945,6.8256-3.18649-3.812,11.207-9.2715h4.835V42.2744h-5.461Z" transform="translate(-14.17773 -1.99962)"/>
      <path class="0c20af9f-b38b-470e-aa88-b281b615acc3" d="M183.42531,17.5869h.2285a10.09707,10.09707,0,0,1,4.4375-.9097,13.84024,13.84024,0,0,1,4.3799.7393,11.692,11.692,0,0,1,4.0097,2.3032,11.95516,11.95516,0,0,1,2.92921,3.9829,13.31088,13.31088,0,0,1,1.1377,5.7163,14.53065,14.53065,0,0,1-1.1093,5.8877,12.088,12.088,0,0,1-7.3663,6.7974,16.51663,16.51663,0,0,1-5.34709.852,15.509,15.509,0,0,1-5.34721-.9087,13.10613,13.10613,0,0,1-4.38091-2.6176,12.70918,12.70918,0,0,1-2.98531-4.0958,12.53542,12.53542,0,0,1-1.1084-5.3466,18.69114,18.69114,0,0,1,.28419-3.4126,16.20825,16.20825,0,0,1,.8242-2.9287,22.14838,22.14838,0,0,1,1.2798-2.7315q.739-1.33515,1.6499-2.8159L187.124,2.0009h6.4272Zm-5.062,12.2304a9.19481,9.19481,0,0,0,.5976,3.3565,7.553,7.553,0,0,0,1.7066,2.6435,7.8944,7.8944,0,0,0,2.644,1.7359,9.62024,9.62024,0,0,0,6.82719,0,7.89738,7.89738,0,0,0,2.6445-1.7359,7.5749,7.5749,0,0,0,1.707-2.6435,9.72027,9.72027,0,0,0,0-6.7119,7.59606,7.59606,0,0,0-1.707-2.6475,7.93218,7.93218,0,0,0-2.6445-1.7339,9.62168,9.62168,0,0,0-6.82719,0,7.92913,7.92913,0,0,0-2.644,1.7339,7.57389,7.57389,0,0,0-1.7066,2.6475A9.18169,9.18169,0,0,0,178.36331,29.8173Z" transform="translate(-14.17773 -1.99962)"/>
    </g>
    <path class="0c20af9f-b38b-470e-aa88-b281b615acc3" d="M121.48731,42.956l-3.981-1.2275L135.709,5.3735l3.92529,1.2275Z" transform="translate(-14.17773 -1.99962)"/>
    <path class="0c20af9f-b38b-470e-aa88-b281b615acc3" d="M104.06051,27.3701h-.2275a10.06249,10.06249,0,0,1-4.436.9096,13.75742,13.75742,0,0,1-4.37989-.7402,11.5943,11.5943,0,0,1-4.01031-2.3017,11.95816,11.95816,0,0,1-2.9306-3.983,13.31252,13.31252,0,0,1-1.1368-5.7167,14.40554,14.40554,0,0,1,1.1094-5.8306,12.35165,12.35165,0,0,1,2.9854-4.2378A12.71321,12.71321,0,0,1,95.414,2.8818,15.99211,15.99211,0,0,1,100.76221,2a15.55223,15.55223,0,0,1,5.3467.9096,13.10506,13.10506,0,0,1,4.3798,2.6172,12.70922,12.70922,0,0,1,2.9869,4.0957,12.55356,12.55356,0,0,1,1.1093,5.3472,18.86825,18.86825,0,0,1-.2841,3.4121,16.42685,16.42685,0,0,1-.8252,2.9302,24.23726,24.23726,0,0,1-1.2798,2.7588q-.7398,1.36515-1.6504,2.7876L100.36331,42.956H93.936Zm5.064-12.2305a9.16315,9.16315,0,0,0-.5982-3.3555,7.58538,7.58538,0,0,0-1.707-2.6464,7.91927,7.91927,0,0,0-2.6455-1.733,9.61622,9.61622,0,0,0-6.8252,0,7.94747,7.94747,0,0,0-2.645,1.733,7.57891,7.57891,0,0,0-1.7066,2.6464,9.18586,9.18586,0,0,0-.5966,3.3555,9.18294,9.18294,0,0,0,.5966,3.356,7.58277,7.58277,0,0,0,1.7066,2.646,7.93927,7.93927,0,0,0,2.645,1.7353,9.622,9.622,0,0,0,6.8252,0,7.91116,7.91116,0,0,0,2.6455-1.7353,7.58925,7.58925,0,0,0,1.707-2.646A9.16009,9.16009,0,0,0,109.12451,15.1396Z" transform="translate(-14.17773 -1.99962)"/>
    <g>
      <path class="0c20af9f-b38b-470e-aa88-b281b615acc3" d="M308.27,8.9389l-7.3945,6.8267-3.18561-3.811L308.896,2.6821h4.83591V42.956H308.27Z" transform="translate(-14.17773 -1.99962)"/>
      <path class="0c20af9f-b38b-470e-aa88-b281b615acc3" d="M344.99561,7.4604H325.48392V2.6821H350.7973V7.3466l-16.04,35.6094h-6.14359Z" transform="translate(-14.17773 -1.99962)"/>
    </g>
    <g>
      <path class="0c20af9f-b38b-470e-aa88-b281b615acc3" d="M221.9707,32.9389a8.20948,8.20948,0,0,0-2.1646-1.1494,25.93529,25.93529,0,0,0-2.84032-.8447q-1.27439-.3186-2.2285-.5942a7.28341,7.28341,0,0,1-1.56841-.625,2.50782,2.50782,0,0,1-.89841-.8003,2.15017,2.15017,0,0,1-.2847-1.1656,2.35682,2.35682,0,0,1,.9229-1.9892,4.84661,4.84661,0,0,1,2.9541-.7276,8.02548,8.02548,0,0,1,1.78461.2002,9.28222,9.28222,0,0,1,1.6021.5147,8.34032,8.34032,0,0,1,1.2715.6714,4.41123,4.41123,0,0,1,.8174.6606l.1171.1294,1.6167-2.916-.0883-.0659a12.98754,12.98754,0,0,0-3.1333-1.669,11.01164,11.01164,0,0,0-3.90089-.6758,10.48917,10.48917,0,0,0-2.9937.4117,7.07334,7.07334,0,0,0-2.4062,1.2255,5.87149,5.87149,0,0,0-1.6138,2.0147,6.12416,6.12416,0,0,0-.5932,2.7373,5.1061,5.1061,0,0,0,.4028,2.1255,4.39105,4.39105,0,0,0,1.1787,1.5376,6.87963,6.87963,0,0,0,1.9341,1.1084,24.94091,24.94091,0,0,0,2.6963.8603q1.33154.3465,2.3735.6651a9.70736,9.70736,0,0,1,1.74609.7007,3.252,3.252,0,0,1,1.0757.8798,1.9966,1.9966,0,0,1,.3667,1.2286,2.05614,2.05614,0,0,1-.9863,1.8667,5.4062,5.4062,0,0,1-2.8907.6474,9.31223,9.31223,0,0,1-2.2607-.2715,14.48,14.48,0,0,1-2.02689-.6611,10.10431,10.10431,0,0,1-1.63281-.8447,6.76991,6.76991,0,0,1-1.0674-.8252l-.11909-.1196-1.60789,3.0268.0835.0645a13.17994,13.17994,0,0,0,3.99609,2.0937,14.79916,14.79916,0,0,0,4.5771.7163,12.52659,12.52659,0,0,0,2.959-.3369,7.327,7.327,0,0,0,2.43311-1.0625,5.21238,5.21238,0,0,0,1.66409-1.8867,5.8753,5.8753,0,0,0,.6089-2.7549,5.46291,5.46291,0,0,0-.4913-2.4185A4.7441,4.7441,0,0,0,221.9707,32.9389Z" transform="translate(-14.17773 -1.99962)"/>
      <path class="0c20af9f-b38b-470e-aa88-b281b615acc3" d="M234.44531,22.0381l-8.2769,20.8403h3.72075l2.146-5.5977H239.81l2.1748,5.5977h3.691l-8.21829-20.8403Zm4.63185,12.5859H232.712l3.2373-8.3687Z" transform="translate(-14.17773 -1.99962)"/>
      <polygon class="0c20af9f-b38b-470e-aa88-b281b615acc3" points="230.356 20.038 230.356 23.159 237.229 23.159 237.229 40.878 240.756 40.878 240.756 23.159 247.6 23.159 247.6 20.038 230.356 20.038"/>
    </g>
    <g>
      <path class="0c20af9f-b38b-470e-aa88-b281b615acc3" d="M365.72415,32.9389a8.22293,8.22293,0,0,0-2.165-1.1494,25.88342,25.88342,0,0,0-2.8399-.8447q-1.2729-.3186-2.22849-.5942a7.25346,7.25346,0,0,1-1.56839-.625,2.50451,2.50451,0,0,1-.89841-.8008,2.14338,2.14338,0,0,1-.28519-1.1651,2.38877,2.38877,0,0,1,.92291-1.9892,4.84866,4.84866,0,0,1,2.9541-.7276,8.0119,8.0119,0,0,1,1.78421.2002,9.27763,9.27763,0,0,1,1.60251.5147,8.33869,8.33869,0,0,1,1.27249.6714,4.39034,4.39034,0,0,1,.81641.6606l.11719.1294,1.61621-2.916-.08789-.0659a12.944,12.944,0,0,0-3.13281-1.669,11.01244,11.01244,0,0,0-3.9014-.6758,10.49712,10.49712,0,0,0-2.99411.4117,7.07788,7.07788,0,0,0-2.4053,1.2255,5.89713,5.89713,0,0,0-1.61429,2.0147,6.12716,6.12716,0,0,0-.59271,2.7373,5.10431,5.10431,0,0,0,.40329,2.1255,4.39916,4.39916,0,0,0,1.1777,1.5376,6.88138,6.88138,0,0,0,1.9346,1.1084,25.02047,25.02047,0,0,0,2.69733.8603q1.33.3465,2.373.6651a9.63834,9.63834,0,0,1,1.74509.7007,3.27739,3.27739,0,0,1,1.07721.8784,2.00812,2.00812,0,0,1,.3652,1.23,2.05458,2.05458,0,0,1-.9863,1.8667,5.399,5.399,0,0,1-2.89059.6474,9.31836,9.31836,0,0,1-2.2608-.2715,14.53933,14.53933,0,0,1-2.0264-.6611,10.08713,10.08713,0,0,1-1.63281-.8447,6.74219,6.74219,0,0,1-1.06641-.8252l-.12009-.1196-1.6084,3.0268.084.0645a13.17828,13.17828,0,0,0,3.99609,2.0932,14.78251,14.78251,0,0,0,4.57709.7168,12.50287,12.50287,0,0,0,2.958-.3369,7.32086,7.32086,0,0,0,2.4346-1.0625,5.20621,5.20621,0,0,0,1.66309-1.8867,5.86945,5.86945,0,0,0,.60938-2.75489,5.4532,5.4532,0,0,0-.49121-2.4185A4.75858,4.75858,0,0,0,365.72415,32.9389Z" transform="translate(-14.17773 -1.99962)"/>
      <path class="0c20af9f-b38b-470e-aa88-b281b615acc3" d="M386.30817,32.603a13.1784,13.1784,0,0,1-.27252,2.6855,6.95544,6.95544,0,0,1-.91211,2.3086,4.98207,4.98207,0,0,1-1.68359,1.6265,5.10757,5.10757,0,0,1-2.63278.6201,5.21579,5.21579,0,0,1-2.62012-.6069,4.811,4.811,0,0,1-1.6973-1.6109,6.94673,6.94673,0,0,1-.9111-2.3086,13.26108,13.26108,0,0,1-.27249-2.7143V22.0381h-3.498V32.603a16.02223,16.02223,0,0,0,.46777,3.8877,9.574,9.574,0,0,0,1.52731,3.3345,7.66492,7.66492,0,0,0,2.78519,2.3295,9.35215,9.35215,0,0,0,4.21872.8682,9.52726,9.52726,0,0,0,4.12787-.8242,7.63734,7.63734,0,0,0,2.81549-2.2559,9.39249,9.39249,0,0,0,1.58789-3.3213,15.82052,15.82052,0,0,0,.49609-4.0185V22.0381h-3.52634Z" transform="translate(-14.17773 -1.99962)"/>
      <polygon class="0c20af9f-b38b-470e-aa88-b281b615acc3" points="394.054 20.067 394.054 34.652 382.502 20.086 379.728 20.038 379.728 40.878 383.226 40.878 383.226 26.608 394.66 40.831 397.58 40.878 397.58 20.067 394.054 20.067"/>
    </g>
  </g>
  <g>
    <path class="0c20af9f-b38b-470e-aa88-b281b615acc3" d="M20.99756,64.14063a3.60163,3.60163,0,0,1,2.84961,3.57129,4.01394,4.01394,0,0,1-1.32959,3.001c-.98779.89355-2.62158,1.36816-5.22412,1.36816a22.83626,22.83626,0,0,1-3.11572-.19043V57.5293a20.84326,20.84326,0,0,1,3.70459-.30371,6.74213,6.74213,0,0,1,4.02734.93066,3.23255,3.23255,0,0,1,1.4248,2.75391,3.34146,3.34146,0,0,1-2.33691,3.1543Zm-3.00146-.85547c1.5957,0,2.5459-.85449,2.5459-2.05176,0-1.44336-1.083-1.91895-2.33691-1.91895a5.733,5.733,0,0,0-1.23486.0957v3.875Zm-1.02588,6.61133a5.85768,5.85768,0,0,0,1.12109.07617c1.51953,0,2.81152-.68457,2.81152-2.33691,0-1.69043-1.44385-2.29883-2.8877-2.29883H16.97021Z" transform="translate(-14.17773 -1.99962)"/>
    <path class="0c20af9f-b38b-470e-aa88-b281b615acc3" d="M33.87939,71.53027A8.95389,8.95389,0,0,1,30.46,72.1377c-3.26758,0-5.12891-2.05176-5.12891-5.33789,0-3.04,1.74756-5.66113,4.84424-5.66113,2.56445,0,4.23633,1.82324,4.23633,5.24316a6.48524,6.48524,0,0,1-.07617,1.12109H28.00928c.07617,1.80469,1.36816,2.52637,2.8877,2.52637a7.72514,7.72514,0,0,0,2.5835-.43652ZM31.80908,65.5459c.01855-1.10156-.418-2.4502-1.80518-2.4502-1.34863,0-1.91846,1.40527-1.99463,2.4502Z" transform="translate(-14.17773 -1.99962)"/>
    <path class="0c20af9f-b38b-470e-aa88-b281b615acc3" d="M39.18115,71.94824H36.36963V56.67383h2.81152Z" transform="translate(-14.17773 -1.99962)"/>
    <path class="0c20af9f-b38b-470e-aa88-b281b615acc3" d="M44.52,71.94824H41.7085V56.67383H44.52Z" transform="translate(-14.17773 -1.99962)"/>
    <path class="0c20af9f-b38b-470e-aa88-b281b615acc3" d="M55.02588,71.53027a8.95389,8.95389,0,0,1-3.41943.60742c-3.26758,0-5.12891-2.05176-5.12891-5.33789,0-3.04,1.74756-5.66113,4.84424-5.66113,2.56445,0,4.23633,1.82324,4.23633,5.24316a6.48524,6.48524,0,0,1-.07617,1.12109H49.15576c.07617,1.80469,1.36816,2.52637,2.8877,2.52637a7.72514,7.72514,0,0,0,2.5835-.43652ZM52.95557,65.5459c.01855-1.10156-.418-2.4502-1.80518-2.4502-1.34863,0-1.91846,1.40527-1.99463,2.4502Z" transform="translate(-14.17773 -1.99962)"/>
    <path class="0c20af9f-b38b-470e-aa88-b281b615acc3" d="M63.082,63.70313a4.35976,4.35976,0,0,0-1.99463-.55078c-.855,0-1.31055.43652-1.31055,1.00684,0,.58887.39893.89258,1.61475,1.40625,1.78564.74023,2.62158,1.7666,2.62158,3.22949,0,2.01367-1.52,3.34277-4.16064,3.34277a6.18347,6.18347,0,0,1-2.98242-.70215l.53174-2.0332a5.55743,5.55743,0,0,0,2.46973.70313c.98779,0,1.46289-.418,1.46289-1.06445,0-.64551-.36084-.9873-1.52-1.48145-1.97559-.79785-2.69727-1.91895-2.69727-3.07715,0-1.90039,1.51953-3.34375,3.87549-3.34375a5.74967,5.74967,0,0,1,2.62158.58887Z" transform="translate(-14.17773 -1.99962)"/>
    <path class="0c20af9f-b38b-470e-aa88-b281b615acc3" d="M73.83594,69.44043a16.0087,16.0087,0,0,0,.15186,2.50781H71.46094L71.29,70.8457H71.2334a3.39628,3.39628,0,0,1-2.812,1.31152A3.07284,3.07284,0,0,1,65.249,68.98438c0-2.7168,2.4126-3.98926,5.77539-3.98926,0-1.04492-.36133-1.84277-1.8999-1.84277A5.156,5.156,0,0,0,66.522,63.874l-.53223-1.82324a7.44853,7.44853,0,0,1,3.6665-.89355c3.28662,0,4.17969,2.08984,4.17969,4.4082ZM71.1001,66.7998c-1.51953,0-3.09619.36133-3.09619,1.89941a1.289,1.289,0,0,0,1.32959,1.44434,1.75994,1.75994,0,0,0,1.7666-1.82422Z" transform="translate(-14.17773 -1.99962)"/>
    <path class="0c20af9f-b38b-470e-aa88-b281b615acc3" d="M79.15674,71.94824H76.34521V56.67383h2.81152Z" transform="translate(-14.17773 -1.99962)"/>
    <path class="0c20af9f-b38b-470e-aa88-b281b615acc3" d="M84.49512,71.94824H81.68359V56.67383h2.81152Z" transform="translate(-14.17773 -1.99962)"/>
    <path class="0c20af9f-b38b-470e-aa88-b281b615acc3" d="M95.001,71.53027a8.95389,8.95389,0,0,1-3.41943.60742c-3.26758,0-5.12891-2.05176-5.12891-5.33789,0-3.04,1.74756-5.66113,4.84424-5.66113,2.56445,0,4.23633,1.82324,4.23633,5.24316a6.48524,6.48524,0,0,1-.07617,1.12109H89.13086c.07617,1.80469,1.36816,2.52637,2.8877,2.52637a7.72514,7.72514,0,0,0,2.5835-.43652ZM92.93066,65.5459c.01855-1.10156-.418-2.4502-1.80518-2.4502-1.34863,0-1.91846,1.40527-1.99463,2.4502Z" transform="translate(-14.17773 -1.99962)"/>
    <path class="0c20af9f-b38b-470e-aa88-b281b615acc3" d="M108.87109,60.09375a5.63049,5.63049,0,0,0-2.60254-.627c-1.48193,0-2.147.79785-2.147,1.61523,0,1.04395.72217,1.51953,2.50781,2.33594,2.33643,1.04492,3.38135,2.39355,3.38135,4.3125,0,2.5459-1.91846,4.40723-5.31934,4.40723a7.82176,7.82176,0,0,1-3.59033-.81641l.55078-2.35547a6.5632,6.5632,0,0,0,3.15381.81641c1.55762,0,2.37451-.74121,2.37451-1.82324,0-1.04492-.70264-1.67187-2.31738-2.375-2.2041-.9502-3.57178-2.31738-3.57178-4.21777,0-2.39355,1.88086-4.23633,5.03418-4.23633a7.07245,7.07245,0,0,1,3.13477.665Z" transform="translate(-14.17773 -1.99962)"/>
    <path class="0c20af9f-b38b-470e-aa88-b281b615acc3" d="M121.0498,71.94824h-2.81152V65.84961c0-1.34863-.418-2.39355-1.63379-2.39355a1.84439,1.84439,0,0,0-1.78564,2.07129v6.4209h-2.81152V56.67383h2.81152v5.96582h.03809a3.44581,3.44581,0,0,1,2.83057-1.501c1.88037,0,3.3623,1.36816,3.3623,4.4834Z" transform="translate(-14.17773 -1.99962)"/>
    <path class="0c20af9f-b38b-470e-aa88-b281b615acc3" d="M124.9458,59.97949a1.50061,1.50061,0,1,1,1.51953-1.501A1.44653,1.44653,0,0,1,124.9458,59.97949Zm1.4248,11.96875h-2.81152v-10.582h2.81152Z" transform="translate(-14.17773 -1.99962)"/>
    <path class="0c20af9f-b38b-470e-aa88-b281b615acc3" d="M137.93994,71.94824h-2.81152v-6.1748c0-1.291-.418-2.31738-1.61475-2.31738-.75977,0-1.80469.58887-1.80469,2.2041v6.28809h-2.81152V64.55762c0-1.23437-.03809-2.24121-.07617-3.17187h2.43164l.13281,1.4248h.05713a3.562,3.562,0,0,1,3.05859-1.65332c1.938,0,3.43848,1.34961,3.43848,4.3125Z" transform="translate(-14.17773 -1.99962)"/>
    <path class="0c20af9f-b38b-470e-aa88-b281b615acc3" d="M143.52686,70.92188c0,1.748-.09521,5.56641-4.93945,5.56641l-.26611-2.2041c2.2417-.1709,2.39355-1.38672,2.39355-4.06445V61.36621h2.812Zm-1.4248-10.94238a1.50055,1.50055,0,1,1,1.51953-1.501A1.44653,1.44653,0,0,1,142.10205,59.97949Z" transform="translate(-14.17773 -1.99962)"/>
    <path class="0c20af9f-b38b-470e-aa88-b281b615acc3" d="M154.96387,68.71875c0,1.25391.05664,2.33594.09473,3.22949h-2.45068L152.4751,70.542H152.418a3.52914,3.52914,0,0,1-3.03955,1.61523c-2.01367,0-3.38135-1.31152-3.38135-4.4834V61.36621h2.81152v5.88965c0,1.5957.45605,2.60254,1.61475,2.60254a1.82689,1.82689,0,0,0,1.729-1.97559v-6.5166h2.81152Z" transform="translate(-14.17773 -1.99962)"/>
    <path class="0c20af9f-b38b-470e-aa88-b281b615acc3" d="M166.877,71.94824H163.5332l-2.46973-4.52148-.74072,1.00684v3.51465h-2.81152V56.67383h2.81152v9.30859h.05713a13.97294,13.97294,0,0,1,.70264-1.31055l2.10889-3.30566H166.459l-3.45752,4.35059Z" transform="translate(-14.17773 -1.99962)"/>
    <path class="0c20af9f-b38b-470e-aa88-b281b615acc3" d="M176.88965,68.71875c0,1.25391.05664,2.33594.09473,3.22949h-2.45068l-.13281-1.40625h-.05713a3.52914,3.52914,0,0,1-3.03955,1.61523c-2.01367,0-3.38135-1.31152-3.38135-4.4834V61.36621h2.81152v5.88965c0,1.5957.45605,2.60254,1.61475,2.60254a1.82688,1.82688,0,0,0,1.729-1.97559v-6.5166h2.81152Z" transform="translate(-14.17773 -1.99962)"/>
    <path class="0c20af9f-b38b-470e-aa88-b281b615acc3" d="M194.25488,71.37793a12.93613,12.93613,0,0,1-4.16064.72168,6.9638,6.9638,0,0,1-5.14795-1.78516,7.73392,7.73392,0,0,1-1.97559-5.54785c0-4.93848,3.28613-7.5791,7.48486-7.5791a8.40094,8.40094,0,0,1,3.41943.60742l-.58887,2.31738a6.42451,6.42451,0,0,0-2.793-.53125c-2.60254,0-4.57812,1.5957-4.57812,5.12891,0,3.38184,1.80469,5.0918,4.21729,5.0918a3.91058,3.91058,0,0,0,1.44385-.209V66.02051h-2.10889V63.79785h4.7876Z" transform="translate(-14.17773 -1.99962)"/>
    <path class="0c20af9f-b38b-470e-aa88-b281b615acc3" d="M202.38721,63.874a3.96567,3.96567,0,0,0-.72168-.05664c-1.27295,0-2.2417.85449-2.2417,2.65918v5.47168H196.6123V64.67188c0-1.31055-.03809-2.35547-.07617-3.30566h2.4126L199.063,63.209h.07568a2.77819,2.77819,0,0,1,3.24854-2.01367Z" transform="translate(-14.17773 -1.99962)"/>
    <path class="0c20af9f-b38b-470e-aa88-b281b615acc3" d="M211.84863,69.44043a16.00871,16.00871,0,0,0,.15186,2.50781h-2.52686l-.1709-1.10254h-.05664a3.39628,3.39628,0,0,1-2.812,1.31152,3.07284,3.07284,0,0,1-3.17236-3.17285c0-2.7168,2.4126-3.98926,5.77539-3.98926,0-1.04492-.36133-1.84277-1.8999-1.84277a5.156,5.156,0,0,0-2.60254.72168l-.53223-1.82324a7.44853,7.44853,0,0,1,3.6665-.89355c3.28662,0,4.17969,2.08984,4.17969,4.4082Zm-2.73584-2.64062c-1.51953,0-3.09619.36133-3.09619,1.89941a1.289,1.289,0,0,0,1.32959,1.44434,1.75994,1.75994,0,0,0,1.7666-1.82422Z" transform="translate(-14.17773 -1.99962)"/>
    <path class="0c20af9f-b38b-470e-aa88-b281b615acc3" d="M223.3999,71.94824h-2.81152v-6.1748c0-1.291-.418-2.31738-1.61475-2.31738-.75977,0-1.80469.58887-1.80469,2.2041v6.28809h-2.81152V64.55762c0-1.23437-.03809-2.24121-.07617-3.17187h2.43164l.13281,1.4248h.05713a3.562,3.562,0,0,1,3.05859-1.65332c1.938,0,3.43848,1.34961,3.43848,4.3125Z" transform="translate(-14.17773 -1.99962)"/>
    <path class="0c20af9f-b38b-470e-aa88-b281b615acc3" d="M235.00879,68.92773c0,1.06348.03809,2.24121.07568,3.02051h-2.46924l-.1333-1.501h-.05664a3.328,3.328,0,0,1-2.98291,1.71c-2.39355,0-4.103-2.2041-4.103-5.41406,0-3.60937,1.99463-5.58594,4.27393-5.58594a2.81373,2.81373,0,0,1,2.5459,1.23535h.03809V56.67383h2.81152Zm-2.81152-3.249c0-1.53809-.93115-2.29883-1.86182-2.29883-1.44385,0-2.16553,1.48242-2.16553,3.3252,0,1.918.79785,3.19141,2.12744,3.19141.83594,0,1.8999-.6084,1.8999-2.28027Z" transform="translate(-14.17773 -1.99962)"/>
    <path class="0c20af9f-b38b-470e-aa88-b281b615acc3" d="M249.6958,57.56738v2.31738h-4.88232l-.37988,2.81152a5.24791,5.24791,0,0,1,.79785-.05664c2.50781,0,4.86328,1.40527,4.86328,4.502,0,2.75488-2.1084,5.01563-5.49023,5.01563a7.7475,7.7475,0,0,1-3.41943-.74121l.55078-2.12793a6.16787,6.16787,0,0,0,2.7168.665,2.61569,2.61569,0,0,0,2.81152-2.583c0-1.72949-1.27295-2.69824-3.70459-2.69824a13.04433,13.04433,0,0,0-1.61475.09473l.874-7.19922Z" transform="translate(-14.17773 -1.99962)"/>
    <path class="0c20af9f-b38b-470e-aa88-b281b615acc3" d="M252.9834,59.42871l2.77441-.81641v2.75391h2.33594V63.4375h-2.33594v4.59668c0,1.27344.39844,1.80469,1.25391,1.80469a4.03468,4.03468,0,0,0,.91113-.09473l.03809,2.14648a5.65307,5.65307,0,0,1-1.88086.24707c-3.03906,0-3.09668-2.64062-3.09668-3.81836V63.4375h-1.38672V61.36621h1.38672Z" transform="translate(-14.17773 -1.99962)"/>
    <path class="0c20af9f-b38b-470e-aa88-b281b615acc3" d="M268.88477,71.94824h-2.81152V65.84961c0-1.34863-.418-2.39355-1.63379-2.39355a1.84471,1.84471,0,0,0-1.78613,2.07129v6.4209H259.8418V56.67383h2.81152v5.96582h.03809a3.44662,3.44662,0,0,1,2.83105-1.501c1.88086,0,3.3623,1.36816,3.3623,4.4834Z" transform="translate(-14.17773 -1.99962)"/>
    <path class="0c20af9f-b38b-470e-aa88-b281b615acc3" d="M275.65039,71.94824V57.33887h7.82715v2.35547h-5.01562v3.85645h4.67383v2.29883h-4.67383v6.09863Z" transform="translate(-14.17773 -1.99962)"/>
    <path class="0c20af9f-b38b-470e-aa88-b281b615acc3" d="M288.51172,71.94824H285.7002V56.67383h2.81152Z" transform="translate(-14.17773 -1.99962)"/>
    <path class="0c20af9f-b38b-470e-aa88-b281b615acc3" d="M300.27246,66.57227c0,4.02734-2.584,5.585-4.93945,5.585-2.84961,0-4.90137-2.01367-4.90137-5.45215,0-3.55273,2.14648-5.56641,5.01465-5.56641C298.41016,61.13867,300.27246,63.36133,300.27246,66.57227ZM295.38965,63.209c-1.55762,0-2.1084,1.82422-2.1084,3.43848,0,1.88086.72168,3.43848,2.08984,3.43848,1.3291,0,2.05176-1.57617,2.05176-3.457C297.42285,64.97559,296.834,63.209,295.38965,63.209Z" transform="translate(-14.17773 -1.99962)"/>
    <path class="0c20af9f-b38b-470e-aa88-b281b615acc3" d="M311.53906,66.57227c0,4.02734-2.584,5.585-4.93945,5.585-2.84961,0-4.90137-2.01367-4.90137-5.45215,0-3.55273,2.14648-5.56641,5.01465-5.56641C309.67676,61.13867,311.53906,63.36133,311.53906,66.57227ZM306.65625,63.209c-1.55762,0-2.1084,1.82422-2.1084,3.43848,0,1.88086.72168,3.43848,2.08984,3.43848,1.3291,0,2.05176-1.57617,2.05176-3.457C308.68945,64.97559,308.10059,63.209,306.65625,63.209Z" transform="translate(-14.17773 -1.99962)"/>
    <path class="0c20af9f-b38b-470e-aa88-b281b615acc3" d="M319.34863,63.874a3.96194,3.96194,0,0,0-.72168-.05664c-1.27246,0-2.24219.85449-2.24219,2.65918v5.47168h-2.81152V64.67188c0-1.31055-.03809-2.35547-.0752-3.30566h2.41211l.11426,1.84277h.07617a2.77763,2.77763,0,0,1,3.248-2.01367Z" transform="translate(-14.17773 -1.99962)"/>
    <path class="0c20af9f-b38b-470e-aa88-b281b615acc3" d="M334.49023,71.58691a8.21807,8.21807,0,0,1-3.22949.55078c-4.3877,0-6.81934-2.98242-6.81934-7.31348,0-5.11035,3.28613-7.69434,7.16211-7.69434a6.84927,6.84927,0,0,1,3.02051.55078l-.55078,2.28027a5.74292,5.74292,0,0,0-2.33691-.47461c-2.41309,0-4.35059,1.65234-4.35059,5.18555,0,3.30566,1.69043,5.07227,4.33105,5.07227a6.564,6.564,0,0,0,2.375-.418Z" transform="translate(-14.17773 -1.99962)"/>
    <path class="0c20af9f-b38b-470e-aa88-b281b615acc3" d="M345.625,66.57227c0,4.02734-2.584,5.585-4.93945,5.585-2.84961,0-4.90137-2.01367-4.90137-5.45215,0-3.55273,2.14648-5.56641,5.01465-5.56641C343.7627,61.13867,345.625,63.36133,345.625,66.57227ZM340.74219,63.209c-1.55762,0-2.1084,1.82422-2.1084,3.43848,0,1.88086.72168,3.43848,2.08984,3.43848,1.3291,0,2.05176-1.57617,2.05176-3.457C342.77539,64.97559,342.18652,63.209,340.74219,63.209Z" transform="translate(-14.17773 -1.99962)"/>
    <path class="0c20af9f-b38b-470e-aa88-b281b615acc3" d="M356.70117,71.94824h-2.81152v-6.1748c0-1.291-.418-2.31738-1.61523-2.31738-.75977,0-1.80469.58887-1.80469,2.2041v6.28809H347.6582V64.55762c0-1.23437-.03809-2.24121-.0752-3.17187h2.43164l.13281,1.4248h.05664a3.56063,3.56063,0,0,1,3.05859-1.65332c1.9375,0,3.43848,1.34961,3.43848,4.3125Z" transform="translate(-14.17773 -1.99962)"/>
    <path class="0c20af9f-b38b-470e-aa88-b281b615acc3" d="M359.57129,60.92969c0-3.19141,1.86133-4.46484,3.93262-4.46484a5.45955,5.45955,0,0,1,1.67188.24707l-.209,2.166a2.95717,2.95717,0,0,0-1.02637-.1709c-1.57617,0-1.57617,1.5957-1.57617,2.65918h2.1084V63.4375h-2.08984v8.51074h-2.81152V63.4375H358.165V61.36621h1.40625Z" transform="translate(-14.17773 -1.99962)"/>
    <path class="0c20af9f-b38b-470e-aa88-b281b615acc3" d="M373.915,71.53027a8.96015,8.96015,0,0,1-3.41992.60742c-3.26758,0-5.12891-2.05176-5.12891-5.33789,0-3.04,1.74707-5.66113,4.84375-5.66113,2.56445,0,4.23633,1.82324,4.23633,5.24316a6.54307,6.54307,0,0,1-.0752,1.12109h-6.32617c.0752,1.80469,1.36719,2.52637,2.8877,2.52637a7.7266,7.7266,0,0,0,2.583-.43652Zm-2.07129-5.98437c.01953-1.10156-.418-2.4502-1.80469-2.4502-1.34863,0-1.91895,1.40527-1.99414,2.4502Z" transform="translate(-14.17773 -1.99962)"/>
    <path class="0c20af9f-b38b-470e-aa88-b281b615acc3" d="M382.17969,63.874a3.96194,3.96194,0,0,0-.72168-.05664c-1.27246,0-2.24219.85449-2.24219,2.65918v5.47168H376.4043V64.67188c0-1.31055-.03809-2.35547-.0752-3.30566h2.41211l.11426,1.84277h.07617a2.77763,2.77763,0,0,1,3.248-2.01367Z" transform="translate(-14.17773 -1.99962)"/>
    <path class="0c20af9f-b38b-470e-aa88-b281b615acc3" d="M391.71777,71.53027a8.96015,8.96015,0,0,1-3.41992.60742c-3.26758,0-5.12891-2.05176-5.12891-5.33789,0-3.04,1.74707-5.66113,4.84375-5.66113,2.56445,0,4.23633,1.82324,4.23633,5.24316a6.54306,6.54306,0,0,1-.0752,1.12109h-6.32617c.0752,1.80469,1.36719,2.52637,2.8877,2.52637a7.7266,7.7266,0,0,0,2.583-.43652Zm-2.07129-5.98437c.01953-1.10156-.418-2.4502-1.80469-2.4502-1.34863,0-1.91895,1.40527-1.99414,2.4502Z" transform="translate(-14.17773 -1.99962)"/>
    <path class="0c20af9f-b38b-470e-aa88-b281b615acc3" d="M403.25,71.94824h-2.81152v-6.1748c0-1.291-.418-2.31738-1.61523-2.31738-.75977,0-1.80469.58887-1.80469,2.2041v6.28809H394.207V64.55762c0-1.23437-.03809-2.24121-.0752-3.17187h2.43164l.13281,1.4248h.05664a3.56063,3.56063,0,0,1,3.05859-1.65332c1.9375,0,3.43848,1.34961,3.43848,4.3125Z" transform="translate(-14.17773 -1.99962)"/>
    <path class="0c20af9f-b38b-470e-aa88-b281b615acc3" d="M412.86426,71.68164a6.561,6.561,0,0,1-2.56445.45605c-3.09668,0-5.11035-2.01367-5.11035-5.376a5.27793,5.27793,0,0,1,5.54688-5.60449,6.15689,6.15689,0,0,1,2.2041.39941l-.45605,2.14648a3.716,3.716,0,0,0-1.65332-.3418c-1.7666,0-2.792,1.4248-2.792,3.28613,0,2.07129,1.19629,3.26758,2.81152,3.26758a4.01887,4.01887,0,0,0,1.71-.3418Z" transform="translate(-14.17773 -1.99962)"/>
    <path class="0c20af9f-b38b-470e-aa88-b281b615acc3" d="M422.64941,71.53027a8.96015,8.96015,0,0,1-3.41992.60742c-3.26758,0-5.12891-2.05176-5.12891-5.33789,0-3.04,1.74707-5.66113,4.84375-5.66113,2.56445,0,4.23633,1.82324,4.23633,5.24316a6.54307,6.54307,0,0,1-.0752,1.12109H416.7793c.0752,1.80469,1.36719,2.52637,2.8877,2.52637a7.7266,7.7266,0,0,0,2.583-.43652Zm-2.07129-5.98437c.01953-1.10156-.418-2.4502-1.80469-2.4502-1.34863,0-1.91895,1.40527-1.99414,2.4502Z" transform="translate(-14.17773 -1.99962)"/>
    <path class="0c20af9f-b38b-470e-aa88-b281b615acc3" d="M438.72168,71.58691a8.21807,8.21807,0,0,1-3.22949.55078c-4.3877,0-6.81934-2.98242-6.81934-7.31348,0-5.11035,3.28613-7.69434,7.16211-7.69434a6.84927,6.84927,0,0,1,3.02051.55078l-.55176,2.28027a5.73407,5.73407,0,0,0-2.33594-.47461c-2.41309,0-4.35059,1.65234-4.35059,5.18555,0,3.30566,1.69043,5.07227,4.33105,5.07227a6.564,6.564,0,0,0,2.375-.418Z" transform="translate(-14.17773 -1.99962)"/>
    <path class="0c20af9f-b38b-470e-aa88-b281b615acc3" d="M448.60254,71.53027a8.96015,8.96015,0,0,1-3.41992.60742c-3.26758,0-5.12891-2.05176-5.12891-5.33789,0-3.04,1.74707-5.66113,4.84375-5.66113,2.56445,0,4.23633,1.82324,4.23633,5.24316a6.54307,6.54307,0,0,1-.0752,1.12109h-6.32617c.0752,1.80469,1.36719,2.52637,2.8877,2.52637a7.7266,7.7266,0,0,0,2.583-.43652Zm-2.07129-5.98437c.01953-1.10156-.418-2.4502-1.80469-2.4502-1.34863,0-1.91895,1.40527-1.99414,2.4502Z" transform="translate(-14.17773 -1.99962)"/>
    <path class="0c20af9f-b38b-470e-aa88-b281b615acc3" d="M460.13574,71.94824h-2.81152v-6.1748c0-1.291-.418-2.31738-1.61523-2.31738-.75977,0-1.80469.58887-1.80469,2.2041v6.28809h-2.81152V64.55762c0-1.23437-.03809-2.24121-.0752-3.17187h2.43164l.13281,1.4248h.05664a3.56063,3.56063,0,0,1,3.05859-1.65332c1.9375,0,3.43848,1.34961,3.43848,4.3125Z" transform="translate(-14.17773 -1.99962)"/>
    <path class="0c20af9f-b38b-470e-aa88-b281b615acc3" d="M463.10059,59.42871l2.77344-.81641v2.75391h2.33691V63.4375H465.874v4.59668c0,1.27344.39941,1.80469,1.25391,1.80469a4.03753,4.03753,0,0,0,.91211-.09473l.03809,2.14648a5.65307,5.65307,0,0,1-1.88086.24707c-3.03906,0-3.09668-2.64062-3.09668-3.81836V63.4375h-1.38672V61.36621h1.38672Z" transform="translate(-14.17773 -1.99962)"/>
    <path class="0c20af9f-b38b-470e-aa88-b281b615acc3" d="M477.93848,71.53027a8.96015,8.96015,0,0,1-3.41992.60742c-3.26758,0-5.12891-2.05176-5.12891-5.33789,0-3.04,1.74707-5.66113,4.84375-5.66113,2.56445,0,4.23633,1.82324,4.23633,5.24316a6.54306,6.54306,0,0,1-.0752,1.12109h-6.32617c.0752,1.80469,1.36719,2.52637,2.8877,2.52637a7.7266,7.7266,0,0,0,2.583-.43652Zm-2.07129-5.98437c.01953-1.10156-.418-2.4502-1.80469-2.4502-1.34863,0-1.91895,1.40527-1.99414,2.4502Z" transform="translate(-14.17773 -1.99962)"/>
    <path class="0c20af9f-b38b-470e-aa88-b281b615acc3" d="M486.20313,63.874a3.96194,3.96194,0,0,0-.72168-.05664c-1.27246,0-2.24219.85449-2.24219,2.65918v5.47168h-2.81152V64.67188c0-1.31055-.03809-2.35547-.0752-3.30566h2.41211l.11426,1.84277h.07617a2.77763,2.77763,0,0,1,3.248-2.01367Z" transform="translate(-14.17773 -1.99962)"/>
  </g>
</svg>
