<svg id="aef0a717-0242-4dce-a8d6-543000239603" data-name="レイヤー 1" xmlns="http://www.w3.org/2000/svg" xmlns:xlink="http://www.w3.org/1999/xlink" width="449.706" height="305.47769" viewBox="0 0 449.706 305.47769">
  <defs>
    <style>
      .c8479646-4b61-400f-bfc5-98afccb0186c {
        fill: url(#d69a2b42-ae69-41a0-843b-140772fcce1b);
      }

      .\34 9b96fc8-75af-4daf-a44f-004d139784ea {
        fill: #040000;
      }

      .\31 6cd73b5-1c79-4f4a-8dcd-5db5fadb51b0, .\38 afc3037-bd7e-4645-8330-b00bcda5e601 {
        fill: #fff;
      }

      .b2d6dbe1-74b5-44dd-aba0-53f4ace2b1b5 {
        fill: #e7467a;
      }

      .\37 aa8f74f-9cd5-404a-9291-13eaabdbe894 {
        clip-path: url(#c7238c7f-b097-405d-bfd7-d5740ccac6c7);
      }

      .\35 1eacb84-2b7c-40b7-b1a0-ba91882e9871 {
        fill: #537189;
      }

      .acb4a3a5-ab46-4f1b-8156-3708f4e88d02 {
        fill: #6b8aa8;
      }

      .d4f2abd4-01d3-4c45-8b0c-2ebeae785eff {
        fill: #93b3d4;
      }

      .\39 c7deb70-8bcf-4f3e-a724-de36ee47ccff {
        fill: #cbdfef;
      }

      .\31 6cd73b5-1c79-4f4a-8dcd-5db5fadb51b0 {
        opacity: 0.4;
      }

      .aba8740c-bb61-40b4-b104-f7412f2d5738 {
        fill: #dbdbdb;
      }

      .ef3e05d1-c1da-44bf-b75e-fcbb733a8635 {
        fill: #ef8418;
      }

      .\38 93a8c42-4f37-41c2-89b0-a0b09ddfc565 {
        fill: #5699b4;
      }

      .\35 57161a7-6aa9-4760-922d-7353d38ae892 {
        fill: #f4ca1d;
      }

      .\33 61d61e2-28bc-4529-b594-da48a0fba4e5 {
        stroke: #000;
        stroke-miterlimit: 10;
        stroke-width: 0.65311px;
      }

      .\39 84bcd91-c200-48a3-8d9e-e32fe01c9a75 {
        fill: #71bb49;
      }

      .fe1fdeb4-d136-4e0e-8d03-8c781328a600 {
        fill: #64b7e7;
      }

      .\31 0a77e38-2dc0-40e3-9fe3-8a5884f0f091 {
        fill: #eade49;
      }

      .\34 199a4a6-ad59-4758-ad67-9f27a16733c1 {
        fill: #f0eb9d;
      }
    </style>
    <linearGradient id="d69a2b42-ae69-41a0-843b-140772fcce1b" data-name="名称未設定グラデーション 28" x1="93.33668" y1="129.40052" x2="240.55422" y2="129.40052" gradientUnits="userSpaceOnUse">
      <stop offset="0" stop-color="#fff"/>
      <stop offset="1" stop-color="#d0e9f6"/>
    </linearGradient>
    <clipPath id="c7238c7f-b097-405d-bfd7-d5740ccac6c7">
      <path class="c8479646-4b61-400f-bfc5-98afccb0186c" d="M146.37843,196.47876a96.44681,96.44681,0,0,0,23.84033-3.06982c-2.50293-11.32526-3.71924-23.139,6.854-30.19556a13.42383,13.42383,0,0,1,7.53931-2.33612c8.20752,0,15.85156,7.41833,21.32446,15.35779,21.31641-16.13641,34.623-39.89545,34.61768-63.9516a63.56542,63.56542,0,0,0-1.0813-11.62854,47.93443,47.93443,0,0,0-13.91248-5.22876c-8.80017-1.81842-19.29944.5177-28.56433,2.56177-7.03491,1.56628-13.08765,2.92017-17.813,2.41577-7.24719-.75659-12.99463-4.57935-14.6272-9.71613-1.15479-3.62366-.83618-9.43738,7.2207-16.52539a47.65984,47.65984,0,0,1,11.67944-7.42249A38.86137,38.86137,0,0,1,164.901,62.32227c-7.7782,10.81781-27.54236,18.64917-33.62146,15.94141a14.18521,14.18521,0,0,1-4.25635-3.07227c-.13354.10394-.26855.20581-.40137.31049a11.34374,11.34374,0,0,1,3.29053,6.08014,15.78939,15.78939,0,0,1-4.65894,14.26886,17.328,17.328,0,0,1-11.89307,5.41553,10.19771,10.19771,0,0,1-7.20557-2.7511,87.21207,87.21207,0,0,0-9.88062,67.95776c4.54028,3.73486,10.71667,13.67151,15.81226,22.90875A84.33079,84.33079,0,0,0,146.37843,196.47876Z"/>
    </clipPath>
  </defs>
  <title>with-wapuu</title>
  <path class="49b96fc8-75af-4daf-a44f-004d139784ea" d="M114.11956,197.50745c-22.58545.002-34.47217-12.6875-38.76709-22.19434-11.74365-2.28516-26.70557-25.61133-27.7417-28.82617-.01758-.05469-.03467-.11035-.05127-.16553-19.27-10.94531-26.98535-37.75879-27.31836-38.94629a7.7617,7.7617,0,0,1-.24023-1.2207C9.06487,96.85706,1.61712,74.48108.33391,65.87268c-.50635-3.39746-.80566-8.14062,1.94238-11.60742,3.09668-4.35645,8.81885-3.4585,10.80859-3.146,2.09473.32861,4.96777.96143,8.78369,1.93408,6.85938,1.74854,16.02832,4.39746,26.645,7.46436,26.96191,7.78857,67.313,19.44434,84.08691,19.4458.49756,0,.97168-.01025,1.42676-.03125a7.84926,7.84926,0,0,1,4.02539.90186c6.167,3.26416,11.05469,13.92871,14.52588,31.69873,3.21191,16.43945,3.85449,33.689,1.76367,47.32471-4.08936,26.6665-17.22607,34.52881-27.52588,36.42871A70.02849,70.02849,0,0,1,114.11956,197.50745Z"/>
  <path class="8afc3037-bd7e-4645-8330-b00bcda5e601" d="M134.38688,87.76128C105.60874,89.08149,10.48272,55.0131,8.57254,58.96722c-3.84163,3.56747,8.08182,37.597,19.00367,42.90606,7.84621,4.42447,27.9254,10.8512,39.561,11.01711-14.997,3.7026-39.35035-7.6322-39.35035-7.6322s14.44779,51.50128,51.62451,34.34492c-7.35121,7.0331-19.66011,6.13895-24.34109,4.47977.80245,2.48876,14.8604,22.61031,21.91866,23.56028,7.4003.996,15.73873-1.68372,25.82732-7.42319-3.07607,2.65468-21.13128,9.746-21.13128,9.746s7.7327,25.24967,43.70936,18.613S145.72423,93.76155,134.38688,87.76128Z"/>
  <g>
    <path class="8afc3037-bd7e-4645-8330-b00bcda5e601" d="M360.27806,88.64961"/>
    <path class="49b96fc8-75af-4daf-a44f-004d139784ea" d="M313.17425,170.72473a118.14313,118.14313,0,0,1-17.38477-1.355c-13.96777-2.07666-23.90039-10.731-28.72559-25.02637-10.20215-30.22754,5.48828-81.18848,13.10645-89.01123a7.82883,7.82883,0,0,1,7.27148-2.19238c13.98535,3.022,67.57129-10.14209,103.03027-18.85352,13.73828-3.375,25.60352-6.29,34.59082-8.20947,13.27051-2.835,19.81055-3.94678,23.418,1.72119a7.83449,7.83449,0,0,1,1.19727,4.86572c-1.53906,18.27148-9.74316,33.89746-23.72754,45.20215.23242,3.55029-1.61719,7.16016-2.52246,8.92773a82.20853,82.20853,0,0,1-24.37891,27.74854,66.59982,66.59982,0,0,1-7.00684,4.34082,18.50675,18.50675,0,0,1-2.17773,6.31885,47.0545,47.0545,0,0,1-27.20215,22.15039,18.41414,18.41414,0,0,1-2.68457,5.04C357.4887,155.81946,344.8178,170.72473,313.17425,170.72473Z"/>
  </g>
  <path class="8afc3037-bd7e-4645-8330-b00bcda5e601" d="M285.78586,60.79993C312.23129,66.51671,438.771,27.139,441.86815,32.00588c-4.06172,48.23074-56.99636,59.92791-81.59008,56.64374,12.92178,7.37031,47.9722-4.44015,57.75327-10.35276,2.13824,1.61295-24.06793,50.56924-66.97752,37.27829,10.11786,7.22243,27.32325,3.20557,33.13036,1.54639,1.15269,2.62817-8.86171,20.04453-27.19177,23.56028-8.01463,1.93934-20.91117-1.44756-32.04076-7.42319,6.23125,8.50644,24.43678,10.13923,30.342,10.00316,1.6262,3.26557-13.72005,24.99254-58.35185,18.35584S278.44125,68.34187,285.78586,60.79993Z"/>
  <path class="49b96fc8-75af-4daf-a44f-004d139784ea" d="M162.28616,305.47769c-24.19742,0-46.78875-12.14515-58.42952-24.17085-6.91543-7.14109-10.45942-14.49457-10.247-21.264.41147-12.477,8.66753-20.879,20.56048-20.879,11.30894,0,22.79042,7.48618,29.958,19.53844,5.41557,9.10553,15.49007,11.0169,22.98953,11.0169h0c17.78634,0,41.95723-10.80452,58.68168-29.57313a90.00666,90.00666,0,0,1-13.47249,1.06186c-.47782,0-.96893-.01325-1.4468-.01325a27.21238,27.21238,0,0,1-21.56927,10.048c-5.76065,0-14.99892-1.87155-18.45-13.11412a93.58837,93.58837,0,0,1-43.85532-16.08735,15.58359,15.58359,0,0,1-1.7919,3.8891,13.61278,13.61278,0,0,1-11.83987,6.03938,22.82675,22.82675,0,0,1-5.30936-.67692c-19.00752-4.56605-42.84653-31.0996-46.11179-46.84183-1.5928-7.72513-.05308-14.95915,4.35367-20.36139a21.06171,21.06171,0,0,1,16.459-7.69859,24.07809,24.07809,0,0,1,4.02186.34512A94.82234,94.82234,0,0,1,98.919,96.18276a19.42483,19.42483,0,0,1-.79641-2.90688C97.18012,88.232,98.826,82.843,102.755,78.1044a25.41648,25.41648,0,0,1,1.91135-2.0574c-5.80047-1.91137-8.402-6.02609-8.81354-9.68956a9.87916,9.87916,0,0,1,7.95077-10.73817c3.06615-.69024,14.44146-7.07474,20.49413-12.83539C142.2035,15.04243,175.25426-1.0847,212.579.0568a81.38133,81.38133,0,0,1,46.29762,15.583c8.44186.49111,20.295.54425,28.76347.54425,5.2695,0,10.539-.02657,15.49-.05315,4.3802-.01321,8.495-.03978,12.11862-.03978,11.216,0,14.00342.21234,15.7157.6371,4.07494,1.02208,6.78273,4.6324,6.8889,9.21174.19909,8.65428-9.41083,24.44962-30.68809,30.83412a37.7453,37.7453,0,0,1-10.85763,1.56625,40.682,40.682,0,0,1-4.88464-.292q1.63264,3.82277,3.05291,7.81805c13.55213,38.33358,16.80413,124.29207-24.13107,155.5642-11.17618,37.77612-49.60268,72.10111-92.489,82.25525A67.54577,67.54577,0,0,1,162.28616,305.47769Z"/>
  <g>
    <path class="b2d6dbe1-74b5-44dd-aba0-53f4ace2b1b5" d="M176.68041,231.14436A87.20119,87.20119,0,0,1,128.21923,74.26607c15.0255,7.79152,26.83881-6.504,36.17-13.33975,26.71936,6.83579,69.75169,2.86706,98.91335,55.5226,4.42006,7.99061,4.4466,17.94566,4.4466,27.58216a87.24779,87.24779,0,0,1-3.61037,24.91415c-21.42324-7.92422-46.90818,2.01754-54.36783,21.29054A157.771,157.771,0,0,1,176.68041,231.14436Z"/>
    <g>
      <path d="M245.17533,92.40746c-.14453-.32867-.30994-.64453-.45984-.96967-.05774-.05695-.11523-.11462-.173-.17133q-1.25079-1.22607-2.51526-2.37531c-.10413-.09448-.20837-.18713-.31262-.28088-.87476-.78674-1.75342-1.55072-2.63721-2.28278l-.02539-.02063a62.46044,62.46044,0,0,1,3.73071,7.15137c7.78711,17.71582,6.958,37.96729-2.334,57.02393a87.36044,87.36044,0,0,1-15.8363,22.43378,43.69978,43.69978,0,0,1,6.44153-3.265,88.84825,88.84825,0,0,0,11.74341-18.0238C252.43119,131.86889,253.27592,110.83764,245.17533,92.40746Z"/>
      <path d="M113.83427,193.003a87.76783,87.76783,0,0,0,32.54419,6.10956,100.24047,100.24047,0,0,0,40.53809-8.68262c33.64941-14.792,56.26367-46.19678,56.27148-78.14648a65.07555,65.07555,0,0,0-5.2334-25.74268l.00293-.00146-.25684-.585-.00586-.0127-.2627-.59814-.00293.00146c-.08447-.18683-.17761-.3681-.26367-.55389v-.00012q-2.35034-1.83774-4.73291-3.44513l.00391.00665.00171.00317.00928.01642q.72968,1.28778,1.40149,2.61414c.50037.99084.98511,1.99188,1.43469,3.015l.01367.03223a62.42907,62.42907,0,0,1,5.25684,25.25c.00684,30.9209-21.97363,61.35645-54.69727,75.73584a98.9958,98.9958,0,0,1-39.47852,8.45947,82.12618,82.12618,0,0,1-42.84009-11.57391l-.024-.015-.03235-.02124c.82251,1.54779,1.70239,3.05908,2.61365,4.54968l.02881.01605q1.01239,1.65656,2.09363,3.26416c12.98914,8.36285,28.968,12.79968,45.76489,12.79877a100.69137,100.69137,0,0,0,40.41992-8.61572,104.4788,104.4788,0,0,0,16.42236-9.06415,33.28363,33.28363,0,0,1,3.58862-5.801A100.97577,100.97577,0,0,1,193.35209,194.49C165.958,206.53008,136.06669,205.2564,113.83427,193.003Z"/>
    </g>
    <g>
      <path d="M245.154,92.39589c-.14453-.32867-.30994-.64453-.45984-.96967-.05774-.05695-.11523-.11462-.173-.17133q-1.25079-1.22607-2.51526-2.37531c-.10413-.09448-.20837-.18713-.31262-.28088-.87476-.78674-1.75342-1.55072-2.63721-2.28278l-.02539-.02063a62.46043,62.46043,0,0,1,3.73071,7.15137c7.78711,17.71582,6.958,37.96729-2.334,57.02393a87.36043,87.36043,0,0,1-15.8363,22.43378,43.69977,43.69977,0,0,1,6.44153-3.265,88.84826,88.84826,0,0,0,11.74341-18.0238C252.40984,131.85732,253.25456,110.82607,245.154,92.39589Z"/>
      <path d="M113.81291,192.99141A87.76783,87.76783,0,0,0,146.3571,199.101a100.24047,100.24047,0,0,0,40.53809-8.68262c33.64941-14.792,56.26367-46.19678,56.27148-78.14648a65.07555,65.07555,0,0,0-5.2334-25.74268l.00293-.00146-.25684-.585-.00586-.0127-.2627-.59814-.00293.00146c-.08447-.18683-.17761-.3681-.26367-.55389v-.00018q-2.35034-1.83765-4.73291-3.44507l.00391.00665.00171.00317.00928.01642q.72968,1.28778,1.40149,2.61414c.50037.99084.98511,1.99188,1.43469,3.015l.01367.03223a62.42907,62.42907,0,0,1,5.25684,25.25c.00684,30.9209-21.97363,61.35645-54.69727,75.73584a98.9958,98.9958,0,0,1-39.47852,8.45947A82.12618,82.12618,0,0,1,103.517,184.89327l-.024-.015-.03235-.02124c.82251,1.54779,1.70239,3.05908,2.61365,4.54968l.02881.01605q1.01239,1.65656,2.09363,3.26416c12.98914,8.36285,28.968,12.79968,45.76489,12.79877A100.69137,100.69137,0,0,0,194.38152,196.87a104.47879,104.47879,0,0,0,16.42236-9.06415,33.28363,33.28363,0,0,1,3.58862-5.801,100.97577,100.97577,0,0,1-21.06177,12.47357C165.93669,206.51851,136.04533,205.24483,113.81291,192.99141Z"/>
    </g>
    <g>
      <path class="c8479646-4b61-400f-bfc5-98afccb0186c" d="M146.37843,196.47876a96.44681,96.44681,0,0,0,23.84033-3.06982c-2.50293-11.32526-3.71924-23.139,6.854-30.19556a13.42383,13.42383,0,0,1,7.53931-2.33612c8.20752,0,15.85156,7.41833,21.32446,15.35779,21.31641-16.13641,34.623-39.89545,34.61768-63.9516a63.56542,63.56542,0,0,0-1.0813-11.62854,47.93443,47.93443,0,0,0-13.91248-5.22876c-8.80017-1.81842-19.29944.5177-28.56433,2.56177-7.03491,1.56628-13.08765,2.92017-17.813,2.41577-7.24719-.75659-12.99463-4.57935-14.6272-9.71613-1.15479-3.62366-.83618-9.43738,7.2207-16.52539a47.65984,47.65984,0,0,1,11.67944-7.42249A38.86137,38.86137,0,0,1,164.901,62.32227c-7.7782,10.81781-27.54236,18.64917-33.62146,15.94141a14.18521,14.18521,0,0,1-4.25635-3.07227c-.13354.10394-.26855.20581-.40137.31049a11.34374,11.34374,0,0,1,3.29053,6.08014,15.78939,15.78939,0,0,1-4.65894,14.26886,17.328,17.328,0,0,1-11.89307,5.41553,10.19771,10.19771,0,0,1-7.20557-2.7511,87.21207,87.21207,0,0,0-9.88062,67.95776c4.54028,3.73486,10.71667,13.67151,15.81226,22.90875A84.33079,84.33079,0,0,0,146.37843,196.47876Z"/>
      <g class="7aa8f74f-9cd5-404a-9291-13eaabdbe894">
        <g>
          <g>
            <ellipse class="51eacb84-2b7c-40b7-b1a0-ba91882e9871" cx="174.146" cy="171.07842" rx="72.05259" ry="43.43578" transform="translate(-43.80622 61.11714) rotate(-17.71903)"/>
            <g>
              <path class="51eacb84-2b7c-40b7-b1a0-ba91882e9871" d="M183.11564,123.72844c.97166-3.14894-.144-7.35953-.70177-8.45717a5.69779,5.69779,0,0,0-1.87912-1.73937l1.33554-3.05015s-.29891-4.4063-1.64924-5.82766c0,0-3.127,3.056-1.84779,6.183.36539.89314.67085,1.54828.92358,2.03724a6.55,6.55,0,0,0-4.43424-.412l.45887-1.04794s-.30663-4.51947-1.69164-5.97737c0,0-3.20736,3.13449-1.89524,6.34185.335.81889.62185,1.44573.86425,1.92815-1.57676,1.47042-1.81018,3.58808-2.13293,4.7312-.43187,1.5295.072,4.8224.32389,6.064a9.88422,9.88422,0,0,0,1.38551,2.861s-.73774,4.1566-.79173,5.00233a1.38732,1.38732,0,0,0,.34191,1.16961l2.06929,1.54749s-.25191,1.27756-.35989,1.58346.072.3059.35989.50382c-.48583.3059-.95367,8.16925-.95367,8.16925.50382.8817,7.19759.73777,7.82738.71975a1.209,1.209,0,0,0,.93569-.71975l-.89971-8.22324.41385-.2159-.036-1.16961a7.2185,7.2185,0,0,0,.80972-1.47551,4.09141,4.09141,0,0,0,.23392-2.51915l-1.25958-4.30056S182.14395,126.87738,183.11564,123.72844Z"/>
              <path class="51eacb84-2b7c-40b7-b1a0-ba91882e9871" d="M157.50356,118.35728c-.48283-.07726-.51969-.12818-.43364-.38452s1.06754-1.04459,1.36427-1.4923-1.07275.23348-1.5749.55825-.76379.553-.86033.31248.65846-1.02.86184-2.00955-.94429.55582-1.29194,1.04035-.65141.97615-.69706.69876a10.90855,10.90855,0,0,0-.14386-1.91373c-.179-.56887-.454.33245-.454.33245s-.24483,1.22129-.24059,1.47621-.4485,1.11451-.70483,1.0285-.1211-.64964-.45994-1.064c-.78652-.71112-.7269.60393-.7269.60393s.43184,1.23957.89178,2.30353c-1.57325,2.65337-5.7327,4.99411-7.71108,5.99732a3.40475,3.40475,0,0,0-.76492-.69276c-1.41836-.92737-2.89124-1.85475-2.89124-1.85475v-.70916a6.51509,6.51509,0,0,0,2.9403-2.84664c.09983-.0464.20677-.09828.31614-.15246.42451.00155.76135-.02665.944-.43766.01644-.037.02934-.07862.0434-.11883a3.13162,3.13162,0,0,0,.83744-.73126c.6198-.88641.45836-4.11791.45836-4.11791l-1.58928,1.89338c.08785-.33391.18012-.66285.25008-.90765.21821-.76372.3273-3.43672-.98193-3.65494a5.33023,5.33023,0,0,0-4.90964-1.80022c-.03778.00319-.07233.00926-.10963.0129a8.35613,8.35613,0,0,0-.93664-2.81007,1.32341,1.32341,0,1,0-.77533.51684c.2717.71786.69235,1.61324,1.07253,2.38-2.70411.4699-3.99694,2.12-3.99694,3.77348a18.1249,18.1249,0,0,0,.38186,4.14592,25.59825,25.59825,0,0,0,.87285,3.32764,4.5387,4.5387,0,0,0,2.89121,1.90931c.32733.491.16365.76372.16365.76372l-.38186.491s-2.83226,1.14385-3.10851,1.63543c-1.88668-.99474-4.6872-2.70468-5.85842-4.60545.40427-.8999.78383-1.94832.78383-1.94832s.05241-1.11224-.63892-.5108c-.29781.35047-.179.82714-.40424.8999s-.62324-.65429-.61955-.86987-.21145-1.24854-.21145-1.24854-.24173-.76236-.39909-.28121a8.88573,8.88573,0,0,0-.12648,1.61861c-.04008.23462-.3071-.18113-.61265-.591s-1.31436-1.71683-1.1356-.87993.8424,1.49618.75753,1.69963-.31481.01043-.7562-.2643-1.6451-.85078-1.38428-.47214,1.12352,1.04538,1.19917,1.26217.04321.25987-.38117.32521-1.38735-.01476-.824.27922,1.321.32961,1.63891.81367a3.11627,3.11627,0,0,0,1.40593,1.078c.25779.05029,4.17535,4.82907,6.94834,7.20309-.10511.50552-.21565,1.01026-.33568,1.514-.00177.56559.00626,1.13136.00838,1.69669.00205.55389-.01227,1.09754-.04454,1.634a19.12256,19.12256,0,0,1-.32683,3.68806l-.59318,7.98075h10.74666s-.60007-5.61884-.54551-6.76442.05456-6.27341.54551-6.43706c.06977-.02327.15486-.056.24783-.09392.05987-.60886.10741-1.2175.15847-1.82554,2.854-1.47459,9.33029-9.76479,9.68592-9.83689a3.56159,3.56159,0,0,0,1.59952-1.27456c.36169-.57235,1.22376-.61442,1.86461-.962S157.98638,118.43457,157.50356,118.35728Z"/>
              <path class="51eacb84-2b7c-40b7-b1a0-ba91882e9871" d="M201.84435,117.15964c-1.081-1.05919-2.01622-.82-2.19106-3.269s1.75935-3.51161.05061-3.95818a1.95844,1.95844,0,0,0-.7947-.03676,1.87166,1.87166,0,0,0-1.84726-1.62588c-.15335-.28965-.39185-1.94225-1.87406-2.02741s-5.0089-.18742-7.53039,2.57257l1.34594-.1022a3.43738,3.43738,0,0,0-1.22626,1.54c-1.09112-.22365-.23455,1.72995-1.03371,4.11127-.81847,2.439-1.34464,1.75606-2.33849,2.3414s-1.11078,3.317.6431,2.63409,2.69526-.6326,3.68914-2.809c.0239-.05232.0429-.10937.06512-.1634.1125.64556.552,2.47486,3.31888,2.85752a2.39931,2.39931,0,0,1-.017.76666c-.05112.15335-.42593.27261-.42593.27261a4.50454,4.50454,0,0,0-.5622.28962,2.82343,2.82343,0,0,1-.69854.3237c-.08519,0-1.03925.3237-1.26074.88593-.18723.47537-.65334,1.9218-.80359,2.57466.00066.11968-1.96112,8.08662-1.80977,8.13059s-.00111,1.22654,1.49141,1.22654c.0888-.07346-.82543-1.04392.32136-.73565.81822.21992,1.15377-3.00523,1.279-4.872-.09638,1.88187-.25927,5.20306-.22283,5.48256a1.99662,1.99662,0,0,0,.35777.85186c.11927.18742.13631,3.663.15331,3.73112s.32373,3.61185.32373,3.61185l2.72592.17038.08519-4.42963s1.07332,4.27628,1.19259,4.42963a13.09757,13.09757,0,0,0,2.45334,0,9.64248,9.64248,0,0,1,0-2.38518,30.06979,30.06979,0,0,0,0-3.74816s.74963-1.29482.68147-1.63556l-.06815-.34074h.443s.27261-2.67483.37484-4.19112.13628-5.8778.06812-6.57631-.15331-1.26074-.52813-1.46521-2.04445-1.03925-2.04445-1.03925l-.10223-.2215-1.05632-.494-.51109-.27261v-.34074a5.26131,5.26131,0,0,0,3.18-2.7519,16.29681,16.29681,0,0,0,2.90224,2.42915C202.07906,120.489,202.92535,118.21883,201.84435,117.15964Z"/>
              <path class="51eacb84-2b7c-40b7-b1a0-ba91882e9871" d="M167.09328,118.10761c-1.38112-.30211-1.899.34529-1.899.77687s-.12948,1.42427-.12948,1.42427l-.43159,1.29479-.30214-1.72638-2.28744-2.24432a5.2134,5.2134,0,0,0,3.53908-1.079c1.33794-1.25164,2.24429-5.00653,1.12216-7.68241a13.75289,13.75289,0,0,0-1.36272-2.58762l.0851.01473c.41676-2.40791-.6241-4.59853-2.32484-4.89286-1.44222-.24963-2.89267.94716-3.55536,2.78434-1.50791.154-1.64675.36542-1.64675.36542a8.84739,8.84739,0,0,0-1.00786.048c-1.45939-1.79728-3.638-2.46345-4.9711-1.47538-1.38276,1.02486-1.33079,3.43868.11247,5.399a4.855,4.855,0,0,0-.26221,1.12128,11.49193,11.49193,0,0,0,.51792,4.57491,5.42113,5.42113,0,0,0,.17266,2.07166c.30211.51792.47474,2.07166,2.02848,2.24429l-1.98533,3.75489a22.476,22.476,0,0,1-.77687-3.75489c0-1.03583.21581-2.41692-.90635-2.33062s-1.55375.34529-1.46742.90635a1.91694,1.91694,0,0,0,.9495,1.338c.21581.60421.51792,3.66856.73372,5.61075s.46405,3.02117.87942,3.237a1.37207,1.37207,0,0,0,.97643,0l-.97643,9.193s5.42187,2.11481,9.86734,0c.21578-1.16531-1.12216-6.373-1.03583-7.04927a17.45169,17.45169,0,0,1,.86317-3.69748,13.69491,13.69491,0,0,1,.19624,2.158s.06272.73369.49433.9495,1.46742-.43159,1.46742-.43159l.9495-.38844v-1.64008l1.5106-5.52445a5.84708,5.84708,0,0,0,1.16531-.82C167.827,119.6182,168.47437,118.40971,167.09328,118.10761Z"/>
              <path class="51eacb84-2b7c-40b7-b1a0-ba91882e9871" d="M224.95632,123.61793a3.72935,3.72935,0,0,1-.48559-1.07908c-.13489-.56652-.8363-1.72655-.99817-2.32s-.32373-1.05211-.32373-1.05211-1.48374-3.96564-1.67257-4.50519-.67444-.56652-1.32189-.75535-3.37213-.59349-3.37213-.59349l-1.26793-.91724s-.32373-.3507-.18883-.59349a6.10812,6.10812,0,0,0,.37767-.97118,3.72853,3.72853,0,0,1,.40466-.86328c.13489-.2158.18885-.51256.43165-1.02512s1.214-2.94052-.13489-4.58612a3.3387,3.3387,0,0,0-2.88656-1.41144,8.2034,8.2034,0,0,0-1.88839.14351,5.36989,5.36989,0,0,0-1.6456,1.56469,5.30333,5.30333,0,0,0-.37769,1.56467,5.08792,5.08792,0,0,0,.18883,1.96932c.027.43165.027.99817.027.99817a1.24634,1.24634,0,0,0,.37767.80931c.37769.37767.59351.3507.59351.3507s.16186.59349.24279.78234a1.48638,1.48638,0,0,1,.08093,1.16l-.21582.40466-1.133,1.214-3.93867,1.94235s-.56652-.13489-.59349.56652-2.05026,10.0355-2.05026,10.0355-.48559,1.75352,0,2.45491.67442.91724,1.91536,1.0791,3.72285.43163,3.72285.43163l-.2158.99815a23.75907,23.75907,0,0,1-.054,2.6168,14.9073,14.9073,0,0,0-.43163,2.48188c.027.89025.2158,2.56284.2158,2.56284h.35072a29.04007,29.04007,0,0,0,.48559,3.64191,45.17132,45.17132,0,0,1,.56652,6.9601c0,1.214,14.35183-.21582,14.35183-.21582s-.86328-7.95825-1.37583-8.65966c-.26976-.83628-.51256-1.4028-.51256-1.4028s-.08093-2.23911-.13489-3.04842-.62048-4.66387-.59349-4.92174.29674-.55461.89025-1.31,1.96932-2.56282,2.05026-2.61678.56652-.29676.64745-.62048.45862-.86326.48559-1.133S225.84657,125.29052,224.95632,123.61793Zm-17.53515,3.07539v-2.8326c0-.40466,0,0,.40466,0s.36419.72838.344,1.05211a4.00481,4.00481,0,0,0,.263,1.17351,1.13181,1.13181,0,0,0,.48559.607Zm14.40809-1.85022a2.74747,2.74747,0,0,1-.54518.344,2.84723,2.84723,0,0,1,.50242.57551c.28326.40466-.93071,1.4163-1.01164,1.09257s0-4.087,0-4.087c.00871-.44572.50922.20233.50922.20233A8.39132,8.39132,0,0,1,221.82926,124.8431Z"/>
              <path class="51eacb84-2b7c-40b7-b1a0-ba91882e9871" d="M234.65573,113.04126a12.16121,12.16121,0,0,0-2.75795,0,24.47678,24.47678,0,0,0-2.40044,1.58327c-.35751.20429-.25537.35751-.45966,1.12361s-1.07254,2.45151-1.68541,2.6558a.56988.56988,0,0,1-.7661-.40858,6.59218,6.59218,0,0,1-.40858-1.379,2.95042,2.95042,0,0,0-.25537-.91833,3.69031,3.69031,0,0,1-.25537-1.17567,6.96464,6.96464,0,0,0-.35751-1.57192,2.2978,2.2978,0,0,0-.5618-1.186c-.25537-.20429-.20429-.61288-.40858-.91932s-.664-.91932-.664-.91932-1.20022-.63841-.56819.87463c.3639.53627.632.91932.632.91932s.21068.51712.07661.57457a1.77959,1.77959,0,0,1-.8925.0383,2.40656,2.40656,0,0,0-.98443-.45966c-.32559-.01915-1.01508.19152-.30644.65118s.7661.7661.7661.7661l.15322.249a2.383,2.383,0,0,0-.19152.42135c-.05746.19152.19152.47881.30644.61288s.05746.30644.07661.53627.32559.21068.3639.34474a2.05953,2.05953,0,0,1,.01915.45966s.47881.44051.632.59372.11491.34474.09576.8044-.13407,1.6088-.15322,1.99185a7.57733,7.57733,0,0,0,1.03423,3.33252c.72779,1.01508,1.30236,1.28321,2.26.84271s1.03423-.67033,1.30236-.70864a5.91825,5.91825,0,0,0,1.18745-.42135c.05746-.05746.30644-.498.30644-.498s.34474-.55542.51712-.383-.26813.90016-.42135,1.26406a4.89009,4.89009,0,0,0-.07661,1.91524,2.20715,2.20715,0,0,1-.07661,1.55135c-.28729.70864-1.99185,4.022-2.14507,4.3476s-.21068.97677-.28729,1.05338-.42135.632-.32559.881.22983.22983-.11491,1.09169-2.29191,8.759-2.29191,8.759l10.32043,2.477s2.26909-6.53736,2.29462-6.74165.51073.05107.84271-.02554.383.05107.35751-.58734.07661-3.34529.12768-3.90709a5.66452,5.66452,0,0,0,0-1.02146s.5618-1.02146.81717-1.65988a8.34472,8.34472,0,0,0,.63841-1.83863c0-.35751-.02554-1.047,0-1.3279s.7661.715.7661.715a1.08126,1.08126,0,0,0,.74056.40858,5.55029,5.55029,0,0,0,2.57919-.81717,3.14568,3.14568,0,0,0,1.12361-2.17061,6.59972,6.59972,0,0,0-.15322-1.86417,6.54735,6.54735,0,0,0-.48519-.664s-.10215-.15322.17876-.61288a15.22981,15.22981,0,0,0,.7661-1.8897.884.884,0,0,0,.332-.35751c.07661-.20429-.15322-.53627-.15322-.664s.16885-1.8897.16885-1.8897-.14332-1.14914-.8328-1.40451a4.60292,4.60292,0,0,1,.53627-1.02146,4.38716,4.38716,0,0,0,.51073-.68949,2.21514,2.21514,0,0,1,.332-.48519s-.10215-.10215.12768-.715.02554-.79163.40858-.91932.79163-.43412.40858-.74056a1.33048,1.33048,0,0,0-1.48112.17876,3.30865,3.30865,0,0,1-.94485.94485c-.20429.05107-.7661-.2809-.86824-.35751a3.115,3.115,0,0,0-1.14914.25537,1.95082,1.95082,0,0,0-.2809.40858s-.61288.02554-.58734-.17876a1.49145,1.49145,0,0,0-.12768-.5618l-1.58327-.17876s-.43412-.12768-.51073-.84271-.2809-1.63434-.332-2.01739-.05107-.17876.12768-.51073.5618-1.30236.07661-1.78756-.664-.51073-.664-.51073l-.20429-.332a4.74943,4.74943,0,0,0-1.12361-2.24722,2.17565,2.17565,0,0,0-1.43-.68949c-.58734-.17876-3.11546-.20429-4.36675,1.27683s-.84271,1.40451-.99593,1.58327-.17876.40858-.05107.86824a3.7579,3.7579,0,0,1,.12768.89378l.51073-.12768s.48519-.383.5618.05107.10215.61288.30644.7661.20429.61288.22983.94485.22983.35751.40858.664a6.4096,6.4096,0,0,1,.332,1.047c.17876.51073.84089.97039,1.09717,1.27683Z"/>
            </g>
            <g>
              <path class="acb4a3a5-ab46-4f1b-8156-3708f4e88d02" d="M172.3285,142.03753c.97166-3.14894-.144-7.35953-.70177-8.45717a5.69779,5.69779,0,0,0-1.87912-1.73937l1.33554-3.05015s-.29891-4.4063-1.64924-5.82766c0,0-3.127,3.056-1.84779,6.183.36539.89314.67085,1.54828.92358,2.03724a6.55,6.55,0,0,0-4.43424-.412l.45887-1.04794s-.30663-4.51947-1.69164-5.97737c0,0-3.20736,3.13449-1.89524,6.34185.335.81888.62185,1.44573.86425,1.92815-1.57676,1.47042-1.81018,3.58808-2.13293,4.7312-.43187,1.5295.072,4.8224.32389,6.064a9.88422,9.88422,0,0,0,1.38551,2.861s-.73774,4.1566-.79173,5.00233a1.38732,1.38732,0,0,0,.34191,1.16961l2.06929,1.54749s-.25191,1.27756-.35989,1.58346.072.3059.35989.50382c-.48583.3059-.95367,8.16925-.95367,8.16925.50382.8817,7.19759.73777,7.82738.71975a1.209,1.209,0,0,0,.93569-.71975l-.89971-8.22324.41385-.2159-.036-1.16961a7.2185,7.2185,0,0,0,.80972-1.47551,4.09141,4.09141,0,0,0,.23392-2.51915l-1.25958-4.30056S171.35681,145.18647,172.3285,142.03753Z"/>
              <path class="acb4a3a5-ab46-4f1b-8156-3708f4e88d02" d="M215.79553,129.85468c-.48283-.07726-.51969-.12818-.43364-.38452s1.06754-1.04459,1.36427-1.4923-1.07275.23348-1.5749.55825-.76379.553-.86033.31248.65846-1.02.86184-2.00955-.94429.55582-1.29194,1.04035-.65141.97615-.69706.69876a10.90855,10.90855,0,0,0-.14386-1.91373c-.179-.56887-.454.33245-.454.33245s-.24483,1.22129-.24059,1.47621-.4485,1.11451-.70483,1.0285-.1211-.64964-.45994-1.064c-.78652-.71112-.7269.60393-.7269.60393s.43184,1.23957.89178,2.30353c-1.57325,2.65337-5.7327,4.99411-7.71108,5.99732a3.40475,3.40475,0,0,0-.76492-.69276c-1.41836-.92737-2.89124-1.85475-2.89124-1.85475v-.70916a6.5151,6.5151,0,0,0,2.9403-2.84664c.09983-.04641.20677-.09828.31614-.15246.42451.00155.76135-.02665.944-.43766.01644-.037.02934-.07862.0434-.11883a3.13162,3.13162,0,0,0,.83744-.73126c.6198-.88641.45836-4.11791.45836-4.11791l-1.58928,1.89338c.08785-.33391.18012-.66285.25008-.90765.21821-.76372.3273-3.43673-.98193-3.65494a5.33023,5.33023,0,0,0-4.90964-1.80022c-.03778.00319-.07233.00926-.10963.0129a8.35613,8.35613,0,0,0-.93664-2.81007,1.32341,1.32341,0,1,0-.77532.51684c.2717.71786.69235,1.61324,1.07253,2.38-2.70411.4699-3.99694,2.12-3.99694,3.77348a18.1249,18.1249,0,0,0,.38186,4.14592,25.59825,25.59825,0,0,0,.87285,3.32764,4.5387,4.5387,0,0,0,2.89121,1.90931c.32733.491.16365.76372.16365.76372l-.38186.491s-2.83226,1.14385-3.10851,1.63543c-1.88668-.99474-4.6872-2.70468-5.85842-4.60545.40427-.8999.78383-1.94832.78383-1.94832s.05241-1.11224-.63892-.5108c-.29781.35047-.179.82714-.40424.8999s-.62324-.65429-.61955-.86987-.21145-1.24854-.21145-1.24854-.24173-.76236-.39909-.28121a8.88573,8.88573,0,0,0-.12648,1.61861c-.04008.23462-.3071-.18113-.61265-.591s-1.31436-1.71683-1.1356-.87993.8424,1.49618.75753,1.69963-.31481.01043-.7562-.2643-1.6451-.85078-1.38428-.47214,1.12352,1.04538,1.19917,1.26217.04321.25987-.38117.32521-1.38735-.01476-.824.27922,1.321.32961,1.63891.81367a3.11627,3.11627,0,0,0,1.40593,1.078c.25779.05029,4.17535,4.82907,6.94834,7.20309-.10511.50552-.21565,1.01026-.33568,1.514-.00177.56559.00626,1.13136.00838,1.69669.00205.55389-.01227,1.09754-.04454,1.634a19.12256,19.12256,0,0,1-.32683,3.68806l-.59318,7.98075H203.1767s-.60007-5.61884-.54551-6.76442.05456-6.27341.54551-6.43706c.06977-.02327.15486-.056.24783-.09392.05987-.60886.10741-1.2175.15847-1.82554,2.854-1.47459,9.33029-9.76479,9.68592-9.83689a3.56159,3.56159,0,0,0,1.59952-1.27456c.36169-.57235,1.22376-.61442,1.86461-.962S216.27836,129.932,215.79553,129.85468Z"/>
              <path class="acb4a3a5-ab46-4f1b-8156-3708f4e88d02" d="M191.05721,135.46873c-1.081-1.05919-2.01622-.82-2.19106-3.269s1.75935-3.51161.05061-3.95818a1.95844,1.95844,0,0,0-.7947-.03676,1.87166,1.87166,0,0,0-1.84726-1.62588c-.15335-.28965-.39185-1.94225-1.87406-2.02741s-5.0089-.18742-7.53039,2.57257l1.34594-.1022a3.43738,3.43738,0,0,0-1.22626,1.54c-1.09112-.22365-.23455,1.72995-1.03371,4.11127-.81847,2.439-1.34464,1.75606-2.33849,2.3414s-1.11078,3.317.6431,2.63409,2.69526-.6326,3.68914-2.809c.0239-.05232.0429-.10937.06512-.1634.1125.64556.552,2.47486,3.31888,2.85752a2.39931,2.39931,0,0,1-.017.76666c-.05112.15335-.42593.27261-.42593.27261a4.50455,4.50455,0,0,0-.5622.28962,2.82343,2.82343,0,0,1-.69854.3237c-.08519,0-1.03925.3237-1.26074.88593-.18723.47537-.65334,1.9218-.80359,2.57466.00066.11968-1.96112,8.08662-1.80977,8.13059s-.00111,1.22654,1.49141,1.22654c.0888-.07346-.82543-1.04392.32136-.73565.81822.21992,1.15377-3.00523,1.279-4.872-.09638,1.88187-.25927,5.20306-.22283,5.48256a1.99662,1.99662,0,0,0,.35777.85186c.11927.18742.13631,3.663.15331,3.73112s.32373,3.61185.32373,3.61185l2.72592.17038.08519-4.42963s1.07332,4.27628,1.19259,4.42963a13.09757,13.09757,0,0,0,2.45334,0,9.64248,9.64248,0,0,1,0-2.38518,30.06979,30.06979,0,0,0,0-3.74816s.74963-1.29482.68147-1.63556l-.06815-.34074h.443s.27261-2.67483.37484-4.19112.13628-5.8778.06812-6.57631-.15331-1.26074-.52813-1.46521-2.04445-1.03925-2.04445-1.03925l-.10223-.2215-1.05632-.494-.51109-.27261v-.34074a5.26131,5.26131,0,0,0,3.18-2.7519,16.29681,16.29681,0,0,0,2.90224,2.42915C191.29192,138.798,192.13821,136.52793,191.05721,135.46873Z"/>
              <path class="acb4a3a5-ab46-4f1b-8156-3708f4e88d02" d="M136.37209,135.46873c-1.081-1.05919-2.01622-.82-2.19106-3.269s1.75935-3.51161.05061-3.95818a1.95844,1.95844,0,0,0-.7947-.03676,1.87166,1.87166,0,0,0-1.84726-1.62588c-.15335-.28965-.39185-1.94225-1.87406-2.02741s-5.0089-.18742-7.53039,2.57257l1.34594-.1022a3.43738,3.43738,0,0,0-1.22626,1.54c-1.09112-.22365-.23455,1.72995-1.03371,4.11127-.81847,2.439-1.34464,1.75606-2.33849,2.3414s-1.11078,3.317.6431,2.63409,2.69526-.6326,3.68914-2.809c.0239-.05232.0429-.10937.06512-.1634.1125.64556.552,2.47486,3.31888,2.85752a2.39931,2.39931,0,0,1-.017.76666c-.05112.15335-.42593.27261-.42593.27261a4.50454,4.50454,0,0,0-.5622.28962,2.82343,2.82343,0,0,1-.69854.3237c-.08519,0-1.03925.3237-1.26074.88593-.18723.47537-.65334,1.9218-.80359,2.57466.00066.11968-1.96112,8.08662-1.80977,8.13059s-.00111,1.22654,1.49141,1.22654c.0888-.07346-.82543-1.04392.32136-.73565.81822.21992,1.15377-3.00523,1.279-4.872-.09638,1.88187-.25927,5.20306-.22283,5.48256a1.99662,1.99662,0,0,0,.35777.85186c.11927.18742.13631,3.663.15331,3.73112s.32373,3.61185.32373,3.61185l2.72592.17038.08519-4.42963s1.07332,4.27628,1.19259,4.42963a13.09756,13.09756,0,0,0,2.45334,0,9.64248,9.64248,0,0,1,0-2.38518,30.06979,30.06979,0,0,0,0-3.74816s.74963-1.29482.68147-1.63556l-.06815-.34074h.443s.27261-2.67483.37484-4.19112.13628-5.8778.06812-6.57631-.15331-1.26074-.52813-1.46521-2.04445-1.03925-2.04445-1.03925l-.10223-.2215L129,138.147l-.51109-.27261v-.34074a5.26131,5.26131,0,0,0,3.18-2.7519,16.29682,16.29682,0,0,0,2.90224,2.42915C136.6068,138.798,137.4531,136.52793,136.37209,135.46873Z"/>
              <path class="acb4a3a5-ab46-4f1b-8156-3708f4e88d02" d="M248.06857,131.46723c-1.38112-.30211-1.899.34529-1.899.77687s-.12948,1.42427-.12948,1.42427l-.43159,1.29479-.30214-1.72638-2.28744-2.24432a5.2134,5.2134,0,0,0,3.53908-1.079c1.33794-1.25164,2.24429-5.00653,1.12216-7.68241a13.75288,13.75288,0,0,0-1.36272-2.58762l.0851.01473c.41676-2.40791-.6241-4.59853-2.32484-4.89286-1.44222-.24963-2.89267.94716-3.55536,2.78434-1.50791.154-1.64675.36542-1.64675.36542a8.84736,8.84736,0,0,0-1.00786.048c-1.45939-1.79728-3.638-2.46345-4.9711-1.47538-1.38276,1.02486-1.33079,3.43868.11247,5.399a4.855,4.855,0,0,0-.26221,1.12128,11.49193,11.49193,0,0,0,.51792,4.57491,5.42113,5.42113,0,0,0,.17266,2.07166c.30211.51792.47474,2.07166,2.02848,2.24429l-1.98533,3.75489a22.476,22.476,0,0,1-.77687-3.75489c0-1.03583.21581-2.41692-.90635-2.33062s-1.55375.34529-1.46742.90635a1.91694,1.91694,0,0,0,.9495,1.338c.21581.60421.51792,3.66856.73372,5.61075s.46405,3.02117.87942,3.237a1.37207,1.37207,0,0,0,.97643,0l-.97643,9.193s5.42187,2.11481,9.86734,0c.21578-1.16531-1.12216-6.373-1.03583-7.04927a17.45169,17.45169,0,0,1,.86317-3.69748,13.69491,13.69491,0,0,1,.19624,2.158s.06272.73369.49433.9495,1.46742-.43159,1.46742-.43159l.9495-.38844v-1.64008l1.5106-5.52445a5.84708,5.84708,0,0,0,1.16531-.82C248.80226,132.97782,249.44965,131.76933,248.06857,131.46723Z"/>
              <path class="acb4a3a5-ab46-4f1b-8156-3708f4e88d02" d="M157.61814,142.72121a3.46848,3.46848,0,0,1-.45162-1.00359c-.12546-.52689-.7778-1.60577-.92834-2.15775s-.30108-.97851-.30108-.97851-1.37994-3.68823-1.55557-4.19-.62726-.52689-1.22942-.70251-3.13624-.552-3.13624-.552l-1.17924-.85307s-.30108-.32616-.17562-.552a5.68084,5.68084,0,0,0,.35125-.90324,3.46771,3.46771,0,0,1,.37635-.80289c.12546-.20071.17564-.4767.40145-.95341s1.12905-2.73482-.12546-4.26531a3.10515,3.10515,0,0,0-2.68464-1.31271,7.62956,7.62956,0,0,0-1.75629.13347,4.99425,4.99425,0,0,0-1.53048,1.45523,4.93235,4.93235,0,0,0-.35127,1.45521,4.732,4.732,0,0,0,.17562,1.83156c.0251.40145.0251.92834.0251.92834a1.15915,1.15915,0,0,0,.35125.7527c.35127.35125.552.32616.552.32616s.15054.552.22581.72762a1.3824,1.3824,0,0,1,.07527,1.07886l-.20073.37635-1.05378,1.12905-3.66315,1.80648s-.52689-.12546-.552.52689-1.90683,9.33348-1.90683,9.33348-.45162,1.63086,0,2.28319.62724.85307,1.78138,1.00361,3.46242.40143,3.46242.40143l-.20071.92832a22.09707,22.09707,0,0,1-.05019,2.43374,13.8645,13.8645,0,0,0-.40143,2.30827c.02508.828.20071,2.38356.20071,2.38356h.32618a27.00864,27.00864,0,0,0,.45162,3.38715,42.01144,42.01144,0,0,1,.52689,6.47322c0,1.12905,13.34788-.20073,13.34788-.20073s-.80289-7.40155-1.27959-8.05389c-.25089-.77778-.4767-1.30467-.4767-1.30467s-.07527-2.08248-.12546-2.83518-.57708-4.33762-.552-4.57745.276-.51581.828-1.21834,1.83156-2.38354,1.90683-2.43373.52689-.276.60216-.57708.42654-.80287.45162-1.05378S158.44611,144.2768,157.61814,142.72121Zm-16.30851,2.86026V142.947c0-.37635,0,0,.37635,0s.33872.67743.3199.97851a3.72466,3.72466,0,0,0,.24463,1.09142,1.05264,1.05264,0,0,0,.45162.56453Zm13.4002-1.72079a2.55528,2.55528,0,0,1-.507.31993,2.64806,2.64806,0,0,1,.46728.53525c.26345.37635-.86561,1.31723-.94088,1.01615s0-3.80114,0-3.80114c.0081-.41454.4736.18818.4736.18818A7.80433,7.80433,0,0,1,154.70983,143.86068Z"/>
              <path class="acb4a3a5-ab46-4f1b-8156-3708f4e88d02" d="M231.45289,140.01345c-.20308-1.06883-2.469-5.33344-3.00339-6.45571a8.79081,8.79081,0,0,0-1.72082-2.35142c-.1817-.12826-1.78493-1.01538-1.78493-1.01538a3.61705,3.61705,0,0,0-.53441-.42754,1.73086,1.73086,0,0,1-.4596-.47028c-.06413-.09619.31-.25652.31-.25652s.57717.23515.87644-.03206a7.67663,7.67663,0,0,0,.97264-2.99272,7.01958,7.01958,0,0,0-.652-4.02947,7.50085,7.50085,0,0,0-1.99871-2.83239,2.94379,2.94379,0,0,0-2.23384-.70542c-1.133,0-2.22316,1.27191-2.55206,1.60324a31.41355,31.41355,0,0,0-1.85151,4.938,15.793,15.793,0,0,0-.05344,2.25523l.5451.7268a6.43407,6.43407,0,0,0-.87644-.06413,2.89029,2.89029,0,0,0-.80162.09619,9.10243,9.10243,0,0,0-1.55829,2.04147c-.30776.59854-.92138,1.77424-.92138,1.77424a5.17517,5.17517,0,0,1-.08552-.652c0-.20308.22445-1.67806.24584-1.82769a5.13771,5.13771,0,0,1,.1817-.58786h-.22445s.03206-.09619.07482-.23515.39545-.994.50234-1.20777a2.95314,2.95314,0,0,0,.22445-1.01538c-.02137-.20308-.20308-.33134-.19239-.42754a.99962.99962,0,0,0-.05344-.42754,1.499,1.499,0,0,0-.31-.49165c-.06413-.07482.01069-.47029,0-.5451s-.06413-.11758-.13894-.08552-.14965.24584-.19239.29928-.21378.06413-.21378-.05344-.35271-.12826-.43821-.22445a.719.719,0,0,0-.4596-.14965c-.11757.01069-.09619.09619-.171.27791a2.83873,2.83873,0,0,0-.25652-.52373c-.09619-.20308-.39547-.28858-.571-.35271a.564.564,0,0,0-.37671,0c-.12466.02137-.04634.1817.21017.31s.36339.513.50234.81231.06413.37408.09619.57717-.21376.139-.228.23515a.43009.43009,0,0,1-.22088.2672.90775.90775,0,0,0-.33134.28858c-.0855.12826.03206.49166.21378.80162a5.85922,5.85922,0,0,1,.31,1.336.79128.79128,0,0,1,0,.43821h-.52373l.04276.19239.0855.42754a2.199,2.199,0,0,1,.04276,1.28259,9.2286,9.2286,0,0,0-.0855,2.1804,2.91689,2.91689,0,0,1-.25652.98331s.0855,2.8217.25652,4.01879,1.96663.47028,1.96663.47028l.98333-.94057-.29928,3.634s-.42754.89781-.98331,1.92389a7.79431,7.79431,0,0,0-.68405,2.56518,3.366,3.366,0,0,0-.14963.83368c0,.36341-.36341,3.292-.513,3.86914s-.68405,4.51045-.68405,4.51045,16.95157.91918,16.86607.61991-.76955-2.52242-.76955-2.52242-1.88113-5.4617-2.04145-5.87855-1.19709-2.60792-1.19709-2.60792l-.1817-.53442a3.82259,3.82259,0,0,1,.481.31c.06413.07481.5451-.05345.6413-.12676a8.32894,8.32894,0,0,1,1.8063-.0015,5.714,5.714,0,0,0,2.22316-.4596s2.3621-.73749,2.92859-.94057.41684-.57717.47028-.8123A5.50043,5.50043,0,0,0,231.45289,140.01345Zm-3.55919.90315a17.35294,17.35294,0,0,1-2.11627.68939,4.39742,4.39742,0,0,1-1.45895,0c-.30462-.016-.14429-.12826-.27255-.32065s-.25652-.06413-.40081-.20842-.36874-.17636-.52907-.35271-.22445-.12826-.27255-.28858a2.347,2.347,0,0,1,0-.75352c.03206-.27255.33668-.497.36874-.68939a.83628.83628,0,0,1,.27255-.44891,3.14256,3.14256,0,0,0,.497-1.02607,1.22092,1.22092,0,0,1,.73749-.70542,2.15171,2.15171,0,0,1,.83617-.14429c.3071-.03206.79913.33668,1.2801.80162a11.68672,11.68672,0,0,1,1.45895,2.966C228.32657,140.69215,228.11815,140.77231,227.8937,140.9166Z"/>
            </g>
            <g>
              <path class="d4f2abd4-01d3-4c45-8b0c-2ebeae785eff" d="M219.13768,153.24026c.97166-3.14894-.144-7.35953-.70177-8.45717a5.69779,5.69779,0,0,0-1.87912-1.73937l1.33554-3.05015s-.29891-4.4063-1.64924-5.82766c0,0-3.127,3.056-1.84779,6.183.36539.89314.67085,1.54828.92358,2.03724a6.55,6.55,0,0,0-4.43424-.412l.45887-1.04794s-.30663-4.51947-1.69164-5.97737c0,0-3.20736,3.13449-1.89524,6.34185.335.81888.62185,1.44573.86425,1.92815-1.57676,1.47042-1.81018,3.58808-2.13293,4.7312-.43187,1.5295.072,4.8224.32389,6.064a9.88422,9.88422,0,0,0,1.38551,2.861s-.73774,4.1566-.79173,5.00233a1.38732,1.38732,0,0,0,.34191,1.16961l2.06929,1.54749s-.25191,1.27756-.35989,1.58346.072.3059.35989.50382c-.48583.3059-.95367,8.16925-.95367,8.16925.50382.8817,7.19759.73777,7.82738.71975a1.209,1.209,0,0,0,.93569-.71975l-.89971-8.22324.41385-.2159-.036-1.16961a7.2185,7.2185,0,0,0,.80972-1.47551,4.09141,4.09141,0,0,0,.23392-2.51915l-1.25958-4.30056S218.166,156.3892,219.13768,153.24026Z"/>
              <path class="d4f2abd4-01d3-4c45-8b0c-2ebeae785eff" d="M162.13222,163.59021c.97166-3.14894-.144-7.35953-.70177-8.45717a5.69779,5.69779,0,0,0-1.87912-1.73937l1.33554-3.05015s-.29891-4.4063-1.64924-5.82766c0,0-3.127,3.056-1.84779,6.183.36539.89314.67085,1.54828.92358,2.03724a6.55,6.55,0,0,0-4.43424-.412l.45887-1.04794s-.30663-4.51947-1.69164-5.97737c0,0-3.20736,3.13449-1.89524,6.34185.335.81889.62185,1.44573.86425,1.92815-1.57676,1.47042-1.81018,3.58808-2.13293,4.7312-.43187,1.5295.072,4.8224.32389,6.064a9.88422,9.88422,0,0,0,1.38551,2.861s-.73774,4.1566-.79173,5.00233a1.38732,1.38732,0,0,0,.34191,1.16961l2.06929,1.54749s-.25191,1.27756-.35989,1.58346.072.3059.35989.50382c-.48583.3059-.95367,8.16925-.95367,8.16925.50382.8817,7.19759.73777,7.82738.71975a1.209,1.209,0,0,0,.93569-.71975l-.89971-8.22324.41385-.2159-.036-1.16961a7.2185,7.2185,0,0,0,.80972-1.47551,4.09141,4.09141,0,0,0,.23392-2.51915L159.883,167.297S161.16052,166.73915,162.13222,163.59021Z"/>
              <path class="d4f2abd4-01d3-4c45-8b0c-2ebeae785eff" d="M205.59924,151.40736c-.48283-.07726-.51969-.12818-.43364-.38452s1.06754-1.04459,1.36427-1.4923-1.07275.23348-1.5749.55825-.76379.553-.86033.31248.65846-1.02.86184-2.00955-.94429.55582-1.29194,1.04035-.65141.97615-.69706.69876a10.90854,10.90854,0,0,0-.14386-1.91373c-.179-.56887-.454.33245-.454.33245s-.24483,1.22129-.24059,1.47621-.4485,1.11451-.70483,1.0285-.1211-.64964-.45994-1.064c-.78652-.71112-.7269.60393-.7269.60393s.43184,1.23957.89178,2.30353c-1.57325,2.65337-5.7327,4.99411-7.71108,5.99732a3.40476,3.40476,0,0,0-.76493-.69276c-1.41836-.92737-2.89124-1.85475-2.89124-1.85475v-.70916a6.51509,6.51509,0,0,0,2.9403-2.84664c.09983-.04641.20677-.09828.31614-.15246.42451.00155.76135-.02665.944-.43766.01644-.037.02934-.07862.0434-.11883a3.13162,3.13162,0,0,0,.83744-.73126c.6198-.88641.45836-4.11791.45836-4.11791l-1.58928,1.89338c.08785-.33391.18012-.66285.25008-.90765.21821-.76372.3273-3.43673-.98193-3.65494a5.33023,5.33023,0,0,0-4.90964-1.80022c-.03778.00319-.07233.00926-.10963.0129a8.35613,8.35613,0,0,0-.93664-2.81007,1.32341,1.32341,0,1,0-.77533.51684c.2717.71786.69235,1.61324,1.07253,2.38-2.70411.4699-3.99694,2.12-3.99694,3.77348a18.12489,18.12489,0,0,0,.38186,4.14592,25.59825,25.59825,0,0,0,.87285,3.32764,4.5387,4.5387,0,0,0,2.89121,1.90931c.32733.491.16365.76372.16365.76372l-.38186.491s-2.83226,1.14385-3.10851,1.63543c-1.88668-.99474-4.6872-2.70468-5.85842-4.60545.40427-.8999.78383-1.94832.78383-1.94832s.05241-1.11224-.63892-.5108c-.29781.35047-.179.82714-.40424.8999s-.62324-.65429-.61955-.86987-.21145-1.24854-.21145-1.24854-.24173-.76236-.39909-.28121a8.88574,8.88574,0,0,0-.12648,1.61861c-.04008.23462-.3071-.18113-.61265-.591s-1.31436-1.71683-1.1356-.87993.8424,1.49618.75753,1.69963-.31481.01043-.7562-.2643-1.6451-.85078-1.38428-.47214,1.12352,1.04538,1.19917,1.26217.04321.25987-.38117.32521-1.38735-.01476-.824.27922,1.321.32961,1.63891.81367a3.11626,3.11626,0,0,0,1.40593,1.078c.25779.05029,4.17535,4.82907,6.94834,7.20309-.10511.50552-.21565,1.01026-.33568,1.514-.00177.56559.00626,1.13136.00838,1.69669.00205.55389-.01227,1.09754-.04454,1.634a19.12256,19.12256,0,0,1-.32683,3.68806l-.59318,7.98075h10.74666s-.60007-5.61884-.54551-6.76442.05456-6.27341.54551-6.43706c.06977-.02327.15486-.056.24783-.09392.05987-.60886.10741-1.2175.15847-1.82554,2.854-1.47459,9.33029-9.76479,9.68592-9.83689a3.56159,3.56159,0,0,0,1.59952-1.27456c.36169-.57235,1.22376-.61442,1.86461-.962S206.08207,151.48465,205.59924,151.40736Z"/>
              <path class="d4f2abd4-01d3-4c45-8b0c-2ebeae785eff" d="M154.094,152.256c-.48283-.07726-.51969-.12818-.43364-.38452s1.06754-1.04459,1.36427-1.4923-1.07275.23348-1.5749.55825-.76379.553-.86033.31248.65846-1.02.86184-2.00955-.94429.55582-1.29194,1.04035-.65141.97615-.69706.69876a10.90855,10.90855,0,0,0-.14386-1.91373c-.179-.56887-.454.33245-.454.33245s-.24483,1.22129-.24059,1.47621-.4485,1.11451-.70483,1.0285-.1211-.64964-.45994-1.064c-.78652-.71112-.7269.60393-.7269.60393s.43184,1.23957.89178,2.30353c-1.57325,2.65337-5.7327,4.99411-7.71108,5.99732a3.40475,3.40475,0,0,0-.76492-.69276c-1.41836-.92737-2.89124-1.85475-2.89124-1.85475V156.487a6.51509,6.51509,0,0,0,2.9403-2.84664c.09983-.0464.20677-.09828.31614-.15246.42451.00155.76135-.02665.944-.43766.01644-.037.02934-.07862.0434-.11883a3.13162,3.13162,0,0,0,.83744-.73126c.6198-.88641.45836-4.11791.45836-4.11791l-1.58928,1.89338c.08785-.33391.18012-.66285.25008-.90765.21821-.76372.3273-3.43672-.98193-3.65494a5.33023,5.33023,0,0,0-4.90964-1.80022c-.03778.00319-.07233.00926-.10963.0129a8.35613,8.35613,0,0,0-.93664-2.81007,1.32341,1.32341,0,1,0-.77532.51684c.2717.71786.69235,1.61324,1.07253,2.38-2.70411.4699-3.99694,2.12-3.99694,3.77348a18.12489,18.12489,0,0,0,.38186,4.14592,25.59825,25.59825,0,0,0,.87285,3.32764,4.5387,4.5387,0,0,0,2.89121,1.90931c.32733.491.16365.76372.16365.76372l-.38186.491s-2.83226,1.14385-3.10851,1.63543c-1.88668-.99474-4.6872-2.70468-5.85842-4.60545.40427-.8999.78383-1.94832.78383-1.94832s.05241-1.11224-.63892-.5108c-.29781.35047-.179.82714-.40424.8999s-.62324-.65429-.61955-.86987-.21145-1.24854-.21145-1.24854-.24173-.76236-.39909-.28121a8.88573,8.88573,0,0,0-.12648,1.61861c-.04008.23462-.3071-.18113-.61265-.591s-1.31436-1.71683-1.1356-.87993.8424,1.49618.75753,1.69963-.31481.01043-.7562-.2643-1.6451-.85078-1.38428-.47214,1.12352,1.04538,1.19917,1.26217.04321.25987-.38117.32521-1.38735-.01476-.824.27922,1.321.32961,1.63891.81367a3.11626,3.11626,0,0,0,1.40593,1.078c.25779.05029,4.17535,4.82907,6.94834,7.20309-.10511.50552-.21565,1.01026-.33568,1.514-.00177.56559.00626,1.13136.00838,1.69669.00205.55389-.01227,1.09754-.04454,1.634a19.12255,19.12255,0,0,1-.32683,3.68806l-.59318,7.98075h10.74666s-.60007-5.61884-.54551-6.76442.05456-6.27341.54551-6.43706c.06977-.02327.15486-.056.24783-.09392.05987-.60886.10741-1.2175.15847-1.82554,2.854-1.47459,9.33029-9.76479,9.68592-9.83689a3.56159,3.56159,0,0,0,1.59952-1.27456c.36169-.57235,1.22376-.61442,1.86461-.962S154.57678,152.33329,154.094,152.256Z"/>
              <path class="d4f2abd4-01d3-4c45-8b0c-2ebeae785eff" d="M180.86092,157.02142c-1.081-1.05919-2.01622-.82-2.19106-3.269s1.75935-3.51161.05061-3.95818a1.95844,1.95844,0,0,0-.7947-.03676,1.87166,1.87166,0,0,0-1.84726-1.62588c-.15335-.28965-.39185-1.94225-1.87406-2.02741s-5.0089-.18742-7.53039,2.57257l1.34594-.1022a3.43738,3.43738,0,0,0-1.22626,1.54c-1.09112-.22365-.23455,1.72995-1.03371,4.11127-.81847,2.439-1.34464,1.75606-2.33849,2.3414s-1.11078,3.317.6431,2.63409,2.69526-.6326,3.68914-2.809c.0239-.05232.0429-.10937.06512-.1634.1125.64556.552,2.47486,3.31888,2.85752a2.39931,2.39931,0,0,1-.017.76666c-.05112.15335-.42593.27261-.42593.27261a4.50454,4.50454,0,0,0-.5622.28962,2.82343,2.82343,0,0,1-.69854.3237c-.08519,0-1.03925.3237-1.26074.88593-.18723.47537-.65334,1.9218-.80359,2.57466.00066.11968-1.96112,8.08662-1.80977,8.13059s-.00111,1.22654,1.49141,1.22654c.0888-.07346-.82543-1.04392.32136-.73565.81822.21992,1.15377-3.00523,1.279-4.872-.09638,1.88187-.25927,5.20306-.22283,5.48256a1.99662,1.99662,0,0,0,.35777.85186c.11927.18742.13631,3.663.15331,3.73112s.32373,3.61185.32373,3.61185l2.72592.17038.08519-4.42963s1.07332,4.27628,1.19259,4.42963a13.09757,13.09757,0,0,0,2.45334,0,9.64248,9.64248,0,0,1,0-2.38518,30.06981,30.06981,0,0,0,0-3.74816s.74963-1.29482.68147-1.63556l-.06815-.34074h.443s.27261-2.67483.37484-4.19112.13628-5.8778.06812-6.57631-.15331-1.26074-.52813-1.46521-2.04445-1.03925-2.04445-1.03925l-.10223-.2215-1.05632-.494-.51109-.27261v-.34074a5.26131,5.26131,0,0,0,3.18-2.7519,16.29681,16.29681,0,0,0,2.90224,2.42915C181.09563,160.35073,181.94193,158.08061,180.86092,157.02142Z"/>
              <path class="d4f2abd4-01d3-4c45-8b0c-2ebeae785eff" d="M237.87228,153.01991c-1.38112-.30211-1.899.34529-1.899.77687s-.12948,1.42427-.12948,1.42427l-.43159,1.29479-.30214-1.72638-2.28744-2.24432a5.2134,5.2134,0,0,0,3.53908-1.079c1.33794-1.25164,2.24429-5.00653,1.12216-7.68241a13.75288,13.75288,0,0,0-1.36272-2.58762l.0851.01473c.41676-2.40791-.6241-4.59853-2.32484-4.89286-1.44222-.24963-2.89267.94716-3.55536,2.78434-1.50791.154-1.64675.36542-1.64675.36542a8.84739,8.84739,0,0,0-1.00786.048c-1.45939-1.79728-3.638-2.46345-4.9711-1.47538-1.38276,1.02486-1.33079,3.43868.11247,5.399a4.855,4.855,0,0,0-.26221,1.12128,11.49193,11.49193,0,0,0,.51792,4.57491,5.42113,5.42113,0,0,0,.17266,2.07166c.30211.51792.47474,2.07166,2.02848,2.24429l-1.98533,3.75489a22.476,22.476,0,0,1-.77687-3.75489c0-1.03583.21581-2.41692-.90635-2.33062s-1.55375.34529-1.46742.90635a1.91694,1.91694,0,0,0,.9495,1.338c.21581.60421.51792,3.66856.73372,5.61075s.46405,3.02117.87942,3.237a1.37207,1.37207,0,0,0,.97643,0l-.97643,9.193s5.42187,2.11481,9.86734,0c.21578-1.16531-1.12216-6.373-1.03583-7.04927a17.4517,17.4517,0,0,1,.86317-3.69748,13.69491,13.69491,0,0,1,.19624,2.158s.06272.73369.49433.9495,1.46742-.43159,1.46742-.43159l.9495-.38844v-1.64008l1.5106-5.52445a5.84708,5.84708,0,0,0,1.16531-.82C238.606,154.53051,239.25337,153.322,237.87228,153.01991Z"/>
              <path class="d4f2abd4-01d3-4c45-8b0c-2ebeae785eff" d="M129.64992,165.81067c-.19942-1.04957-2.42448-5.23731-2.94926-6.33935a8.63236,8.63236,0,0,0-1.6898-2.309c-.17842-.12595-1.75276-.99708-1.75276-.99708a3.55186,3.55186,0,0,0-.52478-.41983,1.69966,1.69966,0,0,1-.45132-.4618c-.063-.09446.30437-.25189.30437-.25189s.56676.23091.86064-.03149a7.53827,7.53827,0,0,0,.95511-2.93877,6.89305,6.89305,0,0,0-.64024-3.95684,7.36565,7.36565,0,0,0-1.96268-2.78134,2.89073,2.89073,0,0,0-2.19358-.69271c-1.11254,0-2.18309,1.249-2.50606,1.57434a30.84733,30.84733,0,0,0-1.81813,4.849,15.50828,15.50828,0,0,0-.05247,2.21458l.53528.7137a6.31811,6.31811,0,0,0-.86064-.063,2.83819,2.83819,0,0,0-.78717.09446,8.93836,8.93836,0,0,0-1.5302,2.00467c-.30221.58775-.90477,1.74226-.90477,1.74226a5.08189,5.08189,0,0,1-.084-.64022c0-.19942.22041-1.64781.24141-1.79475a5.04511,5.04511,0,0,1,.17842-.57726h-.22041s.03149-.09446.07347-.23091.38833-.97609.49329-1.186a2.89992,2.89992,0,0,0,.22041-.99708c-.021-.19942-.19942-.32537-.18892-.41983a.9816.9816,0,0,0-.05247-.41983,1.472,1.472,0,0,0-.30438-.48279c-.063-.07347.0105-.46182,0-.53528s-.063-.11546-.13643-.084-.14695.24141-.18892.29388-.20992.063-.20992-.05247-.34635-.12595-.43031-.22041a.706.706,0,0,0-.45132-.14695c-.11545.0105-.09446.09446-.16792.2729a2.78757,2.78757,0,0,0-.25189-.51429c-.09446-.19942-.38834-.28338-.56066-.34635a.55379.55379,0,0,0-.36992,0c-.12241.021-.04551.17842.20639.30437s.35684.50379.49329.79767.063.36734.09446.56676-.20991.13645-.22391.23091a.42234.42234,0,0,1-.2169.26238.89138.89138,0,0,0-.32537.28338c-.084.12595.03149.4828.20992.78717a5.7536,5.7536,0,0,1,.30437,1.312.777.777,0,0,1,0,.43031h-.51429l.042.18892.084.41983a2.15937,2.15937,0,0,1,.042,1.25947,9.06225,9.06225,0,0,0-.084,2.1411,2.86431,2.86431,0,0,1-.25189.96559s.084,2.77084.25189,3.94635,1.93118.4618,1.93118.4618l.96561-.92362-.29388,3.56851s-.41983.88163-.96559,1.88921a7.65382,7.65382,0,0,0-.67172,2.51895,3.30536,3.30536,0,0,0-.14693.81866c0,.35686-.35686,3.23264-.50379,3.7994s-.67172,4.42916-.67172,4.42916,16.646.90262,16.56206.60873-.75568-2.477-.75568-2.477-1.84722-5.36326-2.00466-5.77259-1.17551-2.56092-1.17551-2.56092l-.17842-.52479a3.75368,3.75368,0,0,1,.4723.30438c.063.07346.53528-.05249.62974-.12447a8.17881,8.17881,0,0,1,1.77375-.00148,5.611,5.611,0,0,0,2.18309-.45132s2.31952-.7242,2.8758-.92362.40933-.56676.4618-.79766A5.40129,5.40129,0,0,0,129.64992,165.81067Zm-3.495.88687a17.04018,17.04018,0,0,1-2.07813.677,4.31816,4.31816,0,0,1-1.43265,0c-.29912-.01574-.14169-.12595-.26764-.31487s-.25189-.063-.39359-.20466-.3621-.17318-.51953-.34635-.22041-.12595-.26764-.28338a2.30468,2.30468,0,0,1,0-.73994c.03149-.26764.33061-.488.3621-.677a.8212.8212,0,0,1,.26764-.44082,3.08591,3.08591,0,0,0,.488-1.00758,1.19891,1.19891,0,0,1,.7242-.69271,2.11293,2.11293,0,0,1,.8211-.14169c.30157-.03149.78473.33061,1.257.78717a11.47608,11.47608,0,0,1,1.43265,2.91253C126.58,166.47713,126.37529,166.55585,126.15488,166.69754Z"/>
            </g>
            <g>
              <path class="9c7deb70-8bcf-4f3e-a724-de36ee47ccff" d="M199.99656,169.88462c.97166-3.14894-.144-7.35953-.70177-8.45717a5.69779,5.69779,0,0,0-1.87912-1.73937l1.33554-3.05015s-.29891-4.4063-1.64924-5.82766c0,0-3.127,3.056-1.84779,6.183.36539.89314.67085,1.54828.92358,2.03724a6.55,6.55,0,0,0-4.43424-.412l.45887-1.04794s-.30663-4.51947-1.69164-5.97737c0,0-3.20736,3.13449-1.89524,6.34185.335.81889.62185,1.44573.86425,1.92815-1.57676,1.47042-1.81018,3.58808-2.13293,4.7312-.43187,1.5295.072,4.8224.32389,6.064a9.88422,9.88422,0,0,0,1.38551,2.861s-.73774,4.1566-.79173,5.00233a1.38732,1.38732,0,0,0,.34191,1.16961l2.06929,1.54749s-.25191,1.27756-.35989,1.58346.072.3059.35989.50382c-.48583.3059-.95367,8.16925-.95367,8.16925.50382.8817,7.19759.73777,7.82738.71975a1.209,1.209,0,0,0,.93569-.71975l-.89971-8.22324.41385-.2159-.036-1.16961a7.21851,7.21851,0,0,0,.80972-1.47551,4.09141,4.09141,0,0,0,.23392-2.51915l-1.25958-4.30056S199.02487,173.03355,199.99656,169.88462Z"/>
              <path class="9c7deb70-8bcf-4f3e-a724-de36ee47ccff" d="M234.34394,167.329c.97166-3.14894-.144-7.35953-.70177-8.45717a5.69779,5.69779,0,0,0-1.87912-1.73937l1.33554-3.05015s-.29891-4.4063-1.64924-5.82766c0,0-3.127,3.056-1.84779,6.183.36539.89314.67085,1.54828.92358,2.03724a6.55,6.55,0,0,0-4.43424-.412l.45887-1.04794s-.30663-4.51947-1.69164-5.97737c0,0-3.20736,3.13449-1.89524,6.34185.335.81889.62185,1.44573.86425,1.92815-1.57676,1.47042-1.81018,3.58808-2.13293,4.7312-.43187,1.5295.072,4.8224.32389,6.064a9.88422,9.88422,0,0,0,1.38551,2.861s-.73774,4.1566-.79173,5.00233a1.38732,1.38732,0,0,0,.34191,1.16961l2.06929,1.54749s-.25191,1.27756-.35989,1.58346.072.3059.35989.50382c-.48583.3059-.95367,8.16925-.95367,8.16925.50382.8817,7.19759.73777,7.82738.71975a1.209,1.209,0,0,0,.93569-.71975l-.89971-8.22324.41385-.2159-.036-1.16961a7.2185,7.2185,0,0,0,.80972-1.47551,4.09141,4.09141,0,0,0,.23392-2.51915l-1.25958-4.30056S233.37225,170.478,234.34394,167.329Z"/>
              <path class="9c7deb70-8bcf-4f3e-a724-de36ee47ccff" d="M142.9911,180.23457c.97166-3.14894-.144-7.35953-.70177-8.45717a5.69779,5.69779,0,0,0-1.87912-1.73937l1.33554-3.05015s-.29891-4.4063-1.64924-5.82766c0,0-3.127,3.056-1.84779,6.183.36539.89314.67085,1.54828.92358,2.03724a6.55,6.55,0,0,0-4.43424-.412l.45887-1.04794s-.30663-4.51947-1.69164-5.97737c0,0-3.20736,3.13449-1.89524,6.34185.335.81888.62185,1.44573.86425,1.92815-1.57676,1.47042-1.81018,3.58808-2.13293,4.7312-.43187,1.5295.072,4.8224.32389,6.064a9.88422,9.88422,0,0,0,1.38551,2.861s-.73774,4.1566-.79173,5.00233a1.38732,1.38732,0,0,0,.34191,1.16961l2.06929,1.54749s-.25191,1.27756-.35989,1.58346.072.3059.35989.50382c-.48583.3059-.95367,8.16925-.95367,8.16925.50382.8817,7.19759.73777,7.82738.71975a1.209,1.209,0,0,0,.93569-.71975l-.89971-8.22324.41385-.2159-.036-1.16961a7.2185,7.2185,0,0,0,.80972-1.47551,4.09141,4.09141,0,0,0,.23392-2.51915l-1.25958-4.30056S142.01941,183.38351,142.9911,180.23457Z"/>
              <path class="9c7deb70-8bcf-4f3e-a724-de36ee47ccff" d="M186.45813,168.05171c-.48283-.07726-.51969-.12818-.43364-.38452s1.06754-1.04459,1.36427-1.4923-1.07275.23348-1.5749.55825-.76379.553-.86033.31248.65846-1.02.86184-2.00955-.94429.55582-1.29194,1.04035-.65141.97615-.69706.69876a10.90855,10.90855,0,0,0-.14386-1.91373c-.179-.56887-.454.33245-.454.33245s-.24483,1.22129-.24059,1.47621-.4485,1.11451-.70483,1.0285-.1211-.64964-.45994-1.064c-.78652-.71112-.7269.60393-.7269.60393s.43184,1.23957.89178,2.30353c-1.57325,2.65337-5.7327,4.99411-7.71108,5.99732a3.40475,3.40475,0,0,0-.76492-.69276c-1.41836-.92737-2.89124-1.85475-2.89124-1.85475v-.70916a6.51509,6.51509,0,0,0,2.9403-2.84664c.09983-.04641.20677-.09828.31614-.15246.42451.00155.76135-.02665.944-.43766.01644-.037.02934-.07862.0434-.11883a3.13162,3.13162,0,0,0,.83744-.73126c.6198-.88641.45836-4.11791.45836-4.11791l-1.58928,1.89338c.08785-.33391.18012-.66285.25008-.90765.21821-.76372.3273-3.43672-.98193-3.65494a5.33023,5.33023,0,0,0-4.90964-1.80022c-.03778.00319-.07233.00926-.10963.0129a8.35613,8.35613,0,0,0-.93664-2.81007,1.32341,1.32341,0,1,0-.77532.51684c.2717.71786.69235,1.61324,1.07253,2.38-2.70411.4699-3.99694,2.12-3.99694,3.77348a18.12489,18.12489,0,0,0,.38186,4.14592,25.59825,25.59825,0,0,0,.87285,3.32764,4.5387,4.5387,0,0,0,2.89121,1.90931c.32733.491.16365.76372.16365.76372l-.38186.491s-2.83226,1.14385-3.10851,1.63543c-1.88668-.99474-4.6872-2.70468-5.85842-4.60545.40427-.8999.78383-1.94832.78383-1.94832s.05241-1.11224-.63892-.5108c-.29781.35047-.179.82714-.40424.8999s-.62324-.65429-.61955-.86987-.21145-1.24854-.21145-1.24854-.24173-.76236-.39909-.28121a8.88573,8.88573,0,0,0-.12648,1.61861c-.04008.23462-.3071-.18113-.61265-.591s-1.31436-1.71683-1.1356-.87993.8424,1.49618.75753,1.69963-.31481.01043-.7562-.2643-1.6451-.85078-1.38428-.47214,1.12352,1.04538,1.19917,1.26217.04321.25987-.38117.32521-1.38735-.01476-.824.27922,1.321.32961,1.63891.81367a3.11626,3.11626,0,0,0,1.40593,1.078c.25779.05029,4.17535,4.82907,6.94834,7.20309-.10511.50552-.21565,1.01026-.33568,1.514-.00177.56559.00626,1.13136.00838,1.69669.00205.55389-.01227,1.09754-.04454,1.634a19.12255,19.12255,0,0,1-.32683,3.68806l-.59318,7.98075H173.8393s-.60007-5.61884-.54551-6.76442.05456-6.27341.54551-6.43706c.06977-.02327.15486-.056.24783-.09392.05987-.60886.10741-1.2175.15847-1.82554,2.854-1.47459,9.33029-9.76479,9.68592-9.83689a3.56159,3.56159,0,0,0,1.59952-1.27456c.36169-.57235,1.22376-.61442,1.86461-.962S186.941,168.129,186.45813,168.05171Z"/>
              <path class="9c7deb70-8bcf-4f3e-a724-de36ee47ccff" d="M134.95284,168.90036c-.48283-.07726-.51969-.12818-.43364-.38452s1.06754-1.04459,1.36427-1.4923-1.07275.23348-1.5749.55825-.76379.553-.86033.31248.65846-1.02.86184-2.00955-.94429.55582-1.29194,1.04035-.65141.97615-.69706.69876a10.90856,10.90856,0,0,0-.14386-1.91373c-.179-.56887-.454.33245-.454.33245s-.24483,1.22129-.24059,1.47621-.4485,1.11451-.70483,1.0285-.1211-.64964-.45994-1.064c-.78652-.71112-.7269.60393-.7269.60393s.43184,1.23957.89178,2.30353c-1.57325,2.65337-5.7327,4.99411-7.71108,5.99732a3.40475,3.40475,0,0,0-.76492-.69276c-1.41836-.92737-2.89124-1.85475-2.89124-1.85475v-.70916a6.51509,6.51509,0,0,0,2.9403-2.84664c.09983-.04641.20677-.09828.31614-.15246.42451.00155.76135-.02665.944-.43766.01644-.037.02934-.07862.0434-.11883a3.13162,3.13162,0,0,0,.83744-.73126c.6198-.88641.45836-4.11791.45836-4.11791L123.06587,166.62c.08785-.33391.18012-.66285.25008-.90765.21821-.76372.3273-3.43672-.98193-3.65494a5.33023,5.33023,0,0,0-4.90964-1.80022c-.03778.00319-.07233.00926-.10963.0129a8.35613,8.35613,0,0,0-.93664-2.81007,1.32341,1.32341,0,1,0-.77532.51684c.2717.71786.69235,1.61324,1.07253,2.38-2.70411.4699-3.99694,2.12-3.99694,3.77348a18.12489,18.12489,0,0,0,.38186,4.14592,25.59823,25.59823,0,0,0,.87285,3.32764,4.5387,4.5387,0,0,0,2.89121,1.90931c.32733.491.16365.76372.16365.76372l-.38186.491s-2.83226,1.14385-3.10851,1.63543c-1.88668-.99474-4.6872-2.70468-5.85842-4.60545.40427-.8999.78383-1.94832.78383-1.94832s.05241-1.11224-.63892-.5108c-.29781.35047-.179.82714-.40424.8999s-.62324-.65429-.61955-.86987-.21145-1.24854-.21145-1.24854-.24173-.76236-.39909-.28121a8.88572,8.88572,0,0,0-.12648,1.61861c-.04008.23462-.3071-.18113-.61265-.591s-1.31436-1.71683-1.1356-.87993.8424,1.49618.75753,1.69963-.31481.01043-.7562-.2643-1.6451-.85078-1.38428-.47214,1.12352,1.04538,1.19917,1.26217.04321.25987-.38117.32521-1.38735-.01476-.824.27922,1.321.32961,1.63891.81367a3.11626,3.11626,0,0,0,1.40593,1.078c.25779.05029,4.17535,4.82907,6.94834,7.20309-.10511.50552-.21565,1.01026-.33568,1.514-.00177.56559.00626,1.13136.00838,1.69669.00205.55389-.01227,1.09754-.04454,1.634a19.12256,19.12256,0,0,1-.32683,3.68806l-.59318,7.98075H122.334s-.60007-5.61884-.54551-6.76442.05456-6.27341.54551-6.43706c.06977-.02327.15486-.056.24783-.09392.05987-.60886.10741-1.2175.15847-1.82554,2.854-1.47459,9.33029-9.76479,9.68592-9.83689a3.56159,3.56159,0,0,0,1.59952-1.27456c.36169-.57235,1.22376-.61442,1.86461-.962S135.43567,168.97765,134.95284,168.90036Z"/>
              <path class="9c7deb70-8bcf-4f3e-a724-de36ee47ccff" d="M218.73117,169.66426c-1.38112-.30211-1.899.34529-1.899.77687s-.12948,1.42427-.12948,1.42427l-.43159,1.29479-.30214-1.72638-2.28744-2.24432a5.2134,5.2134,0,0,0,3.53908-1.079c1.33794-1.25164,2.24429-5.00653,1.12216-7.68241a13.75287,13.75287,0,0,0-1.36272-2.58762l.0851.01473c.41676-2.40791-.6241-4.59853-2.32484-4.89286-1.44222-.24963-2.89267.94716-3.55536,2.78434-1.50791.154-1.64675.36542-1.64675.36542a8.84739,8.84739,0,0,0-1.00786.048c-1.45939-1.79728-3.638-2.46345-4.9711-1.47538-1.38276,1.02486-1.33079,3.43868.11247,5.399a4.855,4.855,0,0,0-.26221,1.12128,11.49193,11.49193,0,0,0,.51792,4.57491,5.42113,5.42113,0,0,0,.17266,2.07166c.30211.51792.47474,2.07166,2.02848,2.24429l-1.98533,3.75489a22.476,22.476,0,0,1-.77687-3.75489c0-1.03583.21581-2.41692-.90635-2.33062s-1.55375.34529-1.46742.90635a1.91694,1.91694,0,0,0,.9495,1.338c.21581.60421.51792,3.66856.73372,5.61075s.46405,3.02117.87942,3.237a1.37207,1.37207,0,0,0,.97643,0l-.97643,9.193s5.42187,2.11481,9.86734,0c.21578-1.16531-1.12216-6.373-1.03583-7.04927a17.45169,17.45169,0,0,1,.86317-3.69748,13.69491,13.69491,0,0,1,.19624,2.158s.06272.73369.49433.9495,1.46742-.43159,1.46742-.43159l.9495-.38844v-1.64008l1.5106-5.52445a5.84708,5.84708,0,0,0,1.16531-.82C219.46486,171.17486,220.11225,169.96637,218.73117,169.66426Z"/>
              <path class="9c7deb70-8bcf-4f3e-a724-de36ee47ccff" d="M152.57278,170.88515a12.07456,12.07456,0,0,0-2.7383,0,24.30235,24.30235,0,0,0-2.38333,1.572c-.355.20284-.25355.355-.45638,1.1156s-1.06489,2.434-1.6734,2.63688a.56582.56582,0,0,1-.76064-.40567,6.5452,6.5452,0,0,1-.40567-1.36915,2.92939,2.92939,0,0,0-.25355-.91179,3.664,3.664,0,0,1-.25355-1.16729,6.915,6.915,0,0,0-.355-1.56072,2.28142,2.28142,0,0,0-.5578-1.17758c-.25355-.20284-.20284-.60851-.40567-.91277s-.65922-.91277-.65922-.91277-1.19167-.63386-.56414.86839c.3613.53245.62753.91277.62753.91277s.20918.51343.07606.57048a1.76691,1.76691,0,0,1-.88614.038,2.38942,2.38942,0,0,0-.97742-.45638c-.32327-.019-1.00784.19016-.30426.64654s.76064.76064.76064.76064l.15213.24721a2.366,2.366,0,0,0-.19016.41835c-.057.19016.19016.4754.30426.60851s.057.30426.07606.53245.32327.20918.3613.34229a2.04485,2.04485,0,0,1,.019.45638s.4754.43737.62753.58949.1141.34229.09508.79867-.13311,1.59734-.15213,1.97766a7.52334,7.52334,0,0,0,1.02686,3.30877c.72261,1.00784,1.29308,1.27407,2.24388.8367s1.02686-.66556,1.29308-.70359a5.87607,5.87607,0,0,0,1.179-.41835c.057-.057.30426-.49441.30426-.49441s.34229-.55146.51343-.38032-.26622.89375-.41835,1.25505a4.85525,4.85525,0,0,0-.07606,1.90159,2.19143,2.19143,0,0,1-.07606,1.54029c-.28524.70359-1.97766,3.99335-2.12979,4.31662s-.20918.96981-.28524,1.04588-.41835.62753-.32327.87473.22819.22819-.1141,1.08391-2.27557,8.69662-2.27557,8.69662l10.24689,2.45939s2.25292-6.49077,2.27827-6.69361.50709.05071.8367-.02535.38032.05071.355-.58316.07606-3.32145.12677-3.87925a5.62416,5.62416,0,0,0,0-1.01418s.5578-1.01418.81135-1.648a8.28526,8.28526,0,0,0,.63386-1.82553c0-.355-.02535-1.03954,0-1.31844s.76064.70993.76064.70993a1.07356,1.07356,0,0,0,.73528.40567,5.51075,5.51075,0,0,0,2.56081-.81135,3.12327,3.12327,0,0,0,1.1156-2.15514,6.5527,6.5527,0,0,0-.15213-1.85088,6.50069,6.50069,0,0,0-.48174-.65922s-.10142-.15213.17748-.60851a15.12131,15.12131,0,0,0,.76064-1.87624.87771.87771,0,0,0,.32961-.355c.07606-.20284-.15213-.53245-.15213-.65922s.16765-1.87624.16765-1.87624-.1423-1.141-.82687-1.3945a4.57012,4.57012,0,0,1,.53245-1.01418,4.35589,4.35589,0,0,0,.50709-.68457,2.19936,2.19936,0,0,1,.32961-.48174s-.10142-.10142.12677-.70993.02535-.786.40567-.91277.786-.431.40567-.73528a1.321,1.321,0,0,0-1.47057.17748,3.28507,3.28507,0,0,1-.93812.93812c-.20284.05071-.76064-.2789-.86206-.355a3.09276,3.09276,0,0,0-1.141.25355,1.93692,1.93692,0,0,0-.2789.40567s-.60851.02535-.58316-.17748a1.48082,1.48082,0,0,0-.12677-.5578l-1.572-.17748s-.431-.12677-.50709-.8367-.2789-1.62269-.32961-2.003-.05071-.17748.12677-.50709.5578-1.29308.07606-1.77482-.65922-.50709-.65922-.50709l-.20284-.32961a4.71558,4.71558,0,0,0-1.1156-2.2312,2.16015,2.16015,0,0,0-1.41986-.68457,4.98722,4.98722,0,0,0-4.33563,1.26773c-1.24237,1.47057-.8367,1.3945-.98883,1.572s-.17748.40567-.05071.86206a3.73112,3.73112,0,0,1,.12677.88741l.50709-.12677s.48174-.38032.5578.05071.10142.60851.30425.76064.20284.60851.22819.93812.22819.355.40567.65922a6.36393,6.36393,0,0,1,.32961,1.03954c.17748.50709.8349.96347,1.08935,1.26773Z"/>
            </g>
            <path class="16cd73b5-1c79-4f4a-8dcd-5db5fadb51b0" d="M195.71987,98.25436V98.2543c-.66357.14728-1.31177.28906-1.95679.4292-.29224.06348-.58228.12512-.87061.18671-.4978.10632-.99316.21027-1.47888.30975-.334.06842-.66248.13239-.99084.19708-.4353.08575-.87061.17047-1.29541.24866-.35083.06458-.69348.1217-1.03711.18048-.38892.06647-.77979.13379-1.15918.192-.36084.05536-.71069.09973-1.06274.14691-.34814.04657-.70032.09656-1.03979.1344-.37256.04156-.7312.06775-1.093.09784-.30176.025-.60986.05688-.90405.07336-.40845.02295-.8.02509-1.19385.03033-.231.00305-.47046.01666-.69629.01324-.61169-.00946-1.2063-.041-1.77954-.10217-7.24731-.75659-12.99463-4.57935-14.6272-9.71613-1.15479-3.62366-.8363-9.43738,7.2207-16.52539l.00537-.00452c.56787-.49982,1.16052-.98157,1.76392-1.4549q.20691-.162.41577-.32245c.61646-.47137,1.24536-.9328,1.89526-1.377l.02258-.015c.65881-.44965,1.33826-.8811,2.02869-1.30249.11035-.06726.22-.13483.33105-.20135q1.06952-.64105,2.18213-1.23987,1.481-.79156,3.03467-1.505-2.26428-.00119-4.51343-.2276-1.37329-.13824-2.73889-.36859a37.338,37.338,0,0,1-8.86755-2.64612c-.17566-.07745-.35034-.162-.52563-.24261-.63867-.29352-1.27612-.59625-1.90967-.9325l-.0011.00153a27.18071,27.18071,0,0,1-2.46863,2.94214c-.422.43945-.86719.86945-1.32288,1.29462-.09949.09277-.1991.18506-.3.27716-.46057.42023-.93176.83508-1.42078,1.23962l-.01855.01489c-.48975.40466-.99585.79846-1.51,1.18628-.09558.07214-.19067.144-.287.21558q-.7934.58887-1.6156,1.15106l-.02869.019c-.54993.37341-1.11023.73444-1.6759,1.0874-.07214.04492-.14355.09015-.21582.13477-1.18042.72821-2.38867,1.41083-3.60645,2.0415-.03809.01971-.07568.03986-.11377.05945q-.93274.48038-1.86938.92053l-.00049.00031c-7.0177,3.29218-13.97632,4.77649-17.16638,3.35559-.24011-.107-.49-.2442-.73865-.37842-.11987-.0647-.23657-.12006-.35791-.191a15.08934,15.08934,0,0,1-3.15967-2.50287c-.13354.10394-.26855.20581-.40137.31049a11.34279,11.34279,0,0,1,3.29041,6.08014,14.99646,14.99646,0,0,1-1.51941,10.01227q-.35632.68015-.78052,1.33441c-.03369.05225-.0686.10376-.103.1557q-.25928.39212-.54248.77313c-.05493.07416-.10962.14825-.166.2218q-.27081.35284-.563.6944c-.06274.074-.12317.14935-.1875.22266-.25525.291-.51953.5769-.79712.85449a17.32778,17.32778,0,0,1-11.89294,5.41553,10.19792,10.19792,0,0,1-7.20557-2.7511v.00006l-.00012-.00006a87.21207,87.21207,0,0,0-9.88062,67.95776l.00952.0083c.23.18945.465.39844.70288.61871.07751.07178.15637.14941.23474.22437.16907.16168.33948.329.51208.50488q.13147.134.26416.27313c.177.18573.356.37946.53613.57886.07813.08624.15527.16949.23389.25824.25757.291.51733.59155.78076.9079l.03235.03973c.25476.30664.51233.62677.77185.95532.08276.1048.16626.21356.24939.3205q.28638.36813.57568.75128.14081.18686.2821.377.29553.39771.59375.81128c.08081.11176.16089.22131.24194.33466.2793.39093.55957.78876.84155,1.19708l.02832.04181q.40686.58987.81628,1.203c.08875.13269.17761.2677.2666.40179q.2981.44943.5968.9079.14557.22385.29114.44928.30212.46857.60437.946c.08594.13574.17188.27.25781.40668q.42224.67072.84326,1.35437c.03589.05823.07153.11749.1073.17584q.36859.60077.73572,1.20972.15234.25232.30347.50623.27118.45291.54089.90857.16681.28207.33289.5647.26074.44412.51953.89008.15985.2753.31946.55035.36676.63574.72925,1.27277c.1073.18872.21338.37708.31995.56573q.26038.46024.51819.91992c.12952.23138.25745.46167.38586.69257q.193.34717.38416.69305.20947.37939.41638.75665c.11121.20294.22107.4046.33105.60663.14392.264.28784.52777.42957.78992.06848.12659.13525.25146.20325.37756q.49036.91022.96179,1.7995c.0564.10638.11365.21387.16968.31976.16492.31213.32654.61969.48743.92682q.08826.16818.17578.33557.247.47269.48706.93573l.10742.208c.756,1.46161,1.45654,2.84467,2.08948,4.11829a80.87666,80.87666,0,0,0,50.62048-18.8302v-.00494c-.0271-.89062-.02173-1.77246.021-2.64288.00183-.03809.00537-.07568.00732-.11365q.03-.56644.08179-1.12585c.00928-.0993.02148-.19781.03174-.29681.03271-.31177.06982-.622.11353-.93011.01709-.12067.03638-.2406.0553-.36072q.06757-.42947.15051-.85382.03735-.19089.07764-.38068c.05933-.27673.12512-.55115.19507-.82428.03174-.124.06226-.24841.09631-.37164.078-.28265.16455-.56226.25476-.84058.03491-.10761.06665-.21631.10339-.32324.11438-.33295.23938-.66211.37244-.98834.01929-.04749.03564-.09619.05542-.14349q.2373-.56772.51416-1.121c.02979-.05969.0647-.11761.09521-.17706.15405-.29871.31494-.59485.48755-.8866.06873-.11627.14429-.22992.21606-.345.14465-.23181.29211-.46246.44922-.68951.09009-.13007.18555-.25806.27979-.38654.15283-.20837.30981-.41522.47388-.61926.1062-.132.2157-.2627.32666-.39282q.252-.29535.52161-.58368c.119-.12781.23853-.25537.36267-.38116.19019-.19293.38989-.3822.59229-.57037.12671-.11761.25061-.23627.38208-.352.22888-.20154.4707-.398.7146-.59363.119-.0954.23218-.19318.35474-.28717.37109-.28424.75635-.56293,1.16138-.83356l.0072-.00507a13.42383,13.42383,0,0,1,7.53931-2.33612l.00134.00006c.28687.00006.57275.012.85815.03192.2699.01691.53882.045.80737.07739A81.30153,81.30153,0,0,0,195.71987,98.25436Z"/>
          </g>
          <path class="aba8740c-bb61-40b4-b104-f7412f2d5738" d="M148.86147,93.165a123.45588,123.45588,0,0,1,15.33777-7.49921c.53406-3.20044,2.54993-7.11127,7.556-11.5152a47.65523,47.65523,0,0,1,11.67944-7.42249,38.86151,38.86151,0,0,1-18.55518-4.41742c-7.77808,10.81781-27.54224,18.64917-33.62146,15.94141a14.18482,14.18482,0,0,1-4.25623-3.07227c-.13354.10394-.26855.20581-.40137.31049a11.34279,11.34279,0,0,1,3.29041,6.08014A15.78907,15.78907,0,0,1,125.232,95.83933a17.32755,17.32755,0,0,1-11.89294,5.41553,10.19822,10.19822,0,0,1-7.20569-2.7511A86.66027,86.66027,0,0,0,94.17641,131.726l-.00293.02228q-.2027,1.43655-.35645,2.88843-.01355.12634-.02661.25287-.14429,1.38272-.24451,2.77808c-.00574.07886-.01233.15759-.0177.23651q-.21039,3.03058-.21289,6.11536c0,.27368.011.54474.01367.81781.0083.8772.0271,1.75165.06152,2.62238.02.51111.047,1.02039.076,1.52917.04077.71661.0929,1.43005.151,2.14185.03992.48688.07324.97565.12109,1.46021.10168,1.03131.22437,2.05615.36182,3.07654.0752.55688.16235,1.10992.248,1.66339q.13806.89365.2937,1.78119c.09888.56207.19727,1.12433.30664,1.68268q.27539,1.40195.59326,2.78827c.11646.5061.24487,1.00732.37,1.51.116.46448.23889.92609.3623,1.38757a21.34386,21.34386,0,0,1,2.05505,1.992C97.0729,142.30765,116.3705,111.92362,148.86147,93.165Z"/>
        </g>
      </g>
    </g>
  </g>
  <g>
    <path class="ef3e05d1-c1da-44bf-b75e-fcbb733a8635" d="M245.23164,229.66006c-15.18475,27.91394-48.31519,49.377-77.05206,49.9212-14.81311.239-26.29462-5.34918-32.53308-15.83514-6.99512-11.7735-17.69348-16.11389-24.64874-14.322-4.65894,1.19464-7.3269,5.08374-7.51276,10.93732-.17255,5.15009,4.36694,11.99915,12.1319,18.35712,13.96362,11.4151,37.92206,20.587,59.96924,15.37061C215.22761,284.70138,250.661,253.198,260.8586,218.643l-15.63788,8.64563A2.46413,2.46413,0,0,1,245.23164,229.66006Z"/>
    <path class="49b96fc8-75af-4daf-a44f-004d139784ea" d="M264.53114,214.5682a2.46983,2.46983,0,0,0-3.01306,1.76532c-.20172.77185-.43256,1.54047-.65948,2.30945-10.19757,34.555-45.631,66.05841-85.27246,75.44617-22.04718,5.21643-46.00562-3.95551-59.96924-15.37061-7.765-6.358-12.30444-13.207-12.1319-18.35712.18585-5.85358,2.85382-9.74268,7.51276-10.93732,6.95526-1.79187,17.65363,2.54852,24.64874,14.322,6.23846,10.486,17.72,16.0741,32.53308,15.83514,28.73688-.54419,61.86731-22.00726,77.05206-49.9212a2.46413,2.46413,0,0,0-.01093-2.37146,2.43777,2.43777,0,0,0-.97131-.97345,2.4855,2.4855,0,0,0-3.35815.98224c-14.40167,26.48041-45.70032,46.82855-72.80457,47.34619-9.09229.1991-21.42334-2.01758-28.206-13.41937-8.22955-13.85742-21.38342-18.835-30.10406-16.57849-6.87561,1.76538-10.96381,7.44635-11.22931,15.55646-.21234,6.76935,4.87134,14.906,13.95032,22.32581,11.9328,9.76923,30.76776,17.98547,49.96106,17.98547a61.92191,61.92191,0,0,0,14.26892-1.61938c42.19617-9.99481,79.866-44.18713,89.56891-81.31281A2.47592,2.47592,0,0,0,264.53114,214.5682Z"/>
  </g>
  <path class="ef3e05d1-c1da-44bf-b75e-fcbb733a8635" d="M124.04549,67.7777c-21.38344,6.03938-23.57355-3.836-18.63584-4.92446,4.92442-1.10167,18.09163-8.787,24.67524-15.35729Z"/>
  <path class="893a8c42-4f37-41c2-89b0-a0b09ddfc565" d="M128.21333,74.25508c-.23891.17256-.47784.37165-.71675.5575.35837-.13274.71675-.2522,1.07514-.38494C128.45226,74.36129,128.33279,74.32147,128.21333,74.25508Z"/>
  <path class="557161a7-6aa9-4760-922d-7353d38ae892" d="M262.51356,214.92658c38.62561-26.58667,35.22766-110.24884,22.65771-145.76849-12.96814-36.63452-39.5415-58.23041-72.89758-59.2392-34.15234-1.03528-64.09717,13.51233-80.105,38.89111-4.36694,6.942-5.88,13.24683-4.36694,18.25092a10.80616,10.80616,0,0,0,5.48193,6.68982c3.106,1.39368,22.89673-5.48193,28.644-15.9281a2.46987,2.46987,0,0,1,3.45117-.91589c13.499,8.30914,28.68384,4.513,41.83765.3053a2.47215,2.47215,0,0,1,3.106,1.59283,2.42789,2.42789,0,0,1,0,1.44495l-.23584.558,2.12354-.00806A63.62443,63.62443,0,0,1,235.197,64.93714a2.46978,2.46978,0,1,1-1.8186,4.59259c-18.91455-7.4729-44.54541-3.80945-58.33655,8.33569-4.72522,4.1546-6.78259,8.17645-5.78723,11.3222,1.0354,3.22546,5.22974,5.76068,10.44629,6.30487,3.92883.4115,9.90186-.91583,16.22-2.32281,9.756-2.16357,20.81274-4.61914,30.64832-2.575,15.94128,3.30505,26.52026,12.86188,42.528,27.34314l1.95117,1.76538a2.47461,2.47461,0,0,1-1.65918,4.3006,2.49766,2.49766,0,0,1-1.564-.56714,89.894,89.894,0,0,1-1.04761,45.18884,20.57353,20.57353,0,0,1,6.20874,5.14026,2.46915,2.46915,0,0,1-3.90234,3.02631c-4.27417-5.52167-15.11853-8.73389-25.85669-7.65875-7.87109.80969-22.286,4.57935-30.30322,20.94543a2.48237,2.48237,0,0,1-2.21655,1.38043,2.43089,2.43089,0,0,1-1.02258-.22864l-3.17542,39.86334c.01013.00079.02-.00128.03015-.00037C215.19386,231.85016,237.97108,231.82361,262.51356,214.92658Z"/>
  <path class="49b96fc8-75af-4daf-a44f-004d139784ea" d="M253.06291,25.24968a23.74286,23.74286,0,0,0,4.73861,4.99081l.63714.531c17.14921,14.62727,30.051,17.69342,37.869,17.69342h0a28.16334,28.16334,0,0,0,8.03039-1.14149c12.039-3.61037,19.43223-11.0833,22.33911-16.85719a10.2122,10.2122,0,0,0,1.31409-4.2475c-1.64593-.17256-5.90668-.2522-12.70265-.2522-3.62365,0-7.73837.02649-12.11862.03978-4.97752.02657-10.30017.05315-15.60953.05315-9.82231,0-23.90536-.07964-32.626-.78317A11.3303,11.3303,0,0,0,253.06291,25.24968Zm43.24475,28.15291h0c-8.641,0-22.77716-3.27853-41.0679-18.87477l-.59732-.49111c-8.08349-6.74287-6.96853-9.82231-6.59688-10.8311.6902-1.93795,2.62815-2.92016,5.70754-2.92016.47786,0,.9955.02657,1.57954.06635,8.54807.69024,22.48514.76988,32.22781.76988,5.29611,0,10.60547-.02649,15.583-.03978,4.39349-.02657,8.5215-.05315,12.14515-.05315,10.44616,0,13.28668.18585,14.48128.49111,1.91137.4779,3.09268,2.17686,3.14579,4.52627.146,5.98627-7.91093,20.22865-27.17065,26.00258A32.711,32.711,0,0,1,296.30766,53.40259Z"/>
  <path class="49b96fc8-75af-4daf-a44f-004d139784ea" d="M112.13925,72.19772c-5.58809,0-8.37551-1.68571-9.71612-3.03962a5.32194,5.32194,0,0,1-1.4999-5.21644,5.13075,5.13075,0,0,1,3.9422-3.50416c4.26075-.94244,16.99-8.203,23.46736-14.69366a2.46845,2.46845,0,0,1,3.49091,3.49091c-6.796,6.796-20.34812,14.78654-25.88313,16.021a.67177.67177,0,0,0-.30528.13274,4.09008,4.09008,0,0,0,.71675.63714c1.02206.6902,5.28281,2.6945,17.02977-.61056a2.46869,2.46869,0,1,1,1.34061,4.75186A47.58542,47.58542,0,0,1,112.13925,72.19772Z"/>
  <path class="49b96fc8-75af-4daf-a44f-004d139784ea" d="M159.69783,44.74835c-3.92891,2.9467-2.73432,6.58359,1.64589,7.12781,4.39349.5575,4.72533.83623,8.77374-2.1901,4.39349-3.29182,4.93771-8.77374,0-8.22952C165.17975,42.014,161.88794,43.10242,159.69783,44.74835Z"/>
  <path class="49b96fc8-75af-4daf-a44f-004d139784ea" d="M148.17653,46.93845a4.93108,4.93108,0,1,1-4.92444-4.92442A4.92556,4.92556,0,0,1,148.17653,46.93845Z"/>
  <path class="49b96fc8-75af-4daf-a44f-004d139784ea" d="M205.22557,33.227a4.93772,4.93772,0,1,1-4.93771-4.92442A4.93684,4.93684,0,0,1,205.22557,33.227Z"/>
  <path class="49b96fc8-75af-4daf-a44f-004d139784ea" d="M289.817,67.51221C276.14534,28.84681,247.9261,6.06964,212.43306,4.99451,176.502,3.89283,144.95113,19.30323,128.00093,46.18183c-6.53046,10.34-6.27826,17.83948-4.92438,22.31256a15.749,15.749,0,0,0,8.20294,9.76929c6.07922,2.70776,25.84332-5.1236,33.62152-15.94141a38.861,38.861,0,0,0,18.55505,4.41742,47.65754,47.65754,0,0,0-11.67944,7.42249c-8.05695,7.088-8.37549,12.90173-7.2207,16.52539,1.63263,5.13678,7.38,8.95953,14.62726,9.71613,4.72534.50439,10.778-.84949,17.81293-2.41577,9.26483-2.04407,19.7641-4.38019,28.56433-2.56177,13.09009,2.70825,22.19641,9.99139,35.39764,21.82977a85.10347,85.10347,0,0,1,1.28406,49.27386,44.38429,44.38429,0,0,0-19.50592-2.30762,42.0968,42.0968,0,0,0-34.24536,23.67975A2.47509,2.47509,0,0,0,209.619,191.207a2.422,2.422,0,0,0,1.08844.2522,2.48262,2.48262,0,0,0,2.21667-1.38043c8.01715-16.36609,22.43207-20.13574,30.30316-20.94543,10.73816-1.07513,21.58258,2.13708,25.85663,7.65875a2.46915,2.46915,0,1,0,3.90234-3.02631,20.57175,20.57175,0,0,0-6.20868-5.14026,89.893,89.893,0,0,0,1.04755-45.18884,2.498,2.498,0,0,0,1.56409.56714,2.47467,2.47467,0,0,0,1.65918-4.3006l-1.95117-1.76538c-16.00775-14.48126-26.58667-24.03809-42.528-27.34314-9.83557-2.04413-20.89233.41144-30.64825,2.575-6.31818,1.407-12.2912,2.73431-16.22009,2.32281-5.21643-.54419-9.41083-3.07941-10.44617-6.30487-.99548-3.14575,1.06189-7.1676,5.78717-11.3222,13.79108-12.14514,39.422-15.80859,58.33661-8.33569a2.46976,2.46976,0,1,0,1.81848-4.59259,64.46656,64.46656,0,0,0-25.11029-4.12933,2.45483,2.45483,0,0,0-2.87012-3.59576c-13.15387,4.2077-28.33868,8.00385-41.83771-.3053a2.46985,2.46985,0,0,0-3.45111.91589c-5.74738,10.44617-25.538,17.32178-28.644,15.9281a10.80579,10.80579,0,0,1-5.48193-6.68982c-1.51312-5.00409,0-11.3089,4.36694-18.25092,16.00775-25.37878,45.95251-39.92639,80.105-38.89111,33.356,1.00879,59.92938,22.60468,72.89752,59.2392,12.56989,35.51965,15.9679,119.18182-22.65771,145.76849-24.54248,16.897-47.31964,16.92358-55.97388,16.16693a2.46535,2.46535,0,1,0-.438,4.91119c1.60608.146,3.67676.2655,6.14557.2655,11.5744,0,31.73669-2.58832,53.06708-17.26874,23.22845-15.99445,30.55536-48.60718,32.626-73.13641C300.52858,114.92475,295.73689,84.22339,289.817,67.51221Z"/>
  <path class="49b96fc8-75af-4daf-a44f-004d139784ea" d="M82.76521,166.26628a11.14592,11.14592,0,0,0-8.81354,4.06166c-2.48212,3.05291-3.31835,7.36676-2.33611,12.1319,2.52194,12.15844,24.11776,35.71872,38.74505,39.23616a13.35783,13.35783,0,0,0,3.01307.39819c2.283,0,3.13252-.8893,3.57053-1.56625,1.79192-2.721.76986-8.66753-.63712-11.893-4.04839-9.26485-16.897-33.52862-23.37445-38.53267A16.87813,16.87813,0,0,0,82.76521,166.26628Zm30.60847,60.76561h0a17.96737,17.96737,0,0,1-4.15458-.54421C92.52117,222.47913,69.67764,197.419,66.784,183.45535c-1.28752-6.23851-.09292-12.01245,3.3449-16.24667a16.2056,16.2056,0,0,1,12.63626-5.88011,21.727,21.727,0,0,1,13.18049,4.87135c8.12331,6.25176,21.90111,33.64807,24.88762,40.444,1.23442,2.82724,3.69,11.32221.2522,16.59175C119.944,224.96125,117.68754,227.0319,113.37368,227.0319Z"/>
  <path class="557161a7-6aa9-4760-922d-7353d38ae892" d="M82.76521,166.26628a11.14592,11.14592,0,0,0-8.81354,4.06166c-2.48212,3.05291-3.31835,7.36676-2.33611,12.1319,2.52194,12.15844,24.11776,35.71872,38.74505,39.23616a13.35783,13.35783,0,0,0,3.01307.39819c2.283,0,3.13252-.8893,3.57053-1.56625,1.79192-2.721.76986-8.66753-.63712-11.893-4.04839-9.26485-16.897-33.52862-23.37445-38.53267A16.87813,16.87813,0,0,0,82.76521,166.26628Z"/>
  <path class="49b96fc8-75af-4daf-a44f-004d139784ea" d="M184.612,167.44764a6.82925,6.82925,0,0,0-3.8891,1.2477c-7.77819,5.17662-6.21194,14.56092-2.92012,28.27232.80966,3.3847,1.64589,6.8889,2.15028,10.16743a74.56441,74.56441,0,0,1,.34508,13.61852c-.23891,7.15434-.47782,14.53435,2.60162,17.72,1.34059,1.39373,3.45105,2.07065,6.411,2.07065,15.052,0,18.03854-15.79534,18.158-16.47225.02657-.13274.05311-.27877.09292-.42476,2.93341-9.29138,3.80946-16.80413-.01329-29.89172C205.10611,184.95525,193.47865,167.44764,184.612,167.44764Zm4.69879,79.6802c-4.77843,0-8.53478-1.36716-11.14965-4.07494-5.01734-5.1899-4.72533-14.00342-4.4466-22.51167a71.67268,71.67268,0,0,0-.26548-12.41063c-.46454-2.9998-1.23442-6.22523-2.04407-9.6365-3.05291-12.72918-6.504-27.15736,5.66773-35.28067a13.42382,13.42382,0,0,1,7.53928-2.33613c14.29548,0,26.89192,22.51167,29.26787,31.073,4.22093,14.49457,3.22543,23.28155.02653,33.47551C212.51269,233.07132,205.66362,247.12784,189.31078,247.12784Z"/>
  <path class="557161a7-6aa9-4760-922d-7353d38ae892" d="M184.612,167.44764a6.82925,6.82925,0,0,0-3.8891,1.2477c-7.77819,5.17662-6.21194,14.56092-2.92012,28.27232.80966,3.3847,1.64589,6.8889,2.15028,10.16743a74.56441,74.56441,0,0,1,.34508,13.61852c-.23891,7.15434-.47782,14.53435,2.60162,17.72,1.34059,1.39373,3.45105,2.07065,6.411,2.07065,15.052,0,18.03854-15.79534,18.158-16.47225.02657-.13274.05311-.27877.09292-.42476,2.93341-9.29138,3.80946-16.80413-.01329-29.89172C205.10611,184.95525,193.47865,167.44764,184.612,167.44764Z"/>
  <path class="49b96fc8-75af-4daf-a44f-004d139784ea" d="M113.3604,101.26645h0c-5.37573,0-9.35775-3.41127-10.37979-8.89315-.677-3.58383.5973-7.526,3.58381-11.10987,3.86256-4.65894,9.96831-8.04368,14.50781-8.04368a7.5679,7.5679,0,0,1,2.80069.5044,10.44248,10.44248,0,0,1,6.0394,7.85787,15.78917,15.78917,0,0,1-4.659,14.2689A17.32766,17.32766,0,0,1,113.3604,101.26645Z"/>
  <path class="361d61e2-28bc-4529-b594-da48a0fba4e5" d="M264.96566,150.77929a30.61994,30.61994,0,0,0-18.62391-12.26736l-.2061,1.31114c.13.0209,12.04976,2.04594,18.63047,13.118C264.84244,152.17136,264.90887,151.43842,264.96566,150.77929Z"/>
  <path class="361d61e2-28bc-4529-b594-da48a0fba4e5" d="M264.96566,150.77929a30.61994,30.61994,0,0,0-18.62391-12.26736l-.2061,1.31114c.13.0209,12.04976,2.04594,18.63047,13.118C264.84244,152.17136,264.90887,151.43842,264.96566,150.77929Z"/>
  <path class="8afc3037-bd7e-4645-8330-b00bcda5e601" d="M121.84259,180.77793c-.8687,2.53734-17.45288-5.6543-20.61878-25.23455-3.2519-19.56667,9.85008-32.62409,11.48278-30.49692,1.94124,1.51857-5.266,14.10184-2.46592,29.0188C112.34988,169.09539,123.19769,178.7194,121.84259,180.77793Z"/>
  <path class="49b96fc8-75af-4daf-a44f-004d139784ea" d="M149.62422,204.17639l-2.5625-.50781c-3.585,18.09521,8.61426,27.12207,9.13477,27.49707l1.52734-2.11914C157.60957,228.964,146.3625,220.6427,149.62422,204.17639Z"/>
  <path class="49b96fc8-75af-4daf-a44f-004d139784ea" d="M156.28047,216.38929a2.89185,2.89185,0,1,1,2.8916-2.8916A2.8945,2.8945,0,0,1,156.28047,216.38929Zm0-5.01611a2.12427,2.12427,0,1,0,2.124,2.12451A2.12691,2.12691,0,0,0,156.28047,211.37317Z"/>
  <path class="49b96fc8-75af-4daf-a44f-004d139784ea" d="M250.53828,150.27991a2.8972,2.8972,0,1,1,1.33789-.33154A2.89525,2.89525,0,0,1,250.53828,150.27991Zm-.00781-5.0166a2.1228,2.1228,0,1,0,1.88574,1.1377h0A2.12648,2.12648,0,0,0,250.53047,145.26331Z"/>
  <path class="49b96fc8-75af-4daf-a44f-004d139784ea" d="M254.12617,137.60852a2.90633,2.90633,0,0,1-.86621-.13281,2.89193,2.89193,0,1,1,3.42383-4.10254h0a2.89424,2.89424,0,0,1-2.55762,4.23535Zm-.00781-5.0166a2.12339,2.12339,0,1,0,1.88574,1.1377A2.11142,2.11142,0,0,0,254.11836,132.59192Z"/>
  <path class="49b96fc8-75af-4daf-a44f-004d139784ea" d="M141.88692,216.38929a2.89185,2.89185,0,1,1,2.8916-2.8916A2.8945,2.8945,0,0,1,141.88692,216.38929Zm0-5.01611a2.12427,2.12427,0,1,0,2.124,2.12451A2.12691,2.12691,0,0,0,141.88692,211.37317Z"/>
  <path class="49b96fc8-75af-4daf-a44f-004d139784ea" d="M334.43672,222.92151c-.46191-7.7085-13.957-19.67139-40.11035-35.55518a3.91753,3.91753,0,0,0-5.38281,1.314l-2.71289,4.46436a3.91881,3.91881,0,0,0,1.31445,5.38428c14.30859,8.69141,24.624,16.53125,29.94434,21.33252-10.64551-2.52148-40.916-14.79932-124.09082-68.85059C131.72578,110.93372,72.44746,68.35266,61.4084,59.48938c-.76758-.63379-1.19043-.98682-1.24023-1.02832a3.91876,3.91876,0,0,0-5.084,5.96436c.27539.23975.63574.53857,1.0752.89355,8.60938,7.123,70.2666,57.749,130.12109,96.645,74.07813,48.13867,118.56836,71.53906,136.01367,71.53906h.002c4.99512-.00293,7.48145-1.75928,9.23145-3.5166A8.67071,8.67071,0,0,0,334.43672,222.92151Z"/>
  <polygon class="49b96fc8-75af-4daf-a44f-004d139784ea" points="78.995 28.864 59.042 31.315 45.71 16.268 41.876 36.003 23.446 44.031 41.03 53.777 42.971 73.786 57.673 60.074 77.302 64.412 68.804 46.192 78.995 28.864"/>
  <g>
    <path class="49b96fc8-75af-4daf-a44f-004d139784ea" d="M320.975,194.66565l-6.85156-11.584-13.42773-.92432,8.90137-10.0957L306.32659,159.006l12.35156,5.3457,11.40625-7.14551-1.2666,13.3999,10.31836,8.63965-13.13379,2.936Z"/>
    <polygon class="984bcd91-c200-48a3-8d9e-e32fe01c9a75" points="325.436 164.742 324.723 172.288 330.534 177.153 323.137 178.807 320.306 185.837 316.448 179.313 308.887 178.793 313.899 173.108 312.057 165.756 319.013 168.766 325.436 164.742"/>
  </g>
  <g>
    <path class="49b96fc8-75af-4daf-a44f-004d139784ea" d="M118.392,223.27747l-6.72656-11.65723-13.417-1.06738,9.00781-10L104.12542,187.463l12.29443,5.47656,11.48193-7.02246-1.41016,13.38525,10.22754,8.74951-13.166,2.79541Z"/>
    <polygon class="fe1fdeb4-d136-4e0e-8d03-8c781328a600" points="109.784 194.273 116.707 197.358 123.173 193.403 122.379 200.94 128.138 205.868 120.724 207.442 117.818 214.442 114.03 207.877 106.474 207.276 111.547 201.645 109.784 194.273"/>
  </g>
  <polygon class="10a77e38-2dc0-40e3-9fe3-8a5884f0f091" points="48.82 27.657 56.953 36.836 69.125 35.34 62.908 45.911 68.092 57.025 56.117 54.38 47.149 62.744 45.965 50.538 35.239 44.594 46.481 39.696 48.82 27.657"/>
  <path class="4199a4a6-ad59-4758-ad67-9f27a16733c1" d="M322.29412,229.58451c-11.13864,0-41.51224-10.88352-133.878-70.90617C123.66985,116.60355,57.65693,61.469,57.65693,61.469c7.012,6.1,69.04505,50.874,133.60633,92.82756,114.31652,74.28782,131.43141,71.66261,133.94182,69.07822l.09184-.0944c-.53576-3.81663-16.66332-16.52683-35.71714-28.10046l2.712-4.46464c8.83489,5.36522,37.702,23.56183,38.23264,32.44009a4.70984,4.70984,0,0,1-1.68126,3.97226C327.82773,228.166,326.30975,229.582,322.29412,229.58451Z"/>
  <path class="49b96fc8-75af-4daf-a44f-004d139784ea" d="M253.06291,25.24968a23.74286,23.74286,0,0,0,4.73861,4.99081l.63714.531c17.14921,14.62727,30.051,17.69342,37.869,17.69342h0a28.16334,28.16334,0,0,0,8.03039-1.14149c12.039-3.61037,19.43223-11.0833,22.33911-16.85719a10.2122,10.2122,0,0,0,1.31409-4.2475c-1.64593-.17256-5.90668-.2522-12.70265-.2522-3.62365,0-7.73837.02649-12.11862.03978-4.97752.02657-10.30017.05315-15.60953.05315-9.82231,0-23.90536-.07964-32.626-.78317A11.3303,11.3303,0,0,0,253.06291,25.24968Zm43.24475,28.15291h0c-8.641,0-22.77716-3.27853-41.0679-18.87477l-.59732-.49111c-8.08349-6.74287-6.96853-9.82231-6.59688-10.8311.6902-1.93795,2.62815-2.92016,5.70754-2.92016.47786,0,.9955.02657,1.57954.06635,8.54807.69024,22.48514.76988,32.22781.76988,5.29611,0,10.60547-.02649,15.583-.03978,4.39349-.02657,8.5215-.05315,12.14515-.05315,10.44616,0,13.28668.18585,14.48128.49111,1.91137.4779,3.09268,2.17686,3.14579,4.52627.146,5.98627-7.91093,20.22865-27.17065,26.00258A32.711,32.711,0,0,1,296.30766,53.40259Z"/>
  <path class="ef3e05d1-c1da-44bf-b75e-fcbb733a8635" d="M253.06291,25.24968a23.74286,23.74286,0,0,0,4.73861,4.99081l.63714.531c17.14921,14.62727,30.051,17.69342,37.869,17.69342h0a28.16334,28.16334,0,0,0,8.03039-1.14149c12.039-3.61037,19.43223-11.0833,22.33911-16.85719a10.2122,10.2122,0,0,0,1.31409-4.2475c-1.64593-.17256-5.90668-.2522-12.70265-.2522-3.62365,0-7.73837.02649-12.11862.03978-4.97752.02657-10.30017.05315-15.60953.05315-9.82231,0-23.90536-.07964-32.626-.78317A11.3303,11.3303,0,0,0,253.06291,25.24968Z"/>
  <path class="557161a7-6aa9-4760-922d-7353d38ae892" d="M121.07224,78.15746c-2.65468,0-7.51273,2.38924-10.72489,6.2518-1.16807,1.42022-3.05289,4.20764-2.522,7.04817.75659,4.03508,3.42454,4.87131,5.535,4.87131A12.51347,12.51347,0,0,0,121.76246,92.36a10.92592,10.92592,0,0,0,3.31835-9.78249,5.60577,5.60577,0,0,0-3.0396-4.274A2.86448,2.86448,0,0,0,121.07224,78.15746Z"/>
</svg>
